<?xml version="1.0" encoding="UTF-8" standalone="no"?>
<!-- Created with Inkscape (http://www.inkscape.org/) -->

<svg
   width="200mm"
   height="200mm"
   viewBox="0 0 200 200"
   version="1.1"
   id="svg349"
   sodipodi:docname="10395.svg"
   inkscape:version="1.1.2 (0a00cf5339, 2022-02-04)"
   xmlns:inkscape="http://www.inkscape.org/namespaces/inkscape"
   xmlns:sodipodi="http://sodipodi.sourceforge.net/DTD/sodipodi-0.dtd"
   xmlns:xlink="http://www.w3.org/1999/xlink"
   xmlns="http://www.w3.org/2000/svg"
   xmlns:svg="http://www.w3.org/2000/svg">
  <sodipodi:namedview
     id="namedview351"
     pagecolor="#505050"
     bordercolor="#ffffff"
     borderopacity="1"
     inkscape:pageshadow="0"
     inkscape:pageopacity="0"
     inkscape:pagecheckerboard="1"
     inkscape:document-units="mm"
     showgrid="false"
     width="200mm"
     inkscape:zoom="0.37059484"
     inkscape:cx="31.031193"
     inkscape:cy="160.55269"
     inkscape:window-width="1553"
     inkscape:window-height="749"
     inkscape:window-x="248"
     inkscape:window-y="135"
     inkscape:window-maximized="0"
     inkscape:current-layer="layer1" />
  <defs
     id="defs346">
    <linearGradient
       inkscape:collect="always"
       id="linearGradient853">
      <stop
         style="stop-color:#005d9c;stop-opacity:1;"
         offset="0"
         id="stop849" />
      <stop
         style="stop-color:#002255;stop-opacity:1"
         offset="1"
         id="stop851" />
    </linearGradient>
    <radialGradient
       inkscape:collect="always"
       xlink:href="#linearGradient853"
       id="radialGradient855"
       cx="99.999992"
       cy="100"
       fx="99.999992"
       fy="100"
       r="97.66301"
       gradientUnits="userSpaceOnUse"
       gradientTransform="translate(0)" />
    <clipPath
       clipPathUnits="userSpaceOnUse"
       id="clipPath1235">
      <path
         id="path1237"
         style="display:none;fill:#ffffff;fill-opacity:1;stroke:#000000;stroke-width:0.0158507;stroke-miterlimit:4;stroke-dasharray:none;stroke-opacity:1"
         d="m 55.884585,59.420792 c -0.0372,-0.0016 -0.07451,-0.0011 -0.111617,0.0026 -0.483251,0.02672 -0.859044,0.52851 -0.758092,1.000974 -0.88841,0.390496 -1.774272,0.786249 -2.665992,1.168918 -0.258281,-0.20493 -0.700204,0.01836 -0.654738,0.354502 0.02474,0.328796 0.495459,0.482196 0.703318,0.220142 0.11389,-0.08554 0.05055,-0.287155 0.212905,-0.308507 0.849921,-0.375092 1.699821,-0.750361 2.549713,-1.125511 0.149934,0.186124 0.367633,0.304062 0.60203,0.343127 0.05312,1.096754 0.105355,2.193476 0.158131,3.29024 -0.487852,0.13132 -0.785508,0.732689 -0.549836,1.189593 0.225264,0.518065 0.996315,0.665998 1.393198,0.26303 0.165452,-0.139509 0.344435,0.04908 0.512112,0.08527 1.253159,0.492024 2.505633,0.984742 3.758943,1.476396 -0.186042,0.137377 -0.394798,0.229891 -0.621665,0.273884 -0.358362,0.108317 -0.718767,0.210616 -1.077973,0.316259 -0.212244,-0.457843 -0.846228,-0.635371 -1.260388,-0.345197 -0.451813,0.274241 -0.491315,0.996283 -0.0677,1.314649 0.30629,0.25967 0.784066,0.250306 1.09709,0.0062 0.443589,0.374517 0.898562,0.73501 1.331185,1.122413 -0.288822,0.532384 -0.07019,1.267203 0.471807,1.542542 0.53472,0.318267 1.348097,0.100364 1.626772,-0.479555 0.140465,-0.255193 0.154832,-0.560083 0.09354,-0.840261 0.408633,-0.255641 0.814308,-0.515035 1.229381,-0.760161 0.16696,0.177038 0.395941,0.284398 0.639236,0.296627 0.240202,1.197229 0.479875,2.394646 0.719336,3.592028 -0.373491,0.180819 -0.473091,0.744736 -0.157612,1.024226 0.328792,0.350303 1.003017,0.167476 1.096055,-0.30851 0.08133,-0.342902 -0.168807,-0.710229 -0.512112,-0.774112 -0.174752,-0.108501 -0.109228,-0.343818 -0.177247,-0.510561 -0.207282,-1.035873 -0.415552,-2.071304 -0.622189,-3.107304 0.433766,-0.201218 0.584793,-0.831215 0.256315,-1.189077 -0.332724,-0.428506 -1.095478,-0.349943 -1.321882,0.148312 -0.08212,0.151945 -0.09179,0.329049 -0.07493,0.497641 -0.409305,0.25725 -0.817451,0.516335 -1.234035,0.761715 -0.383151,-0.561319 -1.259676,-0.67364 -1.765263,-0.216011 -0.108937,0.06195 -0.214294,-0.150064 -0.321945,-0.198951 -0.355666,-0.296185 -0.71098,-0.592603 -1.066604,-0.888836 0.102187,-0.132969 0.02835,-0.398778 0.241845,-0.427879 0.488783,-0.142671 0.977278,-0.285755 1.466064,-0.4284 0.286533,0.352179 0.923518,0.277871 1.09864,-0.147796 0.19952,-0.40032 -0.159975,-0.922126 -0.605134,-0.884698 -0.170098,-0.0016 -0.325948,0.07918 -0.456303,0.182417 -1.341641,-0.526272 -2.68338,-1.05259 -4.025077,-1.578713 0.08893,-0.449027 -0.223639,-0.923918 -0.672825,-1.014926 -0.09062,-0.08126 -0.02817,-0.280668 -0.05788,-0.40876 -0.04699,-0.976601 -0.09432,-1.953446 -0.141078,-2.930054 0.48148,-0.172363 0.701352,-0.827292 0.387574,-1.240753 -0.148807,-0.215578 -0.40464,-0.3483 -0.665077,-0.359148 z m -7.298777,2.580203 c -0.03065,-2.64e-4 -0.06168,0.0016 -0.09302,0.0057 -0.482277,0.02326 -0.828881,0.606054 -0.590142,1.034563 0.114713,0.231481 0.357081,0.38 0.610814,0.406175 0.404744,1.164405 0.807014,2.329601 1.209228,3.494879 -0.214551,0.193349 -0.192389,0.5604 0.04238,0.727604 -0.347853,1.381223 -0.696613,2.761784 -1.044898,4.142899 0.852197,0.557979 1.70425,1.116316 2.556431,1.674317 -0.07833,0.206526 -0.109143,0.425381 -0.109551,0.645438 -0.532902,0.112054 -1.063249,0.236344 -1.598869,0.334865 -0.177604,-0.439751 -0.786802,-0.617117 -1.163754,-0.32453 -0.414837,0.269533 -0.397732,0.962064 0.03411,1.20768 0.146931,0.09929 0.326001,0.125801 0.499708,0.126605 0.391078,1.041456 0.781013,2.083711 1.171504,3.125391 -0.355113,0.230264 -0.385744,0.807985 -0.03721,1.057302 0.368025,0.31547 1.032066,0.07588 1.083138,-0.416513 -0.03082,-0.172868 0.08179,-0.224097 0.235644,-0.24598 0.501245,-0.146556 1.002463,-0.293481 1.503785,-0.439767 0.219112,0.406241 0.825064,0.517356 1.163236,0.198954 0.38074,-0.305491 0.287234,-0.978734 -0.156581,-1.17719 -0.418391,-0.225549 -1.009986,0.05067 -1.074351,0.530201 -0.06748,0.198824 -0.31338,0.155305 -0.469738,0.232027 -0.445609,0.131312 -0.891673,0.259897 -1.337903,0.389125 -0.1573,-0.170434 -0.386077,-0.252492 -0.615469,-0.241848 -0.388474,-1.03615 -0.776213,-2.072544 -1.164269,-3.108854 0.202707,-0.135033 0.344773,-0.349221 0.376721,-0.592211 0.539978,-0.107329 1.08004,-0.214329 1.620057,-0.321427 0.234535,0.740262 1.116447,1.178674 1.848467,0.923975 0.686316,-0.19604 1.150625,-0.965361 0.980818,-1.663464 -0.05429,-0.259302 -0.222012,-0.551606 -0.440282,-0.740008 -0.525169,-0.500586 -1.41681,-0.506299 -1.956473,-0.02635 -0.08895,0.04216 -0.150333,0.229915 -0.243395,0.179318 -0.743051,-0.499007 -1.486165,-0.997706 -2.229321,-1.496547 0.32884,-1.305575 0.658281,-2.611217 0.988055,-3.916561 0.350869,0.543164 0.701712,1.086427 1.052131,1.629876 -0.423315,0.389178 -0.418174,1.137253 0.02946,1.504821 0.305223,0.280754 0.772631,0.335885 1.1498,0.177762 1.355055,1.534729 2.710447,3.069479 4.065902,4.603856 -0.71106,0.736651 -0.826161,1.977144 -0.231508,2.816881 0.08681,0.138425 -0.01797,0.285518 -0.144698,0.34675 -0.577492,0.51765 -1.151821,1.038498 -1.733227,1.551326 -0.2603,-0.06261 -0.529511,0.198186 -0.452168,0.460436 -0.696044,1.196166 -1.391348,2.392357 -2.086694,3.58893 -0.08933,-0.467132 -0.177954,-0.934312 -0.267168,-1.401466 0.367146,-0.202015 0.428267,-0.779097 0.08785,-1.03456 -0.343847,-0.313153 -0.981641,-0.107337 -1.059365,0.3576 -0.07171,0.344665 0.188288,0.70353 0.533818,0.757579 0.08627,0.442565 0.168698,0.885825 0.251145,1.329113 -0.369689,0.179647 -0.469847,0.738544 -0.150378,1.011825 0.323773,0.334459 0.980522,0.154104 1.064537,-0.311605 0.04524,-0.179541 -0.0062,-0.369435 -0.109556,-0.519348 0.700032,-1.204347 1.400353,-2.408211 2.100131,-3.612703 0.270959,0.55037 0.549065,1.096851 0.807701,1.65313 -0.360466,0.274838 -0.366459,0.888904 0.01188,1.149284 0.401598,0.334666 1.106048,0.08646 1.190106,-0.435634 0.093,-0.440047 -0.294666,-0.891202 -0.744656,-0.865063 -0.146516,0.0094 -0.143325,-0.212752 -0.223758,-0.305406 -0.223153,-0.460084 -0.467839,-0.918128 -0.671278,-1.389063 -0.05049,-0.26476 0.249746,-0.381571 0.393775,-0.546222 0.512183,-0.459647 1.024003,-0.919249 1.53634,-1.378725 0.611772,0.568534 1.520216,0.780727 2.321306,0.546219 0.104904,0.03456 0.112315,0.252452 0.1788,0.359154 0.333923,0.865015 0.668139,1.730144 1.002006,2.595186 -0.450551,-0.306398 -0.90125,-0.61328 -1.351338,-0.920355 0.209997,-0.404059 0.02188,-0.947645 -0.394809,-1.131197 -0.49989,-0.256344 -1.190244,0.12261 -1.208196,0.692981 -0.02913,0.345598 0.193387,0.678793 0.505397,0.818038 -0.03736,1.035913 -0.07618,2.072743 -0.112655,3.108338 0.08373,0.09402 0.190532,0.193519 0.330211,0.140042 0.110482,-0.03899 0.21001,-0.142245 0.173117,-0.264068 0.04501,-0.980127 0.06891,-1.962745 0.115239,-2.943487 0.170611,0.0013 0.328684,-0.20884 0.494025,-0.0708 0.414827,0.28803 0.842325,0.557665 1.244886,0.862996 -0.186159,0.407538 0.106386,0.937157 0.553971,0.982885 0.48065,0.100113 0.962962,-0.41248 0.801502,-0.885735 -0.08908,-0.31256 -0.407588,-0.523166 -0.72812,-0.513662 -0.387432,-1.002623 -0.774827,-2.005237 -1.161687,-3.008085 0.533823,-0.288798 0.95319,-0.779936 1.139465,-1.359088 0.598352,0.08368 1.196848,0.167765 1.79524,0.251145 0.07968,0.553993 0.724003,0.923177 1.241266,0.712618 0.488286,-0.156157 0.755537,-0.786257 0.504881,-1.238683 -0.03555,-0.220928 0.219818,-0.306806 0.331245,-0.455269 0.238842,-0.225248 0.477189,-0.450895 0.716235,-0.675928 0.234728,0.18869 0.488487,0.346908 0.710552,0.558106 -0.20972,0.473361 0.130058,1.080276 0.645954,1.139466 0.253634,0.04837 0.510709,-0.04257 0.713136,-0.193787 0.492464,0.374629 0.992773,0.736984 1.476912,1.122411 -0.187944,0.404227 0.103064,0.931703 0.54777,0.977201 0.476062,0.09794 0.950947,-0.40863 0.792718,-0.877464 -0.117353,-0.415205 -0.644096,-0.631264 -1.020612,-0.421164 -0.199554,0.05726 -0.306123,-0.166399 -0.462502,-0.243914 -0.375441,-0.281855 -0.75116,-0.562097 -1.120862,-0.851628 0.205864,-0.46597 -0.119206,-1.063241 -0.624769,-1.134816 -0.273738,-0.06009 -0.555119,0.04249 -0.76636,0.216527 -0.206947,-0.155302 -0.413285,-0.310671 -0.620117,-0.466122 0.857467,-0.803465 1.71527,-1.606941 2.572451,-2.410706 0.200168,-0.01942 0.319611,0.161978 0.371554,0.330214 0.310219,0.577297 0.604044,1.164415 0.907439,1.74563 -0.307697,0.303792 -0.196776,0.889101 0.210323,1.044898 0.414631,0.205547 0.975749,-0.147203 0.937926,-0.618567 -0.015,-0.357782 -0.357285,-0.652676 -0.713134,-0.624252 -0.366048,-0.641673 -0.68286,-1.309984 -1.029912,-1.962155 0.319525,-0.248026 0.29354,-0.804088 -0.06666,-1.000454 -0.378446,-0.259876 -0.977355,0.04862 -0.957564,0.515729 -0.03082,0.105413 0.09614,0.231177 0.02273,0.309544 -0.861155,0.807397 -1.722313,1.614535 -2.58382,2.421557 -0.520965,-0.391952 -1.044684,-0.779315 -1.557528,-1.181841 0.252571,-0.443982 0.0204,-1.071653 -0.466122,-1.232998 -0.530765,-0.2265 -1.211763,0.199527 -1.207162,0.785481 -0.0062,0.133975 0.03281,0.263668 0.07183,0.390155 -0.59109,0.324713 -1.182254,0.649835 -1.773018,0.975135 -0.409067,-0.515051 -1.041236,-0.833226 -1.694987,-0.877983 -0.493448,-0.0426 -1.049012,0.09117 -1.484146,0.386025 -0.127106,0.155707 -0.204798,-0.0434 -0.298175,-0.130741 -1.284057,-1.454015 -2.567929,-2.90797 -3.85196,-4.362009 0.356915,-0.382516 0.353666,-1.033502 -0.0181,-1.404048 -0.303802,-0.318344 -0.80291,-0.404717 -1.204576,-0.234095 -0.358513,-0.556012 -0.72171,-1.108671 -1.071251,-1.670183 0.140208,-0.287118 -0.0874,-0.643165 -0.399975,-0.661974 -0.418137,-1.204735 -0.834994,-2.410039 -1.253154,-3.614767 1.198358,0.662374 2.395683,1.32624 3.594094,1.988508 -0.200932,0.636447 0.191752,1.380702 0.831475,1.570964 0.234979,0.08364 0.49105,0.08338 0.733806,0.03669 0.714314,1.321808 1.429461,2.643229 2.144572,3.964614 -0.124032,0.115393 -0.313412,0.285393 -0.480073,0.140044 -0.229722,-0.158157 -0.480426,-0.288293 -0.718304,-0.435634 0.12892,-0.259987 -0.01958,-0.601125 -0.303859,-0.670758 -0.349969,-0.11166 -0.715967,0.297767 -0.545703,0.628901 0.09409,0.216704 0.360903,0.320376 0.581877,0.250113 0.320419,0.189572 0.640758,0.37941 0.961181,0.568958 -0.478882,0.65795 -0.405095,1.650285 0.180867,2.21847 0.646192,0.688226 1.844183,0.718542 2.526464,0.06563 0.588034,-0.525066 0.743728,-1.464887 0.334346,-2.143022 -0.386977,-0.667909 -1.227865,-1.029679 -1.978173,-0.841293 -0.117475,0.07138 -0.23227,0.03127 -0.268203,-0.124539 -0.682154,-1.260557 -1.364091,-2.521207 -2.046388,-3.781682 0.518221,-0.31922 0.751178,-1.028851 0.492477,-1.584917 -0.290867,-0.69432 -1.23562,-0.980417 -1.868104,-0.578776 -0.137599,0.07631 -0.247417,0.190095 -0.357601,0.300241 -1.115149,-0.61695 -2.230292,-1.234252 -3.345531,-1.851049 0.133567,-0.454848 -0.235241,-0.9275 -0.695048,-0.932244 z M 63.26088,75.103551 c 0.02318,0.01749 0.04656,0.03471 0.06976,0.0522 0.495303,0.372983 0.991005,0.745678 1.486215,1.118791 -0.351763,0.332131 -0.703974,0.664202 -1.055748,0.996325 -0.438026,-0.323535 -1.142871,-0.177575 -1.381829,0.321424 -0.04845,0.160885 -0.245473,0.02434 -0.367419,0.03824 -0.476605,-0.06665 -0.953267,-0.133461 -1.429888,-0.199988 0.03234,-0.447569 -0.0546,-0.899538 -0.257865,-1.300178 0.603927,-0.332542 1.208024,-0.663977 1.811776,-0.996839 0.330174,0.241485 0.806898,0.224544 1.124996,-0.02997 z m -6.748425,19.098577 c -0.19521,-0.0016 -0.452692,0.0019 -0.795817,0.0067 -1.183161,0.01675 -1.384731,0.0342 -1.462442,0.12609 -0.130926,0.154787 -0.361664,1.817582 -0.373102,2.689241 -0.0093,0.707673 -0.0082,0.712941 0.128672,0.761196 0.223327,0.07867 2.796297,0.03557 2.867007,-0.04806 0.09744,-0.115237 0.21205,-0.720355 0.358121,-1.890324 0.135964,-1.089207 0.136311,-1.08948 -0.0047,-1.373555 -0.105725,-0.213058 -0.132157,-0.266186 -0.717786,-0.271304 z m 20.190499,0.978752 c -0.216447,0 -0.514866,0.0024 -0.843359,0.0072 -1.194525,0.01754 -1.194406,0.01757 -1.264007,0.278019 -0.06219,0.232672 -0.872649,3.474053 -0.940509,3.761528 -0.04725,0.200179 -0.258884,0.30648 -1.185458,0.596344 -0.495509,0.155015 -0.967798,0.313549 -1.049549,0.351909 -0.160065,0.0751 -0.160359,0.0762 -0.261996,1.01958 -0.03086,0.28648 -0.07237,0.63052 -0.09199,0.76481 -0.03864,0.26435 -0.07877,0.25829 1.687753,0.2744 0.502095,0.005 0.505182,0.0154 0.332796,1.20716 -0.100304,0.69337 -0.284139,2.05322 -0.558623,4.13412 -0.0614,0.46552 -0.161742,1.2115 -0.223242,1.65726 -0.154205,1.11759 -0.124706,3.08435 0.0553,3.67316 0.122748,0.40153 0.419618,1.01999 0.525031,1.09399 0.03407,0.0239 0.173617,0.1634 0.31006,0.31006 0.242879,0.26106 0.508016,0.39249 1.052131,0.5209 0.133612,0.0316 0.878687,0.0551 1.655199,0.0543 1.41182,-0.003 1.411584,-0.002 1.501714,-0.49816 0.120209,-0.66103 0.208447,-1.50564 0.171567,-1.64279 -0.01939,-0.0721 -0.129998,-0.13377 -0.317294,-0.17777 -0.158041,-0.0371 -0.436118,-0.12632 -0.618051,-0.19792 -0.181927,-0.0716 -0.472567,-0.17948 -0.645956,-0.23978 -0.364342,-0.12675 -0.738658,-0.47358 -0.849559,-0.78703 -0.116829,-0.33023 -0.09103,-0.90173 0.115237,-2.5616 0.183401,-1.4759 0.2359,-1.88084 0.472842,-3.64578 0.208754,-1.55504 0.398264,-2.76741 0.441833,-2.82411 0.0241,-0.0314 0.744861,-0.0754 1.601452,-0.0977 1.557435,-0.0406 1.557247,-0.0408 1.627806,-0.39894 0.08839,-0.44864 0.240814,-1.77062 0.240814,-2.088761 0,-0.215278 -0.01672,-0.24289 -0.172083,-0.279566 -0.09476,-0.02236 -0.777698,-0.04082 -1.517737,-0.04082 -1.205685,0 -1.349185,-0.01117 -1.380794,-0.108524 -0.01942,-0.05976 0.0075,-0.418463 0.05994,-0.797365 0.07818,-0.564912 0.418613,-3.249401 0.419613,-3.310911 9.3e-5,-0.0048 -0.134437,-0.0072 -0.350882,-0.0072 z m -12.260233,4.018357 c -0.299974,-0.0042 -0.585745,0.0046 -0.840256,0.02791 -1.189979,0.109 -1.855483,0.277103 -2.52181,0.637172 -0.531304,0.286131 -1.01546,0.713021 -1.479497,1.242301 -0.586306,0.73926 -1.225177,2.15202 -1.570966,3.4742 -0.179237,0.68532 -0.431125,2.26925 -0.521412,3.27939 -0.217977,2.43853 -0.04709,4.27199 0.507458,5.44773 0.307316,0.6208 0.866907,1.21776 1.451078,1.44539 1.296059,0.58086 2.4067,0.33382 3.780131,-0.0527 0.448088,-0.14859 1.638025,-0.84132 1.846395,-1.07487 0.233003,-0.26114 0.2902,-0.21001 0.461989,0.41186 0.08655,0.31333 0.179893,0.64005 0.207222,0.72605 0.04968,0.15621 0.04956,0.15618 1.126545,0.11938 0.592339,-0.0203 1.087422,-0.049 1.100193,-0.0641 0.03026,-0.0358 0.323165,-2.14631 0.431499,-3.10886 0.04634,-0.4118 0.148698,-1.24693 0.227377,-1.8557 0.07869,-0.60877 0.189397,-1.48785 0.245978,-1.95337 0.190632,-1.56836 0.549667,-4.48571 0.660945,-5.37124 0.06075,-0.48344 0.110421,-1.03578 0.110585,-1.22732 2.17e-4,-0.30304 -0.02122,-0.37174 -0.164848,-0.5302 -0.365358,-0.40307 -1.361729,-0.901549 -2.460316,-1.230412 -0.673052,-0.201467 -1.698371,-0.330142 -2.59829,-0.342617 z m -19.271689,0.09664 c -1.160677,2.64e-4 -2.212917,0.04495 -2.46652,0.122473 -0.422931,0.12928 -1.13098,0.60458 -1.434018,0.96221 -0.623496,0.73579 -0.962017,1.90846 -1.183391,4.10259 -0.143645,1.4237 -0.02665,2.30878 0.409792,3.10627 0.23305,0.3524 0.261392,0.42094 0.675931,0.66095 0.79053,0.45764 0.858541,0.46733 3.420459,0.48317 2.493637,0.0154 2.448129,0.009 2.667537,0.40411 0.196824,0.35477 0.03844,1.7643 -0.282149,2.51147 -0.247872,0.57775 -0.02635,0.54488 -3.912425,0.58188 -3.418073,0.0326 -3.417967,0.0326 -3.537252,0.87902 -0.212164,1.5055 -0.207232,1.39247 -0.06304,1.45727 0.408096,0.18323 2.183514,0.40074 4.317048,0.52865 0.454819,0.0265 1.484193,0.0431 2.287717,0.0341 1.350926,-0.014 1.488168,-0.0258 1.819526,-0.16071 0.907286,-0.36937 1.458532,-0.93174 1.823146,-1.85932 0.361543,-0.91977 0.57009,-2.3747 0.57309,-4.00441 0.0021,-1.1394 0.0019,-1.1395 -0.195852,-1.62781 -0.271571,-0.67051 -0.575691,-1.11047 -1.196827,-1.38854 -0.497216,-0.2226 -0.479869,-0.27024 -2.933155,-0.30334 -2.453285,-0.0331 -2.453129,-0.0331 -2.682523,-0.20929 -0.154133,-0.11841 -0.241607,-0.23992 -0.265618,-0.36949 -0.04089,-0.21986 0.166627,-1.84271 0.264068,-2.18023 0.0847,-0.2934 0.288356,-0.54043 0.440801,-0.65577 0.211256,-0.15986 0.70476,-0.18464 3.826121,-0.19224 2.523021,-0.006 3.060377,-0.0228 3.099035,-0.0966 0.02572,-0.0492 0.0755,-0.35353 0.110588,-0.67645 0.03508,-0.32291 0.09176,-0.7114 0.126093,-0.86299 0.07716,-0.34074 -0.007,-0.629089 -0.216009,-0.741558 -0.247891,-0.13339 -2.151576,-0.386088 -3.434416,-0.455785 -0.625684,-0.034 -1.36135,-0.0498 -2.057754,-0.04961 z m 9.397357,0.234611 c -0.478343,0.0031 -0.864928,0.01738 -0.886767,0.04599 -0.02347,0.03071 -0.08472,0.392792 -0.135911,0.804602 -0.05121,0.41181 -0.240504,1.84764 -0.420645,3.1905 -0.180134,1.34287 -0.378934,2.83678 -0.441833,3.32021 -0.06291,0.48343 -0.160375,1.216 -0.216522,1.62781 -0.05616,0.41182 -0.155144,1.15902 -0.220144,1.66036 -0.065,0.50133 -0.180327,1.35112 -0.256315,1.88826 -0.07598,0.53715 -0.185714,1.33766 -0.243914,1.77922 -0.05819,0.44156 -0.120248,0.8301 -0.137459,0.863 -0.01752,0.0328 -0.01611,0.0892 0.0026,0.12505 l 5.29e-4,-5.3e-4 c 0.02127,0.0406 0.560694,0.0651 1.435571,0.0651 1.401516,0 1.401487,2.2e-4 1.429885,-0.14624 0.0538,-0.27742 0.296312,-1.90598 0.409794,-2.75074 0.06254,-0.46552 0.226648,-1.69624 0.364837,-2.73472 0.138195,-1.03847 0.310743,-2.32779 0.382921,-2.86494 0.07218,-0.53715 0.185039,-1.38641 0.251148,-1.88774 0.06612,-0.50134 0.202967,-1.51227 0.303858,-2.24637 0.258199,-1.87867 0.330131,-2.595952 0.2682,-2.669091 -0.04092,-0.0483 -1.092565,-0.07489 -1.889805,-0.06976 z m 9.842812,2.472712 c 0.457991,0.005 0.935768,0.0592 1.348235,0.16175 0.344942,0.0858 0.670658,0.17699 0.723987,0.20257 0.205872,0.0988 0.19753,0.22699 -0.209291,3.35277 -0.0769,0.59086 -0.212973,1.64523 -0.302823,2.34352 -0.265827,2.066 -0.317466,2.43598 -0.355018,2.54713 -0.441153,0.69507 -2.078186,1.2634 -2.85047,1.48725 -0.607544,0.0773 -0.800444,0.0765 -1.144117,-0.003 -0.784336,-0.18174 -1.157716,-0.76664 -1.331698,-2.08514 -0.109196,-0.82743 0.257704,-3.85696 0.618046,-5.10356 0.12846,-0.44439 0.498091,-1.36377 0.641305,-1.59526 0.334687,-0.54098 0.944144,-0.97934 1.631942,-1.17409 0.333684,-0.0945 0.771906,-0.13881 1.229902,-0.13384 z" />
      <path
         id="lpe_path-effect1239"
         style="fill:#ffffff;fill-opacity:1;stroke:#000000;stroke-width:0.0158507;stroke-miterlimit:4;stroke-dasharray:none;stroke-opacity:1"
         class="powerclip"
         d="M 21.396353,12.449221 H 212.34147 V 170.0308 H 21.396353 Z m 34.488232,46.971571 c -0.0372,-0.0016 -0.07451,-0.0011 -0.111617,0.0026 -0.483251,0.02672 -0.859044,0.52851 -0.758092,1.000974 -0.88841,0.390496 -1.774272,0.786249 -2.665992,1.168918 -0.258281,-0.20493 -0.700204,0.01836 -0.654738,0.354502 0.02474,0.328796 0.495459,0.482196 0.703318,0.220142 0.11389,-0.08554 0.05055,-0.287155 0.212905,-0.308507 0.849921,-0.375092 1.699821,-0.750361 2.549713,-1.125511 0.149934,0.186124 0.367633,0.304062 0.60203,0.343127 0.05312,1.096754 0.105355,2.193476 0.158131,3.29024 -0.487852,0.13132 -0.785508,0.732689 -0.549836,1.189593 0.225264,0.518065 0.996315,0.665998 1.393198,0.26303 0.165452,-0.139509 0.344435,0.04908 0.512112,0.08527 1.253159,0.492024 2.505633,0.984742 3.758943,1.476396 -0.186042,0.137377 -0.394798,0.229891 -0.621665,0.273884 -0.358362,0.108317 -0.718767,0.210616 -1.077973,0.316259 -0.212244,-0.457843 -0.846228,-0.635371 -1.260388,-0.345197 -0.451813,0.274241 -0.491315,0.996283 -0.0677,1.314649 0.30629,0.25967 0.784066,0.250306 1.09709,0.0062 0.443589,0.374517 0.898562,0.73501 1.331185,1.122413 -0.288822,0.532384 -0.07019,1.267203 0.471807,1.542542 0.53472,0.318267 1.348097,0.100364 1.626772,-0.479555 0.140465,-0.255193 0.154832,-0.560083 0.09354,-0.840261 0.408633,-0.255641 0.814308,-0.515035 1.229381,-0.760161 0.16696,0.177038 0.395941,0.284398 0.639236,0.296627 0.240202,1.197229 0.479875,2.394646 0.719336,3.592028 -0.373491,0.180819 -0.473091,0.744736 -0.157612,1.024226 0.328792,0.350303 1.003017,0.167476 1.096055,-0.30851 0.08133,-0.342902 -0.168807,-0.710229 -0.512112,-0.774112 -0.174752,-0.108501 -0.109228,-0.343818 -0.177247,-0.510561 -0.207282,-1.035873 -0.415552,-2.071304 -0.622189,-3.107304 0.433766,-0.201218 0.584793,-0.831215 0.256315,-1.189077 -0.332724,-0.428506 -1.095478,-0.349943 -1.321882,0.148312 -0.08212,0.151945 -0.09179,0.329049 -0.07493,0.497641 -0.409305,0.25725 -0.817451,0.516335 -1.234035,0.761715 -0.383151,-0.561319 -1.259676,-0.67364 -1.765263,-0.216011 -0.108937,0.06195 -0.214294,-0.150064 -0.321945,-0.198951 -0.355666,-0.296185 -0.71098,-0.592603 -1.066604,-0.888836 0.102187,-0.132969 0.02835,-0.398778 0.241845,-0.427879 0.488783,-0.142671 0.977278,-0.285755 1.466064,-0.4284 0.286533,0.352179 0.923518,0.277871 1.09864,-0.147796 0.19952,-0.40032 -0.159975,-0.922126 -0.605134,-0.884698 -0.170098,-0.0016 -0.325948,0.07918 -0.456303,0.182417 -1.341641,-0.526272 -2.68338,-1.05259 -4.025077,-1.578713 0.08893,-0.449027 -0.223639,-0.923918 -0.672825,-1.014926 -0.09062,-0.08126 -0.02817,-0.280668 -0.05788,-0.40876 -0.04699,-0.976601 -0.09432,-1.953446 -0.141078,-2.930054 0.48148,-0.172363 0.701352,-0.827292 0.387574,-1.240753 -0.148807,-0.215578 -0.40464,-0.3483 -0.665077,-0.359148 z m -7.298777,2.580203 c -0.03065,-2.64e-4 -0.06168,0.0016 -0.09302,0.0057 -0.482277,0.02326 -0.828881,0.606054 -0.590142,1.034563 0.114713,0.231481 0.357081,0.38 0.610814,0.406175 0.404744,1.164405 0.807014,2.329601 1.209228,3.494879 -0.214551,0.193349 -0.192389,0.5604 0.04238,0.727604 -0.347853,1.381223 -0.696613,2.761784 -1.044898,4.142899 0.852197,0.557979 1.70425,1.116316 2.556431,1.674317 -0.07833,0.206526 -0.109143,0.425381 -0.109551,0.645438 -0.532902,0.112054 -1.063249,0.236344 -1.598869,0.334865 -0.177604,-0.439751 -0.786802,-0.617117 -1.163754,-0.32453 -0.414837,0.269533 -0.397732,0.962064 0.03411,1.20768 0.146931,0.09929 0.326001,0.125801 0.499708,0.126605 0.391078,1.041456 0.781013,2.083711 1.171504,3.125391 -0.355113,0.230264 -0.385744,0.807985 -0.03721,1.057302 0.368025,0.31547 1.032066,0.07588 1.083138,-0.416513 -0.03082,-0.172868 0.08179,-0.224097 0.235644,-0.24598 0.501245,-0.146556 1.002463,-0.293481 1.503785,-0.439767 0.219112,0.406241 0.825064,0.517356 1.163236,0.198954 0.38074,-0.305491 0.287234,-0.978734 -0.156581,-1.17719 -0.418391,-0.225549 -1.009986,0.05067 -1.074351,0.530201 -0.06748,0.198824 -0.31338,0.155305 -0.469738,0.232027 -0.445609,0.131312 -0.891673,0.259897 -1.337903,0.389125 -0.1573,-0.170434 -0.386077,-0.252492 -0.615469,-0.241848 -0.388474,-1.03615 -0.776213,-2.072544 -1.164269,-3.108854 0.202707,-0.135033 0.344773,-0.349221 0.376721,-0.592211 0.539978,-0.107329 1.08004,-0.214329 1.620057,-0.321427 0.234535,0.740262 1.116447,1.178674 1.848467,0.923975 0.686316,-0.19604 1.150625,-0.965361 0.980818,-1.663464 -0.05429,-0.259302 -0.222012,-0.551606 -0.440282,-0.740008 -0.525169,-0.500586 -1.41681,-0.506299 -1.956473,-0.02635 -0.08895,0.04216 -0.150333,0.229915 -0.243395,0.179318 -0.743051,-0.499007 -1.486165,-0.997706 -2.229321,-1.496547 0.32884,-1.305575 0.658281,-2.611217 0.988055,-3.916561 0.350869,0.543164 0.701712,1.086427 1.052131,1.629876 -0.423315,0.389178 -0.418174,1.137253 0.02946,1.504821 0.305223,0.280754 0.772631,0.335885 1.1498,0.177762 1.355055,1.534729 2.710447,3.069479 4.065902,4.603856 -0.71106,0.736651 -0.826161,1.977144 -0.231508,2.816881 0.08681,0.138425 -0.01797,0.285518 -0.144698,0.34675 -0.577492,0.51765 -1.151821,1.038498 -1.733227,1.551326 -0.2603,-0.06261 -0.529511,0.198186 -0.452168,0.460436 -0.696044,1.196166 -1.391348,2.392357 -2.086694,3.58893 -0.08933,-0.467132 -0.177954,-0.934312 -0.267168,-1.401466 0.367146,-0.202015 0.428267,-0.779097 0.08785,-1.03456 -0.343847,-0.313153 -0.981641,-0.107337 -1.059365,0.3576 -0.07171,0.344665 0.188288,0.70353 0.533818,0.757579 0.08627,0.442565 0.168698,0.885825 0.251145,1.329113 -0.369689,0.179647 -0.469847,0.738544 -0.150378,1.011825 0.323773,0.334459 0.980522,0.154104 1.064537,-0.311605 0.04524,-0.179541 -0.0062,-0.369435 -0.109556,-0.519348 0.700032,-1.204347 1.400353,-2.408211 2.100131,-3.612703 0.270959,0.55037 0.549065,1.096851 0.807701,1.65313 -0.360466,0.274838 -0.366459,0.888904 0.01188,1.149284 0.401598,0.334666 1.106048,0.08646 1.190106,-0.435634 0.093,-0.440047 -0.294666,-0.891202 -0.744656,-0.865063 -0.146516,0.0094 -0.143325,-0.212752 -0.223758,-0.305406 -0.223153,-0.460084 -0.467839,-0.918128 -0.671278,-1.389063 -0.05049,-0.26476 0.249746,-0.381571 0.393775,-0.546222 0.512183,-0.459647 1.024003,-0.919249 1.53634,-1.378725 0.611772,0.568534 1.520216,0.780727 2.321306,0.546219 0.104904,0.03456 0.112315,0.252452 0.1788,0.359154 0.333923,0.865015 0.668139,1.730144 1.002006,2.595186 -0.450551,-0.306398 -0.90125,-0.61328 -1.351338,-0.920355 0.209997,-0.404059 0.02188,-0.947645 -0.394809,-1.131197 -0.49989,-0.256344 -1.190244,0.12261 -1.208196,0.692981 -0.02913,0.345598 0.193387,0.678793 0.505397,0.818038 -0.03736,1.035913 -0.07618,2.072743 -0.112655,3.108338 0.08373,0.09402 0.190532,0.193519 0.330211,0.140042 0.110482,-0.03899 0.21001,-0.142245 0.173117,-0.264068 0.04501,-0.980127 0.06891,-1.962745 0.115239,-2.943487 0.170611,0.0013 0.328684,-0.20884 0.494025,-0.0708 0.414827,0.28803 0.842325,0.557665 1.244886,0.862996 -0.186159,0.407538 0.106386,0.937157 0.553971,0.982885 0.48065,0.100113 0.962962,-0.41248 0.801502,-0.885735 -0.08908,-0.31256 -0.407588,-0.523166 -0.72812,-0.513662 -0.387432,-1.002623 -0.774827,-2.005237 -1.161687,-3.008085 0.533823,-0.288798 0.95319,-0.779936 1.139465,-1.359088 0.598352,0.08368 1.196848,0.167765 1.79524,0.251145 0.07968,0.553993 0.724003,0.923177 1.241266,0.712618 0.488286,-0.156157 0.755537,-0.786257 0.504881,-1.238683 -0.03555,-0.220928 0.219818,-0.306806 0.331245,-0.455269 0.238842,-0.225248 0.477189,-0.450895 0.716235,-0.675928 0.234728,0.18869 0.488487,0.346908 0.710552,0.558106 -0.20972,0.473361 0.130058,1.080276 0.645954,1.139466 0.253634,0.04837 0.510709,-0.04257 0.713136,-0.193787 0.492464,0.374629 0.992773,0.736984 1.476912,1.122411 -0.187944,0.404227 0.103064,0.931703 0.54777,0.977201 0.476062,0.09794 0.950947,-0.40863 0.792718,-0.877464 -0.117353,-0.415205 -0.644096,-0.631264 -1.020612,-0.421164 -0.199554,0.05726 -0.306123,-0.166399 -0.462502,-0.243914 -0.375441,-0.281855 -0.75116,-0.562097 -1.120862,-0.851628 0.205864,-0.46597 -0.119206,-1.063241 -0.624769,-1.134816 -0.273738,-0.06009 -0.555119,0.04249 -0.76636,0.216527 -0.206947,-0.155302 -0.413285,-0.310671 -0.620117,-0.466122 0.857467,-0.803465 1.71527,-1.606941 2.572451,-2.410706 0.200168,-0.01942 0.319611,0.161978 0.371554,0.330214 0.310219,0.577297 0.604044,1.164415 0.907439,1.74563 -0.307697,0.303792 -0.196776,0.889101 0.210323,1.044898 0.414631,0.205547 0.975749,-0.147203 0.937926,-0.618567 -0.015,-0.357782 -0.357285,-0.652676 -0.713134,-0.624252 -0.366048,-0.641673 -0.68286,-1.309984 -1.029912,-1.962155 0.319525,-0.248026 0.29354,-0.804088 -0.06666,-1.000454 -0.378446,-0.259876 -0.977355,0.04862 -0.957564,0.515729 -0.03082,0.105413 0.09614,0.231177 0.02273,0.309544 -0.861155,0.807397 -1.722313,1.614535 -2.58382,2.421557 -0.520965,-0.391952 -1.044684,-0.779315 -1.557528,-1.181841 0.252571,-0.443982 0.0204,-1.071653 -0.466122,-1.232998 -0.530765,-0.2265 -1.211763,0.199527 -1.207162,0.785481 -0.0062,0.133975 0.03281,0.263668 0.07183,0.390155 -0.59109,0.324713 -1.182254,0.649835 -1.773018,0.975135 -0.409067,-0.515051 -1.041236,-0.833226 -1.694987,-0.877983 -0.493448,-0.0426 -1.049012,0.09117 -1.484146,0.386025 -0.127106,0.155707 -0.204798,-0.0434 -0.298175,-0.130741 -1.284057,-1.454015 -2.567929,-2.90797 -3.85196,-4.362009 0.356915,-0.382516 0.353666,-1.033502 -0.0181,-1.404048 -0.303802,-0.318344 -0.80291,-0.404717 -1.204576,-0.234095 -0.358513,-0.556012 -0.72171,-1.108671 -1.071251,-1.670183 0.140208,-0.287118 -0.0874,-0.643165 -0.399975,-0.661974 -0.418137,-1.204735 -0.834994,-2.410039 -1.253154,-3.614767 1.198358,0.662374 2.395683,1.32624 3.594094,1.988508 -0.200932,0.636447 0.191752,1.380702 0.831475,1.570964 0.234979,0.08364 0.49105,0.08338 0.733806,0.03669 0.714314,1.321808 1.429461,2.643229 2.144572,3.964614 -0.124032,0.115393 -0.313412,0.285393 -0.480073,0.140044 -0.229722,-0.158157 -0.480426,-0.288293 -0.718304,-0.435634 0.12892,-0.259987 -0.01958,-0.601125 -0.303859,-0.670758 -0.349969,-0.11166 -0.715967,0.297767 -0.545703,0.628901 0.09409,0.216704 0.360903,0.320376 0.581877,0.250113 0.320419,0.189572 0.640758,0.37941 0.961181,0.568958 -0.478882,0.65795 -0.405095,1.650285 0.180867,2.21847 0.646192,0.688226 1.844183,0.718542 2.526464,0.06563 0.588034,-0.525066 0.743728,-1.464887 0.334346,-2.143022 -0.386977,-0.667909 -1.227865,-1.029679 -1.978173,-0.841293 -0.117475,0.07138 -0.23227,0.03127 -0.268203,-0.124539 -0.682154,-1.260557 -1.364091,-2.521207 -2.046388,-3.781682 0.518221,-0.31922 0.751178,-1.028851 0.492477,-1.584917 -0.290867,-0.69432 -1.23562,-0.980417 -1.868104,-0.578776 -0.137599,0.07631 -0.247417,0.190095 -0.357601,0.300241 -1.115149,-0.61695 -2.230292,-1.234252 -3.345531,-1.851049 0.133567,-0.454848 -0.235241,-0.9275 -0.695048,-0.932244 z m 14.675072,13.102556 -2e-6,5e-6 c -0.318098,0.254514 -0.794822,0.271455 -1.124996,0.02997 -0.603752,0.332862 -1.207849,0.664297 -1.811776,0.996839 0.203265,0.40064 0.290205,0.852609 0.257865,1.300178 0.476621,0.06653 0.953283,0.133338 1.429888,0.199988 0.121946,-0.0139 0.318969,0.122645 0.367419,-0.03824 0.238958,-0.498999 0.943803,-0.644959 1.381829,-0.321424 0.351774,-0.332123 0.703985,-0.664194 1.055748,-0.996325 -0.49521,-0.373113 -0.990912,-0.745808 -1.486215,-1.118791 -0.0232,-0.01749 -0.04658,-0.03471 -0.06976,-0.0522 z m -6.748425,19.098577 c -0.19521,-0.0016 -0.452692,0.0019 -0.795817,0.0067 -1.183161,0.01675 -1.384731,0.0342 -1.462442,0.12609 -0.130926,0.154787 -0.361664,1.817582 -0.373102,2.689241 -0.0093,0.707673 -0.0082,0.712941 0.128672,0.761196 0.223327,0.07867 2.796297,0.03557 2.867007,-0.04806 0.09744,-0.115237 0.21205,-0.720355 0.358121,-1.890324 0.135964,-1.089207 0.136311,-1.08948 -0.0047,-1.373555 -0.105725,-0.213058 -0.132157,-0.266186 -0.717786,-0.271304 z m 20.190499,0.978752 c -0.216447,0 -0.514866,0.0024 -0.843359,0.0072 -1.194525,0.01754 -1.194406,0.01757 -1.264007,0.278019 -0.06219,0.232672 -0.872649,3.474053 -0.940509,3.761528 -0.04725,0.200179 -0.258884,0.30648 -1.185458,0.596344 -0.495509,0.155015 -0.967798,0.313549 -1.049549,0.351909 -0.160065,0.0751 -0.160359,0.0762 -0.261996,1.01958 -0.03086,0.28648 -0.07237,0.63052 -0.09199,0.76481 -0.03864,0.26435 -0.07877,0.25829 1.687753,0.2744 0.502095,0.005 0.505182,0.0154 0.332796,1.20716 -0.100304,0.69337 -0.284139,2.05322 -0.558623,4.13412 -0.0614,0.46552 -0.161742,1.2115 -0.223242,1.65726 -0.154205,1.11759 -0.124706,3.08435 0.0553,3.67316 0.122748,0.40153 0.419618,1.01999 0.525031,1.09399 0.03407,0.0239 0.173617,0.1634 0.31006,0.31006 0.242879,0.26106 0.508016,0.39249 1.052131,0.5209 0.133612,0.0316 0.878687,0.0551 1.655199,0.0543 1.41182,-0.003 1.411584,-0.002 1.501714,-0.49816 0.120209,-0.66103 0.208447,-1.50564 0.171567,-1.64279 -0.01939,-0.0721 -0.129998,-0.13377 -0.317294,-0.17777 -0.158041,-0.0371 -0.436118,-0.12632 -0.618051,-0.19792 -0.181927,-0.0716 -0.472567,-0.17948 -0.645956,-0.23978 -0.364342,-0.12675 -0.738658,-0.47358 -0.849559,-0.78703 -0.116829,-0.33023 -0.09103,-0.90173 0.115237,-2.5616 0.183401,-1.4759 0.2359,-1.88084 0.472842,-3.64578 0.208754,-1.55504 0.398264,-2.76741 0.441833,-2.82411 0.0241,-0.0314 0.744861,-0.0754 1.601452,-0.0977 1.557435,-0.0406 1.557247,-0.0408 1.627806,-0.39894 0.08839,-0.44864 0.240814,-1.77062 0.240814,-2.088761 0,-0.215278 -0.01672,-0.24289 -0.172083,-0.279566 -0.09476,-0.02236 -0.777698,-0.04082 -1.517737,-0.04082 -1.205685,0 -1.349185,-0.01117 -1.380794,-0.108524 -0.01942,-0.05976 0.0075,-0.418463 0.05994,-0.797365 0.07818,-0.564912 0.418613,-3.249401 0.419613,-3.310911 9.3e-5,-0.0048 -0.134437,-0.0072 -0.350882,-0.0072 z m -12.260233,4.018357 c -0.299974,-0.0042 -0.585745,0.0046 -0.840256,0.02791 -1.189979,0.109 -1.855483,0.277103 -2.52181,0.637172 -0.531304,0.286131 -1.01546,0.713021 -1.479497,1.242301 -0.586306,0.73926 -1.225177,2.15202 -1.570966,3.4742 -0.179237,0.68532 -0.431125,2.26925 -0.521412,3.27939 -0.217977,2.43853 -0.04709,4.27199 0.507458,5.44773 0.307316,0.6208 0.866907,1.21776 1.451078,1.44539 1.296059,0.58086 2.4067,0.33382 3.780131,-0.0527 0.448088,-0.14859 1.638025,-0.84132 1.846395,-1.07487 0.233003,-0.26114 0.2902,-0.21001 0.461989,0.41186 0.08655,0.31333 0.179893,0.64005 0.207222,0.72605 0.04968,0.15621 0.04956,0.15618 1.126545,0.11938 0.592339,-0.0203 1.087422,-0.049 1.100193,-0.0641 0.03026,-0.0358 0.323165,-2.14631 0.431499,-3.10886 0.04634,-0.4118 0.148698,-1.24693 0.227377,-1.8557 0.07869,-0.60877 0.189397,-1.48785 0.245978,-1.95337 0.190632,-1.56836 0.549667,-4.48571 0.660945,-5.37124 0.06075,-0.48344 0.110421,-1.03578 0.110585,-1.22732 2.17e-4,-0.30304 -0.02122,-0.37174 -0.164848,-0.5302 -0.365358,-0.40307 -1.361729,-0.901549 -2.460316,-1.230412 -0.673052,-0.201467 -1.698371,-0.330142 -2.59829,-0.342617 z m -19.271689,0.09664 c -1.160677,2.64e-4 -2.212917,0.04495 -2.46652,0.122473 -0.422931,0.12928 -1.13098,0.60458 -1.434018,0.96221 -0.623496,0.73579 -0.962017,1.90846 -1.183391,4.10259 -0.143645,1.4237 -0.02665,2.30878 0.409792,3.10627 0.23305,0.3524 0.261392,0.42094 0.675931,0.66095 0.79053,0.45764 0.858541,0.46733 3.420459,0.48317 2.493637,0.0154 2.448129,0.009 2.667537,0.40411 0.196824,0.35477 0.03844,1.7643 -0.282149,2.51147 -0.247872,0.57775 -0.02635,0.54488 -3.912425,0.58188 -3.418073,0.0326 -3.417967,0.0326 -3.537252,0.87902 -0.212164,1.5055 -0.207232,1.39247 -0.06304,1.45727 0.408096,0.18323 2.183514,0.40074 4.317048,0.52865 0.454819,0.0265 1.484193,0.0431 2.287717,0.0341 1.350926,-0.014 1.488168,-0.0258 1.819526,-0.16071 0.907286,-0.36937 1.458532,-0.93174 1.823146,-1.85932 0.361543,-0.91977 0.57009,-2.3747 0.57309,-4.00441 0.0021,-1.1394 0.0019,-1.1395 -0.195852,-1.62781 -0.271571,-0.67051 -0.575691,-1.11047 -1.196827,-1.38854 -0.497216,-0.2226 -0.479869,-0.27024 -2.933155,-0.30334 -2.453285,-0.0331 -2.453129,-0.0331 -2.682523,-0.20929 -0.154133,-0.11841 -0.241607,-0.23992 -0.265618,-0.36949 -0.04089,-0.21986 0.166627,-1.84271 0.264068,-2.18023 0.0847,-0.2934 0.288356,-0.54043 0.440801,-0.65577 0.211256,-0.15986 0.70476,-0.18464 3.826121,-0.19224 2.523021,-0.006 3.060377,-0.0228 3.099035,-0.0966 0.02572,-0.0492 0.0755,-0.35353 0.110588,-0.67645 0.03508,-0.32291 0.09176,-0.7114 0.126093,-0.86299 0.07716,-0.34074 -0.007,-0.629089 -0.216009,-0.741558 -0.247891,-0.13339 -2.151576,-0.386088 -3.434416,-0.455785 -0.625684,-0.034 -1.36135,-0.0498 -2.057754,-0.04961 z m 9.397357,0.234611 c -0.478343,0.0031 -0.864928,0.01738 -0.886767,0.04599 -0.02347,0.03071 -0.08472,0.392792 -0.135911,0.804602 -0.05121,0.41181 -0.240504,1.84764 -0.420645,3.1905 -0.180134,1.34287 -0.378934,2.83678 -0.441833,3.32021 -0.06291,0.48343 -0.160375,1.216 -0.216522,1.62781 -0.05616,0.41182 -0.155144,1.15902 -0.220144,1.66036 -0.065,0.50133 -0.180327,1.35112 -0.256315,1.88826 -0.07598,0.53715 -0.185714,1.33766 -0.243914,1.77922 -0.05819,0.44156 -0.120248,0.8301 -0.137459,0.863 -0.01752,0.0328 -0.01611,0.0892 0.0026,0.12505 l 5.29e-4,-5.3e-4 c 0.02127,0.0406 0.560694,0.0651 1.435571,0.0651 1.401516,0 1.401487,2.2e-4 1.429885,-0.14624 0.0538,-0.27742 0.296312,-1.90598 0.409794,-2.75074 0.06254,-0.46552 0.226648,-1.69624 0.364837,-2.73472 0.138195,-1.03847 0.310743,-2.32779 0.382921,-2.86494 0.07218,-0.53715 0.185039,-1.38641 0.251148,-1.88774 0.06612,-0.50134 0.202967,-1.51227 0.303858,-2.24637 0.258199,-1.87867 0.330131,-2.595952 0.2682,-2.669091 -0.04092,-0.0483 -1.092565,-0.07489 -1.889805,-0.06976 z m 9.842812,2.472712 v 10e-5 c -0.457996,-0.005 -0.896218,0.0393 -1.229902,0.13384 -0.687798,0.19475 -1.297255,0.63311 -1.631942,1.17409 -0.143214,0.23149 -0.512845,1.15087 -0.641305,1.59526 -0.360342,1.2466 -0.727242,4.27613 -0.618046,5.10356 0.173982,1.3185 0.547362,1.9034 1.331698,2.08514 0.343673,0.0795 0.536573,0.0803 1.144117,0.003 0.772284,-0.22385 2.409317,-0.79218 2.85047,-1.48725 0.03755,-0.11115 0.08919,-0.48113 0.355018,-2.54713 0.08985,-0.69829 0.225923,-1.75266 0.302823,-2.34352 0.406821,-3.12578 0.415163,-3.25397 0.209291,-3.35277 -0.05333,-0.0256 -0.379045,-0.11677 -0.723987,-0.20257 -0.412467,-0.10255 -0.890244,-0.15675 -1.348235,-0.16175 z" />
    </clipPath>
    <inkscape:path-effect
       effect="powerclip"
       id="path-effect1239"
       is_visible="true"
       lpeversion="1"
       inverse="true"
       flatten="false"
       hide_clip="false"
       message="Utilice la regla de relleno parimpar en el diálogo &lt;b&gt;Relleno y borde&lt;/b&gt; si el resultado no está aplanada después de convertir el recorte en trayectos." />
    <clipPath
       clipPathUnits="userSpaceOnUse"
       id="clipPath3219">
      <path
         id="path3221"
         style="display:none;fill:#ffffff;stroke-width:0.0218262"
         d="m 409.96515,52.552865 a 5.8849064,5.8849064 0 0 0 -5.88491,5.884912 5.8849064,5.8849064 0 0 0 5.88491,5.884913 5.8849064,5.8849064 0 0 0 5.88492,-5.884913 5.8849064,5.8849064 0 0 0 -5.88492,-5.884912 z m -6.08591,13.594519 0.1235,9.766329 c 0.11438,9.06259 0.52457,10.374805 1.27847,12.03234 2.56146,4.576662 6.20361,6.889522 10.79159,7.025928 V 80.559423 66.147384 h -6.09627 z m 14.68747,0 v 14.412039 14.412558 h 6.09676 6.0968 l -0.12351,-9.766329 c -0.11438,-9.06259 -0.52459,-10.374791 -1.27847,-12.03234 -2.56146,-4.576635 -6.2036,-6.889509 -10.79158,-7.025928 z" />
      <path
         id="lpe_path-effect3223"
         style="fill:#ffffff;stroke-width:0.0218262"
         class="powerclip"
         d="M 340.65117,35.318366 H 449.73189 V 144.08119 H 340.65117 Z m 69.31398,17.234499 a 5.8849064,5.8849064 0 0 0 -5.88491,5.884912 5.8849064,5.8849064 0 0 0 5.88491,5.884913 5.8849064,5.8849064 0 0 0 5.88492,-5.884913 5.8849064,5.8849064 0 0 0 -5.88492,-5.884912 z m -6.08591,13.594519 0.1235,9.766329 c 0.11438,9.06259 0.52457,10.374805 1.27847,12.03234 2.56146,4.576662 6.20361,6.889522 10.79159,7.025928 V 80.559423 66.147384 h -6.09627 z m 14.68747,0 v 14.412039 14.412558 h 6.09676 6.0968 l -0.12351,-9.766329 c -0.11438,-9.06259 -0.52459,-10.374791 -1.27847,-12.03234 -2.56146,-4.576635 -6.2036,-6.889509 -10.79158,-7.025928 z" />
    </clipPath>
    <inkscape:path-effect
       effect="powerclip"
       id="path-effect3223"
       is_visible="true"
       lpeversion="1"
       inverse="true"
       flatten="false"
       hide_clip="false"
       message="Utilice la regla de relleno parimpar en el diálogo &lt;b&gt;Relleno y borde&lt;/b&gt; si el resultado no está aplanada después de convertir el recorte en trayectos." />
  </defs>
  <g
     inkscape:label="Capa 1"
     inkscape:groupmode="layer"
     id="layer1">
    <ellipse
       style="fill:url(#radialGradient855);fill-opacity:1;stroke:none;stroke-width:4.67397;stroke-miterlimit:4;stroke-dasharray:none;stroke-opacity:1"
       id="path66737"
       cx="99.999992"
       cy="100"
       rx="97.66301"
       ry="97.663017" />
    <g
       id="g17761"
       style="display:none">
      <path
         d="m 86.62187,156.22808 c -0.333774,-0.0961 -0.749426,-0.54969 -0.923671,-1.00799 -0.174241,-0.45828 -0.316808,-4.50749 -0.316808,-8.99823 0,-6.39918 0.108958,-8.4738 0.503821,-9.59296 0.277104,-0.78538 0.503819,-1.75026 0.503819,-2.14415 0,-1.24608 1.69067,-3.99316 3.848286,-6.25286 1.868651,-1.95705 2.126799,-2.39971 2.492025,-4.27311 0.224072,-1.14943 0.62643,-2.50975 0.894113,-3.02291 0.26768,-0.51317 0.487611,-1.10956 0.488755,-1.3253 0.0053,-1.02596 1.963007,-4.0921 3.972977,-6.22278 3.549323,-3.76245 6.926403,-5.68346 12.033253,-6.84497 1.13578,-0.25833 2.46816,-0.62294 2.9608,-0.81023 1.25898,-0.47867 32.06556,-0.46067 33.32655,0.0194 0.52005,0.19801 1.70127,0.49933 2.62495,0.66957 2.55547,0.47101 5.96814,1.89252 8.397,3.49768 4.68056,3.09323 8.20012,8.80512 9.46963,15.36829 0.0978,0.50507 0.76532,1.44926 1.48361,2.0982 1.7612,1.59112 3.43778,3.98381 4.35857,6.2202 0.71894,1.74607 0.76802,2.39381 0.8956,11.81765 l 0.13496,9.97033 -1.08938,0.56336 c -1.19661,0.61878 -3.76258,0.52537 -4.45005,-0.16202 -0.27295,-0.2729 -0.41096,-2.98734 -0.45808,-9.0095 -0.0781,-9.97133 -0.29608,-11.34862 -2.03926,-12.87915 -2.37847,-2.08831 -0.40407,-1.98009 -36.12005,-1.98009 H 96.906977 l -1.480314,0.78132 c -0.81418,0.42972 -1.971541,1.42392 -2.571937,2.20932 l -1.091605,1.42803 v 9.50535 c 0,8.20354 -0.07185,9.56493 -0.524181,9.9404 -0.546821,0.45379 -3.566129,0.73963 -4.61707,0.43708 z M 54.672329,149.5363 c -0.36911,-0.3691 -0.527812,-1.16973 -0.527812,-2.66265 0,-1.92502 0.09012,-2.20575 0.916818,-2.85604 0.878411,-0.69095 1.198828,-0.71728 7.648144,-0.62865 3.70223,0.0509 6.917163,-0.0224 7.144305,-0.16273 0.691844,-0.42758 0.516064,-2.82384 -0.236691,-3.2267 -0.428079,-0.2291 -7.852284,-0.34771 -21.765937,-0.34771 H 26.734894 l -1.388718,-1.37496 c -1.034347,-1.02412 -1.479811,-1.79971 -1.745687,-3.03947 -0.512751,-2.39086 -0.49498,-75.015396 0.01884,-77.056032 0.486546,-1.932246 2.09936,-3.388341 4.060417,-3.665885 0.792916,-0.112221 18.067745,-0.160218 38.388507,-0.106636 l 36.946847,0.09737 0.10278,0.721578 c 0.10511,0.737513 -0.21162,1.123355 -3.06107,3.72884 l -1.561163,1.427492 H 63.928473 c -31.210961,0 -34.587044,0.05154 -34.771122,0.531286 -0.112133,0.292219 -0.203877,14.273235 -0.203877,31.068935 0,30.300222 0.0053,30.542992 0.685942,31.223582 0.681478,0.68147 0.871654,0.6853 29.237016,0.58778 l 28.551082,-0.0981 -0.20068,0.79921 c -0.110367,0.43957 -0.786954,1.37966 -1.503521,2.08909 -1.571255,1.55563 -3.577815,5.49301 -4.091127,8.02781 -0.205757,1.01605 -0.466599,4.71912 -0.579649,8.22908 -0.113046,3.50994 -0.327826,6.57066 -0.477279,6.80158 -0.209398,0.32353 -3.150914,0.41985 -12.823433,0.41985 -10.962795,0 -12.618514,-0.0668 -13.07951,-0.52783 z m 71.518541,-49.26184 c -2.57598,-0.406101 -6.46385,-1.970541 -8.56191,-3.445231 -2.55264,-1.794221 -5.59405,-5.171057 -6.73291,-7.475487 -1.11974,-2.26571 -1.91845,-2.672766 -2.63121,-1.340991 -0.75656,1.413643 -2.43536,2.264657 -4.46749,2.264657 -1.69786,0 -1.99977,-0.120219 -3.40138,-1.35394 -1.392873,-1.226027 -1.591453,-1.59345 -2.102243,-3.889324 -0.42688,-1.91865 -0.5237,-3.529783 -0.39807,-6.623226 0.20156,-4.963142 0.78921,-6.851871 2.570873,-8.262975 0.68964,-0.546214 1.53578,-1.644 1.8803,-2.439538 1.0643,-2.457553 3.07549,-5.774228 4.33582,-7.150169 0.6615,-0.722199 1.20273,-1.424993 1.20273,-1.561753 0,-0.278496 4.0591,-3.590198 6.38173,-5.206691 6.07403,-4.227343 16.62042,-5.504416 24.36288,-2.950104 5.00268,1.650422 7.81354,3.401642 11.70317,7.291272 3.23006,3.230064 5.19761,6.003406 6.48756,9.144467 0.59254,1.442866 1.20045,2.385675 1.67881,2.60363 0.41245,0.18792 1.13355,0.921394 1.60244,1.629923 0.84049,1.270078 0.85253,1.381918 0.85345,7.929091 0.001,6.163832 -0.0513,6.739459 -0.72625,8.013841 -1.86226,3.516163 -7.3938,3.795903 -9.28677,0.46964 -0.70327,-1.235764 -1.02399,-1.145949 -1.89775,0.531501 -1.25748,2.4141 -2.44645,3.987188 -4.59945,6.085485 -2.86017,2.787491 -6.23826,4.535741 -10.51723,5.442971 -3.56277,0.755381 -4.56356,0.793271 -7.7371,0.292951 z M 110.53349,69.424651 c 1.21326,-2.427975 2.11169,-3.65545 4.06951,-5.559945 2.30534,-2.242579 2.56995,-2.43865 5.15237,-3.817482 6.40396,-3.419329 13.35006,-3.450355 19.79227,-0.08849 3.21275,1.6766 7.16208,5.599308 9.02622,8.965407 0.80548,1.454457 1.59934,2.659627 1.76415,2.678161 0.16479,0.01853 0.60023,-0.368946 0.96764,-0.861055 l 0.66801,-0.894722 -0.78229,-1.624375 c -0.43026,-0.893414 -0.97905,-1.8241 -1.21955,-2.068218 -0.2405,-0.244107 -0.43727,-0.590672 -0.43727,-0.770136 0,-0.179465 -1.25729,-1.600687 -2.794,-3.158285 -2.35039,-2.382337 -3.33753,-3.104527 -6.21739,-4.548597 -6.51353,-3.266118 -13.10375,-3.552966 -19.94287,-0.868041 -4.83755,1.89914 -9.91398,6.47084 -12.20459,10.991128 -0.88781,1.75202 -0.89434,1.809907 -0.32319,2.870448 0.76856,1.427137 1.27145,1.174614 2.48098,-1.24587 z"
         style="fill:#00112b;stroke-width:0.0888681"
         id="path340"
         sodipodi:nodetypes="cssssssscsscssscssscsscsscsccsccccssscsscsscscccscssscccssssssccsssssssssssscssssscsssssscscsssscsssssssscc" />
      <path
         d="m 33.204099,119.21693 c -0.432065,-0.33986 -0.444428,-0.74664 -0.05368,-1.76636 0.742114,-1.93666 2.086237,-3.14407 4.537061,-4.07558 0.384577,-0.14616 0.791107,-0.26579 0.9034,-0.26582 0.22032,-7e-5 1.207387,0.71301 1.942385,1.40323 0.786836,0.73889 1.163745,0.71927 2.081508,-0.10838 0.321982,-0.29037 0.844859,-0.70571 1.161943,-0.92297 0.707108,-0.4845 0.924284,-0.45581 2.545744,0.33639 0.888207,0.43394 1.381082,0.7833 2.041757,1.4472 1.327115,1.33361 2.117483,3.23147 1.621593,3.89384 -0.190645,0.25465 -0.367631,0.26094 -8.315052,0.29556 -8.071835,0.0352 -8.122327,0.0337 -8.466656,-0.23711 z m 6.548598,-7.71731 c -1.062828,-0.44196 -1.714853,-0.89376 -2.368912,-1.64145 -0.953868,-1.09041 -1.190358,-1.68786 -1.251546,-3.16176 -0.09248,-2.22768 0.504903,-3.56931 2.115834,-4.75185 1.214145,-0.89126 1.755328,-1.06481 3.306338,-1.06025 1.543632,0.004 2.026286,0.16615 3.32268,1.11265 0.66478,0.48535 1.766327,1.95914 1.775211,2.3751 0.0026,0.11873 0.08827,0.36223 0.19053,0.5411 0.264755,0.46314 0.255633,2.32093 -0.01451,2.95524 -0.622937,1.46268 -1.263627,2.32906 -2.220593,3.00283 -1.325592,0.93329 -3.458068,1.2093 -4.855034,0.62839 z"
         style="fill:#00112b;stroke-width:0.00910713"
         id="path465" />
      <g
         aria-label="OV"
         transform="scale(0.92322455,1.0831601)"
         id="text2668"
         style="font-size:33.9094px;line-height:2.45;stroke-width:0.176612">
        <path
           d="m 54.762138,67.259733 q -2.914089,0 -4.52015,2.152452 -1.60606,2.152453 -1.60606,6.059981 0,3.890971 1.60606,6.043424 1.606061,2.152452 4.52015,2.152452 2.930646,0 4.536707,-2.152452 1.60606,-2.152453 1.60606,-6.043424 0,-3.907528 -1.60606,-6.059981 -1.606061,-2.152452 -4.536707,-2.152452 z m 0,-4.619493 q 5.960637,0 9.338331,3.410808 3.377694,3.410809 3.377694,9.421118 0,5.993752 -3.377694,9.404561 -3.377694,3.410808 -9.338331,3.410808 -5.94408,0 -9.338331,-3.410808 -3.377694,-3.410809 -3.377694,-9.404561 0,-6.010309 3.377694,-9.421118 3.394251,-3.410808 9.338331,-3.410808 z"
           style="font-weight:bold;-inkscape-font-specification:'sans-serif Bold';fill:#00112b"
           id="path17733" />
        <path
           d="m 68.438488,63.087287 h 6.407685 l 6.5567,18.246172 6.540144,-18.246172 h 6.407684 l -9.1562,24.720086 h -7.599812 z"
           style="font-weight:bold;-inkscape-font-specification:'sans-serif Bold';fill:#00112b"
           id="path17735" />
      </g>
    </g>
    <path
       style="fill:#ffffff;stroke-width:0.0864704"
       d="m 89.274967,164.78707 c -0.47235,-0.31725 -0.92656,-0.96351 -1.03608,-1.47418 -0.16708,-0.77907 0.17913,-1.62329 0.91198,-2.22382 l 0.41316,-0.33855 29.513093,-0.022 c 29.08892,-0.0217 29.51783,-0.0196 29.84283,0.14623 0.6267,0.31971 1.30505,1.34505 1.30693,1.97544 0.002,0.6126 -0.57767,1.4841 -1.2852,1.9328 l -0.39075,0.24781 H 119.09441 89.637897 Z m 17.690783,-8.46817 c -0.0203,-0.0357 -0.0518,-2.43847 -0.07,-5.33956 l -0.033,-5.2747 h 12.27881 12.27882 l 0.0223,5.33956 0.0223,5.33955 h -5.04765 -5.04762 l -0.042,-1.79426 c -0.0468,-1.99936 -0.0874,-2.17711 -0.63698,-2.78539 -0.87177,-0.96494 -2.13944,-0.986 -2.96196,-0.0492 -0.62531,0.71219 -0.65957,0.8529 -0.69037,2.8346 l -0.0279,1.79427 h -5.00393 c -2.75216,0 -5.02054,-0.0292 -5.04084,-0.0648 z M 92.811287,141.33445 c -0.70385,-0.0654 -1.83455,-0.43427 -2.68059,-0.87457 -1.34699,-0.70102 -2.31084,-1.68798 -3.196,-3.27259 -0.74557,-1.33472 -3.6808,-7.24672 -3.62541,-7.30211 0.055,-0.055 71.683953,-0.0671 71.738883,-0.0121 0.0493,0.0493 -3.35209,6.8337 -3.85748,7.69406 -1.01484,1.72757 -2.57297,2.90588 -4.72443,3.57278 l -0.77824,0.24123 -26.15734,0.003 c -14.38653,0.002 -26.410263,-0.0207 -26.719393,-0.0494 z M 41.786237,125.4247 c -1.30725,-0.10763 -2.99458,-0.5031 -4.23135,-0.99173 -2.88518,-1.1399 -5.42297,-2.99042 -7.23381,-5.27478 -1.86811,-2.35662 -4.195855,-4.54489 -3.55008,-7.65265 l -0.26863,-1.25382 -0.0616,-5.75029 c -0.09181,-8.569968 -0.0295,-42.104925 0.0797,-42.867574 0.15117,-1.055728 0.58667,-2.871414 0.91374,-3.809515 1.868,-5.357886 6.05394,-9.300454 11.58417,-10.910672 1.81095,-0.527288 1.935651,-0.576317 6.98407,-0.581699 l 37.98173,-0.04049 0.044,0.202195 c 0.0738,0.338655 0.21067,1.444827 0.3086,2.493665 0.0511,0.546926 0.16953,1.714278 0.26325,2.594116 0.0937,0.879838 0.3658,3.564748 0.60462,5.966467 0.23882,2.40172 0.66761,6.682012 0.95286,9.51176 0.75816,7.521194 1.30562,12.990448 1.4195,14.181169 0.0509,0.531674 0.0605,0.508908 -0.67595,1.59241 -1.30862,1.925264 -2.14795,4.170411 -2.4404,6.527927 -0.86342,6.960203 3.03871,13.411941 9.69514,16.029801 1.08257,0.42577 3.28865,0.90382 4.88133,1.0578 0.92418,0.0893 3.698063,-0.38327 5.145003,-0.87659 5.32778,-1.81646 9.37645,-6.619356 10.20309,-12.103823 0.1669,-1.107324 0.1672,-3.371086 6.6e-4,-4.476489 -0.40886,-2.712551 -1.69302,-5.476306 -3.5344,-7.606687 l -0.66,-0.763594 0.0218,-17.135809 0.0218,-17.13581 11.06823,-0.02504 c 6.08752,-0.01377 11.24014,-6.86e-4 11.45025,0.02909 l 0.38204,0.05413 -0.42527,0.233575 c -1.59331,0.875114 -4.49586,3.223225 -6.14473,4.970977 -3.30701,3.505302 -5.72826,7.642226 -7.16697,12.245414 -0.74564,2.385655 -1.20009,5.1745 -1.33898,8.216834 -0.046,1.007469 -0.0819,12.923684 -0.0832,27.605719 l -0.002,25.833073 -21.033963,-0.0123 c -11.56867,-0.007 -54.72361,-0.0413 -55.15401,-0.0768 z m 80.569153,0.0314 c -0.0874,-0.0874 -0.0693,-11.33903 0.0182,-11.39316 0.0417,-0.0258 19.17659,-0.0488 42.52189,-0.0511 l 42.44599,-0.004 v 2.74823 c 0,3.08919 -0.048,3.41138 -0.70261,4.71902 -0.85099,1.69985 -2.00755,2.77372 -3.77963,3.50939 -1.37743,0.57183 1.91468,0.52953 -41.21063,0.52953 -21.57959,0 -39.26156,-0.0259 -39.29326,-0.0576 z m -0.0576,-33.905134 c 0,-11.739302 0.0321,-18.626262 0.0908,-19.520723 0.25193,-3.832932 0.91451,-6.687701 2.24745,-9.683225 0.64805,-1.456392 0.68394,-1.527112 1.44846,-2.853528 1.22092,-2.118293 2.44182,-3.696826 4.24708,-5.491193 4.09334,-4.068624 9.13221,-6.591565 14.96734,-7.494078 1.39613,-0.215939 6.08477,-0.218396 7.46285,-0.0039 5.93925,0.924389 10.97232,3.470168 15.18621,7.681344 3.13613,3.134102 5.5155,7.167789 6.70143,11.360776 0.41097,1.45306 0.9142,4.258663 0.9142,5.096918 0,0.117409 -1.89006,0.134172 -17.44544,0.154729 l -17.44543,0.02304 -0.60529,0.203193 c -1.17348,0.393923 -1.92715,0.854537 -2.77597,1.696554 -1.23505,1.225161 -1.79291,2.442989 -1.94151,4.238454 -0.0436,0.527272 -0.0794,8.044686 -0.0802,16.841346 l -0.001,15.888957 h -6.4854 -6.48529 z m 17.31442,1.687651 c 0.0217,-15.540082 0.0314,-16.469081 0.17621,-16.777208 0.22301,-0.474536 0.74526,-1.018443 1.15076,-1.19847 0.33809,-0.150101 1.58013,-0.15751 29.6594,-0.176923 26.55881,-0.01837 29.33549,-0.0074 29.61546,0.116464 0.43696,0.193379 0.91223,0.634096 1.18599,1.099772 l 0.23449,0.398878 v 2.032055 c 0,1.117632 -0.01,8.540046 -0.0216,16.494256 l -0.0216,14.462199 h -31.001 -31.001 z m 19.69966,6.778493 c 0.21144,-0.13599 1.23743,-1.090935 2.27998,-2.122097 1.04255,-1.031169 1.94206,-1.857005 1.99891,-1.83519 0.0569,0.02183 1.51055,0.976754 3.23043,2.122093 l 3.12707,2.082434 h 0.60614 c 0.7521,0 0.83213,-0.0394 2.87102,-1.413921 3.41203,-2.300206 4.20242,-2.823134 4.26704,-2.823134 0.037,0 0.90582,0.831983 1.93081,1.848844 2.33021,2.311761 2.43323,2.388211 3.21782,2.388211 1.04771,0 1.76511,-0.534337 2.10951,-1.571196 0.32346,-0.973858 0.052,-1.45562 -1.95586,-3.471315 l -1.6206,-1.626922 0.35902,-0.260758 c 0.19745,-0.143414 1.89603,-1.285074 3.7746,-2.537021 1.87857,-1.251948 3.57618,-2.415112 3.77245,-2.584809 1.02858,-0.889294 0.96373,-2.532397 -0.12851,-3.255867 -0.78055,-0.517012 -1.44102,-0.541148 -2.34338,-0.08564 -0.28464,0.143692 -4.02113,2.595943 -8.30329,5.449452 -4.28217,2.853508 -7.84412,5.188196 -7.91545,5.188196 -0.0713,0 -3.69409,-2.37771 -8.05056,-5.283797 -4.35646,-2.906087 -8.13156,-5.376983 -8.38909,-5.490879 -0.54205,-0.239718 -0.96672,-0.260775 -1.51204,-0.07497 -0.87944,0.299656 -1.37247,0.997697 -1.37247,1.943174 0,0.657829 0.19596,1.118256 0.66867,1.57117 0.17916,0.171658 2.02814,1.445522 4.10883,2.830808 2.0807,1.385289 3.78309,2.544335 3.78309,2.575661 0,0.03131 -0.73142,0.799148 -1.62537,1.706273 -1.43263,1.453741 -1.64796,1.709192 -1.81588,2.15422 -0.22492,0.596086 -0.23627,0.856916 -0.0591,1.359022 0.17959,0.509035 0.50781,0.916858 0.97774,1.214878 0.34,0.21561 0.47992,0.25032 1.00938,0.25032 0.52897,0 0.66828,-0.0345 0.9991,-0.24725 z m -60.966423,2.02365 c -0.0713,-0.0173 -0.42154,-0.0784 -0.77824,-0.13593 -0.91284,-0.14713 -2.32959,-0.62643 -3.16453,-1.07059 -3.10284,-1.650624 -5.25543,-4.79717 -5.66109,-8.275119 -0.12033,-1.031624 -0.0597,-2.761389 0.12717,-3.628806 1.07115,-4.971872 5.48359,-8.511044 10.60081,-8.502786 2.956053,0.0048 5.690653,1.190212 7.774943,3.37041 1.24608,1.303425 1.87666,2.353902 2.4796,4.130752 0.35945,1.059252 0.48872,1.953557 0.4832,3.342732 -0.006,1.422657 -0.12126,2.155729 -0.52337,3.318782 -0.59277,1.71447 -1.28624,2.868107 -2.46712,4.104221 -1.48037,1.549614 -3.03221,2.446404 -5.28284,3.052874 -0.79435,0.21405 -1.15791,0.26196 -2.205003,0.29059 -0.6896,0.0189 -1.31219,0.0201 -1.38353,0.003 z m 3.524703,-8.974761 c 0.61384,-0.377606 0.94178,-0.824617 1.07577,-1.466389 0.13847,-0.663179 -0.0578,-1.319648 -0.53821,-1.800041 -0.63584,-0.635844 -0.66938,-0.64352 -2.943643,-0.67381 l -2.03756,-0.02713 -0.55238,0.37302 c -0.72307,0.488276 -0.94985,0.901409 -0.94985,1.730353 0,0.69826 0.16423,1.081251 0.66281,1.545617 0.71229,0.663407 0.77942,0.677094 3.16453,0.645262 l 1.622353,-0.02163 z M 91.573857,77.673946 c -0.13996,-1.458977 -0.85949,-8.606927 -1.01188,-10.0522 -0.0953,-0.903618 -0.38825,-3.783088 -0.65107,-6.398822 -2.16269,-21.524439 -2.17102,-21.605927 -2.38641,-23.347046 -0.10002,-0.8085 -0.21799,-1.508911 -0.26216,-1.55647 16.245613,-0.05859 15.822643,-0.03681 0,0 -0.108243,-1.140504 -0.787707,-7.31402 -0.959741,-9.404683 -0.007,-2.554572 0.0115,-2.740953 0.40012,-3.977645 0.87501,-2.784845 3.44417,-4.953256 6.34706,-5.35701 0.88746,-0.123436 5.378239,-0.187866 6.160329,-0.06448 1.055035,0.166458 2.358195,0.690592 3.285885,1.321602 0.57028,0.387905 1.42414,1.229156 1.90102,1.872968 0.8808,1.189113 1.35962,2.493598 1.45883,3.974416 0.0732,1.092222 0.0727,52.806666 -6.6e-4,52.879879 -0.0309,0.03095 -0.25404,-0.04395 -0.49579,-0.166455 -0.73416,-0.372026 -2.23219,-0.818387 -3.5553,-1.059357 -2.128065,-0.38757 -3.756965,-0.313199 -6.141775,0.280413 -1.01608,0.252918 -1.64971,0.490116 -2.97006,1.111834 -0.56477,0.265929 -1.03581,0.483508 -1.04677,0.483508 -0.0109,0 -0.0433,-0.243198 -0.0718,-0.540439 z"
       id="path21"
       sodipodi:nodetypes="ssscsccscccscccccccccscsscscccssscsscccccssscsscssccccssccssssscscccsscscssccccccsccssssccccscsscsssscsscccccccssscscscccccsssscssssssscssssssssssssssssssssscsssccsscsssscccscscsssccccccsccccscssccssssscc"
       inkscape:original-d="m 89.274967,164.78707 c -0.47235,-0.31725 -0.92656,-0.96351 -1.03608,-1.47418 -0.16708,-0.77907 0.17913,-1.62329 0.91198,-2.22382 l 0.41316,-0.33855 29.513093,-0.022 c 29.08892,-0.0217 29.51783,-0.0196 29.84283,0.14623 0.6267,0.31971 1.30505,1.34505 1.30693,1.97544 0.002,0.6126 -0.57767,1.4841 -1.2852,1.9328 l -0.39075,0.24781 H 119.09441 89.637897 Z m 17.690783,-8.46817 c -0.0203,-0.0357 -0.0518,-2.43847 -0.07,-5.33956 l -0.033,-5.2747 h 12.27881 12.27882 l 0.0223,5.33956 0.0223,5.33955 h -5.04765 -5.04762 l -0.042,-1.79426 c -0.0468,-1.99936 -0.0874,-2.17711 -0.63698,-2.78539 -0.87177,-0.96494 -2.13944,-0.986 -2.96196,-0.0492 -0.62531,0.71219 -0.65957,0.8529 -0.69037,2.8346 l -0.0279,1.79427 h -5.00393 c -2.75216,0 -5.02054,-0.0292 -5.04084,-0.0648 z M 92.811287,141.33445 c -0.70385,-0.0654 -1.83455,-0.43427 -2.68059,-0.87457 -1.34699,-0.70102 -2.31084,-1.68798 -3.196,-3.27259 -0.74557,-1.33472 -3.6808,-7.24672 -3.62541,-7.30211 0.055,-0.055 71.683953,-0.0671 71.738883,-0.0121 0.0493,0.0493 -3.35209,6.8337 -3.85748,7.69406 -1.01484,1.72757 -2.57297,2.90588 -4.72443,3.57278 l -0.77824,0.24123 -26.15734,0.003 c -14.38653,0.002 -26.410263,-0.0207 -26.719393,-0.0494 z M 41.786237,125.4247 c -1.30725,-0.10763 -2.99458,-0.5031 -4.23135,-0.99173 -2.88518,-1.1399 -5.42297,-2.99042 -7.23381,-5.27478 -1.86811,-2.35662 -4.195855,-4.54489 -3.55008,-7.65265 l -0.26863,-1.25382 -0.0616,-5.75029 c -0.09181,-8.569968 -0.0295,-42.104925 0.0797,-42.867574 0.15117,-1.055728 0.58667,-2.871414 0.91374,-3.809515 1.868,-5.357886 6.05394,-9.300454 11.58417,-10.910672 1.81095,-0.527288 1.935651,-0.576317 6.98407,-0.581699 l 37.98173,-0.04049 0.044,0.202195 c 0.0738,0.338655 0.21067,1.444827 0.3086,2.493665 0.0511,0.546926 0.16953,1.714278 0.26325,2.594116 0.0937,0.879838 0.3658,3.564748 0.60462,5.966467 0.23882,2.40172 0.66761,6.682012 0.95286,9.51176 0.75816,7.521194 1.30562,12.990448 1.4195,14.181169 0.0509,0.531674 0.0605,0.508908 -0.67595,1.59241 -1.30862,1.925264 -2.14795,4.170411 -2.4404,6.527927 -0.86342,6.960203 3.03871,13.411941 9.69514,16.029801 1.08257,0.42577 3.28865,0.90382 4.88133,1.0578 0.92418,0.0893 3.698063,-0.38327 5.145003,-0.87659 5.32778,-1.81646 9.37645,-6.619356 10.20309,-12.103823 0.1669,-1.107324 0.1672,-3.371086 6.6e-4,-4.476489 -0.40886,-2.712551 -1.69302,-5.476306 -3.5344,-7.606687 l -0.66,-0.763594 0.0218,-17.135809 0.0218,-17.13581 11.06823,-0.02504 c 6.08752,-0.01377 11.24014,-6.86e-4 11.45025,0.02909 l 0.38204,0.05413 -0.42527,0.233575 c -1.59331,0.875114 -4.49586,3.223225 -6.14473,4.970977 -3.30701,3.505302 -5.72826,7.642226 -7.16697,12.245414 -0.74564,2.385655 -1.20009,5.1745 -1.33898,8.216834 -0.046,1.007469 -0.0819,12.923684 -0.0832,27.605719 l -0.002,25.833073 -21.033963,-0.0123 c -11.56867,-0.007 -54.72361,-0.0413 -55.15401,-0.0768 z m 80.569153,0.0314 c -0.0874,-0.0874 -0.0693,-11.33903 0.0182,-11.39316 0.0417,-0.0258 19.17659,-0.0488 42.52189,-0.0511 l 42.44599,-0.004 v 2.74823 c 0,3.08919 -0.048,3.41138 -0.70261,4.71902 -0.85099,1.69985 -2.00755,2.77372 -3.77963,3.50939 -1.37743,0.57183 1.91468,0.52953 -41.21063,0.52953 -21.57959,0 -39.26156,-0.0259 -39.29326,-0.0576 z m -0.0576,-33.905134 c 0,-11.739302 0.0321,-18.626262 0.0908,-19.520723 0.25193,-3.832932 0.91451,-6.687701 2.24745,-9.683225 0.64805,-1.456392 0.68394,-1.527112 1.44846,-2.853528 1.22092,-2.118293 2.44182,-3.696826 4.24708,-5.491193 4.09334,-4.068624 9.13221,-6.591565 14.96734,-7.494078 1.39613,-0.215939 6.08477,-0.218396 7.46285,-0.0039 5.93925,0.924389 10.97232,3.470168 15.18621,7.681344 3.13613,3.134102 5.5155,7.167789 6.70143,11.360776 0.41097,1.45306 0.9142,4.258663 0.9142,5.096918 0,0.117409 -1.89006,0.134172 -17.44544,0.154729 l -17.44543,0.02304 -0.60529,0.203193 c -1.17348,0.393923 -1.92715,0.854537 -2.77597,1.696554 -1.23505,1.225161 -1.79291,2.442989 -1.94151,4.238454 -0.0436,0.527272 -0.0794,8.044686 -0.0802,16.841346 l -0.001,15.888957 h -6.4854 -6.48529 z m 17.31442,1.687651 c 0.0217,-15.540082 0.0314,-16.469081 0.17621,-16.777208 0.22301,-0.474536 0.74526,-1.018443 1.15076,-1.19847 0.33809,-0.150101 1.58013,-0.15751 29.6594,-0.176923 26.55881,-0.01837 29.33549,-0.0074 29.61546,0.116464 0.43696,0.193379 0.91223,0.634096 1.18599,1.099772 l 0.23449,0.398878 v 2.032055 c 0,1.117632 -0.01,8.540046 -0.0216,16.494256 l -0.0216,14.462199 h -31.001 -31.001 z m 19.69966,6.778493 c 0.21144,-0.13599 1.23743,-1.090935 2.27998,-2.122097 1.04255,-1.031169 1.94206,-1.857005 1.99891,-1.83519 0.0569,0.02183 1.51055,0.976754 3.23043,2.122093 l 3.12707,2.082434 h 0.60614 c 0.7521,0 0.83213,-0.0394 2.87102,-1.413921 3.41203,-2.300206 4.20242,-2.823134 4.26704,-2.823134 0.037,0 0.90582,0.831983 1.93081,1.848844 2.33021,2.311761 2.43323,2.388211 3.21782,2.388211 1.04771,0 1.76511,-0.534337 2.10951,-1.571196 0.32346,-0.973858 0.052,-1.45562 -1.95586,-3.471315 l -1.6206,-1.626922 0.35902,-0.260758 c 0.19745,-0.143414 1.89603,-1.285074 3.7746,-2.537021 1.87857,-1.251948 3.57618,-2.415112 3.77245,-2.584809 1.02858,-0.889294 0.96373,-2.532397 -0.12851,-3.255867 -0.78055,-0.517012 -1.44102,-0.541148 -2.34338,-0.08564 -0.28464,0.143692 -4.02113,2.595943 -8.30329,5.449452 -4.28217,2.853508 -7.84412,5.188196 -7.91545,5.188196 -0.0713,0 -3.69409,-2.37771 -8.05056,-5.283797 -4.35646,-2.906087 -8.13156,-5.376983 -8.38909,-5.490879 -0.54205,-0.239718 -0.96672,-0.260775 -1.51204,-0.07497 -0.87944,0.299656 -1.37247,0.997697 -1.37247,1.943174 0,0.657829 0.19596,1.118256 0.66867,1.57117 0.17916,0.171658 2.02814,1.445522 4.10883,2.830808 2.0807,1.385289 3.78309,2.544335 3.78309,2.575661 0,0.03131 -0.73142,0.799148 -1.62537,1.706273 -1.43263,1.453741 -1.64796,1.709192 -1.81588,2.15422 -0.22492,0.596086 -0.23627,0.856916 -0.0591,1.359022 0.17959,0.509035 0.50781,0.916858 0.97774,1.214878 0.34,0.21561 0.47992,0.25032 1.00938,0.25032 0.52897,0 0.66828,-0.0345 0.9991,-0.24725 z m -60.966423,2.02365 c -0.0713,-0.0173 -0.42154,-0.0784 -0.77824,-0.13593 -0.91284,-0.14713 -2.32959,-0.62643 -3.16453,-1.07059 -3.10284,-1.650624 -5.25543,-4.79717 -5.66109,-8.275119 -0.12033,-1.031624 -0.0597,-2.761389 0.12717,-3.628806 1.07115,-4.971872 5.48359,-8.511044 10.60081,-8.502786 2.956053,0.0048 5.690653,1.190212 7.774943,3.37041 1.24608,1.303425 1.87666,2.353902 2.4796,4.130752 0.35945,1.059252 0.48872,1.953557 0.4832,3.342732 -0.006,1.422657 -0.12126,2.155729 -0.52337,3.318782 -0.59277,1.71447 -1.28624,2.868107 -2.46712,4.104221 -1.48037,1.549614 -3.03221,2.446404 -5.28284,3.052874 -0.79435,0.21405 -1.15791,0.26196 -2.205003,0.29059 -0.6896,0.0189 -1.31219,0.0201 -1.38353,0.003 z m 3.524703,-8.974761 c 0.61384,-0.377606 0.94178,-0.824617 1.07577,-1.466389 0.13847,-0.663179 -0.0578,-1.319648 -0.53821,-1.800041 -0.63584,-0.635844 -0.66938,-0.64352 -2.943643,-0.67381 l -2.03756,-0.02713 -0.55238,0.37302 c -0.72307,0.488276 -0.94985,0.901409 -0.94985,1.730353 0,0.69826 0.16423,1.081251 0.66281,1.545617 0.71229,0.663407 0.77942,0.677094 3.16453,0.645262 l 1.622353,-0.02163 z M 91.573857,77.673946 c -0.13996,-1.458977 -0.85949,-8.606927 -1.01188,-10.0522 -0.0953,-0.903618 -0.38825,-3.783088 -0.65107,-6.398822 -2.16269,-21.524439 -2.17102,-21.605927 -2.38641,-23.347046 -0.10002,-0.8085 -0.21799,-1.508911 -0.26216,-1.55647 16.245613,-0.05859 15.822643,-0.03681 0,0 -0.108243,-1.140504 -0.787707,-7.31402 -0.959741,-9.404683 -0.007,-2.554572 0.0115,-2.740953 0.40012,-3.977645 0.87501,-2.784845 3.44417,-4.953256 6.34706,-5.35701 0.88746,-0.123436 5.378239,-0.187866 6.160329,-0.06448 1.055035,0.166458 2.358195,0.690592 3.285885,1.321602 0.57028,0.387905 1.42414,1.229156 1.90102,1.872968 0.8808,1.189113 1.35962,2.493598 1.45883,3.974416 0.0732,1.092222 0.0727,52.806666 -6.6e-4,52.879879 -0.0309,0.03095 -0.25404,-0.04395 -0.49579,-0.166455 -0.73416,-0.372026 -2.23219,-0.818387 -3.5553,-1.059357 -2.128065,-0.38757 -3.756965,-0.313199 -6.141775,0.280413 -1.01608,0.252918 -1.64971,0.490116 -2.97006,1.111834 -0.56477,0.265929 -1.03581,0.483508 -1.04677,0.483508 -0.0109,0 -0.0433,-0.243198 -0.0718,-0.540439 z"
       clip-path="url(#clipPath1235)"
       inkscape:path-effect="#path-effect1239"
       transform="matrix(0.79855466,0,0,0.79855466,4.7048335,47.114817)" />
    <path
       style="fill:#ffffff;stroke-width:0.264583"
       d="m 381.02861,138.77937 c -4.89862,-1.10279 -11.1125,-6.60087 -11.1125,-9.83241 0,-0.29202 2.50185,-0.35462 14.17304,-0.35462 h 14.17304 l -0.18014,0.59532 c -1.97768,6.53579 -10.16715,11.14197 -17.05344,9.59171 z m -34.49244,-13.64581 c -1.67401,-1.31678 -0.80707,-8.95563 1.21258,-10.68438 1.78737,-1.52992 0.4954,-1.48054 36.76244,-1.40507 38.25168,0.0796 34.88361,-0.13188 36.6018,2.29818 1.12814,1.59555 1.40046,9.18358 0.35583,9.91527 -0.54894,0.3845 -4.06469,0.42437 -37.42069,0.42437 h -36.81482 z m 5.51046,-15.92195 c 0.19787,-0.47294 1.09581,-2.46724 1.99542,-4.43177 3.37928,-7.379542 3.23105,-6.496244 3.44105,-20.505207 0.20401,-13.609413 0.26988,-14.087573 2.62435,-19.050001 2.81416,-5.931302 7.76068,-10.738234 13.47996,-13.099555 l 2.07547,-0.856904 0.15251,-2.353968 c 0.74941,-11.567222 16.32572,-11.409119 16.32572,0.165709 v 2.149559 l 1.32476,0.476375 1.32475,0.476375 -1.12632,1.303904 c -17.23395,19.951249 -7.21987,49.005613 18.17953,52.745183 1.59591,0.23497 2.94467,0.47022 2.99722,0.52278 0.0526,0.0526 0.43839,0.82047 0.85741,1.70648 l 0.76185,1.61094 h -32.38672 -32.38673 z m 61.52573,-5.62924 c -0.21828,-0.0428 -1.28984,-0.2226 -2.38125,-0.39961 -25.30697,-4.104631 -31.82652,-38.351836 -9.91661,-52.092026 23.6699,-14.843923 52.4925,10.713399 40.74837,36.132035 -4.88182,10.566075 -18.38631,18.331421 -28.45051,16.359601 z"
       id="path895"
       sodipodi:nodetypes="ssscsssssssscsssssscsscccsssscccsscsss"
       clip-path="url(#clipPath3219)"
       transform="matrix(0.50505268,0,0,0.50505268,-77.996689,1.7520303)"
       inkscape:original-d="m 381.02861,138.77937 c -4.89862,-1.10279 -11.1125,-6.60087 -11.1125,-9.83241 0,-0.29202 2.50185,-0.35462 14.17304,-0.35462 h 14.17304 l -0.18014,0.59532 c -1.97768,6.53579 -10.16715,11.14197 -17.05344,9.59171 z m -34.49244,-13.64581 c -1.67401,-1.31678 -0.80707,-8.95563 1.21258,-10.68438 1.78737,-1.52992 0.4954,-1.48054 36.76244,-1.40507 38.25168,0.0796 34.88361,-0.13188 36.6018,2.29818 1.12814,1.59555 1.40046,9.18358 0.35583,9.91527 -0.54894,0.3845 -4.06469,0.42437 -37.42069,0.42437 h -36.81482 z m 5.51046,-15.92195 c 0.19787,-0.47294 1.09581,-2.46724 1.99542,-4.43177 3.37928,-7.379542 3.23105,-6.496244 3.44105,-20.505207 0.20401,-13.609413 0.26988,-14.087573 2.62435,-19.050001 2.81416,-5.931302 7.76068,-10.738234 13.47996,-13.099555 l 2.07547,-0.856904 0.15251,-2.353968 c 0.74941,-11.567222 16.32572,-11.409119 16.32572,0.165709 v 2.149559 l 1.32476,0.476375 1.32475,0.476375 -1.12632,1.303904 c -17.23395,19.951249 -7.21987,49.005613 18.17953,52.745183 1.59591,0.23497 2.94467,0.47022 2.99722,0.52278 0.0526,0.0526 0.43839,0.82047 0.85741,1.70648 l 0.76185,1.61094 h -32.38672 -32.38673 z m 61.52573,-5.62924 c -0.21828,-0.0428 -1.28984,-0.2226 -2.38125,-0.39961 -25.30697,-4.104631 -31.82652,-38.351836 -9.91661,-52.092026 23.6699,-14.843923 52.4925,10.713399 40.74837,36.132035 -4.88182,10.566075 -18.38631,18.331421 -28.45051,16.359601 z"
       inkscape:path-effect="#path-effect3223" />
    <path
       style="fill:none;stroke:#fffefe;stroke-width:3.49644;stroke-linecap:round;stroke-linejoin:miter;stroke-miterlimit:4;stroke-dasharray:none;stroke-opacity:1"
       d="m 100.66152,27.395724 c 0,0 -4.074589,5.18931 -3.926874,11.140678 0.147715,5.951368 0.147715,5.951368 0.147715,5.951368"
       id="path594" />
    <path
       style="fill:#000000;stroke:#fffefe;stroke-width:3.2112;stroke-linecap:round;stroke-linejoin:miter;stroke-miterlimit:4;stroke-dasharray:none;stroke-opacity:1"
       d="m 93.493567,25.484622 c 0,0 -3.832412,4.653778 -3.693476,9.990971 0.138934,5.337192 0.138934,5.337192 0.138934,5.337192"
       id="path594-3" />
  </g>
</svg>
