<?xml version="1.0" encoding="UTF-8" standalone="no"?>
<!-- Created with Inkscape (http://www.inkscape.org/) -->

<svg
   width="200mm"
   height="200mm"
   viewBox="0 0 200 200"
   version="1.1"
   id="svg349"
   sodipodi:docname="10545.svg"
   inkscape:version="1.1.2 (0a00cf5339, 2022-02-04)"
   xmlns:inkscape="http://www.inkscape.org/namespaces/inkscape"
   xmlns:sodipodi="http://sodipodi.sourceforge.net/DTD/sodipodi-0.dtd"
   xmlns:xlink="http://www.w3.org/1999/xlink"
   xmlns="http://www.w3.org/2000/svg"
   xmlns:svg="http://www.w3.org/2000/svg">
  <sodipodi:namedview
     id="namedview351"
     pagecolor="#505050"
     bordercolor="#ffffff"
     borderopacity="1"
     inkscape:pageshadow="0"
     inkscape:pageopacity="0"
     inkscape:pagecheckerboard="1"
     inkscape:document-units="mm"
     showgrid="false"
     width="200mm"
     inkscape:zoom="0.74118968"
     inkscape:cx="365.6284"
     inkscape:cy="245.55118"
     inkscape:window-width="1920"
     inkscape:window-height="1048"
     inkscape:window-x="1920"
     inkscape:window-y="0"
     inkscape:window-maximized="1"
     inkscape:current-layer="layer1" />
  <defs
     id="defs346">
    <linearGradient
       inkscape:collect="always"
       id="linearGradient853">
      <stop
         style="stop-color:#005d9c;stop-opacity:1;"
         offset="0"
         id="stop849" />
      <stop
         style="stop-color:#002255;stop-opacity:1"
         offset="1"
         id="stop851" />
    </linearGradient>
    <radialGradient
       inkscape:collect="always"
       xlink:href="#linearGradient853"
       id="radialGradient855"
       cx="99.999992"
       cy="100"
       fx="99.999992"
       fy="100"
       r="97.66301"
       gradientUnits="userSpaceOnUse"
       gradientTransform="scale(3.7795276)" />
    <clipPath
       clipPathUnits="userSpaceOnUse"
       id="clipPath1235">
      <path
         id="path1237"
         style="display:none;fill:#ffffff;fill-opacity:1;stroke:#000000;stroke-width:0.0158507;stroke-miterlimit:4;stroke-dasharray:none;stroke-opacity:1"
         d="m 55.884585,59.420792 c -0.0372,-0.0016 -0.07451,-0.0011 -0.111617,0.0026 -0.483251,0.02672 -0.859044,0.52851 -0.758092,1.000974 -0.88841,0.390496 -1.774272,0.786249 -2.665992,1.168918 -0.258281,-0.20493 -0.700204,0.01836 -0.654738,0.354502 0.02474,0.328796 0.495459,0.482196 0.703318,0.220142 0.11389,-0.08554 0.05055,-0.287155 0.212905,-0.308507 0.849921,-0.375092 1.699821,-0.750361 2.549713,-1.125511 0.149934,0.186124 0.367633,0.304062 0.60203,0.343127 0.05312,1.096754 0.105355,2.193476 0.158131,3.29024 -0.487852,0.13132 -0.785508,0.732689 -0.549836,1.189593 0.225264,0.518065 0.996315,0.665998 1.393198,0.26303 0.165452,-0.139509 0.344435,0.04908 0.512112,0.08527 1.253159,0.492024 2.505633,0.984742 3.758943,1.476396 -0.186042,0.137377 -0.394798,0.229891 -0.621665,0.273884 -0.358362,0.108317 -0.718767,0.210616 -1.077973,0.316259 -0.212244,-0.457843 -0.846228,-0.635371 -1.260388,-0.345197 -0.451813,0.274241 -0.491315,0.996283 -0.0677,1.314649 0.30629,0.25967 0.784066,0.250306 1.09709,0.0062 0.443589,0.374517 0.898562,0.73501 1.331185,1.122413 -0.288822,0.532384 -0.07019,1.267203 0.471807,1.542542 0.53472,0.318267 1.348097,0.100364 1.626772,-0.479555 0.140465,-0.255193 0.154832,-0.560083 0.09354,-0.840261 0.408633,-0.255641 0.814308,-0.515035 1.229381,-0.760161 0.16696,0.177038 0.395941,0.284398 0.639236,0.296627 0.240202,1.197229 0.479875,2.394646 0.719336,3.592028 -0.373491,0.180819 -0.473091,0.744736 -0.157612,1.024226 0.328792,0.350303 1.003017,0.167476 1.096055,-0.30851 0.08133,-0.342902 -0.168807,-0.710229 -0.512112,-0.774112 -0.174752,-0.108501 -0.109228,-0.343818 -0.177247,-0.510561 -0.207282,-1.035873 -0.415552,-2.071304 -0.622189,-3.107304 0.433766,-0.201218 0.584793,-0.831215 0.256315,-1.189077 -0.332724,-0.428506 -1.095478,-0.349943 -1.321882,0.148312 -0.08212,0.151945 -0.09179,0.329049 -0.07493,0.497641 -0.409305,0.25725 -0.817451,0.516335 -1.234035,0.761715 -0.383151,-0.561319 -1.259676,-0.67364 -1.765263,-0.216011 -0.108937,0.06195 -0.214294,-0.150064 -0.321945,-0.198951 -0.355666,-0.296185 -0.71098,-0.592603 -1.066604,-0.888836 0.102187,-0.132969 0.02835,-0.398778 0.241845,-0.427879 0.488783,-0.142671 0.977278,-0.285755 1.466064,-0.4284 0.286533,0.352179 0.923518,0.277871 1.09864,-0.147796 0.19952,-0.40032 -0.159975,-0.922126 -0.605134,-0.884698 -0.170098,-0.0016 -0.325948,0.07918 -0.456303,0.182417 -1.341641,-0.526272 -2.68338,-1.05259 -4.025077,-1.578713 0.08893,-0.449027 -0.223639,-0.923918 -0.672825,-1.014926 -0.09062,-0.08126 -0.02817,-0.280668 -0.05788,-0.40876 -0.04699,-0.976601 -0.09432,-1.953446 -0.141078,-2.930054 0.48148,-0.172363 0.701352,-0.827292 0.387574,-1.240753 -0.148807,-0.215578 -0.40464,-0.3483 -0.665077,-0.359148 z m -7.298777,2.580203 c -0.03065,-2.64e-4 -0.06168,0.0016 -0.09302,0.0057 -0.482277,0.02326 -0.828881,0.606054 -0.590142,1.034563 0.114713,0.231481 0.357081,0.38 0.610814,0.406175 0.404744,1.164405 0.807014,2.329601 1.209228,3.494879 -0.214551,0.193349 -0.192389,0.5604 0.04238,0.727604 -0.347853,1.381223 -0.696613,2.761784 -1.044898,4.142899 0.852197,0.557979 1.70425,1.116316 2.556431,1.674317 -0.07833,0.206526 -0.109143,0.425381 -0.109551,0.645438 -0.532902,0.112054 -1.063249,0.236344 -1.598869,0.334865 -0.177604,-0.439751 -0.786802,-0.617117 -1.163754,-0.32453 -0.414837,0.269533 -0.397732,0.962064 0.03411,1.20768 0.146931,0.09929 0.326001,0.125801 0.499708,0.126605 0.391078,1.041456 0.781013,2.083711 1.171504,3.125391 -0.355113,0.230264 -0.385744,0.807985 -0.03721,1.057302 0.368025,0.31547 1.032066,0.07588 1.083138,-0.416513 -0.03082,-0.172868 0.08179,-0.224097 0.235644,-0.24598 0.501245,-0.146556 1.002463,-0.293481 1.503785,-0.439767 0.219112,0.406241 0.825064,0.517356 1.163236,0.198954 0.38074,-0.305491 0.287234,-0.978734 -0.156581,-1.17719 -0.418391,-0.225549 -1.009986,0.05067 -1.074351,0.530201 -0.06748,0.198824 -0.31338,0.155305 -0.469738,0.232027 -0.445609,0.131312 -0.891673,0.259897 -1.337903,0.389125 -0.1573,-0.170434 -0.386077,-0.252492 -0.615469,-0.241848 -0.388474,-1.03615 -0.776213,-2.072544 -1.164269,-3.108854 0.202707,-0.135033 0.344773,-0.349221 0.376721,-0.592211 0.539978,-0.107329 1.08004,-0.214329 1.620057,-0.321427 0.234535,0.740262 1.116447,1.178674 1.848467,0.923975 0.686316,-0.19604 1.150625,-0.965361 0.980818,-1.663464 -0.05429,-0.259302 -0.222012,-0.551606 -0.440282,-0.740008 -0.525169,-0.500586 -1.41681,-0.506299 -1.956473,-0.02635 -0.08895,0.04216 -0.150333,0.229915 -0.243395,0.179318 -0.743051,-0.499007 -1.486165,-0.997706 -2.229321,-1.496547 0.32884,-1.305575 0.658281,-2.611217 0.988055,-3.916561 0.350869,0.543164 0.701712,1.086427 1.052131,1.629876 -0.423315,0.389178 -0.418174,1.137253 0.02946,1.504821 0.305223,0.280754 0.772631,0.335885 1.1498,0.177762 1.355055,1.534729 2.710447,3.069479 4.065902,4.603856 -0.71106,0.736651 -0.826161,1.977144 -0.231508,2.816881 0.08681,0.138425 -0.01797,0.285518 -0.144698,0.34675 -0.577492,0.51765 -1.151821,1.038498 -1.733227,1.551326 -0.2603,-0.06261 -0.529511,0.198186 -0.452168,0.460436 -0.696044,1.196166 -1.391348,2.392357 -2.086694,3.58893 -0.08933,-0.467132 -0.177954,-0.934312 -0.267168,-1.401466 0.367146,-0.202015 0.428267,-0.779097 0.08785,-1.03456 -0.343847,-0.313153 -0.981641,-0.107337 -1.059365,0.3576 -0.07171,0.344665 0.188288,0.70353 0.533818,0.757579 0.08627,0.442565 0.168698,0.885825 0.251145,1.329113 -0.369689,0.179647 -0.469847,0.738544 -0.150378,1.011825 0.323773,0.334459 0.980522,0.154104 1.064537,-0.311605 0.04524,-0.179541 -0.0062,-0.369435 -0.109556,-0.519348 0.700032,-1.204347 1.400353,-2.408211 2.100131,-3.612703 0.270959,0.55037 0.549065,1.096851 0.807701,1.65313 -0.360466,0.274838 -0.366459,0.888904 0.01188,1.149284 0.401598,0.334666 1.106048,0.08646 1.190106,-0.435634 0.093,-0.440047 -0.294666,-0.891202 -0.744656,-0.865063 -0.146516,0.0094 -0.143325,-0.212752 -0.223758,-0.305406 -0.223153,-0.460084 -0.467839,-0.918128 -0.671278,-1.389063 -0.05049,-0.26476 0.249746,-0.381571 0.393775,-0.546222 0.512183,-0.459647 1.024003,-0.919249 1.53634,-1.378725 0.611772,0.568534 1.520216,0.780727 2.321306,0.546219 0.104904,0.03456 0.112315,0.252452 0.1788,0.359154 0.333923,0.865015 0.668139,1.730144 1.002006,2.595186 -0.450551,-0.306398 -0.90125,-0.61328 -1.351338,-0.920355 0.209997,-0.404059 0.02188,-0.947645 -0.394809,-1.131197 -0.49989,-0.256344 -1.190244,0.12261 -1.208196,0.692981 -0.02913,0.345598 0.193387,0.678793 0.505397,0.818038 -0.03736,1.035913 -0.07618,2.072743 -0.112655,3.108338 0.08373,0.09402 0.190532,0.193519 0.330211,0.140042 0.110482,-0.03899 0.21001,-0.142245 0.173117,-0.264068 0.04501,-0.980127 0.06891,-1.962745 0.115239,-2.943487 0.170611,0.0013 0.328684,-0.20884 0.494025,-0.0708 0.414827,0.28803 0.842325,0.557665 1.244886,0.862996 -0.186159,0.407538 0.106386,0.937157 0.553971,0.982885 0.48065,0.100113 0.962962,-0.41248 0.801502,-0.885735 -0.08908,-0.31256 -0.407588,-0.523166 -0.72812,-0.513662 -0.387432,-1.002623 -0.774827,-2.005237 -1.161687,-3.008085 0.533823,-0.288798 0.95319,-0.779936 1.139465,-1.359088 0.598352,0.08368 1.196848,0.167765 1.79524,0.251145 0.07968,0.553993 0.724003,0.923177 1.241266,0.712618 0.488286,-0.156157 0.755537,-0.786257 0.504881,-1.238683 -0.03555,-0.220928 0.219818,-0.306806 0.331245,-0.455269 0.238842,-0.225248 0.477189,-0.450895 0.716235,-0.675928 0.234728,0.18869 0.488487,0.346908 0.710552,0.558106 -0.20972,0.473361 0.130058,1.080276 0.645954,1.139466 0.253634,0.04837 0.510709,-0.04257 0.713136,-0.193787 0.492464,0.374629 0.992773,0.736984 1.476912,1.122411 -0.187944,0.404227 0.103064,0.931703 0.54777,0.977201 0.476062,0.09794 0.950947,-0.40863 0.792718,-0.877464 -0.117353,-0.415205 -0.644096,-0.631264 -1.020612,-0.421164 -0.199554,0.05726 -0.306123,-0.166399 -0.462502,-0.243914 -0.375441,-0.281855 -0.75116,-0.562097 -1.120862,-0.851628 0.205864,-0.46597 -0.119206,-1.063241 -0.624769,-1.134816 -0.273738,-0.06009 -0.555119,0.04249 -0.76636,0.216527 -0.206947,-0.155302 -0.413285,-0.310671 -0.620117,-0.466122 0.857467,-0.803465 1.71527,-1.606941 2.572451,-2.410706 0.200168,-0.01942 0.319611,0.161978 0.371554,0.330214 0.310219,0.577297 0.604044,1.164415 0.907439,1.74563 -0.307697,0.303792 -0.196776,0.889101 0.210323,1.044898 0.414631,0.205547 0.975749,-0.147203 0.937926,-0.618567 -0.015,-0.357782 -0.357285,-0.652676 -0.713134,-0.624252 -0.366048,-0.641673 -0.68286,-1.309984 -1.029912,-1.962155 0.319525,-0.248026 0.29354,-0.804088 -0.06666,-1.000454 -0.378446,-0.259876 -0.977355,0.04862 -0.957564,0.515729 -0.03082,0.105413 0.09614,0.231177 0.02273,0.309544 -0.861155,0.807397 -1.722313,1.614535 -2.58382,2.421557 -0.520965,-0.391952 -1.044684,-0.779315 -1.557528,-1.181841 0.252571,-0.443982 0.0204,-1.071653 -0.466122,-1.232998 -0.530765,-0.2265 -1.211763,0.199527 -1.207162,0.785481 -0.0062,0.133975 0.03281,0.263668 0.07183,0.390155 -0.59109,0.324713 -1.182254,0.649835 -1.773018,0.975135 -0.409067,-0.515051 -1.041236,-0.833226 -1.694987,-0.877983 -0.493448,-0.0426 -1.049012,0.09117 -1.484146,0.386025 -0.127106,0.155707 -0.204798,-0.0434 -0.298175,-0.130741 -1.284057,-1.454015 -2.567929,-2.90797 -3.85196,-4.362009 0.356915,-0.382516 0.353666,-1.033502 -0.0181,-1.404048 -0.303802,-0.318344 -0.80291,-0.404717 -1.204576,-0.234095 -0.358513,-0.556012 -0.72171,-1.108671 -1.071251,-1.670183 0.140208,-0.287118 -0.0874,-0.643165 -0.399975,-0.661974 -0.418137,-1.204735 -0.834994,-2.410039 -1.253154,-3.614767 1.198358,0.662374 2.395683,1.32624 3.594094,1.988508 -0.200932,0.636447 0.191752,1.380702 0.831475,1.570964 0.234979,0.08364 0.49105,0.08338 0.733806,0.03669 0.714314,1.321808 1.429461,2.643229 2.144572,3.964614 -0.124032,0.115393 -0.313412,0.285393 -0.480073,0.140044 -0.229722,-0.158157 -0.480426,-0.288293 -0.718304,-0.435634 0.12892,-0.259987 -0.01958,-0.601125 -0.303859,-0.670758 -0.349969,-0.11166 -0.715967,0.297767 -0.545703,0.628901 0.09409,0.216704 0.360903,0.320376 0.581877,0.250113 0.320419,0.189572 0.640758,0.37941 0.961181,0.568958 -0.478882,0.65795 -0.405095,1.650285 0.180867,2.21847 0.646192,0.688226 1.844183,0.718542 2.526464,0.06563 0.588034,-0.525066 0.743728,-1.464887 0.334346,-2.143022 -0.386977,-0.667909 -1.227865,-1.029679 -1.978173,-0.841293 -0.117475,0.07138 -0.23227,0.03127 -0.268203,-0.124539 -0.682154,-1.260557 -1.364091,-2.521207 -2.046388,-3.781682 0.518221,-0.31922 0.751178,-1.028851 0.492477,-1.584917 -0.290867,-0.69432 -1.23562,-0.980417 -1.868104,-0.578776 -0.137599,0.07631 -0.247417,0.190095 -0.357601,0.300241 -1.115149,-0.61695 -2.230292,-1.234252 -3.345531,-1.851049 0.133567,-0.454848 -0.235241,-0.9275 -0.695048,-0.932244 z M 63.26088,75.103551 c 0.02318,0.01749 0.04656,0.03471 0.06976,0.0522 0.495303,0.372983 0.991005,0.745678 1.486215,1.118791 -0.351763,0.332131 -0.703974,0.664202 -1.055748,0.996325 -0.438026,-0.323535 -1.142871,-0.177575 -1.381829,0.321424 -0.04845,0.160885 -0.245473,0.02434 -0.367419,0.03824 -0.476605,-0.06665 -0.953267,-0.133461 -1.429888,-0.199988 0.03234,-0.447569 -0.0546,-0.899538 -0.257865,-1.300178 0.603927,-0.332542 1.208024,-0.663977 1.811776,-0.996839 0.330174,0.241485 0.806898,0.224544 1.124996,-0.02997 z m -6.748425,19.098577 c -0.19521,-0.0016 -0.452692,0.0019 -0.795817,0.0067 -1.183161,0.01675 -1.384731,0.0342 -1.462442,0.12609 -0.130926,0.154787 -0.361664,1.817582 -0.373102,2.689241 -0.0093,0.707673 -0.0082,0.712941 0.128672,0.761196 0.223327,0.07867 2.796297,0.03557 2.867007,-0.04806 0.09744,-0.115237 0.21205,-0.720355 0.358121,-1.890324 0.135964,-1.089207 0.136311,-1.08948 -0.0047,-1.373555 -0.105725,-0.213058 -0.132157,-0.266186 -0.717786,-0.271304 z m 20.190499,0.978752 c -0.216447,0 -0.514866,0.0024 -0.843359,0.0072 -1.194525,0.01754 -1.194406,0.01757 -1.264007,0.278019 -0.06219,0.232672 -0.872649,3.474053 -0.940509,3.761528 -0.04725,0.200179 -0.258884,0.30648 -1.185458,0.596344 -0.495509,0.155015 -0.967798,0.313549 -1.049549,0.351909 -0.160065,0.0751 -0.160359,0.0762 -0.261996,1.01958 -0.03086,0.28648 -0.07237,0.63052 -0.09199,0.76481 -0.03864,0.26435 -0.07877,0.25829 1.687753,0.2744 0.502095,0.005 0.505182,0.0154 0.332796,1.20716 -0.100304,0.69337 -0.284139,2.05322 -0.558623,4.13412 -0.0614,0.46552 -0.161742,1.2115 -0.223242,1.65726 -0.154205,1.11759 -0.124706,3.08435 0.0553,3.67316 0.122748,0.40153 0.419618,1.01999 0.525031,1.09399 0.03407,0.0239 0.173617,0.1634 0.31006,0.31006 0.242879,0.26106 0.508016,0.39249 1.052131,0.5209 0.133612,0.0316 0.878687,0.0551 1.655199,0.0543 1.41182,-0.003 1.411584,-0.002 1.501714,-0.49816 0.120209,-0.66103 0.208447,-1.50564 0.171567,-1.64279 -0.01939,-0.0721 -0.129998,-0.13377 -0.317294,-0.17777 -0.158041,-0.0371 -0.436118,-0.12632 -0.618051,-0.19792 -0.181927,-0.0716 -0.472567,-0.17948 -0.645956,-0.23978 -0.364342,-0.12675 -0.738658,-0.47358 -0.849559,-0.78703 -0.116829,-0.33023 -0.09103,-0.90173 0.115237,-2.5616 0.183401,-1.4759 0.2359,-1.88084 0.472842,-3.64578 0.208754,-1.55504 0.398264,-2.76741 0.441833,-2.82411 0.0241,-0.0314 0.744861,-0.0754 1.601452,-0.0977 1.557435,-0.0406 1.557247,-0.0408 1.627806,-0.39894 0.08839,-0.44864 0.240814,-1.77062 0.240814,-2.088761 0,-0.215278 -0.01672,-0.24289 -0.172083,-0.279566 -0.09476,-0.02236 -0.777698,-0.04082 -1.517737,-0.04082 -1.205685,0 -1.349185,-0.01117 -1.380794,-0.108524 -0.01942,-0.05976 0.0075,-0.418463 0.05994,-0.797365 0.07818,-0.564912 0.418613,-3.249401 0.419613,-3.310911 9.3e-5,-0.0048 -0.134437,-0.0072 -0.350882,-0.0072 z m -12.260233,4.018357 c -0.299974,-0.0042 -0.585745,0.0046 -0.840256,0.02791 -1.189979,0.109 -1.855483,0.277103 -2.52181,0.637172 -0.531304,0.286131 -1.01546,0.713021 -1.479497,1.242301 -0.586306,0.73926 -1.225177,2.15202 -1.570966,3.4742 -0.179237,0.68532 -0.431125,2.26925 -0.521412,3.27939 -0.217977,2.43853 -0.04709,4.27199 0.507458,5.44773 0.307316,0.6208 0.866907,1.21776 1.451078,1.44539 1.296059,0.58086 2.4067,0.33382 3.780131,-0.0527 0.448088,-0.14859 1.638025,-0.84132 1.846395,-1.07487 0.233003,-0.26114 0.2902,-0.21001 0.461989,0.41186 0.08655,0.31333 0.179893,0.64005 0.207222,0.72605 0.04968,0.15621 0.04956,0.15618 1.126545,0.11938 0.592339,-0.0203 1.087422,-0.049 1.100193,-0.0641 0.03026,-0.0358 0.323165,-2.14631 0.431499,-3.10886 0.04634,-0.4118 0.148698,-1.24693 0.227377,-1.8557 0.07869,-0.60877 0.189397,-1.48785 0.245978,-1.95337 0.190632,-1.56836 0.549667,-4.48571 0.660945,-5.37124 0.06075,-0.48344 0.110421,-1.03578 0.110585,-1.22732 2.17e-4,-0.30304 -0.02122,-0.37174 -0.164848,-0.5302 -0.365358,-0.40307 -1.361729,-0.901549 -2.460316,-1.230412 -0.673052,-0.201467 -1.698371,-0.330142 -2.59829,-0.342617 z m -19.271689,0.09664 c -1.160677,2.64e-4 -2.212917,0.04495 -2.46652,0.122473 -0.422931,0.12928 -1.13098,0.60458 -1.434018,0.96221 -0.623496,0.73579 -0.962017,1.90846 -1.183391,4.10259 -0.143645,1.4237 -0.02665,2.30878 0.409792,3.10627 0.23305,0.3524 0.261392,0.42094 0.675931,0.66095 0.79053,0.45764 0.858541,0.46733 3.420459,0.48317 2.493637,0.0154 2.448129,0.009 2.667537,0.40411 0.196824,0.35477 0.03844,1.7643 -0.282149,2.51147 -0.247872,0.57775 -0.02635,0.54488 -3.912425,0.58188 -3.418073,0.0326 -3.417967,0.0326 -3.537252,0.87902 -0.212164,1.5055 -0.207232,1.39247 -0.06304,1.45727 0.408096,0.18323 2.183514,0.40074 4.317048,0.52865 0.454819,0.0265 1.484193,0.0431 2.287717,0.0341 1.350926,-0.014 1.488168,-0.0258 1.819526,-0.16071 0.907286,-0.36937 1.458532,-0.93174 1.823146,-1.85932 0.361543,-0.91977 0.57009,-2.3747 0.57309,-4.00441 0.0021,-1.1394 0.0019,-1.1395 -0.195852,-1.62781 -0.271571,-0.67051 -0.575691,-1.11047 -1.196827,-1.38854 -0.497216,-0.2226 -0.479869,-0.27024 -2.933155,-0.30334 -2.453285,-0.0331 -2.453129,-0.0331 -2.682523,-0.20929 -0.154133,-0.11841 -0.241607,-0.23992 -0.265618,-0.36949 -0.04089,-0.21986 0.166627,-1.84271 0.264068,-2.18023 0.0847,-0.2934 0.288356,-0.54043 0.440801,-0.65577 0.211256,-0.15986 0.70476,-0.18464 3.826121,-0.19224 2.523021,-0.006 3.060377,-0.0228 3.099035,-0.0966 0.02572,-0.0492 0.0755,-0.35353 0.110588,-0.67645 0.03508,-0.32291 0.09176,-0.7114 0.126093,-0.86299 0.07716,-0.34074 -0.007,-0.629089 -0.216009,-0.741558 -0.247891,-0.13339 -2.151576,-0.386088 -3.434416,-0.455785 -0.625684,-0.034 -1.36135,-0.0498 -2.057754,-0.04961 z m 9.397357,0.234611 c -0.478343,0.0031 -0.864928,0.01738 -0.886767,0.04599 -0.02347,0.03071 -0.08472,0.392792 -0.135911,0.804602 -0.05121,0.41181 -0.240504,1.84764 -0.420645,3.1905 -0.180134,1.34287 -0.378934,2.83678 -0.441833,3.32021 -0.06291,0.48343 -0.160375,1.216 -0.216522,1.62781 -0.05616,0.41182 -0.155144,1.15902 -0.220144,1.66036 -0.065,0.50133 -0.180327,1.35112 -0.256315,1.88826 -0.07598,0.53715 -0.185714,1.33766 -0.243914,1.77922 -0.05819,0.44156 -0.120248,0.8301 -0.137459,0.863 -0.01752,0.0328 -0.01611,0.0892 0.0026,0.12505 l 5.29e-4,-5.3e-4 c 0.02127,0.0406 0.560694,0.0651 1.435571,0.0651 1.401516,0 1.401487,2.2e-4 1.429885,-0.14624 0.0538,-0.27742 0.296312,-1.90598 0.409794,-2.75074 0.06254,-0.46552 0.226648,-1.69624 0.364837,-2.73472 0.138195,-1.03847 0.310743,-2.32779 0.382921,-2.86494 0.07218,-0.53715 0.185039,-1.38641 0.251148,-1.88774 0.06612,-0.50134 0.202967,-1.51227 0.303858,-2.24637 0.258199,-1.87867 0.330131,-2.595952 0.2682,-2.669091 -0.04092,-0.0483 -1.092565,-0.07489 -1.889805,-0.06976 z m 9.842812,2.472712 c 0.457991,0.005 0.935768,0.0592 1.348235,0.16175 0.344942,0.0858 0.670658,0.17699 0.723987,0.20257 0.205872,0.0988 0.19753,0.22699 -0.209291,3.35277 -0.0769,0.59086 -0.212973,1.64523 -0.302823,2.34352 -0.265827,2.066 -0.317466,2.43598 -0.355018,2.54713 -0.441153,0.69507 -2.078186,1.2634 -2.85047,1.48725 -0.607544,0.0773 -0.800444,0.0765 -1.144117,-0.003 -0.784336,-0.18174 -1.157716,-0.76664 -1.331698,-2.08514 -0.109196,-0.82743 0.257704,-3.85696 0.618046,-5.10356 0.12846,-0.44439 0.498091,-1.36377 0.641305,-1.59526 0.334687,-0.54098 0.944144,-0.97934 1.631942,-1.17409 0.333684,-0.0945 0.771906,-0.13881 1.229902,-0.13384 z" />
    </clipPath>
    <inkscape:path-effect
       effect="powerclip"
       id="path-effect1239"
       is_visible="true"
       lpeversion="1"
       inverse="true"
       flatten="false"
       hide_clip="false"
       message="Utilice la regla de relleno parimpar en el diálogo &lt;b&gt;Relleno y borde&lt;/b&gt; si el resultado no está aplanada después de convertir el recorte en trayectos." />
    <clipPath
       clipPathUnits="userSpaceOnUse"
       id="clipPath3219">
      <path
         id="path3221"
         style="display:none;fill:#ffffff;stroke-width:0.0218262"
         d="m 409.96515,52.552865 a 5.8849064,5.8849064 0 0 0 -5.88491,5.884912 5.8849064,5.8849064 0 0 0 5.88491,5.884913 5.8849064,5.8849064 0 0 0 5.88492,-5.884913 5.8849064,5.8849064 0 0 0 -5.88492,-5.884912 z m -6.08591,13.594519 0.1235,9.766329 c 0.11438,9.06259 0.52457,10.374805 1.27847,12.03234 2.56146,4.576662 6.20361,6.889522 10.79159,7.025928 V 80.559423 66.147384 h -6.09627 z m 14.68747,0 v 14.412039 14.412558 h 6.09676 6.0968 l -0.12351,-9.766329 c -0.11438,-9.06259 -0.52459,-10.374791 -1.27847,-12.03234 -2.56146,-4.576635 -6.2036,-6.889509 -10.79158,-7.025928 z" />
    </clipPath>
    <inkscape:path-effect
       effect="powerclip"
       id="path-effect3223"
       is_visible="true"
       lpeversion="1"
       inverse="true"
       flatten="false"
       hide_clip="false"
       message="Utilice la regla de relleno parimpar en el diálogo &lt;b&gt;Relleno y borde&lt;/b&gt; si el resultado no está aplanada después de convertir el recorte en trayectos." />
  </defs>
  <g
     inkscape:label="Capa 1"
     inkscape:groupmode="layer"
     id="layer1">
    <g
       id="g30">
      <path
         id="path66737"
         style="display:inline;fill:url(#radialGradient855);fill-opacity:1;stroke:none;stroke-width:17.6654;stroke-miterlimit:4;stroke-dasharray:none;stroke-opacity:1"
         transform="scale(0.26458333)"
         d="M 377.95312,8.8320312 C 174.09294,8.831452 8.8314685,174.09293 8.8320312,377.95312 8.8322752,475.84987 47.721848,569.73693 116.94548,638.9602 186.16912,708.18347 280.05638,747.07255 377.95312,747.07227 475.84953,747.07203 569.73629,708.18273 638.9595,638.95952 708.18272,569.7363 747.07203,475.84954 747.07227,377.95312 747.07254,280.05637 708.18346,186.16911 638.96019,116.94547 569.73692,47.721836 475.84986,8.8322672 377.95312,8.8320312 Z"
         sodipodi:nodetypes="cssssssc" />
      <g
         id="g55453"
         style="fill:#ffffff"
         transform="matrix(0.62429315,0,0,0.62429315,473.13706,533.55754)">
        <path
           id="path32704-8"
           style="fill:#ffffff;stroke-width:0.999999"
           d="m -2302.2773,-2872.9531 c -177.0398,-0.04 -167.5986,-0.2439 -183.2227,7.4375 -13.6528,6.7123 -23.8444,16.9038 -30.5566,30.5566 -3.5611,7.2433 -5.4285,7.8375 -6.4043,23.9063 13.9586,-2.454 50.1511,-2.1446 194.2949,-2.1446 12.7455,0 17.7098,0.01 28.8262,0.01 -1.4665,-7.978 -2.55,-16.1496 -3.2305,-24.5684 -0.511,-6.3197 -0.5068,-26.0707 0,-32.2578 0.082,-0.9894 0.2005,-1.9535 0.293,-2.9355 z m -41.2559,75.0918 c -209.2412,0 -191.0316,-0.6531 -207.5,7.4433 -13.6528,6.7124 -23.8443,16.9039 -30.5566,30.5567 -8.0952,16.4657 -7.4434,-1.618 -7.4434,206.5 0,208.5291 -0.6904,323.8884 7.6543,341 3.3405,6.8501 5.8156,10.1588 12.7461,17.0488 11.5525,11.4849 23.4835,17.6141 38.6348,19.8477 3.2901,0.4851 88.0148,0.8136 188.9648,0.7324 205.5526,-0.1652 186.3358,0.5715 203.5,-7.7891 12.0247,-5.8572 23.976,-17.8073 29.8437,-29.8398 8.3475,-17.1172 7.6563,-132.2213 7.6563,-343 v -77.2325 c -10.7433,-0.9373 -20.7598,-2.4838 -30.4648,-4.6914 -11.0622,-2.5162 -21.835,-5.8904 -32.2579,-10.0214 -1.1992,0.9514 -2.5434,1.7889 -4.0371,2.4843 l -5.2402,2.4414 -44.5,-0.068 c -28.2873,-0.044 -45.593,-0.4506 -47.5,-1.1172 -8.2159,-2.8719 -13.5,-10.1878 -13.5,-18.6895 0,-6.2431 1.0095,-8.9092 5.1738,-13.6503 6.2423,-7.1095 6.4285,-7.3912 49.041,-7.4239 -23.2124,-19.3773 -42.5417,-43.5016 -56.3886,-71.1347 -7.0075,-13.9841 -12.3922,-28.3559 -16.2598,-43.3868 -16.7007,0 -26.5349,-0.01 -47.5664,-0.01 z m -76,62.0449 c 11.2452,-0.042 13.2556,0.2332 20.0254,2.7246 21.9176,8.0662 36.9311,29.3316 37.2285,52.7305 0.1334,10.5043 -1.4021,17.3119 -6.0898,27 -6.6328,13.7079 -21.2543,25.4432 -36.7168,29.4707 -7.1349,1.8596 -22.0827,1.8629 -28.8399,0.012 -14.7405,-4.0474 -30.1536,-16.5183 -36.4277,-29.4766 -13.096,-27.048 -4.4999,-57.5581 20.8301,-73.9297 11.0106,-7.1165 15.7814,-8.4728 29.9902,-8.5253 z m 385.0332,99.1289 c -10.1862,2.1794 -20.5818,3.6666 -31.1328,4.4004 -3.8154,0.2654 -13.1676,0.4856 -19.0332,0.4941 v 61.0957 c 0,166.4469 0.4134,272.9681 -3.5156,318.9532 8.454,-1.1245 10.1296,-2.927 16.1816,-5.875 12.0248,-5.8572 23.9758,-17.8075 29.8438,-29.8399 8.3458,-17.1172 7.6562,-132.2213 7.6562,-343 z m -349.5391,33.4824 5.3028,1.8633 c 13.5436,4.7603 33.0256,19.0476 42.8261,31.4082 11.1495,14.0619 19.4426,32.9904 19.6153,44.7715 0.1561,10.6526 -6.5344,20.7521 -17.3828,21.8711 -16.8405,0.5495 -167.2902,0.9537 -172.461,-0.209 -5.1984,-1.169 -12.1152,-7.0348 -14.5097,-12.3066 -3.6068,-7.9409 -1.5556,-19.3238 6.3164,-35.0547 11.4977,-22.9765 31.8204,-41.6773 54.7675,-50.3965 4.6842,-1.7799 5.5482,-1.832 9.1739,-0.5527 15.1191,5.3343 41.9126,5.8544 57.8554,1.125 z m 122.0059,1.7949 47.0742,0.2754 47.0742,0.2735 4.2539,2.8144 c 5.2461,3.4726 8.0439,9.1836 8.0743,16.4746 0.038,9.142 -6.1202,17.4383 -14.8985,20.0684 -4.5919,1.3758 -87.9185,1.4479 -92.5781,0.08 -4.3405,-1.274 -10.2362,-6.5016 -12.6348,-11.2032 -1.6354,-3.2054 -1.9897,-5.4082 -1.6758,-10.3652 0.4808,-7.5501 3.8445,-12.5478 10.8672,-16.1426 z m -226.332,134.875 c 4.6614,0 8.3268,1.3607 10.9961,4.0821 2.6692,2.7083 4.0039,6.3997 4.0039,11.0742 0,4.6354 -1.3282,8.3203 -3.9844,11.0547 -2.6563,2.7213 -6.3282,4.082 -11.0156,4.082 -4.6745,0 -8.3399,-1.3607 -10.9961,-4.082 -2.6563,-2.7344 -3.9844,-6.4193 -3.9844,-11.0547 0,-4.6745 1.3281,-8.3659 3.9844,-11.0742 2.6562,-2.7214 6.3216,-4.0821 10.9961,-4.0821 z m -29.0625,0.039 c 1.2239,0 2.3242,0.072 3.3007,0.2149 0.9896,0.1287 1.9011,0.306 2.7344,0.5273 0.8724,0.2474 1.6602,0.5274 2.3633,0.8398 0.7161,0.2995 1.3412,0.5795 1.875,0.8399 v 7.0508 h -0.8594 c -0.3645,-0.3126 -0.8268,-0.6836 -1.3867,-1.1133 -0.5469,-0.4297 -1.1719,-0.8544 -1.875,-1.2695 -0.7161,-0.4167 -1.4909,-0.7683 -2.3242,-1.0547 -0.8333,-0.2865 -1.7253,-0.4297 -2.6758,-0.4297 -1.0547,0 -2.0573,0.1692 -3.0078,0.5078 -0.9505,0.3255 -1.8294,0.8724 -2.6367,1.6406 -0.7682,0.7422 -1.3933,1.7253 -1.875,2.9492 -0.4688,1.224 -0.7031,2.7083 -0.7031,4.4532 0,1.8228 0.2539,3.3463 0.7617,4.5703 0.5208,1.2239 1.1718,2.1875 1.9531,2.8906 0.7943,0.7161 1.6797,1.2305 2.6562,1.543 0.9766,0.2995 1.9402,0.4492 2.8907,0.4492 0.9114,0 1.8099,-0.1367 2.6953,-0.4102 0.8984,-0.2734 1.7253,-0.6445 2.4805,-1.1133 0.638,-0.3776 1.2304,-0.7812 1.7773,-1.2109 0.5469,-0.4297 0.9961,-0.8008 1.3477,-1.1133 h 0.7812 v 6.9532 c -0.7292,0.324 -1.4258,0.6315 -2.0898,0.9179 -0.6641,0.2865 -1.3607,0.5339 -2.0899,0.7422 -0.9505,0.2734 -1.8424,0.4818 -2.6758,0.625 -0.8333,0.1431 -1.9791,0.2149 -3.4375,0.2149 -2.1614,0 -4.1601,-0.319 -5.9961,-0.9571 -1.8229,-0.638 -3.3919,-1.5885 -4.707,-2.8515 -1.3151,-1.2631 -2.3372,-2.8386 -3.0664,-4.7266 -0.7161,-1.888 -1.0742,-4.069 -1.0742,-6.543 0,-2.3047 0.345,-4.3945 1.0351,-6.2695 0.6901,-1.875 1.6928,-3.4831 3.0079,-4.8242 1.263,-1.2891 2.8255,-2.2852 4.6875,-2.9883 1.875,-0.7031 3.9192,-1.0547 6.1328,-1.0547 z m 49.7851,0.5664 h 8.9649 l 10.6054,16.6602 v -16.6602 h 6.875 v 29.082 h -7.2265 l -12.3438,-19.9609 v 19.9609 h -6.875 z m 30.9571,0 h 25.664 v 5.625 h -9.082 v 23.457 h -7.5 v -23.457 h -9.082 z m 30.1757,0 h 12.5782 c 1.7187,0 3.1966,0.098 4.4336,0.293 1.2369,0.1953 2.3958,0.6184 3.4765,1.2695 1.0938,0.651 1.9596,1.4974 2.5977,2.5391 0.651,1.0286 0.9765,2.3242 0.9765,3.8867 0,2.1484 -0.5013,3.8997 -1.5039,5.2539 -0.9896,1.3542 -2.4088,2.4805 -4.2578,3.3789 l 9.707,12.4609 h -9.1601 l -7.9297,-10.664 h -3.457 v 10.664 h -7.461 z m 29.9805,0 h 17.0313 v 5.1563 h -4.7657 v 18.7695 h 4.7657 v 5.1562 h -17.0313 v -5.1562 h 4.7656 v -18.7695 h -4.7656 z m 23.1445,0 h 11.2891 c 2.3437,0 4.056,0.078 5.1367,0.2344 1.0938,0.1562 2.1745,0.5012 3.2422,1.0351 1.1068,0.5599 1.9271,1.3151 2.4609,2.2657 0.5469,0.9375 0.8204,2.0117 0.8204,3.2226 0,1.4063 -0.3711,2.6498 -1.1133,3.7305 -0.7422,1.0677 -1.7904,1.901 -3.1446,2.5 v 0.1562 c 1.9011,0.3776 3.405,1.1589 4.5118,2.3438 1.1197,1.1849 1.6796,2.7474 1.6796,4.6875 0,1.4062 -0.2864,2.6628 -0.8593,3.7695 -0.5599,1.1068 -1.3347,2.0248 -2.3242,2.7539 -1.1459,0.8594 -2.4089,1.4714 -3.7891,1.836 -1.3672,0.3646 -3.1312,0.2185 -5.2149,0.5468 h -12.6953 z m 30.0586,0 h 7.5391 v 18.1445 c 0,2.0183 0.4232,3.5222 1.2695,4.5118 0.8464,0.9895 2.2201,1.4843 4.1211,1.4843 1.875,0 3.2422,-0.4752 4.1016,-1.4257 0.8724,-0.9506 1.3086,-2.474 1.3086,-4.5704 v -18.1445 h 7.539 v 18.5547 c 0,3.5938 -1.0937,6.3477 -3.2812,8.2617 -2.1875,1.9141 -5.4102,2.8711 -9.668,2.8711 -4.2578,0 -7.4805,-0.957 -9.668,-2.8711 -2.1744,-1.914 -3.2617,-4.6614 -3.2617,-8.2422 z m 29.3555,0 h 8.5156 l 6.2891,11.25 6.0742,-11.25 h 8.2422 l -10.7227,17.832 v 11.25 h -7.5 v -10.8984 z m 33.0078,0 h 21.0332 v 5.625 h -13.5723 v 5.0195 h 12.5958 v 5.625 h -12.5958 v 7.1875 h 13.5723 v 5.625 h -21.0332 z m 27.3223,0 h 8.9648 l 10.6055,16.6602 v -16.6602 h 6.875 v 29.082 h -7.2266 l -12.3437,-19.9609 v 19.9609 h -6.875 z m 30.957,0 h 25.6641 v 5.625 h -9.0821 v 23.457 h -7.5 v -23.457 h -9.082 z m 30.1758,0 h 21.0351 v 5.625 h -13.5742 v 5.0195 h 12.5977 v 5.625 h -12.5977 v 7.1875 h 13.5742 v 5.625 h -21.0351 z m -315.8379,4.8828 c -0.9505,0 -1.849,0.1693 -2.6953,0.5078 -0.8334,0.3386 -1.6016,0.8985 -2.3047,1.6797 -0.651,0.7292 -1.1849,1.7383 -1.6016,3.0274 -0.4036,1.276 -0.6054,2.7604 -0.6054,4.4531 0,1.7318 0.1953,3.2097 0.5859,4.4336 0.4037,1.2109 0.931,2.2005 1.582,2.9687 0.6511,0.7683 1.4128,1.3347 2.2852,1.6993 0.8724,0.3645 1.7904,0.5468 2.7539,0.5468 0.9635,0 1.8815,-0.1823 2.7539,-0.5468 0.8724,-0.3777 1.6341,-0.9571 2.2852,-1.7383 0.7291,-0.8854 1.2695,-1.9271 1.6211,-3.125 0.3515,-1.211 0.5273,-2.6302 0.5273,-4.2578 0,-1.7448 -0.2018,-3.2292 -0.6055,-4.4532 -0.4036,-1.2239 -0.931,-2.2135 -1.582,-2.9687 -0.6641,-0.7813 -1.4323,-1.3477 -2.3047,-1.6992 -0.8594,-0.3516 -1.7578,-0.5274 -2.6953,-0.5274 z m 93.2109,0.2891 c -0.4157,-0.08 -0.8375,-0.087 -1.1992,0.1797 h -2.7148 v 7.832 h 2.3047 c 1.1979,0 2.2005,-0.059 3.0078,-0.1758 0.8073,-0.1171 1.4843,-0.3841 2.0312,-0.8008 0.5209,-0.4036 0.8985,-0.8463 1.1328,-1.3281 0.2475,-0.4948 0.3711,-1.1523 0.3711,-1.9726 0,-0.7292 -0.1497,-1.3542 -0.4492,-1.875 -0.2995,-0.5209 -0.8138,-0.931 -1.543,-1.2305 -0.5078,-0.2084 -1.1002,-0.332 -1.7773,-0.3711 -0.3386,-0.026 -0.7483,-0.1782 -1.1641,-0.2578 z m 49.211,0.1601 v 6.1524 h 1.1718 c 1.1849,0 2.1941,-0.02 3.0274,-0.059 0.8333,-0.039 1.4909,-0.1693 1.9726,-0.3906 0.6771,-0.2995 1.1198,-0.6836 1.3282,-1.1524 0.2083,-0.4817 0.3125,-1.0351 0.3125,-1.6601 0,-0.4818 -0.1237,-0.9636 -0.3711,-1.4453 -0.2344,-0.4818 -0.6575,-0.8399 -1.2696,-1.0743 -0.5468,-0.2083 -1.2304,-0.3189 -2.0507,-0.332 -0.8073,-0.026 -1.9467,-0.039 -3.418,-0.039 z m 0,11.1719 v 7.2461 h 0.5468 c 2.1094,0 3.6199,4e-4 4.5313,-0.018 0.9115,-0.013 1.7513,-0.1818 2.5195,-0.5078 0.7813,-0.3255 1.3152,-0.7571 1.6016,-1.291 0.2995,-0.5469 0.4492,-1.1699 0.4492,-1.873 0,-0.9245 -0.1823,-1.6341 -0.5469,-2.1289 -0.3515,-0.5078 -0.957,-0.8855 -1.8164,-1.1329 -0.5859,-0.1693 -1.3932,-0.2609 -2.4218,-0.2734 -1.0287,-0.013 -2.1029,-0.019 -3.2227,-0.019 z m -43.0508,34.4199 c 6.1892,0 12.4596,0.6707 15.4297,2.0196 8.511,3.8657 13.5307,13.8473 11.3398,22.5488 -1.4001,5.5602 -7.0391,12.258 -12.3535,14.6719 v 0.012 c -5.7403,2.6058 -23.3492,2.6185 -29.0566,0.018 -5.2866,-2.4077 -11.1217,-9.0127 -12.5078,-14.1602 -2.3677,-8.7927 2.5928,-18.1704 12.205,-23.0742 2.6466,-1.3525 8.7541,-2.0293 14.9434,-2.0313 z m -94.793,0.127 c 11.78,0 16.1536,1.2083 20.9942,5.8027 11.1502,10.5827 7.576,27.7161 -7.0606,33.8496 -5.0188,2.1031 -22.7796,1.7632 -27.7812,-0.5312 -7.099,-3.2565 -13.4203,-11.6994 -13.4786,-18.0039 -0.068,-7.4468 5.192,-15.5898 12.293,-19.0274 3.5554,-1.7212 6.2071,-2.0898 15.0332,-2.0898 z m 187.1602,0 c 8.412,0 11.3324,0.3891 14.2949,1.9004 9.8772,5.039 14.7236,14.5789 12.123,23.8672 -1.6595,5.9274 -8.0452,12.6449 -13.4257,14.123 -6.6721,1.8331 -23.3267,1.3711 -28.0567,-0.7773 -8.3647,-3.7994 -14.3186,-14.3008 -12.5508,-22.1367 1.0697,-4.7427 2.3312,-6.8889 6.2754,-10.6758 5.2977,-5.0867 9.4099,-6.3008 21.3399,-6.3008 z m 91.7109,0.078 c 1.3472,0 2.8062,0.03 4.3945,0.078 10.0463,0.3134 11.4136,0.5907 15.1582,3.0723 4.7915,3.1743 9.1959,10.1115 9.9395,15.6563 1.0427,7.7732 -4.3184,16.6681 -12.2031,20.25 -4.9655,2.2557 -24.2109,2.5719 -29.0078,0.4765 -14.9155,-6.5159 -17.9938,-23.9462 -6.0762,-34.4101 4.4174,-3.8785 8.3647,-5.1349 17.7949,-5.1231 z m -260.666,69.0762 7.5293,5.4785 c 4.1406,3.0132 8.2305,5.9816 9.0898,6.5977 1.643,1.1777 12.2565,8.895 17.7012,12.8711 1.76,1.2852 4.9883,3.6311 7.1738,5.2128 7.8629,5.6905 8.461,6.1612 8.8887,7.004 0.2854,0.5624 0.3862,1.0118 0.377,1.6796 -0.03,2.2661 -1.6747,3.8715 -3.959,3.8672 -2.141,0 -1.2309,0.6012 -24.4297,-16.2636 -24.9673,-18.1505 -22.323,-16.2602 -22.5606,-16.1133 -0.1054,0.065 -9.9601,7.2218 -21.9003,15.9043 -11.9403,8.6825 -22.0252,15.9154 -22.4102,16.0722 -0.9341,0.3806 -2.6115,0.474 -3.3789,0.1875 -2.1094,-0.7871 -3.1726,-3.3335 -2.2461,-5.3808 0.4204,-0.929 0.8474,-1.3115 4.125,-3.6856 1.496,-1.0836 3.8733,-2.8107 5.2813,-3.8379 1.4077,-1.0272 4.8276,-3.5111 7.5996,-5.5195 2.772,-2.0084 5.939,-4.3121 7.039,-5.1191 1.1,-0.8071 5.8526,-4.2645 10.5606,-7.6817 4.708,-3.4172 10.1251,-7.352 12.039,-8.7441 z m 152.748,9.4082 0.8907,2.2715 c 0.7338,1.8703 1.041,2.3054 1.7422,2.4648 0.4682,0.1066 1.5583,0.3626 2.4218,0.5703 l 1.5703,0.3789 -1.832,1.5645 -1.832,1.5644 0.2187,2.3438 c 0.1206,1.2883 0.1621,2.3418 0.092,2.3418 -0.07,0 -0.9611,-0.5225 -1.9804,-1.1602 -2.0506,-1.2826 -1.6572,-1.3039 -5.3614,0.3086 l -1.1543,0.502 0.3868,-1.666 c 0.2131,-0.916 0.4812,-1.9601 0.5957,-2.3203 0.1579,-0.4969 -0.1881,-1.0989 -1.4317,-2.4942 -0.9018,-1.0118 -1.5867,-1.8927 -1.5215,-1.957 0.065,-0.064 1.1224,-0.1653 2.3477,-0.2246 2.4372,-0.1183 2.4006,-0.089 4.1894,-3.3047 z m -36.1152,0 0.8867,2.2637 c 0.4884,1.2448 1.1189,2.3274 1.4004,2.4063 0.2816,0.079 1.3658,0.3254 2.4082,0.5488 l 1.8946,0.4062 -1.8477,1.6524 -1.8477,1.6543 0.295,2.2832 c 0.1621,1.2562 0.2115,2.2836 0.1113,2.2832 -0.1002,-3e-4 -1.0359,-0.5169 -2.0801,-1.1465 -2.0959,-1.2638 -1.7064,-1.2857 -5.3476,0.2988 l -1.1641,0.5079 0.5859,-2.2833 c 0.662,-2.5735 0.6205,-2.7289 -1.2695,-4.5605 -0.718,-0.6957 -1.3066,-1.3812 -1.3066,-1.5215 0,-0.1402 0.8738,-0.2539 1.9414,-0.2539 1.0675,0 2.2121,-0.145 2.5429,-0.3223 0.3307,-0.1772 1.0956,-1.1983 1.6993,-2.2695 z m 17.8652,0.5743 c 0.105,0 0.1989,0.1009 0.3165,0.2617 0.229,0.3133 0.671,1.2744 0.9804,2.1347 0.3096,0.8605 0.787,1.6263 1.0606,1.7032 0.2736,0.077 1.3239,0.3053 2.3359,0.5058 1.012,0.2007 1.8398,0.4626 1.8399,0.584 0,0.1213 -0.7934,0.8546 -1.7637,1.6289 l -1.7637,1.4082 0.1836,1.6289 c 0.1009,0.8959 0.2496,1.9517 0.3301,2.3477 0.1965,0.9634 -0.071,0.9153 -2.1211,-0.3906 -0.9599,-0.6115 -1.8885,-1.1148 -2.0645,-1.1192 -0.1761,0 -1.2202,0.4171 -2.3203,0.9375 -1.1,0.5204 -2,0.8178 -2,0.6602 0,-0.1576 0.2238,-1.2536 0.4981,-2.4356 l 0.498,-2.1504 -1.3769,-1.4648 c -0.7581,-0.8056 -1.4872,-1.5141 -1.6192,-1.5762 -0.7665,-0.3602 0.01,-0.7014 1.5996,-0.705 2.7315,-0.01 3.0164,-0.1633 4.2032,-2.3086 0.6728,-1.2164 0.9527,-1.6592 1.1835,-1.6504 z m 127.2383,1.7246 c 1.1595,0 2.2316,0.035 3.086,0.123 4.2449,0.4362 5.7411,0.9218 6.9316,2.2461 1.2265,1.3643 1.1781,0.856 1.1856,12.3379 0.01,5.5858 0.064,10.4488 0.1328,10.8066 0.2468,1.2766 1.6591,2.2037 2.791,1.8301 1.1563,-0.3816 1.6398,-1.0644 1.873,-2.6523 0.1996,-1.3584 1.7828,-13.567 1.9903,-15.3457 0.089,-0.7647 0.2216,-1.3906 0.2949,-1.3906 0.4547,0 4.6099,2.327 6.664,3.7324 3.5764,2.4467 7.2531,5.8168 9.8086,8.9902 2.3126,2.8717 4.8476,7.0755 6.2403,10.3477 1.5256,3.5843 2.8474,8.633 3.1875,12.1757 0.1375,1.4314 0.1916,1.5782 0.5859,1.5782 0.5068,0 2.9106,1.2199 3.8125,1.9355 1.4634,1.1612 2.8145,3.1903 3.4141,5.127 0.1648,0.5314 0.2869,1.5913 0.3398,2.9687 l 0.082,2.1426 h -53.1348 c -46.7007,0 -53.1459,-0.027 -53.2207,-0.2227 -0.1686,-0.4389 0.077,-3.4829 0.3691,-4.5781 0.7646,-2.8624 2.7765,-5.3791 5.2696,-6.5918 0.7168,-0.3485 1.5176,-0.6781 1.7792,-0.7304 0.5913,-0.1183 0.6751,-0.3242 0.8907,-2.2305 1.0742,-9.4989 5.719,-18.7972 12.8808,-25.7813 2.6428,-2.5772 4.9833,-4.3982 8.3828,-6.5234 1.1553,-0.7222 4.672,-2.4758 4.7676,-2.377 0.093,0.096 0.4312,2.4793 0.8887,6.2754 0.07,0.5787 0.3368,2.6414 0.5937,4.584 0.2571,1.9426 0.5329,4.0731 0.6133,4.7344 0.2763,2.2735 0.4144,2.7254 0.9785,3.2207 0.6225,0.5465 1.0569,0.6742 1.961,0.5723 0.683,-0.077 1.3616,-0.5541 1.7597,-1.2383 0.1267,-0.2177 0.1956,-3.2867 0.25,-11.1231 l 0.074,-10.8203 0.3515,-0.6758 c 0.6104,-1.1751 1.6864,-2.1223 2.8809,-2.5371 1.5046,-0.5224 5.7657,-0.9019 9.2441,-0.9101 z m -116.5761,13.7578 c 22.2272,0 20.707,0.1621 21.7773,2.373 0.5833,1.2049 0.6543,1.9641 0.6543,7.0098 v 5.6582 h 0.8105 c 1.2558,0 3.8565,1.4691 4.8067,2.7148 1.7876,2.3438 1.7133,0.6382 1.7285,39.5645 l 0.016,36.0391 1.2793,0.205 c 3.5911,0.5743 4.8652,4.9902 2.0742,7.1856 l -0.8808,0.6914 -41.9551,-0.012 c -36.4874,-0.011 -42.0722,-0.073 -42.834,-0.4864 v 0 c -1.9316,-1.0481 -2.4713,-4.1461 -1.0215,-5.8691 0.453,-0.5384 1.3891,-1.1485 2.0801,-1.3555 l 1.2559,-0.377 v -35.9082 c 0,-39.0101 -0.075,-37.2908 1.7441,-39.6758 0.4241,-0.5559 1.5727,-1.4312 2.5527,-1.9433 l 1.7833,-0.9297 v -5.8574 c 8e-4,-6.514 0.1841,-7.2798 2.0156,-8.3965 0.9968,-0.6078 1.8352,-0.6238 31.0566,-0.625 4.2214,-2e-4 7.8813,0 11.0567,0 z m -145.5157,3.8808 c 0.8381,-0.01 1.6753,0.027 2.5118,0.096 8.2342,0.6724 15.1204,4.0302 20.6113,10.0507 7.3993,8.1132 9.8427,19.8062 6.3379,30.3418 -3.7708,11.3354 -13.6974,19.3468 -25.6641,20.7129 -1.9202,0.2192 -5.5625,0.1848 -7.4414,-0.072 v 0 c -13.781,-1.8842 -24.4154,-12.466 -26.4355,-26.3047 -0.2907,-1.9911 -0.2381,-6.9284 0.094,-8.8945 1.1008,-6.5249 3.7648,-11.9136 8.1699,-16.5235 5.6555,-5.9181 13.7148,-9.3546 21.8164,-9.4043 z m 125.3575,0.5567 c -0.3372,0 -0.7031,-8e-4 -1.1055,0.01 -1.8773,0.049 -3.8183,1.415 -4.7949,3.375 -1.6572,3.3255 -0.48,6.8304 2.8906,8.6074 1.2362,0.6517 4.0091,0.6712 5.5254,0.039 v 0 c 4.0821,-1.7056 5.1962,-6.7953 2.1914,-10.0117 -1.4424,-1.544 -2.3469,-1.9875 -4.707,-2.0176 z m 7.0703,0.029 v 0.8086 c 0,0.7954 0.036,0.8066 2.5488,0.8066 h 2.5508 l -0.07,5.2793 -0.07,5.2813 h 0.8808 0.8789 v -5.2813 -5.2793 h 2.584 c 2.4949,0 2.5773,-0.023 2.4785,-0.7207 -0.1013,-0.7129 -0.1586,-0.7203 -5.9414,-0.8066 z m -26.2403,0.016 v 6.0801 6.0801 h 0.959 0.961 v -2.8223 -2.8203 l 3.3593,-0.039 3.3614,-0.039 v 2.8593 2.8614 h 0.9589 0.961 v -6.0801 -6.0801 h -0.961 -0.9589 v 2.5606 2.5586 h -3.3614 -3.3593 v -2.5586 -2.5606 h -0.961 z m 39.3594,0 v 6.0801 6.0801 h 4 c 3.7867,0 4,-0.035 4,-0.6407 0,-0.595 -0.2122,-0.6406 -3.0391,-0.6406 h -3.041 v -2.0664 -2.0664 l 2.6407,-0.094 c 2.4613,-0.087 2.6468,-0.1413 2.7421,-0.8125 0.099,-0.6987 0.022,-0.7208 -2.6406,-0.7207 h -2.7422 v -1.7598 -1.7598 h 3.041 c 3.0294,0 3.0391,0 3.0391,-0.8008 v -0.7988 h -4 z m 9.9199,0 v 6.0801 6.0801 h 4.1602 c 3.9466,0 4.1601,-0.035 4.1601,-0.6407 0,-0.5973 -0.2124,-0.6406 -3.1992,-0.6406 h -3.2011 v -5.4394 -5.4395 h -0.959 z m -30.2304,1.3652 c 2.3288,0.028 4.6308,1.7487 4.6308,4.6114 0,3.1191 -1.7002,4.91 -4.6406,4.8886 -0.88,-0.01 -1.9935,-0.2261 -2.4766,-0.4882 -1.8974,-1.0294 -2.7111,-4.3377 -1.6015,-6.5137 0.8888,-1.7431 2.4944,-2.5173 4.0879,-2.4981 z m -124.8321,4.3731 c -0.302,-0.015 -0.6101,0.082 -0.873,0.2949 -0.3368,0.2729 -0.3824,0.4605 -0.4317,1.7422 l -0.057,1.4375 -1.2031,0.1113 c -3.2147,0.3013 -5.8014,1.6179 -7.5586,3.8438 -1.9924,2.5238 -2.7559,5.0801 -2.4102,8.0664 0.5827,5.0334 3.3361,7.4658 10.5235,9.293 l 0.6796,0.1718 v 7.2637 7.2637 l -0.5996,-0.084 c -1.6683,-0.234 -3.3571,-0.9304 -4.2988,-1.7715 -1.1389,-1.0174 -1.7292,-2.2289 -2.1328,-4.3848 -0.2513,-1.3429 -0.8242,-2.0938 -1.8145,-2.3711 -1.1907,-0.3333 -2.251,0.1266 -2.8144,1.2207 -0.4813,0.9345 0.048,3.779 1.0625,5.711 1.5374,2.9268 4.3454,4.7427 8.4414,5.457 0.7689,0.1342 1.5689,0.2422 1.7773,0.2422 0.3682,0 0.379,0.038 0.3789,1.3242 0,0.9575 0.072,1.4261 0.2579,1.6914 0.506,0.7225 1.48,0.8001 2.0214,0.1602 v 0 c 0.22,-0.26 0.2813,-0.6302 0.2813,-1.7324 v -1.4004 l 0.8398,-0.1055 c 1.6579,-0.2075 4.2232,-0.9334 5.5586,-1.5723 3.5798,-1.7126 5.5935,-5.443 5.5996,-10.3789 0,-1.8474 -0.3516,-3.5925 -0.9727,-4.8125 -0.1938,-0.3811 -0.8629,-1.2041 -1.4882,-1.83 -0.9068,-0.9076 -1.4461,-1.2876 -2.6582,-1.8692 -1.4172,-0.68 -5.1775,-2.021 -6.3614,-2.2695 l -0.5215,-0.1094 0.041,-6.5039 0.043,-6.5039 0.7188,0.051 c 2.2065,0.1557 4.5145,1.882 5.1328,3.8418 0.6109,1.9361 2.5328,2.9651 3.9394,2.1074 1.2951,-0.7897 1.2997,-2.2731 0.012,-4.6875 -1.5188,-2.8511 -4.5598,-4.7486 -8.4434,-5.2656 l -1.4414,-0.1914 v -1.3379 c 0,-1.2078 -0.038,-1.3783 -0.3926,-1.7324 -0.2383,-0.2384 -0.5358,-0.3656 -0.8379,-0.3809 z m -1.3281,7.4668 v 6.2617 c 0,7.1057 0.153,6.4733 -1.4394,5.959 -3.3815,-1.0918 -4.9788,-2.9129 -5,-5.6992 -0.011,-1.4372 0.3461,-2.6283 1.1601,-3.8672 0.9795,-1.4908 2.3425,-2.2649 4.4981,-2.5508 z m 106.1504,7.2754 v 6.2383 6.2402 h 5.9199 5.9199 v -6.2402 -6.2383 h -5.9199 z m 24.9609,0 v 6.2383 6.2402 h 5.92 5.9199 v -6.2402 -6.2383 h -5.9199 z m 22.4004,0 v 6.2383 6.2402 h 5.9199 5.92 v -6.2402 -6.2383 h -5.92 z m -150.8047,10.8457 c 0.2827,0 2.9791,1.0005 3.7539,1.3926 2.0187,1.0215 3.1241,2.77 3.2598,5.1562 0.1746,3.0668 -1.134,5.4972 -3.584,6.6563 -0.9997,0.4729 -3.2702,0.97 -3.4785,0.7617 -0.1629,-0.1629 -0.1144,-13.9668 0.049,-13.9668 z m 103.4434,8.3398 v 6.2461 6.2481 h 5.8867 c 4.5788,0 5.9208,-0.093 6.0469,-0.4219 0.089,-0.2321 0.1417,-3.0044 0.1152,-6.1602 l -0.049,-5.7382 -6,-0.088 z m 24.9609,0.014 v 6.2402 6.2403 h 5.92 5.9199 v -6.2403 -6.2402 h -5.9199 z m 22.4004,0 v 6.2402 6.2403 h 5.9199 c 5.0453,0 5.9208,-0.072 5.9278,-0.4805 0,-0.2638 0.01,-2.9279 0.01,-5.9199 0,-2.992 0,-5.5838 -0.01,-5.7598 0,-0.2014 -2.1999,-0.3203 -5.9278,-0.3203 z m 57.4239,6.2461 h 14.416 c 11.3966,0 14.4309,0.041 14.4843,0.1894 0.038,0.1032 0.034,0.3968 -0.01,0.6524 -0.09,0.5905 0.2084,3.4188 0.5059,4.7949 0.8771,4.0563 3.052,8.1118 5.9297,11.0586 3.2305,3.308 7.4595,5.534 12.1621,6.4023 1.9423,0.3587 5.7182,0.3603 7.666,0 5.3842,-0.9898 10.2109,-3.8791 13.6797,-8.1895 2.9215,-3.6302 4.8049,-8.7459 4.8066,-13.0566 4e-4,-0.7579 0.041,-1.4845 0.092,-1.6152 0.082,-0.2147 1.5002,-0.2383 14.5039,-0.2383 h 14.4121 v 2.6035 c 0,1.8725 -0.063,2.8149 -0.2246,3.3594 -0.3814,1.2842 -1.8991,2.7107 -3.1582,2.9687 -0.2479,0.051 -2.4876,0.3186 -4.9785,0.5957 -2.4908,0.2771 -4.5995,0.5465 -4.6855,0.5996 -0.086,0.053 -0.2035,0.3162 -0.2618,0.584 -0.5058,2.3246 -2.3563,6.98 -3.7578,9.4551 l -0.8379,1.4805 1.254,1.539 c 0.6896,0.8465 1.6703,2.0809 2.1796,2.7422 0.5094,0.6613 1.3127,1.6752 1.7852,2.2539 1.1776,1.4421 1.4485,2.1037 1.4277,3.4805 -0.026,1.7656 -0.2526,2.1094 -3.6621,5.5586 -3.6019,3.6438 -3.9667,3.8867 -5.8222,3.8867 -1.6635,0 -1.8569,-0.1138 -6.377,-3.7207 -1.9423,-1.5499 -3.6018,-2.8164 -3.6895,-2.8164 -0.088,0 -0.6835,0.3031 -1.3222,0.6738 -2.3353,1.3559 -6.6864,3.1188 -9.4551,3.8301 -0.3666,0.094 -0.6631,0.2687 -0.709,0.4199 -0.043,0.1429 -0.2547,1.7478 -0.4687,3.5664 -0.7047,5.9863 -0.7494,6.1655 -1.875,7.2911 -1.2354,1.2353 -1.4253,1.2728 -6.4629,1.3046 -2.4341,0.015 -4.6261,-0.023 -4.8809,-0.088 v 0 c -0.7362,-0.1905 -1.618,-0.7078 -2.1211,-1.2422 -0.9369,-0.9952 -1.2182,-1.8914 -1.5488,-4.9356 -0.3693,-3.3999 -0.6182,-5.5086 -0.6875,-5.8183 -0.054,-0.2419 -0.2495,-0.3785 -0.7129,-0.4981 -3.3459,-0.8633 -7.6975,-2.655 -10.0508,-4.1406 -0.3167,-0.2 -0.6656,-0.3633 -0.7754,-0.3633 -0.1096,0 -1.3107,0.8906 -2.6699,1.9805 -4.1658,3.3403 -5.4902,4.3032 -6.1816,4.4902 -0.9967,0.2695 -2.5315,0.1069 -3.3047,-0.3516 -0.3576,-0.212 -2.016,-1.761 -3.6856,-3.4414 -3.5042,-3.5269 -3.7275,-3.8673 -3.7168,-5.6836 0.011,-1.661 0.038,-1.7062 4.752,-7.58 l 1.9199,-2.3926 -0.4531,-0.7637 c -1.5347,-2.5828 -2.9215,-5.8758 -3.9668,-9.4219 l -0.3809,-1.2949 -1.3164,-0.1719 c -0.724,-0.094 -2.6361,-0.31 -4.248,-0.4804 -1.612,-0.1701 -3.4038,-0.4076 -3.9824,-0.5274 -1.4259,-0.2951 -2.3758,-1.0136 -3.0411,-2.2988 l -0.4921,-0.9473 v -2.8418 z m -57.4239,12.6191 v 6.2481 6.2461 h 5.9199 5.92 l 0.039,-5.5996 c 0.023,-3.0801 0.058,-5.8522 0.08,-6.1602 0.038,-0.512 -0.4733,-0.5669 -5.959,-0.6465 z m -16.4004,0.014 h -6 v 6.2382 6.2403 h 5.9063 5.9082 l 0.092,-6.2403 0.094,-6.2402 z m -30.9609,0 v 6.246 6.2461 l 5.9863,-0.086 5.9863,-0.088 0.094,-6.1601 0.096,-6.1582 h -6.0801 z m -90.4199,5.2675 c 12.1046,0 16.7936,0.046 17.1504,0.1485 1.7515,0.5044 3.1191,2.3336 3.1191,4.1699 0,1.8816 -0.9616,3.3997 -2.6406,4.1719 l -0.7988,0.3691 -30.8809,0.025 c -17.675,0.015 -31.1376,-0.037 -31.4824,-0.1172 v 0 c -1.422,-0.3376 -2.5638,-1.2624 -3.1446,-2.5469 -0.4001,-0.8851 -0.4454,-2.6216 -0.09,-3.4727 0.3812,-0.9123 1.2424,-1.8533 2.0957,-2.289 l 0.7812,-0.3985 31.1993,-0.047 c 5.7975,-0.01 10.6565,-0.012 14.6914,-0.012 z m 90.7402,12.6524 v 6.2383 6.2402 h 5.9199 5.92 v -6.2402 -6.2383 h -5.92 z m 20.1602,0 v 6.2383 6.2402 h 10.08 10.0801 v -6.2402 -6.2383 h -10.0801 z m 27.2011,0 v 6.2383 6.2402 h 5.92 5.9199 v -6.2402 -6.2383 h -5.9199 z m -153.6914,0.291 c 37.2429,0 38.684,0.015 39.3106,0.2988 1.6974,0.771 2.6243,2.2202 2.6269,4.1055 0,1.8543 -0.963,3.3463 -2.6484,4.0918 -0.6411,0.2835 -2.1424,0.2978 -38.8086,0.3379 -20.9777,0.023 -38.5039,0 -38.9473,-0.057 -0.9865,-0.1205 -1.6542,-0.453 -2.3906,-1.1894 -0.9692,-0.9692 -1.2781,-1.7367 -1.2812,-3.1914 0,-1.121 0.058,-1.3869 0.4707,-2.1328 0.2596,-0.4685 0.7379,-1.0637 1.0644,-1.3223 1.286,-1.0185 -1.8112,-0.9453 40.6035,-0.9414 z m -52.0605,12.3965 h 53.1992 53.2012 l 0.8144,0.4297 c 0.854,0.4506 1.6273,1.2196 2.1016,2.0918 0.2063,0.3793 0.2816,0.8807 0.2812,1.8769 -6e-4,1.6295 -0.3074,2.3317 -1.455,3.3418 -1.4134,1.2441 3.6718,1.1386 -55.0118,1.1328 -50.7001,0 -52.6831,-0.014 -53.5039,-0.2988 -0.9617,-0.3322 -1.9566,-1.2063 -2.4785,-2.1758 -0.4573,-0.8495 -0.4948,-3.0858 -0.064,-3.8769 0.4743,-0.8722 1.2475,-1.6412 2.1015,-2.0918 z"
           transform="scale(0.26458333)" />
        <path
           id="path34294-0"
           style="fill:#ffffff;stroke-width:0.310162"
           d="m -2069.0625,-3088.4805 c -14.315,0.014 -24.2412,0.8076 -36.9102,2.9551 -76.535,12.9721 -140.7457,65.1045 -169.4648,137.5879 -8.0035,20.1997 -12.8708,41.577 -14.8203,65.0762 -0.5068,6.1871 -0.511,25.938 0,32.2578 2.4465,30.2661 9.9036,57.4327 22.8633,83.2949 29.7301,59.3295 84.7106,102.5083 149.209,117.1797 13.0017,2.9574 26.5601,4.7277 41.6796,5.4414 h 0.01 c 3.7686,0.1772 18.2263,-0.099 23.1797,-0.4434 64.7063,-4.4998 123.7121,-36.8213 162.7754,-89.1621 23.517,-31.5103 37.9837,-68.3474 42.4511,-108.0918 1.2564,-11.1768 1.6381,-29.0842 0.8399,-39.3906 -1.8784,-24.2559 -6.7793,-45.7575 -15.2852,-67.0586 -29.1318,-72.952 -94.7295,-125.2306 -172.0957,-137.1543 -12.4936,-1.9253 -20.5058,-2.4922 -34.4277,-2.4922 z m 53.1191,79.2539 c 2.8024,0.073 5.5847,0.4402 8.1934,1.1075 10.3767,2.6539 19.7384,11.132 23.1094,20.9296 1.6879,4.9059 1.9547,12.1733 0.6386,17.377 -1.3406,5.2993 -5.2625,11.5331 -9.6562,15.3516 -4.4243,3.8449 -8.6858,7.6582 -14.5293,7.6582 v 0 c -2.4623,0 -3.918,0.7901 -7.7773,0.8808 -5.2966,0.1225 -7.2021,-0.088 -11.2363,-1.2402 -5.6315,-1.6097 -10.4802,-4.4878 -14.7949,-8.7832 -4.1383,-4.1193 -6.5832,-8.1733 -8.0958,-13.4238 -1.0057,-3.4942 -1.1844,-10.3261 -0.371,-14.25 2.1671,-10.4535 10.4065,-19.6611 21.0761,-23.5547 4.0514,-1.4788 8.7747,-2.1744 13.4453,-2.0528 z m -32.4336,92.4688 c 6.3379,0 8.6941,0.1221 11.0098,0.5488 9.4303,1.7382 16.3235,5.0599 21.8477,10.5274 6.5079,6.4414 9.7851,14.6714 9.7851,24.5742 4e-4,6.7389 -1.378,18.4204 -2.8301,23.9804 -0.3424,1.3108 -3.9011,13.9681 -7.9082,28.127 -4.0074,14.1589 -7.7632,27.6977 -8.3457,30.0859 -2.5659,10.5287 -3.5917,18.8926 -2.9726,24.2168 0.9853,8.4768 3.9081,11.5923 12.2344,13.0391 4.3857,0.7623 12.6341,0.4522 16.9492,-0.6367 4.3219,-1.0904 7.198,-1.9594 9.5625,-2.8926 1.0737,-0.4241 2.006,-0.7166 2.0703,-0.6523 0.1293,0.1292 -3.4035,15.1046 -3.6113,15.3125 -0.2015,0.201 -17.314,6.7344 -22.5879,8.623 -8.6654,3.103 -13.3613,4.2257 -20.3164,4.8633 v 0.01 c -3.9719,0.3552 -12.6168,0.3408 -15.9727,-0.037 -11.4792,-1.2903 -20.3904,-5.321 -26.8848,-12.1582 -6.7336,-7.0885 -9.5204,-15.4015 -8.9648,-26.7363 0.5692,-11.6175 1.7907,-17.2044 10.4141,-47.6152 10.7232,-37.8153 11.7832,-42.3802 11.7832,-51.377 0.01,-4.8786 -0.5681,-8.2237 -1.8653,-10.8652 -2.4495,-4.9882 -7.479,-6.8145 -17.9785,-6.5235 -6.0835,0.1679 -8.1207,0.5713 -15.9375,3.1622 -2.3682,0.785 -4.3679,1.3645 -4.4473,1.2851 -0.078,-0.078 0.6717,-3.5241 1.668,-7.6582 l 1.8125,-7.5176 1.5508,-0.6875 c 6.3374,-1.2263 24.483,-9.0903 30.6055,-10.666 7.8259,-2.0141 10.5022,-2.332 19.33,-2.332 z m -124.6875,20.6914 h 13.9258 v 46.168 h 46.1699 v 14.0918 h -46.1699 v 46.1699 h -13.9258 v -46.1699 h -46.1679 v -14.0918 h 46.1679 z"
           transform="scale(0.26458333)" />
      </g>
    </g>
    <path
       style="fill:#ffffff;stroke-width:0.0864704"
       d="m 89.274967,164.78707 c -0.47235,-0.31725 -0.92656,-0.96351 -1.03608,-1.47418 -0.16708,-0.77907 0.17913,-1.62329 0.91198,-2.22382 l 0.41316,-0.33855 29.513093,-0.022 c 29.08892,-0.0217 29.51783,-0.0196 29.84283,0.14623 0.6267,0.31971 1.30505,1.34505 1.30693,1.97544 0.002,0.6126 -0.57767,1.4841 -1.2852,1.9328 l -0.39075,0.24781 H 119.09441 89.637897 Z m 17.690783,-8.46817 c -0.0203,-0.0357 -0.0518,-2.43847 -0.07,-5.33956 l -0.033,-5.2747 h 12.27881 12.27882 l 0.0223,5.33956 0.0223,5.33955 h -5.04765 -5.04762 l -0.042,-1.79426 c -0.0468,-1.99936 -0.0874,-2.17711 -0.63698,-2.78539 -0.87177,-0.96494 -2.13944,-0.986 -2.96196,-0.0492 -0.62531,0.71219 -0.65957,0.8529 -0.69037,2.8346 l -0.0279,1.79427 h -5.00393 c -2.75216,0 -5.02054,-0.0292 -5.04084,-0.0648 z M 92.811287,141.33445 c -0.70385,-0.0654 -1.83455,-0.43427 -2.68059,-0.87457 -1.34699,-0.70102 -2.31084,-1.68798 -3.196,-3.27259 -0.74557,-1.33472 -3.6808,-7.24672 -3.62541,-7.30211 0.055,-0.055 71.683953,-0.0671 71.738883,-0.0121 0.0493,0.0493 -3.35209,6.8337 -3.85748,7.69406 -1.01484,1.72757 -2.57297,2.90588 -4.72443,3.57278 l -0.77824,0.24123 -26.15734,0.003 c -14.38653,0.002 -26.410263,-0.0207 -26.719393,-0.0494 z M 41.786237,125.4247 c -1.30725,-0.10763 -2.99458,-0.5031 -4.23135,-0.99173 -2.88518,-1.1399 -5.42297,-2.99042 -7.23381,-5.27478 -1.86811,-2.35662 -4.195855,-4.54489 -3.55008,-7.65265 l -0.26863,-1.25382 -0.0616,-5.75029 c -0.09181,-8.569968 -0.0295,-42.104925 0.0797,-42.867574 0.15117,-1.055728 0.58667,-2.871414 0.91374,-3.809515 1.868,-5.357886 6.05394,-9.300454 11.58417,-10.910672 1.81095,-0.527288 1.935651,-0.576317 6.98407,-0.581699 l 37.98173,-0.04049 0.044,0.202195 c 0.0738,0.338655 0.21067,1.444827 0.3086,2.493665 0.0511,0.546926 0.16953,1.714278 0.26325,2.594116 0.0937,0.879838 0.3658,3.564748 0.60462,5.966467 0.23882,2.40172 0.66761,6.682012 0.95286,9.51176 0.75816,7.521194 1.30562,12.990448 1.4195,14.181169 0.0509,0.531674 0.0605,0.508908 -0.67595,1.59241 -1.30862,1.925264 -2.14795,4.170411 -2.4404,6.527927 -0.86342,6.960203 3.03871,13.411941 9.69514,16.029801 1.08257,0.42577 3.28865,0.90382 4.88133,1.0578 0.92418,0.0893 3.698063,-0.38327 5.145003,-0.87659 5.32778,-1.81646 9.37645,-6.619356 10.20309,-12.103823 0.1669,-1.107324 0.1672,-3.371086 6.6e-4,-4.476489 -0.40886,-2.712551 -1.69302,-5.476306 -3.5344,-7.606687 l -0.66,-0.763594 0.0218,-17.135809 0.0218,-17.13581 11.06823,-0.02504 c 6.08752,-0.01377 11.24014,-6.86e-4 11.45025,0.02909 l 0.38204,0.05413 -0.42527,0.233575 c -1.59331,0.875114 -4.49586,3.223225 -6.14473,4.970977 -3.30701,3.505302 -5.72826,7.642226 -7.16697,12.245414 -0.74564,2.385655 -1.20009,5.1745 -1.33898,8.216834 -0.046,1.007469 -0.0819,12.923684 -0.0832,27.605719 l -0.002,25.833073 -21.033963,-0.0123 c -11.56867,-0.007 -54.72361,-0.0413 -55.15401,-0.0768 z m 80.569153,0.0314 c -0.0874,-0.0874 -0.0693,-11.33903 0.0182,-11.39316 0.0417,-0.0258 19.17659,-0.0488 42.52189,-0.0511 l 42.44599,-0.004 v 2.74823 c 0,3.08919 -0.048,3.41138 -0.70261,4.71902 -0.85099,1.69985 -2.00755,2.77372 -3.77963,3.50939 -1.37743,0.57183 1.91468,0.52953 -41.21063,0.52953 -21.57959,0 -39.26156,-0.0259 -39.29326,-0.0576 z m -0.0576,-33.905134 c 0,-11.739302 0.0321,-18.626262 0.0908,-19.520723 0.25193,-3.832932 0.91451,-6.687701 2.24745,-9.683225 0.64805,-1.456392 0.68394,-1.527112 1.44846,-2.853528 1.22092,-2.118293 2.44182,-3.696826 4.24708,-5.491193 4.09334,-4.068624 9.13221,-6.591565 14.96734,-7.494078 1.39613,-0.215939 6.08477,-0.218396 7.46285,-0.0039 5.93925,0.924389 10.97232,3.470168 15.18621,7.681344 3.13613,3.134102 5.5155,7.167789 6.70143,11.360776 0.41097,1.45306 0.9142,4.258663 0.9142,5.096918 0,0.117409 -1.89006,0.134172 -17.44544,0.154729 l -17.44543,0.02304 -0.60529,0.203193 c -1.17348,0.393923 -1.92715,0.854537 -2.77597,1.696554 -1.23505,1.225161 -1.79291,2.442989 -1.94151,4.238454 -0.0436,0.527272 -0.0794,8.044686 -0.0802,16.841346 l -0.001,15.888957 h -6.4854 -6.48529 z m 17.31442,1.687651 c 0.0217,-15.540082 0.0314,-16.469081 0.17621,-16.777208 0.22301,-0.474536 0.74526,-1.018443 1.15076,-1.19847 0.33809,-0.150101 1.58013,-0.15751 29.6594,-0.176923 26.55881,-0.01837 29.33549,-0.0074 29.61546,0.116464 0.43696,0.193379 0.91223,0.634096 1.18599,1.099772 l 0.23449,0.398878 v 2.032055 c 0,1.117632 -0.01,8.540046 -0.0216,16.494256 l -0.0216,14.462199 h -31.001 -31.001 z m 23.97855,2.821206 c 0.0569,0.02183 1.51055,0.976754 3.23043,2.122093 l 3.12707,2.082434 h 0.60614 c 0.7521,0 0.83213,-0.0394 2.87102,-1.413921 3.41203,-2.300206 4.20242,-2.823134 4.26704,-2.823134 4.0407,-2.693136 0,0 3.68168,-2.432378 l 0.35902,-0.260758 c 0.19745,-0.143414 1.89603,-1.285074 3.7746,-2.537021 1.87857,-1.251948 3.57618,-2.415112 3.77245,-2.584809 1.02858,-0.889294 0.96373,-2.532397 -0.12851,-3.255867 -0.78055,-0.517012 -1.44102,-0.541148 -2.34338,-0.08564 -0.28464,0.143692 -4.02113,2.595943 -8.30329,5.449452 -4.28217,2.853508 -7.84412,5.188196 -7.91545,5.188196 -0.0713,0 -3.69409,-2.37771 -8.05056,-5.283797 -4.35646,-2.906087 -8.13156,-5.376983 -8.38909,-5.490879 -0.54205,-0.239718 -0.96672,-0.260775 -1.51204,-0.07497 -0.87944,0.299656 -1.37247,0.997697 -1.37247,1.943174 0,0.657829 0.19596,1.118256 0.66867,1.57117 0.17916,0.171658 2.02814,1.445522 4.10883,2.830808 2.0807,1.385289 3.78309,2.544335 3.78309,2.575661 z m -65.245313,5.980937 c -0.0713,-0.0173 -0.42154,-0.0784 -0.77824,-0.13593 -0.91284,-0.14713 -2.32959,-0.62643 -3.16453,-1.07059 -3.10284,-1.650624 -5.25543,-4.79717 -5.66109,-8.275119 -0.12033,-1.031624 -0.0597,-2.761389 0.12717,-3.628806 1.07115,-4.971872 5.48359,-8.511044 10.60081,-8.502786 2.956053,0.0048 5.690653,1.190212 7.774943,3.37041 1.24608,1.303425 1.87666,2.353902 2.4796,4.130752 0.35945,1.059252 0.48872,1.953557 0.4832,3.342732 -0.006,1.422657 -0.12126,2.155729 -0.52337,3.318782 -0.59277,1.71447 -1.28624,2.868107 -2.46712,4.104221 -1.48037,1.549614 -3.03221,2.446404 -5.28284,3.052874 -0.79435,0.21405 -1.15791,0.26196 -2.205003,0.29059 -0.6896,0.0189 -1.31219,0.0201 -1.38353,0.003 z m 3.524703,-8.974761 c 0.61384,-0.377606 0.94178,-0.824617 1.07577,-1.466389 0.13847,-0.663179 -0.0578,-1.319648 -0.53821,-1.800041 -0.63584,-0.635844 -0.66938,-0.64352 -2.943643,-0.67381 l -2.03756,-0.02713 -0.55238,0.37302 c -0.72307,0.488276 -0.94985,0.901409 -0.94985,1.730353 0,0.69826 0.16423,1.081251 0.66281,1.545617 0.71229,0.663407 0.77942,0.677094 3.16453,0.645262 l 1.622353,-0.02163 z M 91.573857,77.673946 c -0.13996,-1.458977 -0.85949,-8.606927 -1.01188,-10.0522 -0.0953,-0.903618 -0.38825,-3.783088 -0.65107,-6.398822 -2.16269,-21.524439 -2.17102,-21.605927 -2.38641,-23.347046 -0.10002,-0.8085 -0.21799,-1.508911 -0.26216,-1.55647 16.245613,-0.05859 15.822643,-0.03681 0,0 -0.108243,-1.140504 -0.787707,-7.31402 -0.959741,-9.404683 -0.007,-2.554572 0.0115,-2.740953 0.40012,-3.977645 0.87501,-2.784845 3.44417,-4.953256 6.34706,-5.35701 0.88746,-0.123436 5.378239,-0.187866 6.160329,-0.06448 1.055035,0.166458 2.358195,0.690592 3.285885,1.321602 0.57028,0.387905 1.42414,1.229156 1.90102,1.872968 0.8808,1.189113 1.35962,2.493598 1.45883,3.974416 0.0732,1.092222 0.0727,52.806666 -6.6e-4,52.879879 -0.0309,0.03095 -0.25404,-0.04395 -0.49579,-0.166455 -0.73416,-0.372026 -2.23219,-0.818387 -3.5553,-1.059357 -2.128065,-0.38757 -3.756965,-0.313199 -6.141775,0.280413 -1.01608,0.252918 -1.64971,0.490116 -2.97006,1.111834 -0.56477,0.265929 -1.03581,0.483508 -1.04677,0.483508 -0.0109,0 -0.0433,-0.243198 -0.0718,-0.540439 z"
       id="path21"
       sodipodi:nodetypes="ssscsccscccscccccccccscsscscccssscsscccccssscsscssccccssccssssscscccsscscssccccccsccssssccccscsscsssscsscccccccssscscsccccccscssccssssssssssssscccsssccsscsssscccscscsssccccccsccccscssccssssscc"
       clip-path="url(#clipPath1235)"
       transform="matrix(0.79855466,0,0,0.79855466,4.7048335,47.114817)"
       inkscape:original-d="m 89.274967,164.78707 c -0.47235,-0.31725 -0.92656,-0.96351 -1.03608,-1.47418 -0.16708,-0.77907 0.17913,-1.62329 0.91198,-2.22382 l 0.41316,-0.33855 29.513093,-0.022 c 29.08892,-0.0217 29.51783,-0.0196 29.84283,0.14623 0.6267,0.31971 1.30505,1.34505 1.30693,1.97544 0.002,0.6126 -0.57767,1.4841 -1.2852,1.9328 l -0.39075,0.24781 H 119.09441 89.637897 Z m 17.690783,-8.46817 c -0.0203,-0.0357 -0.0518,-2.43847 -0.07,-5.33956 l -0.033,-5.2747 h 12.27881 12.27882 l 0.0223,5.33956 0.0223,5.33955 h -5.04765 -5.04762 l -0.042,-1.79426 c -0.0468,-1.99936 -0.0874,-2.17711 -0.63698,-2.78539 -0.87177,-0.96494 -2.13944,-0.986 -2.96196,-0.0492 -0.62531,0.71219 -0.65957,0.8529 -0.69037,2.8346 l -0.0279,1.79427 h -5.00393 c -2.75216,0 -5.02054,-0.0292 -5.04084,-0.0648 z M 92.811287,141.33445 c -0.70385,-0.0654 -1.83455,-0.43427 -2.68059,-0.87457 -1.34699,-0.70102 -2.31084,-1.68798 -3.196,-3.27259 -0.74557,-1.33472 -3.6808,-7.24672 -3.62541,-7.30211 0.055,-0.055 71.683953,-0.0671 71.738883,-0.0121 0.0493,0.0493 -3.35209,6.8337 -3.85748,7.69406 -1.01484,1.72757 -2.57297,2.90588 -4.72443,3.57278 l -0.77824,0.24123 -26.15734,0.003 c -14.38653,0.002 -26.410263,-0.0207 -26.719393,-0.0494 z M 41.786237,125.4247 c -1.30725,-0.10763 -2.99458,-0.5031 -4.23135,-0.99173 -2.88518,-1.1399 -5.42297,-2.99042 -7.23381,-5.27478 -1.86811,-2.35662 -4.195855,-4.54489 -3.55008,-7.65265 l -0.26863,-1.25382 -0.0616,-5.75029 c -0.09181,-8.569968 -0.0295,-42.104925 0.0797,-42.867574 0.15117,-1.055728 0.58667,-2.871414 0.91374,-3.809515 1.868,-5.357886 6.05394,-9.300454 11.58417,-10.910672 1.81095,-0.527288 1.935651,-0.576317 6.98407,-0.581699 l 37.98173,-0.04049 0.044,0.202195 c 0.0738,0.338655 0.21067,1.444827 0.3086,2.493665 0.0511,0.546926 0.16953,1.714278 0.26325,2.594116 0.0937,0.879838 0.3658,3.564748 0.60462,5.966467 0.23882,2.40172 0.66761,6.682012 0.95286,9.51176 0.75816,7.521194 1.30562,12.990448 1.4195,14.181169 0.0509,0.531674 0.0605,0.508908 -0.67595,1.59241 -1.30862,1.925264 -2.14795,4.170411 -2.4404,6.527927 -0.86342,6.960203 3.03871,13.411941 9.69514,16.029801 1.08257,0.42577 3.28865,0.90382 4.88133,1.0578 0.92418,0.0893 3.698063,-0.38327 5.145003,-0.87659 5.32778,-1.81646 9.37645,-6.619356 10.20309,-12.103823 0.1669,-1.107324 0.1672,-3.371086 6.6e-4,-4.476489 -0.40886,-2.712551 -1.69302,-5.476306 -3.5344,-7.606687 l -0.66,-0.763594 0.0218,-17.135809 0.0218,-17.13581 11.06823,-0.02504 c 6.08752,-0.01377 11.24014,-6.86e-4 11.45025,0.02909 l 0.38204,0.05413 -0.42527,0.233575 c -1.59331,0.875114 -4.49586,3.223225 -6.14473,4.970977 -3.30701,3.505302 -5.72826,7.642226 -7.16697,12.245414 -0.74564,2.385655 -1.20009,5.1745 -1.33898,8.216834 -0.046,1.007469 -0.0819,12.923684 -0.0832,27.605719 l -0.002,25.833073 -21.033963,-0.0123 c -11.56867,-0.007 -54.72361,-0.0413 -55.15401,-0.0768 z m 80.569153,0.0314 c -0.0874,-0.0874 -0.0693,-11.33903 0.0182,-11.39316 0.0417,-0.0258 19.17659,-0.0488 42.52189,-0.0511 l 42.44599,-0.004 v 2.74823 c 0,3.08919 -0.048,3.41138 -0.70261,4.71902 -0.85099,1.69985 -2.00755,2.77372 -3.77963,3.50939 -1.37743,0.57183 1.91468,0.52953 -41.21063,0.52953 -21.57959,0 -39.26156,-0.0259 -39.29326,-0.0576 z m -0.0576,-33.905134 c 0,-11.739302 0.0321,-18.626262 0.0908,-19.520723 0.25193,-3.832932 0.91451,-6.687701 2.24745,-9.683225 0.64805,-1.456392 0.68394,-1.527112 1.44846,-2.853528 1.22092,-2.118293 2.44182,-3.696826 4.24708,-5.491193 4.09334,-4.068624 9.13221,-6.591565 14.96734,-7.494078 1.39613,-0.215939 6.08477,-0.218396 7.46285,-0.0039 5.93925,0.924389 10.97232,3.470168 15.18621,7.681344 3.13613,3.134102 5.5155,7.167789 6.70143,11.360776 0.41097,1.45306 0.9142,4.258663 0.9142,5.096918 0,0.117409 -1.89006,0.134172 -17.44544,0.154729 l -17.44543,0.02304 -0.60529,0.203193 c -1.17348,0.393923 -1.92715,0.854537 -2.77597,1.696554 -1.23505,1.225161 -1.79291,2.442989 -1.94151,4.238454 -0.0436,0.527272 -0.0794,8.044686 -0.0802,16.841346 l -0.001,15.888957 h -6.4854 -6.48529 z m 17.31442,1.687651 c 0.0217,-15.540082 0.0314,-16.469081 0.17621,-16.777208 0.22301,-0.474536 0.74526,-1.018443 1.15076,-1.19847 0.33809,-0.150101 1.58013,-0.15751 29.6594,-0.176923 26.55881,-0.01837 29.33549,-0.0074 29.61546,0.116464 0.43696,0.193379 0.91223,0.634096 1.18599,1.099772 l 0.23449,0.398878 v 2.032055 c 0,1.117632 -0.01,8.540046 -0.0216,16.494256 l -0.0216,14.462199 h -31.001 -31.001 z m 23.97855,2.821206 c 0.0569,0.02183 1.51055,0.976754 3.23043,2.122093 l 3.12707,2.082434 h 0.60614 c 0.7521,0 0.83213,-0.0394 2.87102,-1.413921 3.41203,-2.300206 4.20242,-2.823134 4.26704,-2.823134 4.0407,-2.693136 0,0 3.68168,-2.432378 l 0.35902,-0.260758 c 0.19745,-0.143414 1.89603,-1.285074 3.7746,-2.537021 1.87857,-1.251948 3.57618,-2.415112 3.77245,-2.584809 1.02858,-0.889294 0.96373,-2.532397 -0.12851,-3.255867 -0.78055,-0.517012 -1.44102,-0.541148 -2.34338,-0.08564 -0.28464,0.143692 -4.02113,2.595943 -8.30329,5.449452 -4.28217,2.853508 -7.84412,5.188196 -7.91545,5.188196 -0.0713,0 -3.69409,-2.37771 -8.05056,-5.283797 -4.35646,-2.906087 -8.13156,-5.376983 -8.38909,-5.490879 -0.54205,-0.239718 -0.96672,-0.260775 -1.51204,-0.07497 -0.87944,0.299656 -1.37247,0.997697 -1.37247,1.943174 0,0.657829 0.19596,1.118256 0.66867,1.57117 0.17916,0.171658 2.02814,1.445522 4.10883,2.830808 2.0807,1.385289 3.78309,2.544335 3.78309,2.575661 z m -65.245313,5.980937 c -0.0713,-0.0173 -0.42154,-0.0784 -0.77824,-0.13593 -0.91284,-0.14713 -2.32959,-0.62643 -3.16453,-1.07059 -3.10284,-1.650624 -5.25543,-4.79717 -5.66109,-8.275119 -0.12033,-1.031624 -0.0597,-2.761389 0.12717,-3.628806 1.07115,-4.971872 5.48359,-8.511044 10.60081,-8.502786 2.956053,0.0048 5.690653,1.190212 7.774943,3.37041 1.24608,1.303425 1.87666,2.353902 2.4796,4.130752 0.35945,1.059252 0.48872,1.953557 0.4832,3.342732 -0.006,1.422657 -0.12126,2.155729 -0.52337,3.318782 -0.59277,1.71447 -1.28624,2.868107 -2.46712,4.104221 -1.48037,1.549614 -3.03221,2.446404 -5.28284,3.052874 -0.79435,0.21405 -1.15791,0.26196 -2.205003,0.29059 -0.6896,0.0189 -1.31219,0.0201 -1.38353,0.003 z m 3.524703,-8.974761 c 0.61384,-0.377606 0.94178,-0.824617 1.07577,-1.466389 0.13847,-0.663179 -0.0578,-1.319648 -0.53821,-1.800041 -0.63584,-0.635844 -0.66938,-0.64352 -2.943643,-0.67381 l -2.03756,-0.02713 -0.55238,0.37302 c -0.72307,0.488276 -0.94985,0.901409 -0.94985,1.730353 0,0.69826 0.16423,1.081251 0.66281,1.545617 0.71229,0.663407 0.77942,0.677094 3.16453,0.645262 l 1.622353,-0.02163 z M 91.573857,77.673946 c -0.13996,-1.458977 -0.85949,-8.606927 -1.01188,-10.0522 -0.0953,-0.903618 -0.38825,-3.783088 -0.65107,-6.398822 -2.16269,-21.524439 -2.17102,-21.605927 -2.38641,-23.347046 -0.10002,-0.8085 -0.21799,-1.508911 -0.26216,-1.55647 16.245613,-0.05859 15.822643,-0.03681 0,0 -0.108243,-1.140504 -0.787707,-7.31402 -0.959741,-9.404683 -0.007,-2.554572 0.0115,-2.740953 0.40012,-3.977645 0.87501,-2.784845 3.44417,-4.953256 6.34706,-5.35701 0.88746,-0.123436 5.378239,-0.187866 6.160329,-0.06448 1.055035,0.166458 2.358195,0.690592 3.285885,1.321602 0.57028,0.387905 1.42414,1.229156 1.90102,1.872968 0.8808,1.189113 1.35962,2.493598 1.45883,3.974416 0.0732,1.092222 0.0727,52.806666 -6.6e-4,52.879879 -0.0309,0.03095 -0.25404,-0.04395 -0.49579,-0.166455 -0.73416,-0.372026 -2.23219,-0.818387 -3.5553,-1.059357 -2.128065,-0.38757 -3.756965,-0.313199 -6.141775,0.280413 -1.01608,0.252918 -1.64971,0.490116 -2.97006,1.111834 -0.56477,0.265929 -1.03581,0.483508 -1.04677,0.483508 -0.0109,0 -0.0433,-0.243198 -0.0718,-0.540439 z"
       inkscape:path-effect="#path-effect1239" />
    <path
       style="fill:#ffffff;stroke-width:0.264583"
       d="m 381.02861,138.77937 c -4.89862,-1.10279 -11.1125,-6.60087 -11.1125,-9.83241 0,-0.29202 2.50185,-0.35462 14.17304,-0.35462 h 14.17304 l -0.18014,0.59532 c -1.97768,6.53579 -10.16715,11.14197 -17.05344,9.59171 z m -34.49244,-13.64581 c -1.67401,-1.31678 -0.80707,-8.95563 1.21258,-10.68438 1.78737,-1.52992 0.4954,-1.48054 36.76244,-1.40507 38.25168,0.0796 34.88361,-0.13188 36.6018,2.29818 1.12814,1.59555 1.40046,9.18358 0.35583,9.91527 -0.54894,0.3845 -4.06469,0.42437 -37.42069,0.42437 h -36.81482 z m 5.51046,-15.92195 c 0.19787,-0.47294 1.09581,-2.46724 1.99542,-4.43177 3.37928,-7.379542 3.23105,-6.496244 3.44105,-20.505207 0.20401,-13.609413 0.26988,-14.087573 2.62435,-19.050001 2.81416,-5.931302 7.76068,-10.738234 13.47996,-13.099555 l 2.07547,-0.856904 0.15251,-2.353968 c 0.74941,-11.567222 16.32572,-11.409119 16.32572,0.165709 v 2.149559 l 1.32476,0.476375 1.32475,0.476375 -1.12632,1.303904 c -17.23395,19.951249 -7.21987,49.005613 18.17953,52.745183 1.59591,0.23497 2.94467,0.47022 2.99722,0.52278 0.0526,0.0526 0.43839,0.82047 0.85741,1.70648 l 0.76185,1.61094 h -32.38672 -32.38673 z m 35.13617,-64.540764 0.2169,0.264924 c 0,0 -4.35397,-3.508598 -7.57191,0.25084 -4.21047,9.446031 11.99302,11.209544 7.35501,-0.515764 z m 26.38956,58.911524 c -0.21828,-0.0428 -1.28984,-0.2226 -2.38125,-0.39961 -25.30697,-4.104631 -31.82652,-38.351836 -9.91661,-52.092026 23.6699,-14.843923 52.4925,10.713399 40.74837,36.132035 -4.88182,10.566075 -18.38631,18.331421 -28.45051,16.359601 z"
       id="path895"
       sodipodi:nodetypes="ssscsssssssscsssssscsscccsssscccscsccscsss"
       clip-path="url(#clipPath3219)"
       transform="matrix(0.50505268,0,0,0.50505268,-77.996689,1.7520303)"
       inkscape:original-d="m 381.02861,138.77937 c -4.89862,-1.10279 -11.1125,-6.60087 -11.1125,-9.83241 0,-0.29202 2.50185,-0.35462 14.17304,-0.35462 h 14.17304 l -0.18014,0.59532 c -1.97768,6.53579 -10.16715,11.14197 -17.05344,9.59171 z m -34.49244,-13.64581 c -1.67401,-1.31678 -0.80707,-8.95563 1.21258,-10.68438 1.78737,-1.52992 0.4954,-1.48054 36.76244,-1.40507 38.25168,0.0796 34.88361,-0.13188 36.6018,2.29818 1.12814,1.59555 1.40046,9.18358 0.35583,9.91527 -0.54894,0.3845 -4.06469,0.42437 -37.42069,0.42437 h -36.81482 z m 5.51046,-15.92195 c 0.19787,-0.47294 1.09581,-2.46724 1.99542,-4.43177 3.37928,-7.379542 3.23105,-6.496244 3.44105,-20.505207 0.20401,-13.609413 0.26988,-14.087573 2.62435,-19.050001 2.81416,-5.931302 7.76068,-10.738234 13.47996,-13.099555 l 2.07547,-0.856904 0.15251,-2.353968 c 0.74941,-11.567222 16.32572,-11.409119 16.32572,0.165709 v 2.149559 l 1.32476,0.476375 1.32475,0.476375 -1.12632,1.303904 c -17.23395,19.951249 -7.21987,49.005613 18.17953,52.745183 1.59591,0.23497 2.94467,0.47022 2.99722,0.52278 0.0526,0.0526 0.43839,0.82047 0.85741,1.70648 l 0.76185,1.61094 h -32.38672 -32.38673 z m 35.13617,-64.540764 0.2169,0.264924 c 0,0 -4.35397,-3.508598 -7.57191,0.25084 -4.21047,9.446031 11.99302,11.209544 7.35501,-0.515764 z m 26.38956,58.911524 c -0.21828,-0.0428 -1.28984,-0.2226 -2.38125,-0.39961 -25.30697,-4.104631 -31.82652,-38.351836 -9.91661,-52.092026 23.6699,-14.843923 52.4925,10.713399 40.74837,36.132035 -4.88182,10.566075 -18.38631,18.331421 -28.45051,16.359601 z"
       inkscape:path-effect="#path-effect3223" />
  </g>
  <g
     inkscape:groupmode="layer"
     id="layer5"
     inkscape:label="Capa 5" />
  <g
     inkscape:groupmode="layer"
     id="layer4"
     inkscape:label="Capa 4" />
  <g
     inkscape:groupmode="layer"
     id="layer2"
     inkscape:label="Capa 2" />
  <g
     inkscape:groupmode="layer"
     id="layer3"
     inkscape:label="Capa 3" />
</svg>
