<?xml version="1.0" encoding="UTF-8" standalone="no"?>
<!-- Created with Inkscape (http://www.inkscape.org/) -->

<svg
   width="200mm"
   height="200mm"
   viewBox="0 0 200 200"
   version="1.1"
   id="svg349"
   sodipodi:docname="10598.svg"
   inkscape:version="1.1.2 (0a00cf5339, 2022-02-04)"
   xmlns:inkscape="http://www.inkscape.org/namespaces/inkscape"
   xmlns:sodipodi="http://sodipodi.sourceforge.net/DTD/sodipodi-0.dtd"
   xmlns:xlink="http://www.w3.org/1999/xlink"
   xmlns="http://www.w3.org/2000/svg"
   xmlns:svg="http://www.w3.org/2000/svg">
  <sodipodi:namedview
     id="namedview351"
     pagecolor="#505050"
     bordercolor="#ffffff"
     borderopacity="1"
     inkscape:pageshadow="0"
     inkscape:pageopacity="0"
     inkscape:pagecheckerboard="1"
     inkscape:document-units="mm"
     showgrid="false"
     width="200mm"
     inkscape:zoom="0.0625"
     inkscape:cx="-1376"
     inkscape:cy="-1456"
     inkscape:window-width="1920"
     inkscape:window-height="1010"
     inkscape:window-x="0"
     inkscape:window-y="0"
     inkscape:window-maximized="1"
     inkscape:current-layer="layer1" />
  <defs
     id="defs346">
    <linearGradient
       inkscape:collect="always"
       id="linearGradient853">
      <stop
         style="stop-color:#005d9c;stop-opacity:1;"
         offset="0"
         id="stop849" />
      <stop
         style="stop-color:#002255;stop-opacity:1"
         offset="1"
         id="stop851" />
    </linearGradient>
    <radialGradient
       inkscape:collect="always"
       xlink:href="#linearGradient853"
       id="radialGradient855"
       cx="99.999992"
       cy="100"
       fx="99.999992"
       fy="100"
       r="97.66301"
       gradientUnits="userSpaceOnUse"
       gradientTransform="scale(3.7795276)" />
    <clipPath
       clipPathUnits="userSpaceOnUse"
       id="clipPath1235">
      <path
         id="path1237"
         style="display:none;fill:#ffffff;fill-opacity:1;stroke:#000000;stroke-width:0.0158507;stroke-miterlimit:4;stroke-dasharray:none;stroke-opacity:1"
         d="m 55.884585,59.420792 c -0.0372,-0.0016 -0.07451,-0.0011 -0.111617,0.0026 -0.483251,0.02672 -0.859044,0.52851 -0.758092,1.000974 -0.88841,0.390496 -1.774272,0.786249 -2.665992,1.168918 -0.258281,-0.20493 -0.700204,0.01836 -0.654738,0.354502 0.02474,0.328796 0.495459,0.482196 0.703318,0.220142 0.11389,-0.08554 0.05055,-0.287155 0.212905,-0.308507 0.849921,-0.375092 1.699821,-0.750361 2.549713,-1.125511 0.149934,0.186124 0.367633,0.304062 0.60203,0.343127 0.05312,1.096754 0.105355,2.193476 0.158131,3.29024 -0.487852,0.13132 -0.785508,0.732689 -0.549836,1.189593 0.225264,0.518065 0.996315,0.665998 1.393198,0.26303 0.165452,-0.139509 0.344435,0.04908 0.512112,0.08527 1.253159,0.492024 2.505633,0.984742 3.758943,1.476396 -0.186042,0.137377 -0.394798,0.229891 -0.621665,0.273884 -0.358362,0.108317 -0.718767,0.210616 -1.077973,0.316259 -0.212244,-0.457843 -0.846228,-0.635371 -1.260388,-0.345197 -0.451813,0.274241 -0.491315,0.996283 -0.0677,1.314649 0.30629,0.25967 0.784066,0.250306 1.09709,0.0062 0.443589,0.374517 0.898562,0.73501 1.331185,1.122413 -0.288822,0.532384 -0.07019,1.267203 0.471807,1.542542 0.53472,0.318267 1.348097,0.100364 1.626772,-0.479555 0.140465,-0.255193 0.154832,-0.560083 0.09354,-0.840261 0.408633,-0.255641 0.814308,-0.515035 1.229381,-0.760161 0.16696,0.177038 0.395941,0.284398 0.639236,0.296627 0.240202,1.197229 0.479875,2.394646 0.719336,3.592028 -0.373491,0.180819 -0.473091,0.744736 -0.157612,1.024226 0.328792,0.350303 1.003017,0.167476 1.096055,-0.30851 0.08133,-0.342902 -0.168807,-0.710229 -0.512112,-0.774112 -0.174752,-0.108501 -0.109228,-0.343818 -0.177247,-0.510561 -0.207282,-1.035873 -0.415552,-2.071304 -0.622189,-3.107304 0.433766,-0.201218 0.584793,-0.831215 0.256315,-1.189077 -0.332724,-0.428506 -1.095478,-0.349943 -1.321882,0.148312 -0.08212,0.151945 -0.09179,0.329049 -0.07493,0.497641 -0.409305,0.25725 -0.817451,0.516335 -1.234035,0.761715 -0.383151,-0.561319 -1.259676,-0.67364 -1.765263,-0.216011 -0.108937,0.06195 -0.214294,-0.150064 -0.321945,-0.198951 -0.355666,-0.296185 -0.71098,-0.592603 -1.066604,-0.888836 0.102187,-0.132969 0.02835,-0.398778 0.241845,-0.427879 0.488783,-0.142671 0.977278,-0.285755 1.466064,-0.4284 0.286533,0.352179 0.923518,0.277871 1.09864,-0.147796 0.19952,-0.40032 -0.159975,-0.922126 -0.605134,-0.884698 -0.170098,-0.0016 -0.325948,0.07918 -0.456303,0.182417 -1.341641,-0.526272 -2.68338,-1.05259 -4.025077,-1.578713 0.08893,-0.449027 -0.223639,-0.923918 -0.672825,-1.014926 -0.09062,-0.08126 -0.02817,-0.280668 -0.05788,-0.40876 -0.04699,-0.976601 -0.09432,-1.953446 -0.141078,-2.930054 0.48148,-0.172363 0.701352,-0.827292 0.387574,-1.240753 -0.148807,-0.215578 -0.40464,-0.3483 -0.665077,-0.359148 z m -7.298777,2.580203 c -0.03065,-2.64e-4 -0.06168,0.0016 -0.09302,0.0057 -0.482277,0.02326 -0.828881,0.606054 -0.590142,1.034563 0.114713,0.231481 0.357081,0.38 0.610814,0.406175 0.404744,1.164405 0.807014,2.329601 1.209228,3.494879 -0.214551,0.193349 -0.192389,0.5604 0.04238,0.727604 -0.347853,1.381223 -0.696613,2.761784 -1.044898,4.142899 0.852197,0.557979 1.70425,1.116316 2.556431,1.674317 -0.07833,0.206526 -0.109143,0.425381 -0.109551,0.645438 -0.532902,0.112054 -1.063249,0.236344 -1.598869,0.334865 -0.177604,-0.439751 -0.786802,-0.617117 -1.163754,-0.32453 -0.414837,0.269533 -0.397732,0.962064 0.03411,1.20768 0.146931,0.09929 0.326001,0.125801 0.499708,0.126605 0.391078,1.041456 0.781013,2.083711 1.171504,3.125391 -0.355113,0.230264 -0.385744,0.807985 -0.03721,1.057302 0.368025,0.31547 1.032066,0.07588 1.083138,-0.416513 -0.03082,-0.172868 0.08179,-0.224097 0.235644,-0.24598 0.501245,-0.146556 1.002463,-0.293481 1.503785,-0.439767 0.219112,0.406241 0.825064,0.517356 1.163236,0.198954 0.38074,-0.305491 0.287234,-0.978734 -0.156581,-1.17719 -0.418391,-0.225549 -1.009986,0.05067 -1.074351,0.530201 -0.06748,0.198824 -0.31338,0.155305 -0.469738,0.232027 -0.445609,0.131312 -0.891673,0.259897 -1.337903,0.389125 -0.1573,-0.170434 -0.386077,-0.252492 -0.615469,-0.241848 -0.388474,-1.03615 -0.776213,-2.072544 -1.164269,-3.108854 0.202707,-0.135033 0.344773,-0.349221 0.376721,-0.592211 0.539978,-0.107329 1.08004,-0.214329 1.620057,-0.321427 0.234535,0.740262 1.116447,1.178674 1.848467,0.923975 0.686316,-0.19604 1.150625,-0.965361 0.980818,-1.663464 -0.05429,-0.259302 -0.222012,-0.551606 -0.440282,-0.740008 -0.525169,-0.500586 -1.41681,-0.506299 -1.956473,-0.02635 -0.08895,0.04216 -0.150333,0.229915 -0.243395,0.179318 -0.743051,-0.499007 -1.486165,-0.997706 -2.229321,-1.496547 0.32884,-1.305575 0.658281,-2.611217 0.988055,-3.916561 0.350869,0.543164 0.701712,1.086427 1.052131,1.629876 -0.423315,0.389178 -0.418174,1.137253 0.02946,1.504821 0.305223,0.280754 0.772631,0.335885 1.1498,0.177762 1.355055,1.534729 2.710447,3.069479 4.065902,4.603856 -0.71106,0.736651 -0.826161,1.977144 -0.231508,2.816881 0.08681,0.138425 -0.01797,0.285518 -0.144698,0.34675 -0.577492,0.51765 -1.151821,1.038498 -1.733227,1.551326 -0.2603,-0.06261 -0.529511,0.198186 -0.452168,0.460436 -0.696044,1.196166 -1.391348,2.392357 -2.086694,3.58893 -0.08933,-0.467132 -0.177954,-0.934312 -0.267168,-1.401466 0.367146,-0.202015 0.428267,-0.779097 0.08785,-1.03456 -0.343847,-0.313153 -0.981641,-0.107337 -1.059365,0.3576 -0.07171,0.344665 0.188288,0.70353 0.533818,0.757579 0.08627,0.442565 0.168698,0.885825 0.251145,1.329113 -0.369689,0.179647 -0.469847,0.738544 -0.150378,1.011825 0.323773,0.334459 0.980522,0.154104 1.064537,-0.311605 0.04524,-0.179541 -0.0062,-0.369435 -0.109556,-0.519348 0.700032,-1.204347 1.400353,-2.408211 2.100131,-3.612703 0.270959,0.55037 0.549065,1.096851 0.807701,1.65313 -0.360466,0.274838 -0.366459,0.888904 0.01188,1.149284 0.401598,0.334666 1.106048,0.08646 1.190106,-0.435634 0.093,-0.440047 -0.294666,-0.891202 -0.744656,-0.865063 -0.146516,0.0094 -0.143325,-0.212752 -0.223758,-0.305406 -0.223153,-0.460084 -0.467839,-0.918128 -0.671278,-1.389063 -0.05049,-0.26476 0.249746,-0.381571 0.393775,-0.546222 0.512183,-0.459647 1.024003,-0.919249 1.53634,-1.378725 0.611772,0.568534 1.520216,0.780727 2.321306,0.546219 0.104904,0.03456 0.112315,0.252452 0.1788,0.359154 0.333923,0.865015 0.668139,1.730144 1.002006,2.595186 -0.450551,-0.306398 -0.90125,-0.61328 -1.351338,-0.920355 0.209997,-0.404059 0.02188,-0.947645 -0.394809,-1.131197 -0.49989,-0.256344 -1.190244,0.12261 -1.208196,0.692981 -0.02913,0.345598 0.193387,0.678793 0.505397,0.818038 -0.03736,1.035913 -0.07618,2.072743 -0.112655,3.108338 0.08373,0.09402 0.190532,0.193519 0.330211,0.140042 0.110482,-0.03899 0.21001,-0.142245 0.173117,-0.264068 0.04501,-0.980127 0.06891,-1.962745 0.115239,-2.943487 0.170611,0.0013 0.328684,-0.20884 0.494025,-0.0708 0.414827,0.28803 0.842325,0.557665 1.244886,0.862996 -0.186159,0.407538 0.106386,0.937157 0.553971,0.982885 0.48065,0.100113 0.962962,-0.41248 0.801502,-0.885735 -0.08908,-0.31256 -0.407588,-0.523166 -0.72812,-0.513662 -0.387432,-1.002623 -0.774827,-2.005237 -1.161687,-3.008085 0.533823,-0.288798 0.95319,-0.779936 1.139465,-1.359088 0.598352,0.08368 1.196848,0.167765 1.79524,0.251145 0.07968,0.553993 0.724003,0.923177 1.241266,0.712618 0.488286,-0.156157 0.755537,-0.786257 0.504881,-1.238683 -0.03555,-0.220928 0.219818,-0.306806 0.331245,-0.455269 0.238842,-0.225248 0.477189,-0.450895 0.716235,-0.675928 0.234728,0.18869 0.488487,0.346908 0.710552,0.558106 -0.20972,0.473361 0.130058,1.080276 0.645954,1.139466 0.253634,0.04837 0.510709,-0.04257 0.713136,-0.193787 0.492464,0.374629 0.992773,0.736984 1.476912,1.122411 -0.187944,0.404227 0.103064,0.931703 0.54777,0.977201 0.476062,0.09794 0.950947,-0.40863 0.792718,-0.877464 -0.117353,-0.415205 -0.644096,-0.631264 -1.020612,-0.421164 -0.199554,0.05726 -0.306123,-0.166399 -0.462502,-0.243914 -0.375441,-0.281855 -0.75116,-0.562097 -1.120862,-0.851628 0.205864,-0.46597 -0.119206,-1.063241 -0.624769,-1.134816 -0.273738,-0.06009 -0.555119,0.04249 -0.76636,0.216527 -0.206947,-0.155302 -0.413285,-0.310671 -0.620117,-0.466122 0.857467,-0.803465 1.71527,-1.606941 2.572451,-2.410706 0.200168,-0.01942 0.319611,0.161978 0.371554,0.330214 0.310219,0.577297 0.604044,1.164415 0.907439,1.74563 -0.307697,0.303792 -0.196776,0.889101 0.210323,1.044898 0.414631,0.205547 0.975749,-0.147203 0.937926,-0.618567 -0.015,-0.357782 -0.357285,-0.652676 -0.713134,-0.624252 -0.366048,-0.641673 -0.68286,-1.309984 -1.029912,-1.962155 0.319525,-0.248026 0.29354,-0.804088 -0.06666,-1.000454 -0.378446,-0.259876 -0.977355,0.04862 -0.957564,0.515729 -0.03082,0.105413 0.09614,0.231177 0.02273,0.309544 -0.861155,0.807397 -1.722313,1.614535 -2.58382,2.421557 -0.520965,-0.391952 -1.044684,-0.779315 -1.557528,-1.181841 0.252571,-0.443982 0.0204,-1.071653 -0.466122,-1.232998 -0.530765,-0.2265 -1.211763,0.199527 -1.207162,0.785481 -0.0062,0.133975 0.03281,0.263668 0.07183,0.390155 -0.59109,0.324713 -1.182254,0.649835 -1.773018,0.975135 -0.409067,-0.515051 -1.041236,-0.833226 -1.694987,-0.877983 -0.493448,-0.0426 -1.049012,0.09117 -1.484146,0.386025 -0.127106,0.155707 -0.204798,-0.0434 -0.298175,-0.130741 -1.284057,-1.454015 -2.567929,-2.90797 -3.85196,-4.362009 0.356915,-0.382516 0.353666,-1.033502 -0.0181,-1.404048 -0.303802,-0.318344 -0.80291,-0.404717 -1.204576,-0.234095 -0.358513,-0.556012 -0.72171,-1.108671 -1.071251,-1.670183 0.140208,-0.287118 -0.0874,-0.643165 -0.399975,-0.661974 -0.418137,-1.204735 -0.834994,-2.410039 -1.253154,-3.614767 1.198358,0.662374 2.395683,1.32624 3.594094,1.988508 -0.200932,0.636447 0.191752,1.380702 0.831475,1.570964 0.234979,0.08364 0.49105,0.08338 0.733806,0.03669 0.714314,1.321808 1.429461,2.643229 2.144572,3.964614 -0.124032,0.115393 -0.313412,0.285393 -0.480073,0.140044 -0.229722,-0.158157 -0.480426,-0.288293 -0.718304,-0.435634 0.12892,-0.259987 -0.01958,-0.601125 -0.303859,-0.670758 -0.349969,-0.11166 -0.715967,0.297767 -0.545703,0.628901 0.09409,0.216704 0.360903,0.320376 0.581877,0.250113 0.320419,0.189572 0.640758,0.37941 0.961181,0.568958 -0.478882,0.65795 -0.405095,1.650285 0.180867,2.21847 0.646192,0.688226 1.844183,0.718542 2.526464,0.06563 0.588034,-0.525066 0.743728,-1.464887 0.334346,-2.143022 -0.386977,-0.667909 -1.227865,-1.029679 -1.978173,-0.841293 -0.117475,0.07138 -0.23227,0.03127 -0.268203,-0.124539 -0.682154,-1.260557 -1.364091,-2.521207 -2.046388,-3.781682 0.518221,-0.31922 0.751178,-1.028851 0.492477,-1.584917 -0.290867,-0.69432 -1.23562,-0.980417 -1.868104,-0.578776 -0.137599,0.07631 -0.247417,0.190095 -0.357601,0.300241 -1.115149,-0.61695 -2.230292,-1.234252 -3.345531,-1.851049 0.133567,-0.454848 -0.235241,-0.9275 -0.695048,-0.932244 z M 63.26088,75.103551 c 0.02318,0.01749 0.04656,0.03471 0.06976,0.0522 0.495303,0.372983 0.991005,0.745678 1.486215,1.118791 -0.351763,0.332131 -0.703974,0.664202 -1.055748,0.996325 -0.438026,-0.323535 -1.142871,-0.177575 -1.381829,0.321424 -0.04845,0.160885 -0.245473,0.02434 -0.367419,0.03824 -0.476605,-0.06665 -0.953267,-0.133461 -1.429888,-0.199988 0.03234,-0.447569 -0.0546,-0.899538 -0.257865,-1.300178 0.603927,-0.332542 1.208024,-0.663977 1.811776,-0.996839 0.330174,0.241485 0.806898,0.224544 1.124996,-0.02997 z m -6.748425,19.098577 c -0.19521,-0.0016 -0.452692,0.0019 -0.795817,0.0067 -1.183161,0.01675 -1.384731,0.0342 -1.462442,0.12609 -0.130926,0.154787 -0.361664,1.817582 -0.373102,2.689241 -0.0093,0.707673 -0.0082,0.712941 0.128672,0.761196 0.223327,0.07867 2.796297,0.03557 2.867007,-0.04806 0.09744,-0.115237 0.21205,-0.720355 0.358121,-1.890324 0.135964,-1.089207 0.136311,-1.08948 -0.0047,-1.373555 -0.105725,-0.213058 -0.132157,-0.266186 -0.717786,-0.271304 z m 20.190499,0.978752 c -0.216447,0 -0.514866,0.0024 -0.843359,0.0072 -1.194525,0.01754 -1.194406,0.01757 -1.264007,0.278019 -0.06219,0.232672 -0.872649,3.474053 -0.940509,3.761528 -0.04725,0.200179 -0.258884,0.30648 -1.185458,0.596344 -0.495509,0.155015 -0.967798,0.313549 -1.049549,0.351909 -0.160065,0.0751 -0.160359,0.0762 -0.261996,1.01958 -0.03086,0.28648 -0.07237,0.63052 -0.09199,0.76481 -0.03864,0.26435 -0.07877,0.25829 1.687753,0.2744 0.502095,0.005 0.505182,0.0154 0.332796,1.20716 -0.100304,0.69337 -0.284139,2.05322 -0.558623,4.13412 -0.0614,0.46552 -0.161742,1.2115 -0.223242,1.65726 -0.154205,1.11759 -0.124706,3.08435 0.0553,3.67316 0.122748,0.40153 0.419618,1.01999 0.525031,1.09399 0.03407,0.0239 0.173617,0.1634 0.31006,0.31006 0.242879,0.26106 0.508016,0.39249 1.052131,0.5209 0.133612,0.0316 0.878687,0.0551 1.655199,0.0543 1.41182,-0.003 1.411584,-0.002 1.501714,-0.49816 0.120209,-0.66103 0.208447,-1.50564 0.171567,-1.64279 -0.01939,-0.0721 -0.129998,-0.13377 -0.317294,-0.17777 -0.158041,-0.0371 -0.436118,-0.12632 -0.618051,-0.19792 -0.181927,-0.0716 -0.472567,-0.17948 -0.645956,-0.23978 -0.364342,-0.12675 -0.738658,-0.47358 -0.849559,-0.78703 -0.116829,-0.33023 -0.09103,-0.90173 0.115237,-2.5616 0.183401,-1.4759 0.2359,-1.88084 0.472842,-3.64578 0.208754,-1.55504 0.398264,-2.76741 0.441833,-2.82411 0.0241,-0.0314 0.744861,-0.0754 1.601452,-0.0977 1.557435,-0.0406 1.557247,-0.0408 1.627806,-0.39894 0.08839,-0.44864 0.240814,-1.77062 0.240814,-2.088761 0,-0.215278 -0.01672,-0.24289 -0.172083,-0.279566 -0.09476,-0.02236 -0.777698,-0.04082 -1.517737,-0.04082 -1.205685,0 -1.349185,-0.01117 -1.380794,-0.108524 -0.01942,-0.05976 0.0075,-0.418463 0.05994,-0.797365 0.07818,-0.564912 0.418613,-3.249401 0.419613,-3.310911 9.3e-5,-0.0048 -0.134437,-0.0072 -0.350882,-0.0072 z m -12.260233,4.018357 c -0.299974,-0.0042 -0.585745,0.0046 -0.840256,0.02791 -1.189979,0.109 -1.855483,0.277103 -2.52181,0.637172 -0.531304,0.286131 -1.01546,0.713021 -1.479497,1.242301 -0.586306,0.73926 -1.225177,2.15202 -1.570966,3.4742 -0.179237,0.68532 -0.431125,2.26925 -0.521412,3.27939 -0.217977,2.43853 -0.04709,4.27199 0.507458,5.44773 0.307316,0.6208 0.866907,1.21776 1.451078,1.44539 1.296059,0.58086 2.4067,0.33382 3.780131,-0.0527 0.448088,-0.14859 1.638025,-0.84132 1.846395,-1.07487 0.233003,-0.26114 0.2902,-0.21001 0.461989,0.41186 0.08655,0.31333 0.179893,0.64005 0.207222,0.72605 0.04968,0.15621 0.04956,0.15618 1.126545,0.11938 0.592339,-0.0203 1.087422,-0.049 1.100193,-0.0641 0.03026,-0.0358 0.323165,-2.14631 0.431499,-3.10886 0.04634,-0.4118 0.148698,-1.24693 0.227377,-1.8557 0.07869,-0.60877 0.189397,-1.48785 0.245978,-1.95337 0.190632,-1.56836 0.549667,-4.48571 0.660945,-5.37124 0.06075,-0.48344 0.110421,-1.03578 0.110585,-1.22732 2.17e-4,-0.30304 -0.02122,-0.37174 -0.164848,-0.5302 -0.365358,-0.40307 -1.361729,-0.901549 -2.460316,-1.230412 -0.673052,-0.201467 -1.698371,-0.330142 -2.59829,-0.342617 z m -19.271689,0.09664 c -1.160677,2.64e-4 -2.212917,0.04495 -2.46652,0.122473 -0.422931,0.12928 -1.13098,0.60458 -1.434018,0.96221 -0.623496,0.73579 -0.962017,1.90846 -1.183391,4.10259 -0.143645,1.4237 -0.02665,2.30878 0.409792,3.10627 0.23305,0.3524 0.261392,0.42094 0.675931,0.66095 0.79053,0.45764 0.858541,0.46733 3.420459,0.48317 2.493637,0.0154 2.448129,0.009 2.667537,0.40411 0.196824,0.35477 0.03844,1.7643 -0.282149,2.51147 -0.247872,0.57775 -0.02635,0.54488 -3.912425,0.58188 -3.418073,0.0326 -3.417967,0.0326 -3.537252,0.87902 -0.212164,1.5055 -0.207232,1.39247 -0.06304,1.45727 0.408096,0.18323 2.183514,0.40074 4.317048,0.52865 0.454819,0.0265 1.484193,0.0431 2.287717,0.0341 1.350926,-0.014 1.488168,-0.0258 1.819526,-0.16071 0.907286,-0.36937 1.458532,-0.93174 1.823146,-1.85932 0.361543,-0.91977 0.57009,-2.3747 0.57309,-4.00441 0.0021,-1.1394 0.0019,-1.1395 -0.195852,-1.62781 -0.271571,-0.67051 -0.575691,-1.11047 -1.196827,-1.38854 -0.497216,-0.2226 -0.479869,-0.27024 -2.933155,-0.30334 -2.453285,-0.0331 -2.453129,-0.0331 -2.682523,-0.20929 -0.154133,-0.11841 -0.241607,-0.23992 -0.265618,-0.36949 -0.04089,-0.21986 0.166627,-1.84271 0.264068,-2.18023 0.0847,-0.2934 0.288356,-0.54043 0.440801,-0.65577 0.211256,-0.15986 0.70476,-0.18464 3.826121,-0.19224 2.523021,-0.006 3.060377,-0.0228 3.099035,-0.0966 0.02572,-0.0492 0.0755,-0.35353 0.110588,-0.67645 0.03508,-0.32291 0.09176,-0.7114 0.126093,-0.86299 0.07716,-0.34074 -0.007,-0.629089 -0.216009,-0.741558 -0.247891,-0.13339 -2.151576,-0.386088 -3.434416,-0.455785 -0.625684,-0.034 -1.36135,-0.0498 -2.057754,-0.04961 z m 9.397357,0.234611 c -0.478343,0.0031 -0.864928,0.01738 -0.886767,0.04599 -0.02347,0.03071 -0.08472,0.392792 -0.135911,0.804602 -0.05121,0.41181 -0.240504,1.84764 -0.420645,3.1905 -0.180134,1.34287 -0.378934,2.83678 -0.441833,3.32021 -0.06291,0.48343 -0.160375,1.216 -0.216522,1.62781 -0.05616,0.41182 -0.155144,1.15902 -0.220144,1.66036 -0.065,0.50133 -0.180327,1.35112 -0.256315,1.88826 -0.07598,0.53715 -0.185714,1.33766 -0.243914,1.77922 -0.05819,0.44156 -0.120248,0.8301 -0.137459,0.863 -0.01752,0.0328 -0.01611,0.0892 0.0026,0.12505 l 5.29e-4,-5.3e-4 c 0.02127,0.0406 0.560694,0.0651 1.435571,0.0651 1.401516,0 1.401487,2.2e-4 1.429885,-0.14624 0.0538,-0.27742 0.296312,-1.90598 0.409794,-2.75074 0.06254,-0.46552 0.226648,-1.69624 0.364837,-2.73472 0.138195,-1.03847 0.310743,-2.32779 0.382921,-2.86494 0.07218,-0.53715 0.185039,-1.38641 0.251148,-1.88774 0.06612,-0.50134 0.202967,-1.51227 0.303858,-2.24637 0.258199,-1.87867 0.330131,-2.595952 0.2682,-2.669091 -0.04092,-0.0483 -1.092565,-0.07489 -1.889805,-0.06976 z m 9.842812,2.472712 c 0.457991,0.005 0.935768,0.0592 1.348235,0.16175 0.344942,0.0858 0.670658,0.17699 0.723987,0.20257 0.205872,0.0988 0.19753,0.22699 -0.209291,3.35277 -0.0769,0.59086 -0.212973,1.64523 -0.302823,2.34352 -0.265827,2.066 -0.317466,2.43598 -0.355018,2.54713 -0.441153,0.69507 -2.078186,1.2634 -2.85047,1.48725 -0.607544,0.0773 -0.800444,0.0765 -1.144117,-0.003 -0.784336,-0.18174 -1.157716,-0.76664 -1.331698,-2.08514 -0.109196,-0.82743 0.257704,-3.85696 0.618046,-5.10356 0.12846,-0.44439 0.498091,-1.36377 0.641305,-1.59526 0.334687,-0.54098 0.944144,-0.97934 1.631942,-1.17409 0.333684,-0.0945 0.771906,-0.13881 1.229902,-0.13384 z" />
    </clipPath>
    <inkscape:path-effect
       effect="powerclip"
       id="path-effect1239"
       is_visible="true"
       lpeversion="1"
       inverse="true"
       flatten="false"
       hide_clip="false"
       message="Utilice la regla de relleno parimpar en el diálogo &lt;b&gt;Relleno y borde&lt;/b&gt; si el resultado no está aplanada después de convertir el recorte en trayectos." />
    <clipPath
       clipPathUnits="userSpaceOnUse"
       id="clipPath3219">
      <path
         id="path3221"
         style="display:none;fill:#ffffff;stroke-width:0.0218262"
         d="m 409.96515,52.552865 a 5.8849064,5.8849064 0 0 0 -5.88491,5.884912 5.8849064,5.8849064 0 0 0 5.88491,5.884913 5.8849064,5.8849064 0 0 0 5.88492,-5.884913 5.8849064,5.8849064 0 0 0 -5.88492,-5.884912 z m -6.08591,13.594519 0.1235,9.766329 c 0.11438,9.06259 0.52457,10.374805 1.27847,12.03234 2.56146,4.576662 6.20361,6.889522 10.79159,7.025928 V 80.559423 66.147384 h -6.09627 z m 14.68747,0 v 14.412039 14.412558 h 6.09676 6.0968 l -0.12351,-9.766329 c -0.11438,-9.06259 -0.52459,-10.374791 -1.27847,-12.03234 -2.56146,-4.576635 -6.2036,-6.889509 -10.79158,-7.025928 z" />
    </clipPath>
    <inkscape:path-effect
       effect="powerclip"
       id="path-effect3223"
       is_visible="true"
       lpeversion="1"
       inverse="true"
       flatten="false"
       hide_clip="false"
       message="Utilice la regla de relleno parimpar en el diálogo &lt;b&gt;Relleno y borde&lt;/b&gt; si el resultado no está aplanada después de convertir el recorte en trayectos." />
  </defs>
  <g
     inkscape:label="Capa 1"
     inkscape:groupmode="layer"
     id="layer1">
    <path
       id="path66737"
       style="display:inline;fill:url(#radialGradient855);fill-opacity:1;stroke:none;stroke-width:17.6654;stroke-miterlimit:4;stroke-dasharray:none;stroke-opacity:1"
       transform="scale(0.26458333)"
       d="M 377.95312,8.8320312 C 174.09294,8.831452 8.8314685,174.09293 8.8320312,377.95312 8.8322752,475.84987 47.721848,569.73693 116.94548,638.9602 186.16912,708.18347 280.05638,747.07255 377.95312,747.07227 475.84953,747.07203 569.73629,708.18273 638.9595,638.95952 708.18272,569.7363 747.07203,475.84954 747.07227,377.95312 747.07254,280.05637 708.18346,186.16911 638.96019,116.94547 569.73692,47.721836 475.84986,8.8322672 377.95312,8.8320312 Z"
       sodipodi:nodetypes="cssssssc" />
    <path
       style="fill:#ffffff;stroke-width:0.0864704"
       d="m 89.274967,164.78707 c -0.47235,-0.31725 -0.92656,-0.96351 -1.03608,-1.47418 -0.16708,-0.77907 0.17913,-1.62329 0.91198,-2.22382 l 0.41316,-0.33855 29.513093,-0.022 c 29.08892,-0.0217 29.51783,-0.0196 29.84283,0.14623 0.6267,0.31971 1.30505,1.34505 1.30693,1.97544 0.002,0.6126 -0.57767,1.4841 -1.2852,1.9328 l -0.39075,0.24781 H 119.09441 89.637897 Z m 17.690783,-8.46817 c -0.0203,-0.0357 -0.0518,-2.43847 -0.07,-5.33956 l -0.033,-5.2747 h 12.27881 12.27882 l 0.0223,5.33956 0.0223,5.33955 h -5.04765 -5.04762 l -0.042,-1.79426 c -0.0468,-1.99936 -0.0874,-2.17711 -0.63698,-2.78539 -0.87177,-0.96494 -2.13944,-0.986 -2.96196,-0.0492 -0.62531,0.71219 -0.65957,0.8529 -0.69037,2.8346 l -0.0279,1.79427 h -5.00393 c -2.75216,0 -5.02054,-0.0292 -5.04084,-0.0648 z M 92.811287,141.33445 c -0.70385,-0.0654 -1.83455,-0.43427 -2.68059,-0.87457 -1.34699,-0.70102 -2.31084,-1.68798 -3.196,-3.27259 -0.74557,-1.33472 -3.6808,-7.24672 -3.62541,-7.30211 0.055,-0.055 71.683953,-0.0671 71.738883,-0.0121 0.0493,0.0493 -3.35209,6.8337 -3.85748,7.69406 -1.01484,1.72757 -2.57297,2.90588 -4.72443,3.57278 l -0.77824,0.24123 -26.15734,0.003 c -14.38653,0.002 -26.410263,-0.0207 -26.719393,-0.0494 z M 41.786237,125.4247 c -1.30725,-0.10763 -2.99458,-0.5031 -4.23135,-0.99173 -2.88518,-1.1399 -5.42297,-2.99042 -7.23381,-5.27478 -1.86811,-2.35662 -4.195855,-4.54489 -3.55008,-7.65265 l -0.26863,-1.25382 -0.0616,-5.75029 c -0.09181,-8.569968 -0.0295,-42.104925 0.0797,-42.867574 0.15117,-1.055728 0.58667,-2.871414 0.91374,-3.809515 1.868,-5.357886 6.05394,-9.300454 11.58417,-10.910672 1.81095,-0.527288 1.935651,-0.576317 6.98407,-0.581699 l 37.98173,-0.04049 0.044,0.202195 c 0.0738,0.338655 0.21067,1.444827 0.3086,2.493665 0.0511,0.546926 0.16953,1.714278 0.26325,2.594116 0.0937,0.879838 0.3658,3.564748 0.60462,5.966467 0.23882,2.40172 0.66761,6.682012 0.95286,9.51176 0.75816,7.521194 1.30562,12.990448 1.4195,14.181169 0.0509,0.531674 0.0605,0.508908 -0.67595,1.59241 -1.30862,1.925264 -2.14795,4.170411 -2.4404,6.527927 -0.86342,6.960203 3.03871,13.411941 9.69514,16.029801 1.08257,0.42577 3.28865,0.90382 4.88133,1.0578 0.92418,0.0893 3.698063,-0.38327 5.145003,-0.87659 5.32778,-1.81646 9.37645,-6.619356 10.20309,-12.103823 0.1669,-1.107324 0.1672,-3.371086 6.6e-4,-4.476489 -0.40886,-2.712551 -1.69302,-5.476306 -3.5344,-7.606687 l -0.66,-0.763594 0.0218,-17.135809 0.0218,-17.13581 11.06823,-0.02504 c 6.08752,-0.01377 11.24014,-6.86e-4 11.45025,0.02909 l 0.38204,0.05413 -0.42527,0.233575 c -1.59331,0.875114 -4.49586,3.223225 -6.14473,4.970977 -3.30701,3.505302 -5.72826,7.642226 -7.16697,12.245414 -0.74564,2.385655 -1.20009,5.1745 -1.33898,8.216834 -0.046,1.007469 -0.0819,12.923684 -0.0832,27.605719 l -0.002,25.833073 -21.033963,-0.0123 c -11.56867,-0.007 -54.72361,-0.0413 -55.15401,-0.0768 z m 80.569153,0.0314 c -0.0874,-0.0874 -0.0693,-11.33903 0.0182,-11.39316 0.0417,-0.0258 19.17659,-0.0488 42.52189,-0.0511 l 42.44599,-0.004 v 2.74823 c 0,3.08919 -0.048,3.41138 -0.70261,4.71902 -0.85099,1.69985 -2.00755,2.77372 -3.77963,3.50939 -1.37743,0.57183 1.91468,0.52953 -41.21063,0.52953 -21.57959,0 -39.26156,-0.0259 -39.29326,-0.0576 z m -0.0576,-33.905134 c 0,-11.739302 0.0321,-18.626262 0.0908,-19.520723 0.25193,-3.832932 0.91451,-6.687701 2.24745,-9.683225 0.64805,-1.456392 0.68394,-1.527112 1.44846,-2.853528 1.22092,-2.118293 2.44182,-3.696826 4.24708,-5.491193 4.09334,-4.068624 9.13221,-6.591565 14.96734,-7.494078 1.39613,-0.215939 6.08477,-0.218396 7.46285,-0.0039 5.93925,0.924389 10.97232,3.470168 15.18621,7.681344 3.13613,3.134102 5.5155,7.167789 6.70143,11.360776 0.41097,1.45306 0.9142,4.258663 0.9142,5.096918 0,0.117409 -1.89006,0.134172 -17.44544,0.154729 l -17.44543,0.02304 -0.60529,0.203193 c -1.17348,0.393923 -1.92715,0.854537 -2.77597,1.696554 -1.23505,1.225161 -1.79291,2.442989 -1.94151,4.238454 -0.0436,0.527272 -0.0794,8.044686 -0.0802,16.841346 l -0.001,15.888957 h -6.4854 -6.48529 z m 17.31442,1.687651 c 0.0217,-15.540082 0.0314,-16.469081 0.17621,-16.777208 0.22301,-0.474536 0.74526,-1.018443 1.15076,-1.19847 0.33809,-0.150101 1.58013,-0.15751 29.6594,-0.176923 26.55881,-0.01837 29.33549,-0.0074 29.61546,0.116464 0.43696,0.193379 0.91223,0.634096 1.18599,1.099772 l 0.23449,0.398878 v 2.032055 c 0,1.117632 -0.01,8.540046 -0.0216,16.494256 l -0.0216,14.462199 h -31.001 -31.001 z m 23.97855,2.821206 c 0.0569,0.02183 1.51055,0.976754 3.23043,2.122093 l 3.12707,2.082434 h 0.60614 c 0.7521,0 0.83213,-0.0394 2.87102,-1.413921 3.41203,-2.300206 4.20242,-2.823134 4.26704,-2.823134 4.0407,-2.693136 0,0 3.68168,-2.432378 l 0.35902,-0.260758 c 0.19745,-0.143414 1.89603,-1.285074 3.7746,-2.537021 1.87857,-1.251948 3.57618,-2.415112 3.77245,-2.584809 1.02858,-0.889294 0.96373,-2.532397 -0.12851,-3.255867 -0.78055,-0.517012 -1.44102,-0.541148 -2.34338,-0.08564 -0.28464,0.143692 -4.02113,2.595943 -8.30329,5.449452 -4.28217,2.853508 -7.84412,5.188196 -7.91545,5.188196 -0.0713,0 -3.69409,-2.37771 -8.05056,-5.283797 -4.35646,-2.906087 -8.13156,-5.376983 -8.38909,-5.490879 -0.54205,-0.239718 -0.96672,-0.260775 -1.51204,-0.07497 -0.87944,0.299656 -1.37247,0.997697 -1.37247,1.943174 0,0.657829 0.19596,1.118256 0.66867,1.57117 0.17916,0.171658 2.02814,1.445522 4.10883,2.830808 2.0807,1.385289 3.78309,2.544335 3.78309,2.575661 z m -65.245313,5.980937 c -0.0713,-0.0173 -0.42154,-0.0784 -0.77824,-0.13593 -0.91284,-0.14713 -2.32959,-0.62643 -3.16453,-1.07059 -3.10284,-1.650624 -5.25543,-4.79717 -5.66109,-8.275119 -0.12033,-1.031624 -0.0597,-2.761389 0.12717,-3.628806 1.07115,-4.971872 5.48359,-8.511044 10.60081,-8.502786 2.956053,0.0048 5.690653,1.190212 7.774943,3.37041 1.24608,1.303425 1.87666,2.353902 2.4796,4.130752 0.35945,1.059252 0.48872,1.953557 0.4832,3.342732 -0.006,1.422657 -0.12126,2.155729 -0.52337,3.318782 -0.59277,1.71447 -1.28624,2.868107 -2.46712,4.104221 -1.48037,1.549614 -3.03221,2.446404 -5.28284,3.052874 -0.79435,0.21405 -1.15791,0.26196 -2.205003,0.29059 -0.6896,0.0189 -1.31219,0.0201 -1.38353,0.003 z m 3.524703,-8.974761 c 0.61384,-0.377606 0.94178,-0.824617 1.07577,-1.466389 0.13847,-0.663179 -0.0578,-1.319648 -0.53821,-1.800041 -0.63584,-0.635844 -0.66938,-0.64352 -2.943643,-0.67381 l -2.03756,-0.02713 -0.55238,0.37302 c -0.72307,0.488276 -0.94985,0.901409 -0.94985,1.730353 0,0.69826 0.16423,1.081251 0.66281,1.545617 0.71229,0.663407 0.77942,0.677094 3.16453,0.645262 l 1.622353,-0.02163 z M 91.573857,77.673946 c -0.13996,-1.458977 -0.85949,-8.606927 -1.01188,-10.0522 -0.0953,-0.903618 -0.38825,-3.783088 -0.65107,-6.398822 -2.16269,-21.524439 -2.17102,-21.605927 -2.38641,-23.347046 -0.10002,-0.8085 -0.21799,-1.508911 -0.26216,-1.55647 16.245613,-0.05859 15.822643,-0.03681 0,0 -0.108243,-1.140504 -0.787707,-7.31402 -0.959741,-9.404683 -0.007,-2.554572 0.0115,-2.740953 0.40012,-3.977645 0.87501,-2.784845 3.44417,-4.953256 6.34706,-5.35701 0.88746,-0.123436 5.378239,-0.187866 6.160329,-0.06448 1.055035,0.166458 2.358195,0.690592 3.285885,1.321602 0.57028,0.387905 1.42414,1.229156 1.90102,1.872968 0.8808,1.189113 1.35962,2.493598 1.45883,3.974416 0.0732,1.092222 0.0727,52.806666 -6.6e-4,52.879879 -0.0309,0.03095 -0.25404,-0.04395 -0.49579,-0.166455 -0.73416,-0.372026 -2.23219,-0.818387 -3.5553,-1.059357 -2.128065,-0.38757 -3.756965,-0.313199 -6.141775,0.280413 -1.01608,0.252918 -1.64971,0.490116 -2.97006,1.111834 -0.56477,0.265929 -1.03581,0.483508 -1.04677,0.483508 -0.0109,0 -0.0433,-0.243198 -0.0718,-0.540439 z"
       id="path21"
       sodipodi:nodetypes="ssscsccscccscccccccccscsscscccssscsscccccssscsscssccccssccssssscscccsscscssccccccsccssssccccscsscsssscsscccccccssscscsccccccscssccssssssssssssscccsssccsscsssscccscscsssccccccsccccscssccssssscc"
       clip-path="url(#clipPath1235)"
       transform="matrix(0.79855466,0,0,0.79855466,4.7048335,47.114817)"
       inkscape:original-d="m 89.274967,164.78707 c -0.47235,-0.31725 -0.92656,-0.96351 -1.03608,-1.47418 -0.16708,-0.77907 0.17913,-1.62329 0.91198,-2.22382 l 0.41316,-0.33855 29.513093,-0.022 c 29.08892,-0.0217 29.51783,-0.0196 29.84283,0.14623 0.6267,0.31971 1.30505,1.34505 1.30693,1.97544 0.002,0.6126 -0.57767,1.4841 -1.2852,1.9328 l -0.39075,0.24781 H 119.09441 89.637897 Z m 17.690783,-8.46817 c -0.0203,-0.0357 -0.0518,-2.43847 -0.07,-5.33956 l -0.033,-5.2747 h 12.27881 12.27882 l 0.0223,5.33956 0.0223,5.33955 h -5.04765 -5.04762 l -0.042,-1.79426 c -0.0468,-1.99936 -0.0874,-2.17711 -0.63698,-2.78539 -0.87177,-0.96494 -2.13944,-0.986 -2.96196,-0.0492 -0.62531,0.71219 -0.65957,0.8529 -0.69037,2.8346 l -0.0279,1.79427 h -5.00393 c -2.75216,0 -5.02054,-0.0292 -5.04084,-0.0648 z M 92.811287,141.33445 c -0.70385,-0.0654 -1.83455,-0.43427 -2.68059,-0.87457 -1.34699,-0.70102 -2.31084,-1.68798 -3.196,-3.27259 -0.74557,-1.33472 -3.6808,-7.24672 -3.62541,-7.30211 0.055,-0.055 71.683953,-0.0671 71.738883,-0.0121 0.0493,0.0493 -3.35209,6.8337 -3.85748,7.69406 -1.01484,1.72757 -2.57297,2.90588 -4.72443,3.57278 l -0.77824,0.24123 -26.15734,0.003 c -14.38653,0.002 -26.410263,-0.0207 -26.719393,-0.0494 z M 41.786237,125.4247 c -1.30725,-0.10763 -2.99458,-0.5031 -4.23135,-0.99173 -2.88518,-1.1399 -5.42297,-2.99042 -7.23381,-5.27478 -1.86811,-2.35662 -4.195855,-4.54489 -3.55008,-7.65265 l -0.26863,-1.25382 -0.0616,-5.75029 c -0.09181,-8.569968 -0.0295,-42.104925 0.0797,-42.867574 0.15117,-1.055728 0.58667,-2.871414 0.91374,-3.809515 1.868,-5.357886 6.05394,-9.300454 11.58417,-10.910672 1.81095,-0.527288 1.935651,-0.576317 6.98407,-0.581699 l 37.98173,-0.04049 0.044,0.202195 c 0.0738,0.338655 0.21067,1.444827 0.3086,2.493665 0.0511,0.546926 0.16953,1.714278 0.26325,2.594116 0.0937,0.879838 0.3658,3.564748 0.60462,5.966467 0.23882,2.40172 0.66761,6.682012 0.95286,9.51176 0.75816,7.521194 1.30562,12.990448 1.4195,14.181169 0.0509,0.531674 0.0605,0.508908 -0.67595,1.59241 -1.30862,1.925264 -2.14795,4.170411 -2.4404,6.527927 -0.86342,6.960203 3.03871,13.411941 9.69514,16.029801 1.08257,0.42577 3.28865,0.90382 4.88133,1.0578 0.92418,0.0893 3.698063,-0.38327 5.145003,-0.87659 5.32778,-1.81646 9.37645,-6.619356 10.20309,-12.103823 0.1669,-1.107324 0.1672,-3.371086 6.6e-4,-4.476489 -0.40886,-2.712551 -1.69302,-5.476306 -3.5344,-7.606687 l -0.66,-0.763594 0.0218,-17.135809 0.0218,-17.13581 11.06823,-0.02504 c 6.08752,-0.01377 11.24014,-6.86e-4 11.45025,0.02909 l 0.38204,0.05413 -0.42527,0.233575 c -1.59331,0.875114 -4.49586,3.223225 -6.14473,4.970977 -3.30701,3.505302 -5.72826,7.642226 -7.16697,12.245414 -0.74564,2.385655 -1.20009,5.1745 -1.33898,8.216834 -0.046,1.007469 -0.0819,12.923684 -0.0832,27.605719 l -0.002,25.833073 -21.033963,-0.0123 c -11.56867,-0.007 -54.72361,-0.0413 -55.15401,-0.0768 z m 80.569153,0.0314 c -0.0874,-0.0874 -0.0693,-11.33903 0.0182,-11.39316 0.0417,-0.0258 19.17659,-0.0488 42.52189,-0.0511 l 42.44599,-0.004 v 2.74823 c 0,3.08919 -0.048,3.41138 -0.70261,4.71902 -0.85099,1.69985 -2.00755,2.77372 -3.77963,3.50939 -1.37743,0.57183 1.91468,0.52953 -41.21063,0.52953 -21.57959,0 -39.26156,-0.0259 -39.29326,-0.0576 z m -0.0576,-33.905134 c 0,-11.739302 0.0321,-18.626262 0.0908,-19.520723 0.25193,-3.832932 0.91451,-6.687701 2.24745,-9.683225 0.64805,-1.456392 0.68394,-1.527112 1.44846,-2.853528 1.22092,-2.118293 2.44182,-3.696826 4.24708,-5.491193 4.09334,-4.068624 9.13221,-6.591565 14.96734,-7.494078 1.39613,-0.215939 6.08477,-0.218396 7.46285,-0.0039 5.93925,0.924389 10.97232,3.470168 15.18621,7.681344 3.13613,3.134102 5.5155,7.167789 6.70143,11.360776 0.41097,1.45306 0.9142,4.258663 0.9142,5.096918 0,0.117409 -1.89006,0.134172 -17.44544,0.154729 l -17.44543,0.02304 -0.60529,0.203193 c -1.17348,0.393923 -1.92715,0.854537 -2.77597,1.696554 -1.23505,1.225161 -1.79291,2.442989 -1.94151,4.238454 -0.0436,0.527272 -0.0794,8.044686 -0.0802,16.841346 l -0.001,15.888957 h -6.4854 -6.48529 z m 17.31442,1.687651 c 0.0217,-15.540082 0.0314,-16.469081 0.17621,-16.777208 0.22301,-0.474536 0.74526,-1.018443 1.15076,-1.19847 0.33809,-0.150101 1.58013,-0.15751 29.6594,-0.176923 26.55881,-0.01837 29.33549,-0.0074 29.61546,0.116464 0.43696,0.193379 0.91223,0.634096 1.18599,1.099772 l 0.23449,0.398878 v 2.032055 c 0,1.117632 -0.01,8.540046 -0.0216,16.494256 l -0.0216,14.462199 h -31.001 -31.001 z m 23.97855,2.821206 c 0.0569,0.02183 1.51055,0.976754 3.23043,2.122093 l 3.12707,2.082434 h 0.60614 c 0.7521,0 0.83213,-0.0394 2.87102,-1.413921 3.41203,-2.300206 4.20242,-2.823134 4.26704,-2.823134 4.0407,-2.693136 0,0 3.68168,-2.432378 l 0.35902,-0.260758 c 0.19745,-0.143414 1.89603,-1.285074 3.7746,-2.537021 1.87857,-1.251948 3.57618,-2.415112 3.77245,-2.584809 1.02858,-0.889294 0.96373,-2.532397 -0.12851,-3.255867 -0.78055,-0.517012 -1.44102,-0.541148 -2.34338,-0.08564 -0.28464,0.143692 -4.02113,2.595943 -8.30329,5.449452 -4.28217,2.853508 -7.84412,5.188196 -7.91545,5.188196 -0.0713,0 -3.69409,-2.37771 -8.05056,-5.283797 -4.35646,-2.906087 -8.13156,-5.376983 -8.38909,-5.490879 -0.54205,-0.239718 -0.96672,-0.260775 -1.51204,-0.07497 -0.87944,0.299656 -1.37247,0.997697 -1.37247,1.943174 0,0.657829 0.19596,1.118256 0.66867,1.57117 0.17916,0.171658 2.02814,1.445522 4.10883,2.830808 2.0807,1.385289 3.78309,2.544335 3.78309,2.575661 z m -65.245313,5.980937 c -0.0713,-0.0173 -0.42154,-0.0784 -0.77824,-0.13593 -0.91284,-0.14713 -2.32959,-0.62643 -3.16453,-1.07059 -3.10284,-1.650624 -5.25543,-4.79717 -5.66109,-8.275119 -0.12033,-1.031624 -0.0597,-2.761389 0.12717,-3.628806 1.07115,-4.971872 5.48359,-8.511044 10.60081,-8.502786 2.956053,0.0048 5.690653,1.190212 7.774943,3.37041 1.24608,1.303425 1.87666,2.353902 2.4796,4.130752 0.35945,1.059252 0.48872,1.953557 0.4832,3.342732 -0.006,1.422657 -0.12126,2.155729 -0.52337,3.318782 -0.59277,1.71447 -1.28624,2.868107 -2.46712,4.104221 -1.48037,1.549614 -3.03221,2.446404 -5.28284,3.052874 -0.79435,0.21405 -1.15791,0.26196 -2.205003,0.29059 -0.6896,0.0189 -1.31219,0.0201 -1.38353,0.003 z m 3.524703,-8.974761 c 0.61384,-0.377606 0.94178,-0.824617 1.07577,-1.466389 0.13847,-0.663179 -0.0578,-1.319648 -0.53821,-1.800041 -0.63584,-0.635844 -0.66938,-0.64352 -2.943643,-0.67381 l -2.03756,-0.02713 -0.55238,0.37302 c -0.72307,0.488276 -0.94985,0.901409 -0.94985,1.730353 0,0.69826 0.16423,1.081251 0.66281,1.545617 0.71229,0.663407 0.77942,0.677094 3.16453,0.645262 l 1.622353,-0.02163 z M 91.573857,77.673946 c -0.13996,-1.458977 -0.85949,-8.606927 -1.01188,-10.0522 -0.0953,-0.903618 -0.38825,-3.783088 -0.65107,-6.398822 -2.16269,-21.524439 -2.17102,-21.605927 -2.38641,-23.347046 -0.10002,-0.8085 -0.21799,-1.508911 -0.26216,-1.55647 16.245613,-0.05859 15.822643,-0.03681 0,0 -0.108243,-1.140504 -0.787707,-7.31402 -0.959741,-9.404683 -0.007,-2.554572 0.0115,-2.740953 0.40012,-3.977645 0.87501,-2.784845 3.44417,-4.953256 6.34706,-5.35701 0.88746,-0.123436 5.378239,-0.187866 6.160329,-0.06448 1.055035,0.166458 2.358195,0.690592 3.285885,1.321602 0.57028,0.387905 1.42414,1.229156 1.90102,1.872968 0.8808,1.189113 1.35962,2.493598 1.45883,3.974416 0.0732,1.092222 0.0727,52.806666 -6.6e-4,52.879879 -0.0309,0.03095 -0.25404,-0.04395 -0.49579,-0.166455 -0.73416,-0.372026 -2.23219,-0.818387 -3.5553,-1.059357 -2.128065,-0.38757 -3.756965,-0.313199 -6.141775,0.280413 -1.01608,0.252918 -1.64971,0.490116 -2.97006,1.111834 -0.56477,0.265929 -1.03581,0.483508 -1.04677,0.483508 -0.0109,0 -0.0433,-0.243198 -0.0718,-0.540439 z"
       inkscape:path-effect="#path-effect1239" />
    <path
       style="fill:#ffffff;stroke-width:0.264583"
       d="m 381.02861,138.77937 c -4.89862,-1.10279 -11.1125,-6.60087 -11.1125,-9.83241 0,-0.29202 2.50185,-0.35462 14.17304,-0.35462 h 14.17304 l -0.18014,0.59532 c -1.97768,6.53579 -10.16715,11.14197 -17.05344,9.59171 z m -34.49244,-13.64581 c -1.67401,-1.31678 -0.80707,-8.95563 1.21258,-10.68438 1.78737,-1.52992 0.4954,-1.48054 36.76244,-1.40507 38.25168,0.0796 34.88361,-0.13188 36.6018,2.29818 1.12814,1.59555 1.40046,9.18358 0.35583,9.91527 -0.54894,0.3845 -4.06469,0.42437 -37.42069,0.42437 h -36.81482 z m 5.51046,-15.92195 c 0.19787,-0.47294 1.09581,-2.46724 1.99542,-4.43177 3.37928,-7.379542 3.23105,-6.496244 3.44105,-20.505207 0.20401,-13.609413 0.26988,-14.087573 2.62435,-19.050001 2.81416,-5.931302 7.76068,-10.738234 13.47996,-13.099555 l 2.07547,-0.856904 0.15251,-2.353968 c 0.74941,-11.567222 16.32572,-11.409119 16.32572,0.165709 v 2.149559 l 1.32476,0.476375 1.32475,0.476375 -1.12632,1.303904 c -17.23395,19.951249 -7.21987,49.005613 18.17953,52.745183 1.59591,0.23497 2.94467,0.47022 2.99722,0.52278 0.0526,0.0526 0.43839,0.82047 0.85741,1.70648 l 0.76185,1.61094 h -32.38672 -32.38673 z m 35.13617,-64.540764 0.2169,0.264924 c 0,0 -4.35397,-3.508598 -7.57191,0.25084 -4.21047,9.446031 11.99302,11.209544 7.35501,-0.515764 z m 26.38956,58.911524 c -0.21828,-0.0428 -1.28984,-0.2226 -2.38125,-0.39961 -25.30697,-4.104631 -31.82652,-38.351836 -9.91661,-52.092026 23.6699,-14.843923 52.4925,10.713399 40.74837,36.132035 -4.88182,10.566075 -18.38631,18.331421 -28.45051,16.359601 z"
       id="path895"
       sodipodi:nodetypes="ssscsssssssscsssssscsscccsssscccscsccscsss"
       clip-path="url(#clipPath3219)"
       transform="matrix(0.50505268,0,0,0.50505268,-77.996689,1.7520303)"
       inkscape:original-d="m 381.02861,138.77937 c -4.89862,-1.10279 -11.1125,-6.60087 -11.1125,-9.83241 0,-0.29202 2.50185,-0.35462 14.17304,-0.35462 h 14.17304 l -0.18014,0.59532 c -1.97768,6.53579 -10.16715,11.14197 -17.05344,9.59171 z m -34.49244,-13.64581 c -1.67401,-1.31678 -0.80707,-8.95563 1.21258,-10.68438 1.78737,-1.52992 0.4954,-1.48054 36.76244,-1.40507 38.25168,0.0796 34.88361,-0.13188 36.6018,2.29818 1.12814,1.59555 1.40046,9.18358 0.35583,9.91527 -0.54894,0.3845 -4.06469,0.42437 -37.42069,0.42437 h -36.81482 z m 5.51046,-15.92195 c 0.19787,-0.47294 1.09581,-2.46724 1.99542,-4.43177 3.37928,-7.379542 3.23105,-6.496244 3.44105,-20.505207 0.20401,-13.609413 0.26988,-14.087573 2.62435,-19.050001 2.81416,-5.931302 7.76068,-10.738234 13.47996,-13.099555 l 2.07547,-0.856904 0.15251,-2.353968 c 0.74941,-11.567222 16.32572,-11.409119 16.32572,0.165709 v 2.149559 l 1.32476,0.476375 1.32475,0.476375 -1.12632,1.303904 c -17.23395,19.951249 -7.21987,49.005613 18.17953,52.745183 1.59591,0.23497 2.94467,0.47022 2.99722,0.52278 0.0526,0.0526 0.43839,0.82047 0.85741,1.70648 l 0.76185,1.61094 h -32.38672 -32.38673 z m 35.13617,-64.540764 0.2169,0.264924 c 0,0 -4.35397,-3.508598 -7.57191,0.25084 -4.21047,9.446031 11.99302,11.209544 7.35501,-0.515764 z m 26.38956,58.911524 c -0.21828,-0.0428 -1.28984,-0.2226 -2.38125,-0.39961 -25.30697,-4.104631 -31.82652,-38.351836 -9.91661,-52.092026 23.6699,-14.843923 52.4925,10.713399 40.74837,36.132035 -4.88182,10.566075 -18.38631,18.331421 -28.45051,16.359601 z"
       inkscape:path-effect="#path-effect3223" />
    <path
       style="fill:#ffffff;stroke-width:0.207944"
       d="m 28.308692,98.070986 c -1.75857,-0.3088 -3.23211,-1.66382 -3.73316,-3.43288 -0.4336,-1.53083 -0.20125,-37.88784 0.24738,-38.70749 1.06653,-1.94856 2.40909,-2.61472 5.51659,-2.7374 l 2.33937,-0.0923 v 0.96858 c 0,2.13742 1.05297,3.34658 2.91433,3.34658 1.88175,0 2.9036,-1.22512 2.90695,-3.48529 l 9e-4,-0.78208 8.64377,0.0542 8.64377,0.0542 0.0717,1.17529 c 0.26869,4.4053 5.72258,4.05768 5.72258,-0.36468 v -0.97023 l 2.02746,0.1021 c 2.97224,0.14964 4.41249,0.90382 5.27224,2.76073 0.59794,1.29153 0.59794,38.21795 0,39.50946 -0.47394,1.02368 -1.31756,1.83602 -2.413,2.32361 -0.84627,0.3767 -36.13492,0.63315 -38.16113,0.27743 z m 37.2333,-2.34114 c 0.67781,-0.3418 1.05391,-0.71787 1.3957,-1.39573 l 0.46787,-0.9278 v -14.71993 -14.72002 h -20.4825 -20.48251 v 14.8783 c 0,16.00674 -0.0382,15.4202 1.07205,16.45677 0.92852,0.86696 0.9846,0.86956 19.31441,0.88307 l 17.78715,0.0134 0.92783,-0.46787 z m -37.22994,-4.83473 v -2.1834 h 2.18341 2.18341 v 2.1834 2.18347 h -2.18341 -2.18341 z m 5.61449,0 v -2.1834 h 2.18341 2.18342 v 2.1834 2.18347 h -2.18342 -2.18341 z m -5.61449,-5.71844 v -2.07941 h 2.18341 2.18341 v 2.07941 2.07942 h -2.18341 -2.18341 z m 5.61449,0 v -2.07941 h 2.18341 2.18342 v 2.07941 2.07942 h -2.18342 -2.18341 z m 5.51052,0 v -2.07941 h 2.18342 2.18342 v 2.07941 2.07942 h -2.18342 -2.18342 z m 5.51052,0 v -2.07941 h 2.18342 2.18341 v 2.07941 2.07942 h -2.18341 -2.18342 z m 5.61449,0 v -2.07941 h 2.13143 2.13144 v 2.07941 2.07942 h -2.13144 -2.13143 z m 5.40656,0 v -2.07941 h 2.18342 2.18341 v 2.07941 2.07942 h -2.18341 -2.18342 z m 5.6145,0 v -2.07941 h 2.18341 2.18341 v 2.07941 2.07942 h -2.18341 -2.18341 z m -33.27108,-5.82241 v -2.07949 h 2.18341 2.18341 v 2.07949 2.07941 h -2.18341 -2.18341 z m 5.61449,0 v -2.07949 h 2.18341 2.18342 v 2.07949 2.07941 h -2.18342 -2.18341 z m 5.51052,0 v -2.07949 h 2.18342 2.18342 v 2.07949 2.07941 h -2.18342 -2.18342 z m 5.51052,0 v -2.07949 h 2.18342 2.18341 v 2.07949 2.07941 h -2.18341 -2.18342 z m 5.61449,0 v -2.07949 h 2.13143 2.13144 v 2.07949 2.07941 h -2.13144 -2.13143 z m 5.40656,0 v -2.07949 h 2.18342 2.18341 v 2.07949 2.07941 h -2.18341 -2.18342 z m 5.6145,0 v -2.07949 h 2.18341 2.18341 v 2.07949 2.07941 h -2.18341 -2.18341 z m -33.27108,-5.82249 v -2.07942 h 2.18341 2.18341 v 2.07942 2.07949 h -2.18341 -2.18341 z m 5.61405,-0.0519 -4.5e-4,-2.13145 2.18385,0.0652 2.18386,0.0652 v 2.06614 2.06606 h -2.18342 -2.18341 l -4.5e-4,-2.13145 z m 5.51096,0.0519 v -2.07942 h 2.18342 2.18342 v 2.07942 2.07949 h -2.18342 -2.18342 z m 5.51052,0 v -2.07942 h 2.18342 2.18341 v 2.07942 2.07949 h -2.18341 -2.18342 z m 5.61449,0 v -2.07942 h 2.13143 2.13144 v 2.07942 2.07949 h -2.13144 -2.13143 z m 5.40656,0.0133 v -2.06606 l 2.18385,-0.0652 2.18386,-0.0652 -4.5e-4,2.13144 -4.5e-4,2.13145 h -2.18341 -2.18342 v -2.06606 z m 5.6145,-0.0133 v -2.07942 h 2.18341 2.18341 v 2.07942 2.07949 h -2.18341 -2.18341 z m -5.6145,-5.87963 v -2.13663 h 2.18342 2.18341 v 2.13663 2.13663 h -2.18341 -2.18342 z m 5.6145,0.008 v -2.13223 h 2.13143 2.13142 l 0.0593,2.13105 0.0593,2.13105 h -2.19069 -2.19068 v -2.13223 z m -27.27555,-11.80287 -0.62668,-0.62662 0.0708,-2.15935 c 0.0941,-2.86834 0.95522,-3.81641 2.66389,-2.93286 0.88937,0.45993 1.0905,1.13677 1.01057,3.40056 -0.0996,2.82055 -1.54323,3.89366 -3.11861,2.31827 z m 23.5753,0.40884 c -1.49159,-0.59857 -1.4955,-5.37318 -0.005,-6.14394 1.70589,-0.88213 2.66555,0.22627 2.66555,3.07873 0,2.77944 -0.87131,3.78331 -2.66053,3.06521 z"
       id="path38052" />
    <path
       id="path38032"
       style="fill:#ffffff;stroke-width:0.0766487"
       d="m 55.41446,110.02539 -1.03033,1.22826 c -0.56667,0.67558 -1.59362,1.90304 -2.28214,2.72772 -1.63485,1.95814 -1.83881,2.20017 -2.16406,2.56909 -0.35946,0.40776 -2.50301,2.97719 -2.77492,3.32622 -0.11668,0.14981 -0.2379,0.29123 -0.26936,0.31435 -0.0315,0.0231 -0.64766,0.749 -1.36939,1.61322 -0.72174,0.86421 -1.51666,1.81278 -1.7665,2.10789 -0.24983,0.29508 -1.05577,1.25707 -1.79097,2.13772 -0.7352,0.8806 -1.81099,2.16902 -2.39065,2.86327 -0.57966,0.69421 -1.054,1.27274 -1.054,1.28582 0,0.0212 0.33126,0.20699 1.60822,0.90178 0.23109,0.12575 0.54946,0.31017 0.70748,0.40993 0.15803,0.0998 0.30571,0.18135 0.3281,0.18135 0.0423,0 1.70768,0.94318 2.9261,1.65718 4.52475,2.65163 1.47719,8.90622 -3.56108,7.30853 -0.53571,-0.16989 -1.47412,-0.46719 -2.08539,-0.66075 -0.61128,-0.19352 -1.45635,-0.46665 -1.87792,-0.6069 -0.42158,-0.14029 -0.95618,-0.31066 -1.18804,-0.37857 -0.23187,-0.068 -0.47338,-0.1424 -0.53662,-0.16527 -0.0632,-0.0229 -0.008,0.0395 0.12378,0.1387 0.13132,0.0992 0.5642,0.45635 0.96193,0.79361 1.21609,1.03118 3.8783,3.26919 4.46787,3.75585 0.76703,0.63311 3.29153,2.75172 3.75934,3.15489 0.21078,0.18166 0.90057,0.76125 1.53292,1.28792 0.63235,0.52665 1.15739,0.95924 1.16659,0.95924 0.009,9.1e-4 0.61086,-0.71408 1.33699,-1.58886 0.72614,-0.87472 1.34936,-1.61038 1.3849,-1.63503 0.0355,-0.0245 0.14097,-0.14981 0.23427,-0.27845 0.17067,-0.23524 2.2978,-2.78065 2.80838,-3.3606 0.30116,-0.34209 0.291,-0.33 2.13003,-2.53342 0.70758,-0.84778 1.88972,-2.26192 2.62701,-3.14254 0.7373,-0.88062 1.40991,-1.6854 1.49469,-1.78829 0.0848,-0.10287 0.27792,-0.32701 0.42916,-0.49816 0.15123,-0.17114 0.87662,-1.03549 1.61206,-1.92081 1.62947,-1.96151 1.64897,-1.98467 1.98865,-2.37153 0.15027,-0.17112 0.77608,-0.91474 1.39072,-1.6525 2.0103,-2.41298 4.44533,-5.32149 4.68909,-5.6009 0.13134,-0.15055 0.31289,-0.36241 0.40351,-0.47076 l 0.16481,-0.19709 -1.94972,-1.63712 c -1.07233,-0.90038 -2.11223,-1.77072 -2.31092,-1.93422 -0.19869,-0.16345 -0.85681,-0.71532 -1.46252,-1.22639 -0.60571,-0.51101 -1.25035,-1.04991 -1.43245,-1.19747 -0.1821,-0.14755 -1.14776,-0.9581 -2.146,-1.80123 -0.99824,-0.84313 -1.9446,-1.6364 -2.10298,-1.76288 -0.34354,-0.27432 -1.52244,-1.26422 -1.9594,-1.64528 -0.1709,-0.14904 -0.41439,-0.36022 -0.54104,-0.46926 z m -19.85652,9.69383 c -1.62461,-0.0141 -2.97308,0.41353 -6.27365,1.40272 -0.54895,0.16456 -1.03115,0.29909 -1.07148,0.29909 -0.0403,0 -0.52241,0.13458 -1.07137,0.29895 -2.22106,0.66514 -2.36379,0.69746 -3.07493,0.69746 h -0.68254 l 0.02,5.89368 0.0202,5.89357 0.32484,-0.0709 c 0.17866,-0.039 0.75595,-0.18833 1.28291,-0.33171 3.58256,-0.97487 3.39332,-0.99422 4.85728,0.49618 1.45318,1.47944 1.89757,1.74067 4.22567,2.4847 0.75883,0.2425 1.72455,0.55565 2.14612,0.69582 0.42157,0.14023 1.19769,0.39254 1.72465,0.56086 0.52696,0.16828 1.35477,0.43581 1.83957,0.59443 0.48481,0.15861 1.17459,0.36854 1.53292,0.46657 2.06398,0.56445 3.6766,-1.06445 2.98939,-3.01969 -0.15948,-0.45375 -0.72503,-1.12183 -1.03197,-1.21916 -0.0859,-0.0272 -0.2941,-0.13755 -0.46272,-0.24511 -0.16863,-0.10752 -0.4791,-0.28729 -0.68989,-0.39943 -0.21078,-0.11214 -0.62463,-0.34072 -0.91973,-0.50795 -0.98797,-0.55992 -1.99007,-1.12278 -2.2995,-1.29165 -0.16862,-0.092 -0.48919,-0.27571 -0.71237,-0.40818 -0.22318,-0.13246 -0.42092,-0.24079 -0.43953,-0.24079 -0.0186,0 -0.1982,-0.0983 -0.39908,-0.21854 -0.20088,-0.12022 -0.75507,-0.43616 -1.23151,-0.70201 -1.13971,-0.63593 -1.40288,-1.007 -1.28268,-1.80857 0.1349,-0.89964 0.5543,-1.13015 2.14692,-1.18 l 1.22429,-0.0383 1.25109,-1.49458 c 0.68813,-0.82209 1.53416,-1.83377 1.88002,-2.24821 0.34586,-0.41439 0.66589,-0.79402 0.71122,-0.84351 0.77416,-0.84489 1.78938,-2.15606 1.7053,-2.20252 -0.0558,-0.0308 -0.37733,-0.0984 -0.71459,-0.15023 -0.33726,-0.0519 -1.32036,-0.22506 -2.18458,-0.38475 -2.64615,-0.48909 -4.0767,-0.76726 -5.34028,-0.77823 z m -17.59002,1.31857 0.0493,0.78569 c 0.0271,0.43211 0.18304,2.1998 0.3464,3.92823 0.49083,5.19356 0.9151,9.7743 0.96367,10.40515 l 0.0457,0.59408 h 1.06658 1.06647 v -7.85658 -7.85657 h -1.76906 z m 32.76398,2.53226 c 1.59578,-0.006 3.24374,0.60763 4.52463,1.88853 3.41982,3.41982 1.93151,9.0043 -2.63039,9.86969 -4.92399,0.93408 -9.11573,-4.39338 -6.89966,-8.76907 0.98819,-1.95121 2.95369,-2.98182 5.00542,-2.98915 z m 2.15788,2.54274 c -0.13264,0.0605 -0.29668,0.16288 -0.49233,0.30712 -0.19581,0.14136 -0.37921,0.30875 -0.55001,0.50224 -0.36058,0.40848 -0.56225,0.8041 -0.60515,1.18699 -0.0431,0.38 0.0597,0.67985 0.30851,0.89945 0.1935,0.1708 0.40567,0.25693 0.63651,0.25852 0.22931,0 0.47829,-0.09 0.74711,-0.27076 0.0989,-0.0657 0.20295,-0.14325 0.31202,-0.23276 0.10889,-0.0924 0.19747,-0.16314 0.26551,-0.21236 0.13997,-0.10595 0.24485,-0.16909 0.3147,-0.18941 0.0683,-0.0217 0.13389,-0.005 0.19686,0.0508 0.0706,0.0624 0.0898,0.14896 0.0576,0.2598 -0.0338,0.1095 -0.12263,0.24563 -0.26633,0.40841 -0.10979,0.12438 -0.225,0.23027 -0.34581,0.31761 -0.12235,0.086 -0.23925,0.15638 -0.35048,0.2112 -0.12804,0.0646 -0.23327,0.10962 -0.31586,0.13509 -0.0828,0.0226 -0.15707,0.0416 -0.22285,0.0573 l -0.0671,0.0761 0.68184,0.60177 c 0.15253,-0.0676 0.33303,-0.17592 0.5414,-0.32531 0.20838,-0.14939 0.41417,-0.33925 0.6175,-0.5696 0.36736,-0.41615 0.57546,-0.81586 0.62415,-1.19911 0.0472,-0.3846 -0.0629,-0.69493 -0.33008,-0.9308 -0.18274,-0.16131 -0.38082,-0.24326 -0.59431,-0.24593 -0.21503,-0.004 -0.44722,0.0779 -0.69653,0.24581 -0.11132,0.0766 -0.21806,0.15725 -0.32017,0.24197 -0.1023,0.0818 -0.19913,0.1575 -0.29057,0.22705 -0.16781,0.1251 -0.28618,0.19424 -0.35503,0.20723 -0.0688,0.013 -0.13403,-0.008 -0.19546,-0.0619 -0.0676,-0.0596 -0.0797,-0.151 -0.0366,-0.27413 0.0445,-0.12467 0.12567,-0.25383 0.2436,-0.38743 0.14234,-0.16124 0.30952,-0.29642 0.50154,-0.40561 0.19183,-0.11208 0.38415,-0.19227 0.57705,-0.24056 l 0.0631,-0.0715 z m -3.40653,2.57446 c -0.1182,-0.002 -0.23962,0.0226 -0.36423,0.0723 -0.17412,0.0703 -0.32728,0.16188 -0.45957,0.2746 -0.13094,0.11119 -0.31849,0.30496 -0.56249,0.58138 l -1.17522,1.33139 3.42984,3.02762 1.32161,-1.49726 c 0.2196,-0.24877 0.37912,-0.47274 0.47845,-0.67193 0.10069,-0.20074 0.16004,-0.41342 0.17798,-0.63802 0.017,-0.19262 -0.0106,-0.37949 -0.0829,-0.56074 -0.0709,-0.1828 -0.18929,-0.34745 -0.35514,-0.49384 -0.22881,-0.20198 -0.47133,-0.29858 -0.72765,-0.28987 -0.25496,0.007 -0.50362,0.10323 -0.74606,0.28812 l -0.0185,-0.0163 c 0.0703,-0.22207 0.0813,-0.43246 0.0326,-0.63115 -0.0502,-0.20004 -0.15828,-0.3732 -0.32414,-0.51959 -0.14281,-0.12607 -0.2979,-0.20572 -0.4654,-0.23882 -0.0524,-0.0113 -0.10549,-0.0172 -0.15921,-0.0179 z m -0.28847,1.19689 c 0.0264,0 0.0523,0.004 0.0776,0.0109 0.0826,0.021 0.15228,0.0565 0.20911,0.10665 0.0737,0.0651 0.12816,0.13495 0.16329,0.20967 0.0336,0.0734 0.0328,0.16556 -0.002,0.27659 -0.0241,0.0799 -0.0772,0.17097 -0.15932,0.27332 -0.0821,0.10235 -0.18493,0.22344 -0.30829,0.36318 l -0.12192,0.13823 -0.72566,-0.64058 0.0732,-0.0829 c 0.15318,-0.17352 0.2734,-0.30658 0.3605,-0.39908 0.0869,-0.0954 0.17119,-0.16442 0.25269,-0.20723 0.0628,-0.0328 0.12312,-0.0491 0.18113,-0.0487 z m 1.52907,0.97381 c 0.0124,0 0.0246,6.8e-4 0.0367,0.002 0.0963,0.009 0.19902,0.0609 0.30805,0.15711 0.0829,0.0732 0.14105,0.15601 0.17437,0.24826 0.0331,0.0894 0.0281,0.19707 -0.0148,0.32309 -0.0416,0.1245 -0.10899,0.24117 -0.20234,0.35001 -0.0934,0.10885 -0.24988,0.28761 -0.46948,0.53639 l -0.0569,0.0645 -0.85459,-0.75434 0.17076,-0.19348 c 0.11658,-0.13206 0.22915,-0.25802 0.33777,-0.37798 0.10863,-0.11996 0.20343,-0.20576 0.28439,-0.25723 0.10382,-0.0662 0.19918,-0.099 0.28603,-0.0985 z M 34.9874,149.22678 c -0.28693,0.003 -0.5728,0.0657 -0.88173,0.18124 -1.68433,0.6302 -2.03722,3.08579 -0.60678,4.22229 0.4959,0.39399 3.0292,2.58159 3.49033,3.01409 4.3029,4.03546 5.77696,5.03009 8.43142,5.68913 l 0.80481,0.19978 5.90195,0.0281 c 7.68106,0.0366 7.7799,0.0577 9.19123,1.96405 v 0 c 0.21164,0.28588 0.23107,0.29437 0.57275,0.25071 0.19454,-0.0248 0.64683,-0.065 1.00517,-0.0896 0.35833,-0.0245 2.06575,-0.17843 3.79419,-0.34197 1.72843,-0.1635 4.1429,-0.3894 5.36545,-0.50189 1.22255,-0.1125 2.3357,-0.22254 2.47374,-0.24488 0.29509,-0.0475 0.29863,-0.0187 -0.13391,-1.09292 -0.48747,-1.21067 -0.85656,-2.1672 -0.96123,-2.491 -0.0978,-0.30262 -0.4015,-1.06639 -0.92952,-2.33784 -0.23455,-0.56482 -0.75972,-1.71929 -0.94141,-2.06954 -0.0328,-0.0632 -0.17391,-0.33918 -0.31364,-0.61319 -1.45173,-2.84694 -3.21165,-4.43891 -5.54554,-5.01627 -1.51534,-0.37465 -1.79941,-0.38742 -8.67944,-0.38742 h -6.44615 l -0.52554,0.26819 c -1.71007,0.87305 -1.64062,3.29255 0.11935,4.16064 0.33661,0.166 0.42676,0.17102 3.74326,0.2084 l 3.39849,0.0383 0.18485,0.21504 c 0.27137,0.31567 0.25493,0.76153 -0.0391,1.05551 l -0.22413,0.22413 h -5.09004 c -6.4493,0 -6.95771,-0.0791 -8.79518,-1.36846 -0.31618,-0.22182 -1.03488,-0.72045 -1.59714,-1.10796 -0.56226,-0.38749 -1.23993,-0.85973 -1.50588,-1.04946 -0.26596,-0.1897 -0.86906,-0.60369 -1.34026,-0.91984 -0.4712,-0.31618 -1.25955,-0.85348 -1.75181,-1.1941 -0.90066,-0.62318 -1.53735,-0.90089 -2.16861,-0.89339 z m 41.476053,16.0487 -0.402347,0.0324 c -0.387849,0.0312 -3.290076,0.30103 -10.175186,0.94596 -1.79167,0.16782 -3.5335,0.3252 -3.87076,0.35013 -0.33725,0.0247 -0.77706,0.0655 -0.97731,0.0907 l -0.36411,0.0458 v 1.06321 1.0632 h 7.89491 7.894803 v -1.79575 z" />
    <g
       aria-label="DETALLE"
       id="text8828"
       style="font-size:10.5833px;line-height:1.25;letter-spacing:-0.79375px;stroke-width:0.264583" />
    <path
       id="path37733-3"
       style="fill:#ffffff;stroke-width:0.0596757"
       d="m 136.54175,44.692049 v 5.17e-4 c -0.70292,0.005 -1.67529,0.01916 -2.78175,0.04186 -11.11409,0.228528 -36.243207,0.277031 -46.606457,0.08992 -6.21969,-0.112321 -6.53751,-0.06596 -8.09561,1.182356 -1.56528,1.25399 -2.57911,2.480345 -3.06547,3.709335 l -0.1297,0.328145 0.008,51.380848 c 0.005,31.83608 0.0295,51.03446 0.0646,51.44233 0.14549,1.69117 0.77901,2.93798 2.14508,4.22248 0.82691,0.77752 1.6001,1.23711 2.56368,1.53841 -0.0911,-0.35419 -0.15449,-0.72498 -0.18862,-1.1219 -0.0351,-0.40787 -0.0596,-19.60627 -0.0646,-51.44232 l -0.008,-51.380856 0.12969,-0.328144 c 0.48634,-1.22899 1.50019,-2.455344 3.06544,-3.709334 1.55813,-1.248317 1.87595,-1.294678 8.09564,-1.182357 10.231307,0.184734 34.800357,0.138918 46.120707,-0.08217 0.008,-0.435182 0.01,-0.670725 0.0181,-1.12758 0.0569,-3.0193 0.0435,-3.466343 -0.10644,-3.546553 -0.028,-0.015 -0.46148,-0.01979 -1.16377,-0.01499 z m 4.60849,2.437577 c -0.0707,0.02072 -0.0375,0.192922 -0.0217,0.423747 0.0306,0.449021 0.0504,1.201963 0.0755,1.780253 0.55742,-0.0021 0.99756,-2.5e-4 1.02216,0.01292 l 1.09657,0.01912 c -1.9154,-1.8904 -1.93934,-2.188943 -2.13527,-2.235523 -0.0148,-0.0035 -0.0271,-0.0035 -0.0372,-5.17e-4 z m 1.21441,3.494361 c -0.7029,0.005 -1.67497,0.01916 -2.78122,0.04186 -11.11412,0.228528 -36.24321,0.277035 -46.606457,0.08992 -6.2197,-0.112321 -6.53751,-0.06596 -8.09564,1.182356 -1.56528,1.25399 -2.57911,2.480345 -3.06544,3.709334 l -0.1297,0.328147 0.008,51.380846 c 0.005,31.83608 0.0295,51.03447 0.0646,51.44234 0.14547,1.69117 0.77904,2.93797 2.14508,4.22248 1.41753,1.33287 2.59323,1.79314 5.04465,1.97353 16.097297,-0.25804 33.795967,0.0667 48.836287,0.006 0,0 0.96044,-2.61906 1.41129,-3.76256 l 1.11829,-2.80552 1.06505,-2.99206 c 0,-0.0562 0.005,-0.10713 0.0139,-0.154 -2.46213,-0.86382 -2.42594,-0.97115 -1.27071,-4.22351 3.13722,-8.71065 6.52761,-18.01258 9.2506,-25.60154 2.16593,-5.99414 4.43201,-12.28537 5.03587,-13.98054 1.49651,-4.20132 2.11357,-5.90699 2.98378,-8.24601 1.08403,-2.91364 1.88865,-5.244842 3.0639,-8.875954 1.34075,-4.142629 3.79561,-10.932406 5.0581,-13.990876 0.076,-0.18402 0.20759,-0.527441 0.30953,-0.78083 -0.0273,-3.97483 -0.0759,-5.579232 -0.19584,-6.137611 l -0.10441,-0.485241 -0.23563,-0.02274 c -0.36722,-0.035 -3.18493,0.0514 -4.99814,0.153479 -3.14574,0.177089 -6.34252,0.31641 -9.13019,0.397391 -1.16517,0.0338 -2.81803,0.088 -3.67316,0.120407 -2.36241,0.0893 -3.33621,-0.0693 -3.59979,-0.586012 -0.4763,-0.93363 -0.52311,-4.429268 -0.25167,-18.841744 0.0569,-3.019301 0.0435,-3.466341 -0.10644,-3.546552 -0.028,-0.01499 -0.46165,-0.01979 -1.16377,-0.01499 z m 4.64621,2.437577 c -0.11753,-0.028 -0.0769,0.15943 -0.0589,0.423231 0.12546,1.841449 0.19687,4.505703 0.27233,10.160103 0.0758,5.681117 0.13004,6.654445 0.37412,6.701917 0.4944,0.0961 6.51926,-0.005 9.79787,-0.164333 6.04014,-0.293669 6.01829,-0.288555 5.40483,-1.338937 -0.39971,-0.684409 -1.03757,-1.452743 -1.71461,-2.066023 -0.35576,-0.32226 -2.04293,-1.987619 -3.74965,-3.70055 -1.70672,-1.712939 -3.6671,-3.648435 -4.35634,-4.301545 -0.68918,-0.653111 -2.13939,-2.06257 -3.22252,-3.131593 -1.91539,-1.8904 -2.55121,-2.53569 -2.74714,-2.58227 z m -37.07214,5.836852 c 1.39088,0 2.48449,0.405505 3.28094,1.217498 0.79644,0.808109 1.19475,1.909948 1.19475,3.304707 0,1.383109 -0.39598,2.482628 -1.18856,3.298507 -0.79256,0.811991 -1.88849,1.218012 -3.28713,1.218012 -1.39478,0 -2.48836,-0.406021 -3.28094,-1.218012 -0.79256,-0.815879 -1.18907,-1.915398 -1.18907,-3.298507 0,-1.394759 0.39651,-2.496598 1.18907,-3.304707 0.79258,-0.81199 1.88616,-1.217498 3.28094,-1.217498 z m -17.161217,0.01137 c 0.3652,0 0.69355,0.02138 0.98494,0.06408 0.29527,0.0388 0.56731,0.0916 0.81597,0.157612 0.2603,0.0738 0.49509,0.157393 0.70488,0.250632 0.21367,0.0894 0.40036,0.172921 0.55964,0.25063 v 2.103749 h -0.2563 c -0.1088,-0.0932 -0.24688,-0.20407 -0.41394,-0.332279 -0.16317,-0.128212 -0.34936,-0.254469 -0.55914,-0.378788 -0.21368,-0.124331 -0.44485,-0.229241 -0.6935,-0.314712 -0.24863,-0.0855 -0.51478,-0.128145 -0.79838,-0.128156 -0.31472,0 -0.61402,0.05039 -0.89763,0.15141 -0.28361,0.0971 -0.54615,0.260157 -0.78703,0.489376 -0.22923,0.221462 -0.41539,0.51485 -0.55914,0.880052 -0.13989,0.36521 -0.20982,0.80799 -0.20982,1.3286 0,0.543909 0.0753,0.998532 0.22686,1.363742 0.15541,0.36521 0.3498,0.652669 0.58293,0.862478 0.23698,0.21368 0.5013,0.367197 0.79272,0.460439 0.29135,0.0894 0.57885,0.134358 0.86246,0.134358 0.27196,0 0.53991,-0.04091 0.80409,-0.122473 0.26808,-0.0816 0.51517,-0.192411 0.74052,-0.33228 0.19037,-0.11267 0.36703,-0.233018 0.5302,-0.36122 0.16317,-0.128219 0.29715,-0.239037 0.40206,-0.332277 h 0.23304 v 2.074807 c -0.21756,0.0971 -0.42558,0.188405 -0.62373,0.273886 -0.19814,0.0855 -0.40565,0.159004 -0.62322,0.221176 -0.28361,0.0816 -0.54975,0.143812 -0.79841,0.18655 -0.24863,0.0427 -0.59063,0.06408 -1.02576,0.06408 -0.64492,0 -1.24124,-0.0949 -1.78903,-0.285252 -0.54393,-0.190381 -1.01219,-0.474253 -1.40457,-0.851112 -0.39241,-0.37687 -0.69763,-0.84691 -0.9152,-1.41025 -0.21367,-0.563359 -0.32038,-1.214165 -0.32038,-1.952334 0,-0.687681 0.10311,-1.311228 0.30901,-1.870689 0.20592,-0.559459 0.50472,-1.039019 0.89712,-1.439188 0.37685,-0.38463 0.84331,-0.682125 1.39888,-0.891934 0.55946,-0.209791 1.16938,-0.314711 1.82986,-0.314711 z m 42.405157,0.01188 c 0.57111,0 1.13425,0.0563 1.68982,0.168984 0.55946,0.108778 1.04312,0.246867 1.45108,0.413927 v 1.998845 h -0.23876 c -0.34965,-0.27972 -0.77933,-0.51322 -1.28828,-0.699698 -0.50507,-0.190381 -1.02143,-0.285255 -1.54977,-0.285255 -0.18651,0 -0.3732,0.01362 -0.55968,0.04083 -0.18261,0.0233 -0.35925,0.0696 -0.5302,0.139525 -0.15152,0.0583 -0.28188,0.147762 -0.39068,0.2682 -0.1088,0.116563 -0.16277,0.250524 -0.16277,0.402043 0,0.229232 0.0872,0.406397 0.26199,0.530717 0.17484,0.120451 0.50501,0.230753 0.99065,0.331763 0.31859,0.0661 0.62381,0.130067 0.9152,0.192236 0.29527,0.0622 0.61179,0.148053 0.9498,0.256834 0.66437,0.217559 1.15395,0.514556 1.46865,0.891418 0.31858,0.37297 0.47749,0.858449 0.47749,1.456759 0,0.854739 -0.36282,1.550543 -1.08934,2.086694 -0.72263,0.53226 -1.70593,0.798399 -2.94918,0.798399 -0.71874,0 -1.34588,-0.0623 -1.88206,-0.18655 -0.53226,-0.128222 -1.03188,-0.289433 -1.4981,-0.483692 v -2.080493 h 0.24495 c 0.46234,0.369088 0.97917,0.652454 1.5503,0.850593 0.575,0.198152 1.12681,0.29714 1.65518,0.29714 0.136,0 0.31451,-0.01122 0.53589,-0.03462 0.22146,-0.0233 0.40222,-0.0624 0.54211,-0.11679 0.17092,-0.0699 0.31083,-0.157099 0.4196,-0.261998 0.11266,-0.1049 0.16899,-0.260718 0.16899,-0.466638 0,-0.19036 -0.0818,-0.353396 -0.24495,-0.489376 -0.15931,-0.139869 -0.39407,-0.246584 -0.70488,-0.320394 -0.32636,-0.0777 -0.67247,-0.14944 -1.03767,-0.21549 -0.36131,-0.0699 -0.70096,-0.157618 -1.01957,-0.262517 -0.73038,-0.23699 -1.25677,-0.557639 -1.57922,-0.9617 -0.31859,-0.40794 -0.47802,-0.91296 -0.47802,-1.515152 0,-0.80812 0.36155,-1.46663 1.08418,-1.975588 0.72652,-0.512842 1.65888,-0.768946 2.79725,-0.768948 z m -38.419367,0.157099 h 2.249483 v 5.414139 c 0,0.602189 0.12624,1.050891 0.37878,1.346171 0.252547,0.29527 0.662144,0.442865 1.229384,0.442865 0.55946,0 0.96729,-0.141687 1.2237,-0.425296 0.26029,-0.28362 0.39068,-0.73823 0.39068,-1.36374 v -5.414139 h 2.24946 v 5.536612 c 0,1.072309 -0.32655,1.893835 -0.97925,2.464965 -0.65273,0.571111 -1.61414,0.856794 -2.88459,0.856794 -1.270444,0 -2.231867,-0.285683 -2.884567,-0.856794 -0.64881,-0.57113 -0.97308,-1.390862 -0.97308,-2.459281 z m 17.889347,0 h 7.65794 v 1.678448 h -2.70992 v 6.999057 h -2.23811 v -6.999057 h -2.70991 z m 10.64069,0 h 2.57607 l 3.20497,8.677505 h -2.31354 l -0.59997,-1.753899 H 124.944 l -0.60047,1.753899 h -2.25517 z m 52.79988,0.189651 c -1.64123,0.002 -3.09531,0.502446 -3.90932,1.615405 -1.14369,1.563701 -1.77771,2.974848 -2.63602,5.86786 -0.69154,2.330929 -0.71485,2.293991 2.12701,3.32331 2.76519,1.001591 7.43117,2.767676 8.05273,3.047876 0.72824,0.328281 1.42433,0.579024 1.75493,0.632002 0.31467,0.0505 0.26053,0.082 0.49662,-0.291455 0.10901,-0.1725 0.29345,-0.458697 0.40979,-0.636135 1.12786,-1.719921 2.33833,-5.552651 2.35902,-7.469311 l 0.007,-0.645441 -0.36896,-0.782381 c -1.34398,-2.848239 -5.15927,-4.664689 -8.29252,-4.66173 z M 109.9444,60.53604 c -0.2836,0 -0.55155,0.0504 -0.80409,0.15141 -0.24866,0.10101 -0.478,0.268142 -0.68781,0.501261 -0.19426,0.217562 -0.35317,0.518676 -0.4775,0.903306 -0.12041,0.380738 -0.18086,0.823532 -0.18086,1.3286 0,0.516721 0.0581,0.957707 0.17467,1.322917 0.12044,0.36132 0.27808,0.656513 0.47231,0.885735 0.19428,0.229219 0.42132,0.398155 0.68162,0.506944 0.2603,0.108781 0.53417,0.163298 0.82166,0.163298 0.2875,0 0.56187,-0.0545 0.82217,-0.163298 0.2603,-0.11267 0.48736,-0.28571 0.68162,-0.518829 0.21757,-0.264182 0.3788,-0.574816 0.48369,-0.932244 0.1049,-0.36132 0.15761,-0.784566 0.15761,-1.270206 0,-0.52061 -0.0604,-0.96392 -0.18087,-1.329119 -0.12041,-0.365209 -0.27808,-0.660405 -0.47231,-0.885735 -0.19815,-0.233108 -0.42698,-0.402045 -0.68731,-0.506944 -0.25641,-0.104899 -0.52488,-0.157096 -0.8046,-0.157096 z m 16.60777,0.763259 -1.06659,3.111955 h 2.1332 z m 43.44593,11.119736 c -0.38944,0.03827 -0.57975,0.663488 -1.90788,4.114477 -0.35709,0.927741 -0.88379,2.255928 -1.171,2.951758 -1.26248,3.05847 -3.71734,9.848247 -5.05809,13.990876 -1.17525,3.631109 -1.97988,5.962313 -3.0639,8.875954 -0.87024,2.33901 -1.48728,4.04467 -2.98379,8.246 -0.60385,1.69521 -2.86996,7.9859 -5.03586,13.98003 -5.1489,14.24936 -5.37652,14.92526 -5.17438,15.35772 0.0912,0.19505 1.18414,0.72963 2.48462,1.21543 0.68929,0.25751 1.4918,0.57871 1.78335,0.71417 0.29154,0.13542 1.95916,0.76377 3.70623,1.3963 1.75276,0.6346 3.48231,1.30307 3.85815,1.49086 0.37465,0.18718 0.72977,0.35318 0.78962,0.36897 0.19857,0.0523 0.35433,-0.25425 0.81235,-1.60042 0.5619,-1.6514 1.77525,-5.00272 2.48719,-6.86883 1.645,-4.31187 4.22241,-11.35536 5.32318,-14.54692 0.23839,-0.6911 0.62466,-1.80552 0.85836,-2.47633 0.23371,-0.67081 0.53176,-1.56615 0.66249,-1.98954 0.13073,-0.42342 0.74393,-2.11673 1.36218,-3.76308 1.28606,-3.4247 1.97419,-5.31575 5.96451,-16.392806 2.78243,-7.723949 4.60084,-12.654965 4.84983,-13.149585 0.0657,-0.130609 0.307,-0.67546 0.53589,-1.210778 0.74144,-1.73427 1.09651,-2.136061 1.61592,-1.828829 0.64524,0.381659 0.84106,4.324133 0.32401,6.523633 -0.29157,1.24026 -0.68041,2.691106 -0.88263,3.293856 -0.9534,2.84127 -1.65134,4.7933 -2.44327,6.832139 -2.48107,6.38803 -4.39144,11.76262 -4.69325,13.20334 -0.33335,1.59136 -0.24728,2.331 0.30025,2.57503 0.12964,0.0578 0.39123,0.19555 0.58134,0.30593 0.66188,0.38439 1.11686,0.49401 1.26039,0.30334 0.31774,-0.42196 0.6807,-1.25152 1.43299,-3.27577 0.44929,-1.20904 0.99708,-2.63738 1.2175,-3.17345 0.96322,-2.34287 5.58769,-15.081108 6.04719,-16.657389 0.0974,-0.334169 0.28379,-0.96225 0.41444,-1.39578 0.76854,-2.55097 0.75687,-3.742566 -0.0641,-6.738607 -0.36494,-1.331809 -0.42095,-1.455087 -0.99581,-2.185395 -0.18246,-0.23182 -0.57738,-0.825532 -0.87747,-1.3193 -0.76239,-1.254479 -1.47706,-2.157253 -2.09341,-2.644283 -1.94241,-1.534771 -8.16819,-3.897558 -11.72125,-4.448307 -0.22376,-0.03466 -0.37558,-0.08685 -0.50538,-0.07441 z m -38.65036,1.499651 c 1.20909,-2.2e-5 2.18953,0.981815 2.18953,2.193147 0,1.211349 -0.98044,2.193684 -2.18953,2.193663 -1.20909,-8e-6 -2.189,-0.982335 -2.189,-2.193663 0,-1.211321 0.97991,-2.193147 2.189,-2.193147 z m -25.3075,3.074746 v 5.16e-4 c 0.0542,-5.29e-4 0.10824,0.0031 0.16227,0.01085 0.23355,0.035 0.38282,0.117187 0.59169,0.326078 0.34049,0.340511 0.38457,0.5949 0.34829,1.99471 -0.0217,0.839451 -0.0434,0.98471 -0.17309,1.159618 -0.36163,0.487752 -0.93789,0.651433 -1.41078,0.400495 -0.54261,-0.287941 -0.60203,-0.477499 -0.60203,-1.913578 0,-1.071322 0.0133,-1.196409 0.15348,-1.445908 0.18214,-0.32403 0.5511,-0.529834 0.93017,-0.532784 z m 5.17488,5.16e-4 h 5.3e-4 c 0.37473,0.003 0.72101,0.209812 0.89916,0.577744 0.12234,0.252961 0.13901,0.437124 0.13901,1.454174 -0.001,1.074301 -0.0131,1.18608 -0.15917,1.440738 -0.27321,0.476592 -0.85276,0.662962 -1.36631,0.439251 -0.28774,-0.125309 -0.58296,-0.486878 -0.6382,-0.781349 -0.0246,-0.13117 -0.0346,-0.733536 -0.0212,-1.338934 0.0277,-1.258861 0.0714,-1.373341 0.63098,-1.663984 0.16894,-0.0877 0.34491,-0.12764 0.5152,-0.12764 z m -10.16836,0.01292 c 0.18185,0.008 0.36277,0.0593 0.52348,0.158647 0.42807,0.264541 0.48111,0.470003 0.48111,1.872755 0,1.165918 -0.009,1.249934 -0.1597,1.470194 -0.30713,0.450009 -0.91059,0.620123 -1.36374,0.384471 -0.588167,-0.305929 -0.699717,-0.66199 -0.662987,-2.120799 0.0212,-0.841351 0.0472,-1.029451 0.169487,-1.237652 0.20767,-0.35347 0.61232,-0.545306 1.01235,-0.527616 z m -5.376407,0.100253 c 0.45794,0 0.72368,0.135125 0.93532,0.476456 0.14997,0.24184 0.16817,0.365829 0.19122,1.295527 0.0295,1.191051 -0.0372,1.528903 -0.37312,1.895494 -0.20854,0.227579 -0.27797,0.257535 -0.65111,0.281636 -0.33033,0.0213 -0.4659,-0.003 -0.64855,-0.118341 -0.46471,-0.29174 -0.51263,-0.462796 -0.51263,-1.837097 0,-1.117849 0.013,-1.254591 0.1478,-1.49448 0.19836,-0.352962 0.4653,-0.499195 0.91107,-0.499195 z m 38.877207,1.87792 c 1.70677,0.0508 3.06184,0.913252 4.01473,2.618962 0.28046,0.61776 0.43283,1.106871 0.47543,4.484481 l 0.046,3.639571 h -2.26809 -2.26806 v -5.371248 z m -5.46375,5.18e-4 h 2.26806 2.26809 v 5.371248 5.371248 c -1.70678,-0.0508 -3.06184,-0.912735 -4.01474,-2.618446 -0.28043,-0.61776 -0.43294,-1.10686 -0.47543,-4.484478 z m 43.62317,0.13901 c 0.16068,-0.002 0.32441,0.0235 0.48472,0.0801 h 5.3e-4 c 0.73287,0.258691 1.11726,1.063464 0.85783,1.797823 -0.25918,0.73425 -1.06391,1.120177 -1.79681,0.861446 -0.73287,-0.258699 -1.11633,-1.064188 -0.8573,-1.798338 0.20248,-0.573622 0.73718,-0.934009 1.31103,-0.941028 z m -64.91025,0.457853 0.75964,0.01963 0.75862,0.02016 0.0403,0.46767 c 0.0678,0.7879 0.53621,1.373047 1.29863,1.621607 0.35346,0.115239 0.93237,0.0561 1.30175,-0.132292 0.56899,-0.29029 1.00873,-1.038778 1.00873,-1.717206 V 79.58707 h 0.85264 c 0.67429,0 0.94343,0.03051 1.28725,0.146246 0.86302,0.290719 1.49,0.899096 2.00351,1.944066 0.61555,1.252561 0.56266,0.186896 0.58705,11.798247 0.0145,6.916731 -0.003,10.468281 -0.0527,10.791081 -0.27879,1.81306 -1.42576,3.30864 -2.78328,3.62872 -0.64429,0.15206 -23.180887,0.14782 -23.808877,-0.005 -1.13696,-0.27549 -2.09968,-1.35704 -2.58125,-2.9006 l -0.19898,-0.63817 V 93.793962 c 0,-11.909862 -0.0497,-10.84983 0.56637,-12.117091 0.50295,-1.034479 1.14086,-1.652577 2.00607,-1.944066 0.37859,-0.127402 0.60751,-0.146246 1.77356,-0.146246 h 1.33942 l 0.0346,0.490927 c 0.0431,0.602019 0.27675,1.041222 0.71469,1.342554 0.77952,0.53631 1.78414,0.436218 2.37453,-0.236162 0.3333,-0.37964 0.45233,-0.658111 0.49197,-1.15135 l 0.0362,-0.445969 h 0.72502 0.724503 l 0.0357,0.444934 c 0.0752,0.93726 0.710247,1.62246 1.601964,1.72806 1.01748,0.12052 1.99202,-0.759822 1.9947,-1.800923 v -0.372071 h 0.74414 0.74414 v 0.270785 c 0,1.29127 1.24256,2.231261 2.40657,1.820561 0.72382,-0.25537 1.22584,-0.957942 1.21698,-1.702223 z m 62.93932,2.209165 1.37459,0.485244 1.37509,0.48524 -1.14927,3.255616 -1.1493,3.255616 c -1.02367,-0.395999 -1.6606,-1.208066 -1.87325,-2.445846 -0.0378,-0.434451 -0.0257,-0.763592 0.67128,-2.819984 z m 3.31192,1.168406 c 1.0237,0.395999 1.66066,1.209108 1.87328,2.44688 0.0378,0.434459 0.025,0.763561 -0.67178,2.819982 l -0.75086,2.215885 -1.37459,-0.485241 -1.37462,-0.485759 1.1493,-3.255616 z m -64.49838,1.754415 c -0.53075,0 -0.94691,0.154556 -1.24849,0.463536 -0.30162,0.307542 -0.4527,0.726499 -0.4527,1.25729 0,0.526349 0.15108,0.94474 0.4527,1.25522 0.30158,0.30901 0.71774,0.463537 1.24849,0.463537 0.53227,0 0.94954,-0.154527 1.25109,-0.463537 0.30165,-0.31048 0.45217,-0.728871 0.45217,-1.25522 0,-0.530791 -0.15113,-0.949748 -0.45424,-1.25729 -0.30308,-0.30898 -0.71966,-0.463536 -1.24902,-0.463536 z m -13.929377,0.06873 v 0.607197 h 0.75602 v 1.31568 c 0,0.13453 -0.002,0.24505 -0.006,0.33228 -0.004,0.0858 -0.0239,0.164745 -0.0579,0.237196 -0.0355,0.0739 -0.0951,0.131715 -0.17933,0.173115 -0.0828,0.0414 -0.20183,0.06201 -0.35708,0.06201 -0.11978,0 -0.21818,-0.01087 -0.29507,-0.03307 -0.0768,-0.0237 -0.15076,-0.04895 -0.22169,-0.07545 h -0.0801 v 0.669727 c 0.10205,0.0208 0.22048,0.03611 0.35502,0.04651 0.13459,0.0118 0.27768,0.01757 0.42995,0.01757 0.22473,0 0.41357,-0.02463 0.56586,-0.07493 0.15227,-0.0517 0.28221,-0.124418 0.39016,-0.217559 0.10202,-0.0872 0.17925,-0.193699 0.231,-0.31936 0.0517,-0.127159 0.0775,-0.263353 0.0775,-0.408244 v -2.332672 z m 2.36214,0 v 2.108914 c 0,0.406569 0.12306,0.718529 0.37,0.93586 0.24836,0.217329 0.614653,0.326078 1.098123,0.326078 0.483477,0 0.849204,-0.108749 1.097594,-0.326078 0.24842,-0.217331 0.37259,-0.530384 0.37259,-0.938445 v -2.106329 h -0.85627 v 2.05982 c 0,0.23803 -0.0492,0.41142 -0.148327,0.519348 -0.0976,0.107932 -0.2527,0.161748 -0.465587,0.161748 -0.21587,0 -0.37208,-0.05611 -0.4682,-0.168465 -0.0961,-0.11239 -0.144173,-0.283459 -0.144173,-0.512631 v -2.05982 z m 3.734117,0 v 3.302121 h 0.78084 v -2.266526 l 1.40197,2.266526 h 0.82011 v -3.302121 h -0.78031 v 1.891355 l -1.20457,-1.891355 z m 3.69745,0 v 0.585493 h 0.54107 v 2.131134 h -0.54107 v 0.585494 h 1.93373 v -0.585494 h -0.54105 v -2.131129 h 0.54105 v -0.585493 z m 4.13774,0.554487 h 5.3e-4 c 0.10644,0 0.20833,0.01953 0.30591,0.05943 0.099,0.0399 0.18611,0.10455 0.26149,0.19327 0.0739,0.0857 0.13401,0.197969 0.17983,0.336928 0.0458,0.138973 0.0682,0.307785 0.0682,0.505913 0,0.184801 -0.0195,0.345675 -0.0594,0.483177 -0.0399,0.136019 -0.10121,0.254476 -0.18397,0.355015 -0.0739,0.0887 -0.16036,0.154535 -0.25942,0.197406 -0.0991,0.0415 -0.20326,0.06201 -0.31263,0.06201 -0.10938,0 -0.21358,-0.02051 -0.31266,-0.06201 -0.099,-0.0414 -0.18603,-0.10604 -0.25993,-0.193271 -0.0739,-0.0872 -0.13351,-0.199429 -0.17931,-0.336931 -0.0444,-0.138999 -0.0672,-0.306689 -0.0672,-0.503327 0,-0.192212 0.0228,-0.361035 0.0687,-0.505913 0.0473,-0.146391 0.10797,-0.260868 0.1819,-0.343648 0.0798,-0.0887 0.16692,-0.152257 0.26149,-0.190686 0.0961,-0.0386 0.19851,-0.05736 0.30644,-0.05736 z m -17.823207,5.161957 -0.4191,0.212908 c -0.0581,0.0295 -0.8282,0.657346 -1.04539,1.290878 -0.1519,0.442791 -0.17365,1.684652 -0.17365,1.684652 0,0 0.003,10.44875 0.0558,10.75852 0.17899,1.0398 0.58917,1.64649 1.29862,1.91926 0.35896,0.13817 2.54051,0.14098 11.456147,0.14367 7.52985,0.002 11.01195,-0.0141 11.31609,-0.0951 0.73483,-0.19564 1.28717,-0.74558 1.56168,-1.55495 0.11417,-0.3366 0.1256,-3.6447 0.14676,-10.604007 0,0 7.4e-4,-1.31318 -0.0589,-1.69292 -0.15404,-0.982451 -0.48607,-1.51642 -1.14927,-1.847951 l -0.42945,-0.214974 h -11.20912 z m 7.495173,3.496429 c 0.757287,0 1.392574,0.113157 1.906314,0.338997 0.51374,0.221441 0.93475,0.553461 1.26246,0.996321 0.3233,0.43403 0.55772,0.969893 0.70385,1.607653 0.14615,0.63328 0.21963,1.366203 0.21963,2.198833 0,0.832591 -0.0758,1.578715 -0.22635,2.238635 -0.15058,0.65546 -0.38495,1.19362 -0.70385,1.61437 -0.32768,0.42957 -0.74866,0.75525 -1.26246,0.97668 -0.51371,0.21701 -1.146697,0.32556 -1.899594,0.32556 -0.739623,0 -1.370893,-0.11085 -1.893443,-0.33228 -0.52263,-0.22143 -0.94535,-0.54886 -1.26865,-0.98288 -0.32776,-0.43403 -0.56494,-0.97221 -0.71107,-1.61437 -0.14618,-0.64663 -0.21912,-1.386377 -0.2191,-2.218997 0,-0.85919 0.0752,-1.605312 0.22582,-2.238624 0.15058,-0.63332 0.38955,-1.169202 0.71726,-1.607653 0.32774,-0.43402 0.7528,-0.759664 1.27537,-0.976683 0.52261,-0.217011 1.14748,-0.325562 1.873813,-0.325562 z m 4.406944,0.199469 h 7.75251 v 1.966289 l -4.47726,7.925101 h -2.84324 l 4.64985,-7.997965 h -5.08186 z m -4.406944,1.627294 c -0.544753,0 -0.934723,0.254984 -1.169463,0.764294 -0.23474,0.50487 -0.35189,1.359564 -0.35189,2.564183 0,1.173639 0.11946,2.019659 0.35861,2.537839 0.23916,0.51818 0.62685,0.77721 1.162743,0.77721 0.535857,0 0.923044,-0.25903 1.162174,-0.77721 0.23916,-0.51818 0.35865,-1.3688 0.35865,-2.551275 0,-1.195779 -0.11719,-2.045877 -0.35193,-2.550747 -0.23471,-0.50931 -0.624147,-0.764294 -1.168894,-0.764294 z m 43.083134,0.673859 h 5.2e-4 5.1e-4 c 0.37475,0.003 0.72107,0.210349 0.89918,0.57826 0.12235,0.252968 0.13902,0.437105 0.13902,1.454174 -0.001,1.07429 -0.0136,1.186058 -0.15968,1.440738 -0.27324,0.476585 -0.85275,0.662435 -1.36633,0.438735 -0.28771,-0.12534 -0.58296,-0.485854 -0.63821,-0.780314 -0.0246,-0.131191 -0.034,-0.734063 -0.0207,-1.339454 0.0277,-1.258861 0.0709,-1.373351 0.63045,-1.663983 0.16894,-0.0877 0.34491,-0.129275 0.5152,-0.128156 z m -5.17486,10e-4 c 0.0541,-7.91e-4 0.10872,0.003 0.16277,0.01137 0.23353,0.035 0.3823,0.117189 0.59119,0.326081 0.34044,0.340518 0.38507,0.594928 0.3488,1.994709 -0.0218,0.83946 -0.0434,0.984718 -0.17312,1.159619 -0.3616,0.487758 -0.93787,0.651428 -1.41076,0.400488 -0.5426,-0.28794 -0.60256,-0.477503 -0.60256,-1.913574 0,-1.071341 0.0138,-1.196396 0.15402,-1.445906 0.18211,-0.32404 0.55059,-0.529844 0.92966,-0.532783 z m -4.99298,0.01292 c 0.18185,0.008 0.36275,0.0593 0.52348,0.158646 0.42807,0.264563 0.48109,0.469985 0.48109,1.872756 0,1.16592 -0.009,1.249955 -0.15967,1.470195 -0.30716,0.45001 -0.91115,0.62015 -1.36425,0.38447 -0.58819,-0.30591 -0.69921,-0.661492 -0.66249,-2.120283 0.0212,-0.841359 0.0467,-1.029449 0.16897,-1.23765 0.20767,-0.35347 0.61282,-0.545793 1.01287,-0.528134 z m -5.37643,0.100253 c 0.45796,0 0.72315,0.135623 0.93482,0.476972 0.14997,0.241843 0.1682,0.3658 0.19122,1.29553 0.0295,1.19103 -0.0366,1.528384 -0.37259,1.894972 -0.20857,0.22757 -0.27797,0.25762 -0.65111,0.28164 -0.33034,0.0213 -0.46641,-0.003 -0.64908,-0.11782 -0.46469,-0.29174 -0.51263,-0.463318 -0.51263,-1.837616 0,-1.117862 0.0135,-1.254078 0.14833,-1.493968 0.19835,-0.352959 0.46529,-0.49971 0.91104,-0.49971 z m 12.12588,2.475817 0.75964,0.01964 0.75914,0.02015 0.0398,0.467672 c 0.0678,0.787855 0.5362,1.372525 1.29863,1.621095 0.35345,0.11525 0.93239,0.0567 1.30175,-0.13177 0.56901,-0.29029 1.00872,-1.03878 1.00872,-1.717218 v -0.275396 h 0.85265 c 0.67429,0 0.94393,0.031 1.28778,0.146759 0.86299,0.290721 1.48944,0.899085 2.00297,1.944075 0.61553,1.25255 0.56269,0.18633 0.58706,11.79773 0.0146,6.91671 -0.004,10.46879 -0.0527,10.79158 -0.2788,1.813 -1.42579,3.30914 -2.78331,3.62924 -0.64432,0.1519 -23.18139,0.14706 -23.80941,-0.005 -1.13697,-0.2755 -2.09915,-1.35704 -2.58072,-2.90059 l -0.19844,-0.63821 V 113.2982 c 0,-11.90989 -0.0503,-10.84982 0.56587,-12.11709 0.50295,-1.0345 1.14035,-1.652601 2.00557,-1.944071 0.37859,-0.127551 0.60804,-0.146243 1.77405,-0.146243 h 1.33893 l 0.0351,0.490926 c 0.0431,0.601998 0.27726,1.041248 0.71523,1.342558 0.77949,0.53631 1.78413,0.43622 2.37453,-0.23616 0.33332,-0.37964 0.45183,-0.65813 0.49143,-1.151359 l 0.0362,-0.445965 h 0.72451 0.72451 l 0.0367,0.444934 c 0.0752,0.93727 0.71025,1.62244 1.60197,1.72807 1.01751,0.1205 1.99205,-0.75984 1.99472,-1.800934 v -0.37207 h 0.74414 0.74414 v 0.270266 c 0,1.291258 1.24257,2.231778 2.40657,1.821088 0.72383,-0.25538 1.22582,-0.95792 1.21698,-1.702232 z m 1.60922,4.925807 c -0.54581,0 -0.97404,0.15871 -1.28418,0.47645 -0.3101,0.31623 -0.46509,0.74719 -0.46509,1.29295 0,0.54123 0.15499,0.9716 0.46509,1.29088 0.31014,0.31773 0.73837,0.47645 1.28418,0.47645 0.54729,0 0.97607,-0.15872 1.28622,-0.47645 0.31014,-0.31928 0.46508,-0.74965 0.46508,-1.29088 0,-0.54576 -0.15602,-0.97672 -0.46768,-1.29295 -0.31168,-0.31774 -0.73937,-0.47645 -1.28362,-0.47645 z m -13.34492,0.0708 v 0.62477 h 0.77771 v 1.35237 c 0,0.13834 -0.002,0.25238 -0.007,0.34209 -0.004,0.0882 -0.0239,0.16942 -0.0589,0.24392 -0.0365,0.076 -0.0984,0.13521 -0.185,0.17776 -0.0851,0.0426 -0.20778,0.0636 -0.36743,0.0636 -0.12311,0 -0.22381,-0.0113 -0.30281,-0.0341 -0.0791,-0.0243 -0.15545,-0.0502 -0.22842,-0.0775 h -0.0816 v 0.68885 c 0.10491,0.0213 0.22651,0.0375 0.36484,0.0481 0.13837,0.0122 0.28577,0.0181 0.44235,0.0181 0.23106,0 0.42474,-0.0258 0.58137,-0.0775 0.15656,-0.0532 0.29054,-0.12798 0.40151,-0.22376 0.10488,-0.0897 0.18399,-0.19892 0.2372,-0.32814 0.0532,-0.13074 0.0796,-0.27062 0.0796,-0.41962 v -2.39878 z m 2.42877,0 v 2.16834 c 0,0.41806 0.12644,0.73873 0.38033,0.96221 0.25541,0.22349 0.63201,0.33539 1.12914,0.33539 0.49713,0 0.8732,-0.1119 1.12861,-0.33539 0.2554,-0.22348 0.38346,-0.54467 0.38346,-0.96428 v -2.16624 h -0.88059 v 2.11822 c 0,0.24475 -0.0506,0.42283 -0.15243,0.53382 -0.10035,0.11098 -0.26016,0.16639 -0.47905,0.16639 -0.22196,0 -0.3823,-0.0576 -0.48109,-0.17311 -0.0988,-0.11553 -0.14833,-0.29145 -0.14833,-0.5271 v -2.11822 z m 3.84008,0 v 3.39514 h 2.44896 v -0.65626 h -1.57356 v -2.73885 z m 2.82308,0 v 0.60151 h 0.55657 v 2.1916 h -0.55657 v 0.60203 h 1.98852 v -0.60203 h -0.55657 v -2.1916 h 0.55657 v -0.60148 z m 4.25505,0.56999 c 0.10949,0 0.21437,0.0204 0.3147,0.0615 0.10184,0.0411 0.19171,0.10723 0.26924,0.19844 0.076,0.0882 0.13734,0.20383 0.18449,0.34674 0.0472,0.14291 0.0708,0.31617 0.0708,0.51987 0,0.19005 -0.0204,0.35574 -0.0615,0.49713 -0.0411,0.13986 -0.10401,0.26146 -0.18913,0.36483 -0.076,0.0912 -0.16531,0.159 -0.26717,0.20309 -0.10184,0.0426 -0.20892,0.0636 -0.32142,0.0636 -0.1125,0 -0.21958,-0.021 -0.32144,-0.0636 -0.10184,-0.0426 -0.19066,-0.10875 -0.26665,-0.19844 -0.076,-0.0897 -0.13785,-0.20537 -0.18499,-0.34675 -0.0456,-0.14291 -0.0682,-0.31559 -0.0682,-0.51779 0,-0.19763 0.0236,-0.37087 0.0708,-0.51987 0.0486,-0.1505 0.11102,-0.26834 0.18706,-0.35347 0.0821,-0.0912 0.17145,-0.15633 0.26871,-0.19585 0.0988,-0.0395 0.20376,-0.0594 0.31472,-0.0594 z m -17.67954,5.35057 -0.41859,0.2124 c -0.0581,0.0295 -0.8282,0.65787 -1.0454,1.29139 -0.15187,0.4428 -0.17364,1.68465 -0.17364,1.68465 0,0 0.003,10.44873 0.0558,10.75852 0.17901,1.03974 0.5897,1.64597 1.29915,1.91875 0.35896,0.13814 2.53998,0.14148 11.45564,0.14417 7.52986,0.002 11.01143,-0.0141 11.31557,-0.0951 0.73483,-0.19563 1.28717,-0.74609 1.56168,-1.55546 0.11416,-0.33657 0.12559,-3.64471 0.14676,-10.60401 0,0 0.001,-1.31319 -0.0584,-1.69292 -0.15404,-0.98243 -0.48657,-1.51643 -1.1498,-1.84795 l -0.42945,-0.21446 h -11.20862 z m 7.49515,3.49643 c 0.75731,0 1.39313,0.11261 1.90685,0.33848 0.51374,0.22143 0.93422,0.55396 1.26193,0.99684 0.32329,0.43402 0.55824,0.96941 0.70437,1.60714 0.14616,0.6333 0.2191,1.36675 0.2191,2.19935 0,0.83261 -0.0753,1.57872 -0.22582,2.23862 -0.15057,0.65546 -0.38547,1.19365 -0.70437,1.61438 -0.32766,0.42959 -0.74816,0.75471 -1.26193,0.97615 -0.51372,0.21702 -1.14723,0.32556 -1.90013,0.32556 -0.73962,0 -1.37086,-0.11033 -1.89344,-0.33176 -0.52261,-0.22142 -0.94536,-0.54938 -1.26865,-0.9834 -0.32774,-0.434 -0.56494,-0.9722 -0.71107,-1.61437 -0.14615,-0.64661 -0.2191,-1.38583 -0.2191,-2.21846 0,-0.85916 0.0752,-1.60583 0.22582,-2.23914 0.15058,-0.63331 0.39005,-1.16921 0.71779,-1.60766 0.32774,-0.43401 0.75279,-0.75917 1.27537,-0.97617 0.52261,-0.21703 1.14694,-0.32556 1.87328,-0.32556 z m 4.40695,0.19896 h 7.75303 v 1.9668 l -4.47778,7.9251 h -2.84324 l 4.65037,-7.99848 h -5.08238 z m -4.40695,1.6278 c -0.54475,0 -0.93422,0.25448 -1.16893,0.76378 -0.23474,0.50489 -0.35243,1.35958 -0.35243,2.56419 0,1.17364 0.11946,2.01968 0.35862,2.53783 0.23916,0.51817 0.62685,0.77721 1.16274,0.77721 0.53588,0 0.92358,-0.25904 1.16271,-0.77721 0.23916,-0.51815 0.35864,-1.36825 0.35864,-2.55075 0,-1.19576 -0.11718,-2.04638 -0.35192,-2.55127 -0.23471,-0.5093 -0.62471,-0.76378 -1.16943,-0.76378 z m -18.40714,11.81272 c 0.0541,-7.9e-4 0.10874,0.003 0.16277,0.0114 0.23352,0.0351 0.38229,0.11722 0.59118,0.32608 0.34044,0.34053 0.38508,0.59493 0.3488,1.99471 -0.0217,0.83949 -0.0434,0.98471 -0.17311,1.15962 -0.36161,0.48776 -0.93787,0.65089 -1.41076,0.39997 -0.54261,-0.28793 -0.60204,-0.47751 -0.60204,-1.91357 0,-1.07135 0.0133,-1.19639 0.15349,-1.44591 0.18209,-0.32404 0.55054,-0.52933 0.92967,-0.53227 z m 5.17538,0 h 5.3e-4 c 0.37473,0.003 0.72104,0.21034 0.89916,0.57826 0.12234,0.25297 0.13901,0.43712 0.13901,1.45418 -0.001,1.07429 -0.0136,1.18553 -0.15968,1.44022 -0.27323,0.47657 -0.85278,0.66294 -1.36633,0.43925 -0.28774,-0.12534 -0.58243,-0.48638 -0.63767,-0.78083 -0.0246,-0.1312 -0.0346,-0.73358 -0.0212,-1.33894 0.0277,-1.25887 0.0714,-1.37334 0.63095,-1.66398 0.16899,-0.0877 0.34492,-0.12816 0.51523,-0.12816 z m -10.16836,0.0129 c 0.18182,0.008 0.36274,0.0593 0.52348,0.15865 0.42806,0.26454 0.48109,0.46998 0.48109,1.87275 0,1.16595 -0.009,1.24996 -0.15968,1.4702 -0.30713,0.45001 -0.91112,0.62066 -1.36424,0.38499 -0.5882,-0.30591 -0.69922,-0.662 -0.66249,-2.12081 0.0212,-0.84135 0.0471,-1.02944 0.16949,-1.23764 0.20767,-0.35349 0.61227,-0.54573 1.01235,-0.52814 z m -5.37642,0.10025 c 0.45795,0 0.72316,0.13564 0.93483,0.47698 0.14994,0.24183 0.16867,0.3658 0.19172,1.29553 0.0295,1.19101 -0.0371,1.52842 -0.37312,1.89497 -0.20854,0.22758 -0.27797,0.25752 -0.65111,0.28164 -0.33033,0.0212 -0.46591,-0.003 -0.64855,-0.11783 -0.46474,-0.29176 -0.51313,-0.46281 -0.51313,-1.83709 0,-1.11785 0.0135,-1.25461 0.1483,-1.49449 0.19836,-0.35294 0.46529,-0.49971 0.91106,-0.49971 z m 64.33249,1.87327 c -7.7e-4,0.001 -0.20381,0.58634 -0.28215,0.81339 -0.11952,0.25019 -0.83617,1.65704 -3.20032,7.59592 l -6.66523,18.00819 c -0.32821,0.80457 -0.79285,1.96694 -1.03248,2.58279 -0.39987,1.02764 -0.83759,2.01149 -0.91004,2.04535 -0.0163,0.008 -0.3003,-0.10418 -0.63095,-0.24856 -0.11067,-0.0483 -1.05703,-0.39219 -1.59422,-0.58963 -0.0277,0.0283 -0.0552,0.0568 -0.0832,0.0848 0,0 -1.3085,3.34557 -2.08875,5.51388 2.42281,-0.021 4.58369,-0.0558 4.58369,-0.0558 7.92755,0.066 11.90419,-2.55042 11.90419,-11.61738 -0.001,-1.03421 -5.3e-4,-24.13131 -5.3e-4,-24.13289 z m -52.20663,0.60255 0.75964,0.0196 0.75915,0.0201 0.0403,0.46767 c 0.0678,0.7879 0.53621,1.37251 1.29863,1.62109 0.35346,0.11525 0.93237,0.0566 1.30172,-0.13177 0.56902,-0.29029 1.00822,-1.03874 1.00822,-1.71721 v -0.27543 h 0.85265 c 0.67429,0 0.94343,0.0309 1.28728,0.14676 0.86299,0.29071 1.49045,0.89855 2.00401,1.94355 0.61552,1.25253 0.56213,0.18689 0.58652,11.79824 0.0145,6.91671 -0.004,10.4688 -0.0527,10.79158 -0.27882,1.81305 -1.42629,3.30862 -2.78381,3.62872 -0.64429,0.15219 -23.180387,0.14781 -23.808377,-0.005 -1.13696,-0.27547 -2.10018,-1.35758 -2.58175,-2.90112 l -0.19844,-0.63769 v -10.558 c 0,-11.90985 -0.0492,-10.84981 0.5669,-12.11709 0.50295,-1.0345 1.13983,-1.65257 2.00504,-1.94407 0.37859,-0.12748 0.60801,-0.14624 1.77406,-0.14624 h 1.33945 l 0.0346,0.49092 c 0.0431,0.60198 0.277277,1.04121 0.715217,1.34256 0.77951,0.5363 1.78414,0.43625 2.37453,-0.23616 0.33332,-0.37963 0.45183,-0.65814 0.49144,-1.15135 l 0.0362,-0.44597 h 0.72451 0.72451 l 0.0367,0.44493 c 0.0752,0.93725 0.71019,1.62242 1.60195,1.72806 1.01748,0.12051 1.99204,-0.75982 1.99472,-1.80092 v -0.37207 h 0.74414 0.74414 v 0.27027 c 0,1.29123 1.24256,2.23177 2.40657,1.82107 0.72382,-0.25533 1.22581,-0.95792 1.21698,-1.70222 z m -5.92212,4.90099 c -0.52543,0 -0.9375,0.15296 -1.23608,0.45889 -0.29863,0.30444 -0.44804,0.71939 -0.44804,1.24489 0,0.52105 0.14941,0.93493 0.44804,1.2423 0.29858,0.30593 0.71065,0.4594 1.23608,0.4594 0.52697,0 0.93959,-0.15347 1.23817,-0.4594 0.29864,-0.30737 0.44805,-0.72125 0.44805,-1.2423 0,-0.5255 -0.15005,-0.94045 -0.45011,-1.24489 -0.30006,-0.30593 -0.7121,-0.45889 -1.23611,-0.45889 z m 10.08208,0 c -0.52546,0 -0.9375,0.15296 -1.2361,0.45889 -0.29861,0.30444 -0.44802,0.71939 -0.44802,1.24489 0,0.52105 0.14941,0.93493 0.44802,1.2423 0.2986,0.30593 0.71064,0.4594 1.2361,0.4594 0.52697,0 0.93956,-0.15347 1.23817,-0.4594 0.29859,-0.30737 0.44802,-0.72125 0.44802,-1.2423 0,-0.5255 -0.15002,-0.94045 -0.45008,-1.24489 -0.30006,-0.30593 -0.7121,-0.45889 -1.23611,-0.45889 z m -13.60794,0.004 c -0.56793,0 -1.01097,0.15589 -1.32861,0.46767 -0.31763,0.31033 -0.47646,0.71944 -0.47646,1.22731 0,0.53279 0.15764,0.95069 0.47231,1.25368 0.3147,0.30152 0.75017,0.45216 1.30638,0.45216 0.24006,0 0.48096,-0.0276 0.72244,-0.0832 0.24152,-0.0571 0.43503,-0.11397 0.58137,-0.17105 v -1.61386 h -1.50791 v 0.61702 h 0.65215 v 0.6413 c -0.0322,0.002 -0.0685,0.004 -0.10801,0.006 -0.0381,0.003 -0.0732,0.003 -0.10541,0.003 -0.37473,0 -0.65783,-0.0961 -0.84957,-0.28784 -0.1918,-0.19175 -0.28732,-0.46839 -0.28732,-0.82992 0,-0.17714 0.0264,-0.333 0.0791,-0.46767 0.0542,-0.1361 0.12687,-0.24807 0.2191,-0.3359 0.0966,-0.0907 0.20561,-0.15764 0.32713,-0.20154 0.12147,-0.0442 0.25686,-0.0662 0.40617,-0.0662 0.12734,0 0.24746,0.017 0.3602,0.0507 0.11417,0.0337 0.21376,0.0736 0.29869,0.1204 0.0732,0.0395 0.14933,0.0881 0.22839,0.14521 0.0791,0.0556 0.13882,0.099 0.17983,0.12971 h 0.0946 v -0.76636 c -0.2386,-0.11563 -0.45543,-0.19243 -0.65011,-0.23048 -0.19468,-0.0395 -0.39925,-0.0594 -0.61441,-0.0594 z m 7.15923,0.005 c -0.42863,8e-5 -0.7801,0.0968 -1.05368,0.28991 -0.27226,0.19174 -0.40823,0.4397 -0.40823,0.74414 0,0.22688 0.0604,0.41733 0.18034,0.57102 0.12147,0.15224 0.31962,0.273 0.59479,0.36225 0.11999,0.0395 0.24783,0.0725 0.38396,0.0987 0.13758,0.0249 0.26821,0.0519 0.39119,0.0811 0.1171,0.0278 0.20563,0.0683 0.26561,0.12092 0.0615,0.0512 0.092,0.11278 0.092,0.18448 0,0.0776 -0.0217,0.13616 -0.0641,0.1757 -0.041,0.0395 -0.0938,0.0725 -0.15812,0.0987 -0.0527,0.0206 -0.1207,0.0351 -0.20412,0.0439 -0.0834,0.009 -0.15082,0.0129 -0.20207,0.0129 -0.19907,0 -0.40658,-0.0375 -0.62322,-0.11214 -0.21516,-0.0746 -0.41029,-0.18134 -0.58447,-0.32039 h -0.092 v 0.78393 c 0.17563,0.0732 0.36378,0.13361 0.56431,0.1819 0.20201,0.0469 0.43823,0.0703 0.709,0.0703 0.46839,0 0.83878,-0.10023 1.11104,-0.30076 0.27371,-0.20199 0.41031,-0.46398 0.41031,-0.78599 0,-0.22541 -0.0599,-0.40831 -0.17983,-0.54881 -0.11856,-0.142 -0.30316,-0.25395 -0.55346,-0.3359 -0.12734,-0.041 -0.24638,-0.0733 -0.35761,-0.0966 -0.10977,-0.0234 -0.2246,-0.0474 -0.34467,-0.0724 -0.18296,-0.038 -0.30721,-0.0797 -0.37312,-0.12505 -0.0659,-0.0468 -0.0992,-0.11365 -0.0992,-0.19999 0,-0.0571 0.0206,-0.10748 0.0615,-0.15142 0.041,-0.0453 0.0902,-0.0794 0.14727,-0.10128 0.0644,-0.0262 0.13118,-0.0439 0.2,-0.0527 0.0703,-0.0102 0.14054,-0.0155 0.21082,-0.0155 0.19904,0 0.3937,0.0362 0.58396,0.108 0.19174,0.0703 0.35348,0.15815 0.48524,0.26355 h 0.0899 v -0.75344 c -0.15372,-0.0629 -0.33597,-0.1146 -0.54674,-0.15555 -0.20915,-0.0425 -0.42113,-0.0635 -0.63613,-0.0636 z m -11.421007,0.0594 -1.20766,3.26905 h 0.84955 l 0.22635,-0.66094 h 1.212317 l 0.22582,0.66094 h 0.87128 l -1.20717,-3.26905 z m 12.984747,0 v 0.632 h 1.0206 v 2.63705 h 0.84336 v -2.63705 h 1.02113 v -0.632 z m -5.19504,0.5488 h 5.3e-4 c 0.10519,7e-5 0.20637,0.02 0.30281,0.0594 0.0981,0.0395 0.18426,0.10285 0.2589,0.19068 0.0732,0.0849 0.13242,0.19626 0.17777,0.33383 0.0453,0.13761 0.0677,0.30461 0.0677,0.50075 0,0.18299 -0.0194,0.34241 -0.0589,0.47852 -0.0396,0.13465 -0.0999,0.25186 -0.1819,0.3514 -0.0732,0.0878 -0.15875,0.15289 -0.25683,0.19534 -0.0981,0.0411 -0.20172,0.0615 -0.31006,0.0615 -0.1083,0 -0.21149,-0.0205 -0.30954,-0.0615 -0.0981,-0.041 -0.18362,-0.10483 -0.25683,-0.1912 -0.0732,-0.0864 -0.13237,-0.1972 -0.17777,-0.33332 -0.0439,-0.13759 -0.0656,-0.30403 -0.0656,-0.49867 0,-0.19032 0.0223,-0.35728 0.0677,-0.50075 0.0469,-0.14492 0.10715,-0.25805 0.18034,-0.34003 0.079,-0.0878 0.1652,-0.15108 0.25889,-0.18914 0.095,-0.038 0.19619,-0.0567 0.30282,-0.0568 z m 10.08208,0 c 0.10535,0 0.20674,0.0199 0.30334,0.0594 0.0981,0.0395 0.18426,0.10285 0.2589,0.19068 0.0732,0.0849 0.13237,0.19626 0.17777,0.33383 0.0452,0.13761 0.0677,0.30461 0.0677,0.50075 0,0.18299 -0.0194,0.34241 -0.0589,0.47852 -0.0395,0.13465 -0.10001,0.25186 -0.1819,0.3514 -0.0732,0.0878 -0.15928,0.15289 -0.25736,0.19534 -0.0981,0.0411 -0.20121,0.0615 -0.30953,0.0615 -0.1083,0 -0.21151,-0.0205 -0.30954,-0.0615 -0.0981,-0.041 -0.1837,-0.10483 -0.25683,-0.1912 -0.0733,-0.0864 -0.13242,-0.1972 -0.17777,-0.33332 -0.0439,-0.13759 -0.0656,-0.30403 -0.0656,-0.49867 0,-0.19032 0.0223,-0.35728 0.0677,-0.50075 0.0468,-0.14492 0.10718,-0.25805 0.18037,-0.34003 0.079,-0.0878 0.1652,-0.15108 0.25889,-0.18914 0.0951,-0.0381 0.19595,-0.0568 0.30282,-0.0568 z m -17.39739,0.28784 0.40153,1.17202 h -0.80356 z m -2.832887,5.11131 -0.4186,0.21291 c -0.0581,0.0295 -0.8282,0.65786 -1.0454,1.2914 -0.15187,0.44277 -0.17364,1.68465 -0.17364,1.68465 0,0 0.002,10.44875 0.0558,10.75851 0.17901,1.03977 0.58917,1.64598 1.29862,1.91875 0.35896,0.13792 2.54101,0.14095 11.456647,0.14366 7.52988,0.002 11.01145,-0.0141 11.31559,-0.0951 0.73483,-0.19561 1.28715,-0.74559 1.56168,-1.55494 0.11417,-0.33662 0.12507,-3.6447 0.14623,-10.604 0,0 10e-4,-1.31319 -0.0584,-1.69292 -0.15404,-0.98244 -0.48654,-1.51643 -1.1498,-1.84795 l -0.42945,-0.21498 h -11.20859 z m 46.574417,2.85461 c -0.11896,0.003 -0.20029,0.0202 -0.2367,0.0537 -0.16095,0.14831 -0.65609,1.43823 -1.30948,3.41117 -0.33361,1.00734 -0.82756,2.45401 -1.09759,3.21427 -1.2041,3.38988 -1.21539,3.35893 1.57562,4.33358 2.18998,0.76481 8.99091,3.27916 9.66142,3.57188 0.33064,0.14437 0.61468,0.25621 0.63095,0.24856 0.0724,-0.0339 0.51017,-1.01772 0.91003,-2.04535 0.23963,-0.61586 0.70427,-1.77822 1.03248,-2.58279 1.58272,-3.87944 2.00928,-5.3423 1.66349,-5.70507 -0.31414,-0.32951 -2.82096,-1.3881 -7.0399,-2.97295 -2.266,-0.8512 -4.95763,-1.54631 -5.79032,-1.52704 z m -39.07928,0.64182 c 0.75732,-2e-5 1.39311,0.11314 1.90685,0.339 0.51374,0.22144 0.93472,0.55344 1.26246,0.99632 0.32332,0.434 0.55772,0.96992 0.70385,1.60765 0.14618,0.63331 0.2191,1.36623 0.2191,2.19884 0,0.8326 -0.0752,1.57928 -0.22582,2.23913 -0.15058,0.65546 -0.38545,1.19311 -0.70435,1.61386 -0.32769,0.42957 -0.74819,0.75528 -1.26196,0.97668 -0.51371,0.21702 -1.14723,0.32556 -1.90013,0.32556 -0.73962,0 -1.3703,-0.11081 -1.89291,-0.33228 -0.52258,-0.22141 -0.94588,-0.54891 -1.26918,-0.98289 -0.32776,-0.43405 -0.56438,-0.97217 -0.71054,-1.61437 -0.14615,-0.64655 -0.21963,-1.38639 -0.21963,-2.21897 0,-0.85923 0.0758,-1.6053 0.22635,-2.23863 0.15055,-0.63331 0.38952,-1.16916 0.71726,-1.60765 0.32774,-0.434 0.75277,-0.75974 1.27537,-0.97669 0.52261,-0.2171 1.147,-0.32556 1.87328,-0.32556 z m 4.40748,0.19947 h 7.75251 v 1.96629 l -4.47726,7.9251 h -2.84324 l 4.64984,-7.99796 h -5.08185 z m -4.40748,1.62781 c -0.54475,0 -0.93422,0.25447 -1.16893,0.76378 -0.23474,0.50488 -0.35242,1.35954 -0.35242,2.56418 0,1.1736 0.11998,2.01968 0.35914,2.53783 0.23916,0.51818 0.62635,0.77722 1.16221,0.77722 0.53589,0 0.92355,-0.25904 1.16271,-0.77722 0.23916,-0.51814 0.35864,-1.36877 0.35864,-2.55126 0,-1.1958 -0.11718,-2.04587 -0.35192,-2.55075 -0.23471,-0.50931 -0.62468,-0.76378 -1.16943,-0.76378 z m 37.11866,11.8861 c -0.82931,0.0541 -1.05487,0.79499 -1.61023,2.49959 -0.27307,0.83806 -0.59113,1.74247 -0.70694,2.01021 -0.78629,1.81819 -2.22049,5.82175 -3.18688,8.89661 -0.66603,2.11921 -0.81208,5.96537 -0.40153,10.57352 0.11742,1.31785 0.35663,3.30076 0.4382,3.63233 0.0688,0.27968 0.1128,0.23843 0.87334,-0.82423 0.37259,-0.52061 1.69521,-2.22529 2.93936,-3.78789 3.68626,-4.62991 3.94491,-5.14291 7.15357,-14.19913 0.45386,-1.28095 0.943,-2.65121 1.08675,-3.04478 0.90834,-2.48703 0.90535,-2.46132 0.31731,-2.92591 -0.82142,-0.649 -2.23332,-1.40603 -3.43339,-1.84124 -1.81435,-0.65797 -2.82453,-1.03117 -3.46956,-0.98908 z" />
  </g>
  <g
     inkscape:groupmode="layer"
     id="layer5"
     inkscape:label="Capa 5" />
  <g
     inkscape:groupmode="layer"
     id="layer4"
     inkscape:label="Capa 4" />
  <g
     inkscape:groupmode="layer"
     id="layer2"
     inkscape:label="Capa 2" />
  <g
     inkscape:groupmode="layer"
     id="layer3"
     inkscape:label="Capa 3" />
</svg>
