<?xml version="1.0" encoding="UTF-8" standalone="no"?>
<!-- Created with Inkscape (http://www.inkscape.org/) -->

<svg
   width="400mm"
   height="400mm"
   viewBox="0 0 200 200"
   version="1.1"
   id="svg349"
   sodipodi:docname="10532.svg"
   inkscape:version="1.1.2 (0a00cf5339, 2022-02-04)"
   xmlns:inkscape="http://www.inkscape.org/namespaces/inkscape"
   xmlns:sodipodi="http://sodipodi.sourceforge.net/DTD/sodipodi-0.dtd"
   xmlns:xlink="http://www.w3.org/1999/xlink"
   xmlns="http://www.w3.org/2000/svg"
   xmlns:svg="http://www.w3.org/2000/svg">
  <sodipodi:namedview
     id="namedview351"
     pagecolor="#505050"
     bordercolor="#ffffff"
     borderopacity="1"
     inkscape:pageshadow="0"
     inkscape:pageopacity="0"
     inkscape:pagecheckerboard="1"
     inkscape:document-units="mm"
     showgrid="false"
     width="200mm"
     inkscape:zoom="0.37059484"
     inkscape:cx="-505.94336"
     inkscape:cy="281.9791"
     inkscape:window-width="1553"
     inkscape:window-height="749"
     inkscape:window-x="367"
     inkscape:window-y="135"
     inkscape:window-maximized="0"
     inkscape:current-layer="layer1" />
  <defs
     id="defs346">
    <linearGradient
       inkscape:collect="always"
       id="linearGradient853">
      <stop
         style="stop-color:#005d9c;stop-opacity:1;"
         offset="0"
         id="stop849" />
      <stop
         style="stop-color:#002255;stop-opacity:1"
         offset="1"
         id="stop851" />
    </linearGradient>
    <radialGradient
       inkscape:collect="always"
       xlink:href="#linearGradient853"
       id="radialGradient855"
       cx="99.999992"
       cy="100"
       fx="99.999992"
       fy="100"
       r="97.66301"
       gradientTransform="translate(0)"
       gradientUnits="userSpaceOnUse" />
  </defs>
  <g
     inkscape:label="Capa 1"
     inkscape:groupmode="layer"
     id="layer1">
    <ellipse
       style="fill:url(#radialGradient855);fill-opacity:1;stroke:none;stroke-width:4.67397;stroke-miterlimit:4;stroke-dasharray:none;stroke-opacity:1"
       id="path66737"
       cx="99.999992"
       cy="100"
       rx="97.66301"
       ry="97.663017" />
    <g
       id="g17761"
       style="display:none">
      <path
         d="m 86.62187,156.22808 c -0.333774,-0.0961 -0.749426,-0.54969 -0.923671,-1.00799 -0.174241,-0.45828 -0.316808,-4.50749 -0.316808,-8.99823 0,-6.39918 0.108958,-8.4738 0.503821,-9.59296 0.277104,-0.78538 0.503819,-1.75026 0.503819,-2.14415 0,-1.24608 1.69067,-3.99316 3.848286,-6.25286 1.868651,-1.95705 2.126799,-2.39971 2.492025,-4.27311 0.224072,-1.14943 0.62643,-2.50975 0.894113,-3.02291 0.26768,-0.51317 0.487611,-1.10956 0.488755,-1.3253 0.0053,-1.02596 1.963007,-4.0921 3.972977,-6.22278 3.549323,-3.76245 6.926403,-5.68346 12.033253,-6.84497 1.13578,-0.25833 2.46816,-0.62294 2.9608,-0.81023 1.25898,-0.47867 32.06556,-0.46067 33.32655,0.0194 0.52005,0.19801 1.70127,0.49933 2.62495,0.66957 2.55547,0.47101 5.96814,1.89252 8.397,3.49768 4.68056,3.09323 8.20012,8.80512 9.46963,15.36829 0.0978,0.50507 0.76532,1.44926 1.48361,2.0982 1.7612,1.59112 3.43778,3.98381 4.35857,6.2202 0.71894,1.74607 0.76802,2.39381 0.8956,11.81765 l 0.13496,9.97033 -1.08938,0.56336 c -1.19661,0.61878 -3.76258,0.52537 -4.45005,-0.16202 -0.27295,-0.2729 -0.41096,-2.98734 -0.45808,-9.0095 -0.0781,-9.97133 -0.29608,-11.34862 -2.03926,-12.87915 -2.37847,-2.08831 -0.40407,-1.98009 -36.12005,-1.98009 H 96.906977 l -1.480314,0.78132 c -0.81418,0.42972 -1.971541,1.42392 -2.571937,2.20932 l -1.091605,1.42803 v 9.50535 c 0,8.20354 -0.07185,9.56493 -0.524181,9.9404 -0.546821,0.45379 -3.566129,0.73963 -4.61707,0.43708 z M 54.672329,149.5363 c -0.36911,-0.3691 -0.527812,-1.16973 -0.527812,-2.66265 0,-1.92502 0.09012,-2.20575 0.916818,-2.85604 0.878411,-0.69095 1.198828,-0.71728 7.648144,-0.62865 3.70223,0.0509 6.917163,-0.0224 7.144305,-0.16273 0.691844,-0.42758 0.516064,-2.82384 -0.236691,-3.2267 -0.428079,-0.2291 -7.852284,-0.34771 -21.765937,-0.34771 H 26.734894 l -1.388718,-1.37496 c -1.034347,-1.02412 -1.479811,-1.79971 -1.745687,-3.03947 -0.512751,-2.39086 -0.49498,-75.015396 0.01884,-77.056032 0.486546,-1.932246 2.09936,-3.388341 4.060417,-3.665885 0.792916,-0.112221 18.067745,-0.160218 38.388507,-0.106636 l 36.946847,0.09737 0.10278,0.721578 c 0.10511,0.737513 -0.21162,1.123355 -3.06107,3.72884 l -1.561163,1.427492 H 63.928473 c -31.210961,0 -34.587044,0.05154 -34.771122,0.531286 -0.112133,0.292219 -0.203877,14.273235 -0.203877,31.068935 0,30.300222 0.0053,30.542992 0.685942,31.223582 0.681478,0.68147 0.871654,0.6853 29.237016,0.58778 l 28.551082,-0.0981 -0.20068,0.79921 c -0.110367,0.43957 -0.786954,1.37966 -1.503521,2.08909 -1.571255,1.55563 -3.577815,5.49301 -4.091127,8.02781 -0.205757,1.01605 -0.466599,4.71912 -0.579649,8.22908 -0.113046,3.50994 -0.327826,6.57066 -0.477279,6.80158 -0.209398,0.32353 -3.150914,0.41985 -12.823433,0.41985 -10.962795,0 -12.618514,-0.0668 -13.07951,-0.52783 z m 71.518541,-49.26184 c -2.57598,-0.406101 -6.46385,-1.970541 -8.56191,-3.445231 -2.55264,-1.794221 -5.59405,-5.171057 -6.73291,-7.475487 -1.11974,-2.26571 -1.91845,-2.672766 -2.63121,-1.340991 -0.75656,1.413643 -2.43536,2.264657 -4.46749,2.264657 -1.69786,0 -1.99977,-0.120219 -3.40138,-1.35394 -1.392873,-1.226027 -1.591453,-1.59345 -2.102243,-3.889324 -0.42688,-1.91865 -0.5237,-3.529783 -0.39807,-6.623226 0.20156,-4.963142 0.78921,-6.851871 2.570873,-8.262975 0.68964,-0.546214 1.53578,-1.644 1.8803,-2.439538 1.0643,-2.457553 3.07549,-5.774228 4.33582,-7.150169 0.6615,-0.722199 1.20273,-1.424993 1.20273,-1.561753 0,-0.278496 4.0591,-3.590198 6.38173,-5.206691 6.07403,-4.227343 16.62042,-5.504416 24.36288,-2.950104 5.00268,1.650422 7.81354,3.401642 11.70317,7.291272 3.23006,3.230064 5.19761,6.003406 6.48756,9.144467 0.59254,1.442866 1.20045,2.385675 1.67881,2.60363 0.41245,0.18792 1.13355,0.921394 1.60244,1.629923 0.84049,1.270078 0.85253,1.381918 0.85345,7.929091 0.001,6.163832 -0.0513,6.739459 -0.72625,8.013841 -1.86226,3.516163 -7.3938,3.795903 -9.28677,0.46964 -0.70327,-1.235764 -1.02399,-1.145949 -1.89775,0.531501 -1.25748,2.4141 -2.44645,3.987188 -4.59945,6.085485 -2.86017,2.787491 -6.23826,4.535741 -10.51723,5.442971 -3.56277,0.755381 -4.56356,0.793271 -7.7371,0.292951 z M 110.53349,69.424651 c 1.21326,-2.427975 2.11169,-3.65545 4.06951,-5.559945 2.30534,-2.242579 2.56995,-2.43865 5.15237,-3.817482 6.40396,-3.419329 13.35006,-3.450355 19.79227,-0.08849 3.21275,1.6766 7.16208,5.599308 9.02622,8.965407 0.80548,1.454457 1.59934,2.659627 1.76415,2.678161 0.16479,0.01853 0.60023,-0.368946 0.96764,-0.861055 l 0.66801,-0.894722 -0.78229,-1.624375 c -0.43026,-0.893414 -0.97905,-1.8241 -1.21955,-2.068218 -0.2405,-0.244107 -0.43727,-0.590672 -0.43727,-0.770136 0,-0.179465 -1.25729,-1.600687 -2.794,-3.158285 -2.35039,-2.382337 -3.33753,-3.104527 -6.21739,-4.548597 -6.51353,-3.266118 -13.10375,-3.552966 -19.94287,-0.868041 -4.83755,1.89914 -9.91398,6.47084 -12.20459,10.991128 -0.88781,1.75202 -0.89434,1.809907 -0.32319,2.870448 0.76856,1.427137 1.27145,1.174614 2.48098,-1.24587 z"
         style="fill:#00112b;stroke-width:0.0888681"
         id="path340"
         sodipodi:nodetypes="cssssssscsscssscssscsscsscsccsccccssscsscsscscccscssscccssssssccsssssssssssscssssscsssssscscsssscsssssssscc" />
      <path
         d="m 33.204099,119.21693 c -0.432065,-0.33986 -0.444428,-0.74664 -0.05368,-1.76636 0.742114,-1.93666 2.086237,-3.14407 4.537061,-4.07558 0.384577,-0.14616 0.791107,-0.26579 0.9034,-0.26582 0.22032,-7e-5 1.207387,0.71301 1.942385,1.40323 0.786836,0.73889 1.163745,0.71927 2.081508,-0.10838 0.321982,-0.29037 0.844859,-0.70571 1.161943,-0.92297 0.707108,-0.4845 0.924284,-0.45581 2.545744,0.33639 0.888207,0.43394 1.381082,0.7833 2.041757,1.4472 1.327115,1.33361 2.117483,3.23147 1.621593,3.89384 -0.190645,0.25465 -0.367631,0.26094 -8.315052,0.29556 -8.071835,0.0352 -8.122327,0.0337 -8.466656,-0.23711 z m 6.548598,-7.71731 c -1.062828,-0.44196 -1.714853,-0.89376 -2.368912,-1.64145 -0.953868,-1.09041 -1.190358,-1.68786 -1.251546,-3.16176 -0.09248,-2.22768 0.504903,-3.56931 2.115834,-4.75185 1.214145,-0.89126 1.755328,-1.06481 3.306338,-1.06025 1.543632,0.004 2.026286,0.16615 3.32268,1.11265 0.66478,0.48535 1.766327,1.95914 1.775211,2.3751 0.0026,0.11873 0.08827,0.36223 0.19053,0.5411 0.264755,0.46314 0.255633,2.32093 -0.01451,2.95524 -0.622937,1.46268 -1.263627,2.32906 -2.220593,3.00283 -1.325592,0.93329 -3.458068,1.2093 -4.855034,0.62839 z"
         style="fill:#00112b;stroke-width:0.00910713"
         id="path465" />
      <g
         aria-label="OV"
         transform="scale(0.92322455,1.0831601)"
         id="text2668"
         style="font-size:33.9094px;line-height:2.45;stroke-width:0.176612">
        <path
           d="m 54.762138,67.259733 q -2.914089,0 -4.52015,2.152452 -1.60606,2.152453 -1.60606,6.059981 0,3.890971 1.60606,6.043424 1.606061,2.152452 4.52015,2.152452 2.930646,0 4.536707,-2.152452 1.60606,-2.152453 1.60606,-6.043424 0,-3.907528 -1.60606,-6.059981 -1.606061,-2.152452 -4.536707,-2.152452 z m 0,-4.619493 q 5.960637,0 9.338331,3.410808 3.377694,3.410809 3.377694,9.421118 0,5.993752 -3.377694,9.404561 -3.377694,3.410808 -9.338331,3.410808 -5.94408,0 -9.338331,-3.410808 -3.377694,-3.410809 -3.377694,-9.404561 0,-6.010309 3.377694,-9.421118 3.394251,-3.410808 9.338331,-3.410808 z"
           style="font-weight:bold;-inkscape-font-specification:'sans-serif Bold';fill:#00112b"
           id="path17733" />
        <path
           d="m 68.438488,63.087287 h 6.407685 l 6.5567,18.246172 6.540144,-18.246172 h 6.407684 l -9.1562,24.720086 h -7.599812 z"
           style="font-weight:bold;-inkscape-font-specification:'sans-serif Bold';fill:#00112b"
           id="path17735" />
      </g>
    </g>
    <path
       style="fill:#ffffff;stroke-width:0.116161;fill-opacity:1"
       d="m 67.411354,175.67296 c -16.08796,-0.49626 -23.881516,-3.40838 -27.95765,-10.44663 -3.597975,-6.2126 -3.644637,-17.46497 -0.111054,-26.77951 1.634113,-4.30752 3.687596,-7.86914 6.725214,-11.66437 1.221935,-1.52669 4.701256,-4.95599 6.335745,-6.24465 5.622465,-4.43283 12.303553,-7.40107 19.249682,-8.55214 0.914199,-0.15149 2.01704,-0.3117 2.450756,-0.35603 l 0.788575,-0.0805 v 0.3415 c 0,0.1878 0.100981,0.73181 0.224389,1.20889 0.98246,3.79782 5.737221,12.16244 13.152645,23.1383 2.649831,3.9221 6.406615,9.29454 6.461473,9.24031 0.05109,-0.0505 1.183369,-15.86031 1.187318,-16.57876 0.0028,-0.50816 -0.01326,-0.53116 -0.619491,-0.88968 -0.844703,-0.49952 -2.200092,-1.7598 -2.81585,-2.6183 -0.980787,-1.36742 -1.702141,-3.18918 -1.702141,-4.2987 v -0.47887 l 0.788575,0.28611 c 5.58578,2.02657 10.06883,2.07206 15.56516,0.15798 l 1.287,-0.4482 -0.002,0.42086 c -0.006,1.17647 -0.81856,3.21045 -1.79278,4.48117 -0.68766,0.89696 -1.7213,1.84629 -2.67226,2.4543 l -0.73805,0.4719 0.37318,5.28486 c 0.20526,2.90665 0.46628,6.64919 0.58005,8.31674 0.11378,1.66755 0.23635,3.03026 0.27239,3.02824 0.0728,-0.004 4.89288,-6.33948 7.17065,-9.42494 8.54004,-11.56832 13.79445,-20.27922 14.18153,-23.51045 l 0.0694,-0.57952 0.77092,0.0787 c 5.01658,0.51229 10.84955,2.31871 15.37417,4.7612 1.82956,0.98764 4.69413,2.8692 6.30861,4.14377 1.65499,1.30653 5.0994,4.71261 6.41481,6.34341 5.12873,6.35842 8.26169,13.9497 9.05696,21.94526 0.38385,3.85912 0.18938,8.00488 -0.52056,11.09806 -0.5552,2.41891 -1.82605,5.2757 -3.10417,6.9779 -1.62855,2.16893 -3.66976,3.792 -6.47305,5.14704 -4.78514,2.31306 -10.46151,3.3012 -20.85345,3.63023 -4.09754,0.12973 -61.198806,0.12501 -65.426982,-0.006 z m 75.284436,-11.22408 c 0.64722,-0.19172 1.53054,-1.05008 1.69601,-1.64807 0.0848,-0.30655 0.12768,-2.44419 0.12736,-6.35259 l -4.5e-4,-5.89057 -0.28231,-0.59949 c -0.342,-0.7262 -1.00543,-1.23864 -1.82994,-1.41346 -0.78496,-0.16644 -18.17624,-0.16605 -18.91415,4.3e-4 -0.71923,0.16226 -1.35579,0.6234 -1.73058,1.25368 l -0.3139,0.52782 v 6.17933 6.17932 l 0.26258,0.48574 c 0.29506,0.54583 0.88966,1.0616 1.45931,1.26584 0.55975,0.20071 18.85107,0.21194 19.52609,0.012 z m -17.03719,-4.13376 c -0.889,-0.11192 -1.23172,-0.45153 -1.23172,-1.22053 0,-0.70033 0.22425,-1.17961 0.78678,-1.68146 0.47786,-0.42629 1.21243,-0.69481 1.28796,-0.47079 0.10542,0.31254 0.93098,1.55282 1.02789,1.54418 0.16067,-0.0143 0.20842,-0.60125 0.0607,-0.7472 -0.22064,-0.21814 -0.13724,-0.30934 0.28294,-0.30934 0.45049,0 0.4695,0.0227 0.27594,0.32911 -0.0899,0.14223 -0.0975,0.31558 -0.0236,0.53452 0.10898,0.32323 0.11066,0.32194 0.68619,-0.52968 0.31732,-0.46953 0.58709,-0.87163 0.59948,-0.89357 0.0743,-0.13148 0.82188,0.17558 1.17611,0.48307 0.82072,0.71244 1.10655,1.96238 0.58564,2.5611 -0.21378,0.24572 -0.41775,0.32252 -1.08063,0.4069 -0.96034,0.12226 -3.44044,0.11875 -4.43367,-0.006 z m 9.82644,-0.20881 c -0.27146,-0.29656 -0.24512,-0.86168 0.0526,-1.12803 0.2264,-0.20257 0.4533,-0.22002 2.85899,-0.22002 2.51913,0 2.62212,0.008 2.86458,0.24864 0.30558,0.30212 0.32464,0.77636 0.0435,1.08345 -0.19539,0.21344 -0.37154,0.22717 -2.91714,0.22717 -2.47627,0 -2.72585,-0.0181 -2.90256,-0.21121 z m -8.09162,-3.1299 c -0.36051,-0.15271 -0.92747,-0.87946 -1.08081,-1.38546 -0.44792,-1.47809 0.17838,-2.72697 1.43794,-2.86732 0.70422,-0.0784 1.28216,0.22055 1.66081,0.85936 0.26418,0.44566 0.29594,0.60499 0.2452,1.23 -0.0633,0.7808 -0.36722,1.48145 -0.82586,1.90458 -0.32011,0.29534 -1.04353,0.42561 -1.43728,0.25884 z m 1.24684,-0.43677 c 0.20684,-0.17208 0.47259,-0.52291 0.59054,-0.77965 0.22186,-0.48288 0.29744,-1.16324 0.11699,-1.05297 -0.0564,0.0345 -0.13386,-0.0794 -0.17207,-0.25305 -0.12185,-0.55384 -0.21938,-0.62356 -0.66002,-0.47168 -0.30333,0.10454 -0.55185,0.10327 -1.08522,-0.005 -0.38047,-0.0777 -0.72316,-0.11023 -0.76151,-0.0723 -0.0383,0.0378 -0.0722,0.27481 -0.0753,0.52643 -0.003,0.25163 -0.045,0.45766 -0.0932,0.45786 -0.16721,9.3e-4 -0.0863,0.50766 0.16199,1.01471 0.45203,0.92316 1.30361,1.19715 1.97775,0.63633 z m 6.90712,-1.07768 c -0.32255,-0.29707 -0.33301,-0.84307 -0.022,-1.15051 0.21975,-0.21725 0.38943,-0.23101 2.8493,-0.23101 2.3679,0 2.64084,0.0202 2.88171,0.21301 0.17994,0.14406 0.26606,0.33682 0.26606,0.5955 0,0.25869 -0.0861,0.45145 -0.26606,0.5955 -0.24071,0.19273 -0.51318,0.21303 -2.85969,0.21303 -2.44863,0 -2.6079,-0.0131 -2.84928,-0.23552 z M 98.199418,116.70581 C 96.564234,116.48535 95.92848,116.36872 94.80505,116.08305 87.742259,114.28713 81.425223,109.21583 76.569076,101.44327 75.415644,99.597127 73.516591,95.844446 72.724701,93.846484 70.618523,88.53251 69.399763,83.408719 68.699834,76.92553 68.253735,72.793473 68.204195,71.94067 68.273772,69.591193 68.530526,60.92111 71.87289,52.955355 77.813274,46.855967 c 4.943853,-5.076185 11.151657,-8.272174 18.124907,-9.331335 2.223103,-0.337659 6.331599,-0.36638 8.453029,-0.05912 8.21465,1.189941 15.35983,5.238554 20.51878,11.626414 4.91892,6.09066 7.58679,13.697362 7.57447,21.596496 -0.002,1.700054 -0.0309,2.077965 -0.46154,6.179323 -0.84934,8.089014 -2.58104,14.338198 -5.72909,20.674748 -2.38008,4.790707 -4.87881,8.258027 -8.36524,11.607877 -4.18228,4.01848 -8.63452,6.38087 -13.85153,7.34973 -0.92497,0.17178 -5.056649,0.31636 -5.877642,0.20567 z m 6.005942,-5.12355 c 4.20515,-0.86718 8.03538,-2.95309 11.54135,-6.28531 5.99713,-5.699934 10.1848,-14.252136 11.88461,-24.271122 0.47347,-2.790764 1.09673,-9.078421 0.89807,-9.06028 -0.0586,0.0053 -1.37353,1.481059 -4.08662,4.586166 -0.19782,0.226401 -0.25483,0.253501 -0.20097,0.09552 0.0413,-0.121296 0.13356,-0.608459 0.20487,-1.082585 0.41718,-2.773043 -1.32819,-8.18468 -4.52762,-14.038135 -0.99856,-1.82688 -2.15135,-3.774217 -2.23427,-3.774217 -0.0298,0 -0.5622,0.316508 -1.18307,0.703353 -2.9204,1.819599 -6.31936,3.032755 -10.18288,3.634456 -1.86175,0.289946 -6.706118,0.354242 -8.958215,0.118894 -5.191807,-0.542548 -10.79401,-1.97097 -15.425087,-3.933016 l -1.426984,-0.604569 -0.500647,0.279376 c -1.446201,0.807016 -2.518471,2.582636 -3.132911,5.187924 -0.744314,3.155958 -0.793732,8.919316 -0.120988,14.109586 0.11285,0.870646 0.197221,1.594611 0.187491,1.60881 -0.0098,0.01419 -0.22088,-0.110688 -0.469219,-0.277524 -1.078499,-0.724551 -3.67759,-1.812937 -3.871505,-1.62122 -0.09865,0.09753 0.249989,2.851217 0.610043,4.818214 1.237126,6.758501 3.587491,12.747831 7.002809,17.844965 1.37798,2.056534 2.336247,3.236114 4.021726,4.950514 3.94746,4.01521 8.317665,6.39745 13.164795,7.17629 1.560702,0.25076 5.216412,0.16154 6.805222,-0.16611 z"
       id="path49666" />
    <path
       style="fill:#ffffff;stroke-width:0.0526665;fill-opacity:1"
       d="m 57.067538,113.68194 c 7.294154,-0.22501 10.82769,-1.54534 12.675777,-4.73642 1.631293,-2.81676 1.652449,-7.91849 0.05035,-12.141626 -0.740894,-1.952993 -1.671927,-3.567802 -3.049159,-5.28853 -0.554015,-0.692188 -2.131511,-2.247006 -2.872576,-2.831274 -2.54918,-2.009811 -5.578334,-3.355587 -8.727655,-3.877473 -0.414491,-0.06869 -0.914509,-0.141323 -1.11115,-0.161422 l -0.357536,-0.03649 v 0.154833 c 0,0.08514 -0.04578,0.331796 -0.101733,0.548101 -0.44544,1.721901 -2.60121,5.514354 -5.963303,10.490715 -1.201412,1.77825 -2.904711,4.214076 -2.929584,4.18949 -0.02316,-0.0229 -0.536526,-7.190939 -0.538317,-7.516678 -0.0014,-0.230396 0.0061,-0.240824 0.280872,-0.403374 0.38298,-0.226478 0.997503,-0.797879 1.276684,-1.187117 0.444678,-0.619976 0.771737,-1.445948 0.771737,-1.948996 v -0.217116 l -0.357535,0.12972 c -2.53255,0.918831 -4.565129,0.939456 -7.057121,0.07163 l -0.583516,-0.203212 9.07e-4,0.190816 c 0.0027,0.533402 0.371129,1.455592 0.812832,2.031727 0.31178,0.406674 0.780424,0.837092 1.211582,1.11276 l 0.334625,0.213956 -0.169196,2.396113 c -0.09307,1.317851 -0.211408,3.014691 -0.262991,3.770741 -0.05159,0.75606 -0.107153,1.3739 -0.123499,1.37298 -0.03301,-0.002 -2.218393,-2.87427 -3.251115,-4.27319 -3.871987,-5.244984 -6.254295,-9.194438 -6.429794,-10.659452 l -0.03147,-0.26275 -0.349529,0.03569 c -2.274478,0.232268 -4.9191,1.051285 -6.970527,2.15869 -0.829508,0.447788 -2.128281,1.300872 -2.860274,1.878753 -0.750359,0.59237 -2.312027,2.13666 -2.908424,2.876052 -2.325326,2.882857 -3.745784,6.324687 -4.106355,9.949803 -0.174033,1.74969 -0.08586,3.62935 0.236019,5.03177 0.251723,1.09672 0.827917,2.39197 1.407406,3.16374 0.738371,0.98337 1.66384,1.71926 2.934829,2.33362 2.169545,1.04873 4.743166,1.49673 9.454789,1.64591 1.857793,0.0589 27.747057,0.0567 29.664076,-0.002 z M 22.93417,108.59302 c -0.293446,-0.0869 -0.693935,-0.4761 -0.768958,-0.74722 -0.03844,-0.13899 -0.05789,-1.10818 -0.05774,-2.88022 l 2.05e-4,-2.67073 0.127996,-0.27181 c 0.155061,-0.32925 0.455855,-0.56159 0.829681,-0.64085 0.355895,-0.0755 8.240963,-0.0753 8.575525,2e-4 0.326094,0.0736 0.614705,0.28264 0.784632,0.56841 l 0.14232,0.2393 v 2.80166 2.80166 l -0.119052,0.22023 c -0.133778,0.24748 -0.403365,0.48132 -0.66164,0.57393 -0.253787,0.091 -8.546926,0.0961 -8.852974,0.006 z m 7.724526,-1.87422 c 0.403066,-0.0507 0.558453,-0.20471 0.558453,-0.55337 0,-0.31752 -0.101675,-0.53483 -0.35672,-0.76236 -0.216658,-0.19328 -0.549707,-0.31502 -0.583952,-0.21345 -0.0478,0.1417 -0.422099,0.70403 -0.466036,0.70011 -0.07284,-0.006 -0.09449,-0.2726 -0.02752,-0.33877 0.100039,-0.0989 0.06223,-0.14025 -0.128283,-0.14025 -0.204248,0 -0.212868,0.0105 -0.125109,0.14922 0.04076,0.0645 0.0442,0.14307 0.01075,0.24234 -0.04941,0.14656 -0.05017,0.14597 -0.311113,-0.24016 -0.14387,-0.21288 -0.266181,-0.39518 -0.271798,-0.40513 -0.03369,-0.0596 -0.372635,0.0797 -0.53324,0.21903 -0.372108,0.32301 -0.501702,0.88972 -0.265524,1.16117 0.09693,0.11144 0.189404,0.14623 0.489949,0.18448 0.43541,0.0554 1.559868,0.0539 2.01019,-0.002 z m -4.45523,-0.0946 c 0.123078,-0.13445 0.111137,-0.39067 -0.02385,-0.51143 -0.102644,-0.0918 -0.205523,-0.0998 -1.296244,-0.0998 -1.142152,0 -1.188848,0.004 -1.298777,0.11273 -0.138548,0.13697 -0.147189,0.35199 -0.01972,0.49122 0.08859,0.0967 0.168454,0.10303 1.322609,0.10303 1.122721,0 1.235879,-0.008 1.315997,-0.0958 z m 3.668677,-1.41906 c 0.163452,-0.0693 0.420507,-0.39874 0.49003,-0.62815 0.203084,-0.67016 -0.08088,-1.2364 -0.65195,-1.30004 -0.319288,-0.0355 -0.581322,0.1 -0.752998,0.38964 -0.119778,0.20206 -0.134177,0.2743 -0.111172,0.55766 0.0287,0.35402 0.166495,0.67168 0.374438,0.86353 0.145135,0.1339 0.473128,0.19297 0.651652,0.11736 z m -0.565308,-0.19803 c -0.09378,-0.078 -0.214269,-0.23709 -0.267746,-0.35348 -0.100588,-0.21895 -0.134857,-0.52742 -0.05305,-0.47742 0.02557,0.0156 0.0607,-0.036 0.07802,-0.11471 0.05524,-0.2511 0.09947,-0.28271 0.299247,-0.21385 0.137527,0.0474 0.250204,0.0468 0.49203,-0.002 0.172502,-0.0353 0.327875,-0.05 0.345262,-0.0328 0.01737,0.0172 0.03273,0.12459 0.03415,0.23867 0.0014,0.11413 0.02041,0.20751 0.04225,0.20759 0.07581,4.2e-4 0.03913,0.23017 -0.07344,0.46007 -0.204948,0.41854 -0.591047,0.54278 -0.896697,0.28851 z m -3.131633,-0.48861 c 0.146241,-0.13469 0.150984,-0.38224 0.0099,-0.52163 -0.09963,-0.0985 -0.176565,-0.10479 -1.29185,-0.10479 -1.073588,0 -1.197337,0.009 -1.306545,0.0966 -0.08158,0.0653 -0.12063,0.15271 -0.12063,0.26999 0,0.11729 0.03904,0.20468 0.12063,0.27 0.109139,0.0874 0.232672,0.0966 1.296561,0.0966 1.11019,0 1.182402,-0.006 1.291841,-0.10677 z M 43.108476,86.946749 c 0.741378,-0.09996 1.029621,-0.152834 1.538975,-0.282354 3.202213,-0.814256 6.066309,-3.113543 8.268049,-6.637561 0.522957,-0.83703 1.383971,-2.538465 1.743008,-3.444325 0.954924,-2.409311 1.507501,-4.732397 1.824844,-7.671823 0.202258,-1.873444 0.224719,-2.260097 0.193172,-3.325333 -0.116405,-3.930945 -1.631813,-7.542556 -4.325134,-10.307971 -2.241503,-2.301502 -5.056074,-3.750538 -8.217691,-4.230753 -1.007936,-0.153093 -2.870697,-0.166114 -3.832537,-0.02681 -3.724457,0.53951 -6.964025,2.375119 -9.303052,5.271324 -2.230199,2.761457 -3.439791,6.210277 -3.434205,9.79168 9.07e-4,0.770789 0.01401,0.94213 0.209259,2.801654 0.385084,3.667499 1.170223,6.500827 2.597524,9.373769 1.079109,2.17207 2.212013,3.744126 3.792734,5.262921 1.896212,1.821947 3.914823,2.893036 6.280173,3.332309 0.419375,0.07788 2.292646,0.143436 2.664876,0.09325 z m -2.72305,-2.322976 C 38.478844,84.2306 36.742248,83.284865 35.152669,81.774063 32.433618,79.189754 30.534961,75.312255 29.764281,70.769728 29.549614,69.504416 29.267032,66.65364 29.357102,66.66187 c 0.02658,0.0022 0.622748,0.671496 1.852841,2.079328 0.08969,0.102645 0.115541,0.114933 0.09111,0.0433 -0.01872,-0.055 -0.06056,-0.275872 -0.09289,-0.490833 -0.189147,-1.25728 0.602191,-3.71087 2.052786,-6.364782 0.45274,-0.828293 0.975406,-1.7112 1.013001,-1.7112 0.01352,0 0.254897,0.143502 0.536395,0.318897 1.324086,0.824992 2.865147,1.375024 4.616837,1.64783 0.844102,0.131461 3.040502,0.160615 4.061586,0.05391 2.353925,-0.245989 4.893918,-0.893622 6.993613,-1.7832 l 0.646982,-0.274107 0.226991,0.126667 c 0.655695,0.365893 1.141854,1.170945 1.420437,2.352163 0.337464,1.430887 0.35987,4.043949 0.05486,6.397177 -0.05116,0.39474 -0.08942,0.722983 -0.08502,0.72942 0.0046,0.0064 0.100144,-0.05018 0.212739,-0.125829 0.488985,-0.328506 1.667392,-0.821969 1.755313,-0.735049 0.04475,0.0442 -0.113345,1.292721 -0.276587,2.184543 -0.560905,3.06425 -1.626544,5.779766 -3.175019,8.090765 -0.624765,0.932418 -1.059237,1.467231 -1.82342,2.244526 -1.789748,1.820464 -3.771162,2.900552 -5.968812,3.253673 -0.707614,0.113695 -2.365084,0.07324 -3.085438,-0.07531 z"
       id="path49666-3" />
    <path
       style="fill:#ffffff;stroke-width:0.0531209;fill-opacity:1"
       d="m 143.49132,112.37529 c -7.42056,-0.22501 -11.01535,-1.54534 -12.89547,-4.73642 -1.65956,-2.81676 -1.68109,-7.918486 -0.0513,-12.141616 0.75374,-1.953 1.70091,-3.56781 3.10201,-5.28853 0.56362,-0.69219 2.16845,-2.24701 2.92236,-2.83128 2.59336,-2.00981 5.67501,-3.35559 8.87892,-3.87747 0.42167,-0.0687 0.93036,-0.14132 1.1304,-0.16142 l 0.36374,-0.0365 v 0.15483 c 0,0.0851 0.0466,0.3318 0.10349,0.5481 0.45316,1.7219 2.6463,5.51435 6.06666,10.49072 1.22224,1.77825 2.95506,4.21407 2.98036,4.18949 0.0236,-0.0229 0.54582,-7.19094 0.54765,-7.51668 0.001,-0.2304 -0.006,-0.24083 -0.28575,-0.40338 -0.38961,-0.22647 -1.01478,-0.79788 -1.2988,-1.18711 -0.45239,-0.61998 -0.78512,-1.44595 -0.78512,-1.949 v -0.21712 l 0.36374,0.12972 c 2.57644,0.91884 4.64425,0.93946 7.17943,0.0716 l 0.59362,-0.20321 -9.1e-4,0.19082 c -0.003,0.5334 -0.37757,1.45559 -0.82692,2.03173 -0.31718,0.40667 -0.79396,0.83709 -1.23259,1.11276 l -0.34042,0.21395 0.17212,2.39611 c 0.0947,1.31786 0.21508,3.0147 0.26756,3.77075 0.0525,0.75606 0.10901,1.3739 0.12563,1.37298 0.0336,-0.002 2.25685,-2.87427 3.30747,-4.27319 3.9391,-5.24499 6.36269,-9.19444 6.54123,-10.65946 l 0.032,-0.26275 0.35558,0.0357 c 2.3139,0.23227 5.00436,1.05129 7.09134,2.15869 0.84389,0.44779 2.16517,1.30088 2.90985,1.87876 0.76336,0.59237 2.3521,2.13666 2.95883,2.87605 2.36563,2.88286 3.8107,6.32469 4.17752,9.949796 0.17705,1.74969 0.0874,3.62935 -0.24011,5.03177 -0.25608,1.09672 -0.84226,2.39197 -1.43179,3.16374 -0.75117,0.98337 -1.69268,1.71926 -2.9857,2.33362 -2.20715,1.04873 -4.82537,1.49673 -9.61865,1.64591 -1.88999,0.0589 -28.22795,0.0567 -30.1782,-0.002 z m 34.72495,-5.08892 c 0.29853,-0.0869 0.70596,-0.4761 0.78229,-0.74722 0.0391,-0.13899 0.0589,-1.10818 0.0587,-2.88022 l -2.1e-4,-2.67073 -0.13021,-0.27181 c -0.15775,-0.32925 -0.46376,-0.56159 -0.84407,-0.64085 -0.36206,-0.0755 -8.38378,-0.0753 -8.72414,2e-4 -0.33175,0.0736 -0.62537,0.28264 -0.79823,0.56841 l -0.14479,0.2393 v 2.80166 2.80166 l 0.12112,0.22023 c 0.13609,0.24748 0.41035,0.48132 0.6731,0.57393 0.25819,0.091 8.69505,0.0961 9.00641,0.006 z m -7.8584,-1.87422 c -0.41005,-0.0507 -0.56813,-0.20471 -0.56813,-0.55337 0,-0.31752 0.10344,-0.53483 0.3629,-0.76236 0.22041,-0.19328 0.55923,-0.31502 0.59407,-0.21345 0.0486,0.1417 0.42942,0.70403 0.47412,0.70011 0.0741,-0.006 0.0961,-0.2726 0.028,-0.33877 -0.10178,-0.0989 -0.0633,-0.14025 0.1305,-0.14025 0.20779,0 0.21656,0.0105 0.12728,0.14922 -0.0415,0.0645 -0.045,0.14307 -0.0109,0.24234 0.0503,0.14656 0.051,0.14597 0.31651,-0.24016 0.14636,-0.21288 0.27079,-0.39518 0.2765,-0.40513 0.0343,-0.0596 0.3791,0.0797 0.54249,0.21903 0.37855,0.32301 0.51039,0.88972 0.27012,1.16117 -0.0986,0.11144 -0.19269,0.14623 -0.49844,0.18448 -0.44296,0.0554 -1.5869,0.0539 -2.04503,-0.002 z m 4.53245,-0.0946 c -0.12522,-0.13445 -0.11307,-0.39067 0.0243,-0.51143 0.10442,-0.0918 0.20908,-0.0998 1.31871,-0.0998 1.16194,0 1.20945,0.004 1.32128,0.11273 0.14095,0.13697 0.14974,0.35199 0.0201,0.49122 -0.0901,0.0967 -0.17137,0.10303 -1.34553,0.10303 -1.14218,0 -1.2573,-0.008 -1.3388,-0.0958 z m -3.73227,-1.41906 c -0.16628,-0.0693 -0.42779,-0.39874 -0.49852,-0.62815 -0.2066,-0.67016 0.0823,-1.2364 0.66325,-1.30004 0.32482,-0.0355 0.5914,0.1 0.76605,0.38964 0.12185,0.20206 0.1365,0.2743 0.1131,0.55766 -0.0292,0.35402 -0.16938,0.67168 -0.38093,0.86353 -0.14765,0.1339 -0.48133,0.19297 -0.66295,0.11736 z m 0.57511,-0.19803 c 0.0954,-0.078 0.21798,-0.23709 0.27239,-0.35348 0.10233,-0.21895 0.13719,-0.52742 0.054,-0.47742 -0.026,0.0156 -0.0617,-0.036 -0.0794,-0.11471 -0.0562,-0.2511 -0.1012,-0.28271 -0.30444,-0.21385 -0.13991,0.0474 -0.25454,0.0468 -0.50055,-0.002 -0.1755,-0.0353 -0.33356,-0.05 -0.35125,-0.0328 -0.0177,0.0172 -0.0333,0.12459 -0.0347,0.23867 -0.001,0.11413 -0.0208,0.20751 -0.043,0.20759 -0.0771,4.2e-4 -0.0398,0.23017 0.0747,0.46007 0.2085,0.41854 0.60129,0.54278 0.91224,0.28851 z m 3.18591,-0.48861 c -0.14878,-0.13469 -0.1536,-0.38224 -0.0101,-0.52163 0.10136,-0.0985 0.17962,-0.10479 1.31424,-0.10479 1.09219,0 1.21809,0.009 1.32919,0.0966 0.083,0.0653 0.12272,0.15271 0.12272,0.26999 0,0.11729 -0.0397,0.20468 -0.12272,0.27 -0.11103,0.0874 -0.23671,0.0966 -1.31903,0.0966 -1.12944,0 -1.2029,-0.006 -1.31424,-0.10677 z M 157.69232,85.640104 c -0.75423,-0.1 -1.04747,-0.15283 -1.56565,-0.28235 -3.25772,-0.81426 -6.17144,-3.11355 -8.41134,-6.63756 -0.53203,-0.83703 -1.40796,-2.53847 -1.77322,-3.44433 -0.97147,-2.409311 -1.53363,-4.732397 -1.85647,-7.671823 -0.20577,-1.873444 -0.22862,-2.260097 -0.19653,-3.325333 0.11843,-3.930945 1.6601,-7.542556 4.4001,-10.307971 2.28035,-2.301502 5.1437,-3.750538 8.36012,-4.230753 1.0254,-0.153093 2.92045,-0.166114 3.89896,-0.02681 3.789,0.53951 7.08472,2.375119 9.46429,5.271324 2.26884,2.761457 3.4994,6.210277 3.49372,9.79168 -9.3e-4,0.770789 -0.0143,0.94213 -0.21289,2.801654 -0.39176,3.667499 -1.1905,6.500827 -2.64254,9.373769 -1.09781,2.172073 -2.25035,3.744123 -3.85846,5.262923 -1.92909,1.82194 -3.98268,2.89303 -6.38903,3.33231 -0.42664,0.0779 -2.33237,0.14343 -2.71105,0.0932 z m 2.77024,-2.32298 c 1.93963,-0.39317 3.70632,-1.3389 5.32345,-2.84971 2.76618,-2.58431 4.69774,-6.461804 5.48178,-11.004331 0.21838,-1.265312 0.50586,-4.116088 0.41423,-4.107858 -0.027,0.0022 -0.63354,0.671496 -1.88495,2.079328 -0.0913,0.102645 -0.11755,0.114933 -0.0927,0.0433 0.019,-0.055 0.0617,-0.275872 0.0945,-0.490833 0.19243,-1.25728 -0.61263,-3.71087 -2.08836,-6.364782 -0.46059,-0.828293 -0.99232,-1.7112 -1.03056,-1.7112 -0.0137,0 -0.25931,0.143502 -0.54569,0.318897 -1.34703,0.824992 -2.9148,1.375024 -4.69685,1.64783 -0.85874,0.131461 -3.09321,0.160615 -4.13198,0.05391 -2.39473,-0.245989 -4.97874,-0.893622 -7.11482,-1.7832 l -0.65821,-0.274107 -0.23092,0.126667 c -0.66706,0.365893 -1.16164,1.170945 -1.44505,2.352163 -0.34332,1.430887 -0.36611,4.043949 -0.0558,6.397177 0.0521,0.39474 0.0909,0.722983 0.0865,0.72942 -0.005,0.0064 -0.10188,-0.05018 -0.21643,-0.125829 -0.49746,-0.328506 -1.69628,-0.821969 -1.78574,-0.735049 -0.0456,0.0442 0.11532,1.292721 0.28139,2.184543 0.57063,3.06425 1.65474,5.779766 3.23004,8.090764 0.6356,0.93242 1.0776,1.46723 1.85503,2.24453 1.82077,1.82046 3.83652,2.90055 6.07226,3.25367 0.71988,0.1137 2.40608,0.0732 3.13891,-0.0753 z"
       id="path49666-3-6" />
  </g>
</svg>
