<?xml version="1.0" encoding="UTF-8" standalone="no"?>
<!-- Created with Inkscape (http://www.inkscape.org/) -->

<svg
   width="200mm"
   height="200mm"
   viewBox="0 0 200 200"
   version="1.1"
   id="svg349"
   sodipodi:docname="10564.svg"
   inkscape:version="1.1.2 (0a00cf5339, 2022-02-04)"
   xmlns:inkscape="http://www.inkscape.org/namespaces/inkscape"
   xmlns:sodipodi="http://sodipodi.sourceforge.net/DTD/sodipodi-0.dtd"
   xmlns:xlink="http://www.w3.org/1999/xlink"
   xmlns="http://www.w3.org/2000/svg"
   xmlns:svg="http://www.w3.org/2000/svg">
  <sodipodi:namedview
     id="namedview351"
     pagecolor="#505050"
     bordercolor="#ffffff"
     borderopacity="1"
     inkscape:pageshadow="0"
     inkscape:pageopacity="0"
     inkscape:pagecheckerboard="1"
     inkscape:document-units="mm"
     showgrid="false"
     width="200mm"
     inkscape:zoom="0.52410024"
     inkscape:cx="414.99695"
     inkscape:cy="519.93871"
     inkscape:window-width="1553"
     inkscape:window-height="749"
     inkscape:window-x="156"
     inkscape:window-y="134"
     inkscape:window-maximized="0"
     inkscape:current-layer="layer1" />
  <defs
     id="defs346">
    <linearGradient
       inkscape:collect="always"
       id="linearGradient853">
      <stop
         style="stop-color:#005d9c;stop-opacity:1;"
         offset="0"
         id="stop849" />
      <stop
         style="stop-color:#002255;stop-opacity:1"
         offset="1"
         id="stop851" />
    </linearGradient>
    <radialGradient
       inkscape:collect="always"
       xlink:href="#linearGradient853"
       id="radialGradient855"
       cx="99.999992"
       cy="100"
       fx="99.999992"
       fy="100"
       r="97.66301"
       gradientUnits="userSpaceOnUse"
       gradientTransform="scale(3.7795276)" />
    <clipPath
       clipPathUnits="userSpaceOnUse"
       id="clipPath1235">
      <path
         id="path1237"
         style="display:none;fill:#ffffff;fill-opacity:1;stroke:#000000;stroke-width:0.0158507;stroke-miterlimit:4;stroke-dasharray:none;stroke-opacity:1"
         d="m 55.884585,59.420792 c -0.0372,-0.0016 -0.07451,-0.0011 -0.111617,0.0026 -0.483251,0.02672 -0.859044,0.52851 -0.758092,1.000974 -0.88841,0.390496 -1.774272,0.786249 -2.665992,1.168918 -0.258281,-0.20493 -0.700204,0.01836 -0.654738,0.354502 0.02474,0.328796 0.495459,0.482196 0.703318,0.220142 0.11389,-0.08554 0.05055,-0.287155 0.212905,-0.308507 0.849921,-0.375092 1.699821,-0.750361 2.549713,-1.125511 0.149934,0.186124 0.367633,0.304062 0.60203,0.343127 0.05312,1.096754 0.105355,2.193476 0.158131,3.29024 -0.487852,0.13132 -0.785508,0.732689 -0.549836,1.189593 0.225264,0.518065 0.996315,0.665998 1.393198,0.26303 0.165452,-0.139509 0.344435,0.04908 0.512112,0.08527 1.253159,0.492024 2.505633,0.984742 3.758943,1.476396 -0.186042,0.137377 -0.394798,0.229891 -0.621665,0.273884 -0.358362,0.108317 -0.718767,0.210616 -1.077973,0.316259 -0.212244,-0.457843 -0.846228,-0.635371 -1.260388,-0.345197 -0.451813,0.274241 -0.491315,0.996283 -0.0677,1.314649 0.30629,0.25967 0.784066,0.250306 1.09709,0.0062 0.443589,0.374517 0.898562,0.73501 1.331185,1.122413 -0.288822,0.532384 -0.07019,1.267203 0.471807,1.542542 0.53472,0.318267 1.348097,0.100364 1.626772,-0.479555 0.140465,-0.255193 0.154832,-0.560083 0.09354,-0.840261 0.408633,-0.255641 0.814308,-0.515035 1.229381,-0.760161 0.16696,0.177038 0.395941,0.284398 0.639236,0.296627 0.240202,1.197229 0.479875,2.394646 0.719336,3.592028 -0.373491,0.180819 -0.473091,0.744736 -0.157612,1.024226 0.328792,0.350303 1.003017,0.167476 1.096055,-0.30851 0.08133,-0.342902 -0.168807,-0.710229 -0.512112,-0.774112 -0.174752,-0.108501 -0.109228,-0.343818 -0.177247,-0.510561 -0.207282,-1.035873 -0.415552,-2.071304 -0.622189,-3.107304 0.433766,-0.201218 0.584793,-0.831215 0.256315,-1.189077 -0.332724,-0.428506 -1.095478,-0.349943 -1.321882,0.148312 -0.08212,0.151945 -0.09179,0.329049 -0.07493,0.497641 -0.409305,0.25725 -0.817451,0.516335 -1.234035,0.761715 -0.383151,-0.561319 -1.259676,-0.67364 -1.765263,-0.216011 -0.108937,0.06195 -0.214294,-0.150064 -0.321945,-0.198951 -0.355666,-0.296185 -0.71098,-0.592603 -1.066604,-0.888836 0.102187,-0.132969 0.02835,-0.398778 0.241845,-0.427879 0.488783,-0.142671 0.977278,-0.285755 1.466064,-0.4284 0.286533,0.352179 0.923518,0.277871 1.09864,-0.147796 0.19952,-0.40032 -0.159975,-0.922126 -0.605134,-0.884698 -0.170098,-0.0016 -0.325948,0.07918 -0.456303,0.182417 -1.341641,-0.526272 -2.68338,-1.05259 -4.025077,-1.578713 0.08893,-0.449027 -0.223639,-0.923918 -0.672825,-1.014926 -0.09062,-0.08126 -0.02817,-0.280668 -0.05788,-0.40876 -0.04699,-0.976601 -0.09432,-1.953446 -0.141078,-2.930054 0.48148,-0.172363 0.701352,-0.827292 0.387574,-1.240753 -0.148807,-0.215578 -0.40464,-0.3483 -0.665077,-0.359148 z m -7.298777,2.580203 c -0.03065,-2.64e-4 -0.06168,0.0016 -0.09302,0.0057 -0.482277,0.02326 -0.828881,0.606054 -0.590142,1.034563 0.114713,0.231481 0.357081,0.38 0.610814,0.406175 0.404744,1.164405 0.807014,2.329601 1.209228,3.494879 -0.214551,0.193349 -0.192389,0.5604 0.04238,0.727604 -0.347853,1.381223 -0.696613,2.761784 -1.044898,4.142899 0.852197,0.557979 1.70425,1.116316 2.556431,1.674317 -0.07833,0.206526 -0.109143,0.425381 -0.109551,0.645438 -0.532902,0.112054 -1.063249,0.236344 -1.598869,0.334865 -0.177604,-0.439751 -0.786802,-0.617117 -1.163754,-0.32453 -0.414837,0.269533 -0.397732,0.962064 0.03411,1.20768 0.146931,0.09929 0.326001,0.125801 0.499708,0.126605 0.391078,1.041456 0.781013,2.083711 1.171504,3.125391 -0.355113,0.230264 -0.385744,0.807985 -0.03721,1.057302 0.368025,0.31547 1.032066,0.07588 1.083138,-0.416513 -0.03082,-0.172868 0.08179,-0.224097 0.235644,-0.24598 0.501245,-0.146556 1.002463,-0.293481 1.503785,-0.439767 0.219112,0.406241 0.825064,0.517356 1.163236,0.198954 0.38074,-0.305491 0.287234,-0.978734 -0.156581,-1.17719 -0.418391,-0.225549 -1.009986,0.05067 -1.074351,0.530201 -0.06748,0.198824 -0.31338,0.155305 -0.469738,0.232027 -0.445609,0.131312 -0.891673,0.259897 -1.337903,0.389125 -0.1573,-0.170434 -0.386077,-0.252492 -0.615469,-0.241848 -0.388474,-1.03615 -0.776213,-2.072544 -1.164269,-3.108854 0.202707,-0.135033 0.344773,-0.349221 0.376721,-0.592211 0.539978,-0.107329 1.08004,-0.214329 1.620057,-0.321427 0.234535,0.740262 1.116447,1.178674 1.848467,0.923975 0.686316,-0.19604 1.150625,-0.965361 0.980818,-1.663464 -0.05429,-0.259302 -0.222012,-0.551606 -0.440282,-0.740008 -0.525169,-0.500586 -1.41681,-0.506299 -1.956473,-0.02635 -0.08895,0.04216 -0.150333,0.229915 -0.243395,0.179318 -0.743051,-0.499007 -1.486165,-0.997706 -2.229321,-1.496547 0.32884,-1.305575 0.658281,-2.611217 0.988055,-3.916561 0.350869,0.543164 0.701712,1.086427 1.052131,1.629876 -0.423315,0.389178 -0.418174,1.137253 0.02946,1.504821 0.305223,0.280754 0.772631,0.335885 1.1498,0.177762 1.355055,1.534729 2.710447,3.069479 4.065902,4.603856 -0.71106,0.736651 -0.826161,1.977144 -0.231508,2.816881 0.08681,0.138425 -0.01797,0.285518 -0.144698,0.34675 -0.577492,0.51765 -1.151821,1.038498 -1.733227,1.551326 -0.2603,-0.06261 -0.529511,0.198186 -0.452168,0.460436 -0.696044,1.196166 -1.391348,2.392357 -2.086694,3.58893 -0.08933,-0.467132 -0.177954,-0.934312 -0.267168,-1.401466 0.367146,-0.202015 0.428267,-0.779097 0.08785,-1.03456 -0.343847,-0.313153 -0.981641,-0.107337 -1.059365,0.3576 -0.07171,0.344665 0.188288,0.70353 0.533818,0.757579 0.08627,0.442565 0.168698,0.885825 0.251145,1.329113 -0.369689,0.179647 -0.469847,0.738544 -0.150378,1.011825 0.323773,0.334459 0.980522,0.154104 1.064537,-0.311605 0.04524,-0.179541 -0.0062,-0.369435 -0.109556,-0.519348 0.700032,-1.204347 1.400353,-2.408211 2.100131,-3.612703 0.270959,0.55037 0.549065,1.096851 0.807701,1.65313 -0.360466,0.274838 -0.366459,0.888904 0.01188,1.149284 0.401598,0.334666 1.106048,0.08646 1.190106,-0.435634 0.093,-0.440047 -0.294666,-0.891202 -0.744656,-0.865063 -0.146516,0.0094 -0.143325,-0.212752 -0.223758,-0.305406 -0.223153,-0.460084 -0.467839,-0.918128 -0.671278,-1.389063 -0.05049,-0.26476 0.249746,-0.381571 0.393775,-0.546222 0.512183,-0.459647 1.024003,-0.919249 1.53634,-1.378725 0.611772,0.568534 1.520216,0.780727 2.321306,0.546219 0.104904,0.03456 0.112315,0.252452 0.1788,0.359154 0.333923,0.865015 0.668139,1.730144 1.002006,2.595186 -0.450551,-0.306398 -0.90125,-0.61328 -1.351338,-0.920355 0.209997,-0.404059 0.02188,-0.947645 -0.394809,-1.131197 -0.49989,-0.256344 -1.190244,0.12261 -1.208196,0.692981 -0.02913,0.345598 0.193387,0.678793 0.505397,0.818038 -0.03736,1.035913 -0.07618,2.072743 -0.112655,3.108338 0.08373,0.09402 0.190532,0.193519 0.330211,0.140042 0.110482,-0.03899 0.21001,-0.142245 0.173117,-0.264068 0.04501,-0.980127 0.06891,-1.962745 0.115239,-2.943487 0.170611,0.0013 0.328684,-0.20884 0.494025,-0.0708 0.414827,0.28803 0.842325,0.557665 1.244886,0.862996 -0.186159,0.407538 0.106386,0.937157 0.553971,0.982885 0.48065,0.100113 0.962962,-0.41248 0.801502,-0.885735 -0.08908,-0.31256 -0.407588,-0.523166 -0.72812,-0.513662 -0.387432,-1.002623 -0.774827,-2.005237 -1.161687,-3.008085 0.533823,-0.288798 0.95319,-0.779936 1.139465,-1.359088 0.598352,0.08368 1.196848,0.167765 1.79524,0.251145 0.07968,0.553993 0.724003,0.923177 1.241266,0.712618 0.488286,-0.156157 0.755537,-0.786257 0.504881,-1.238683 -0.03555,-0.220928 0.219818,-0.306806 0.331245,-0.455269 0.238842,-0.225248 0.477189,-0.450895 0.716235,-0.675928 0.234728,0.18869 0.488487,0.346908 0.710552,0.558106 -0.20972,0.473361 0.130058,1.080276 0.645954,1.139466 0.253634,0.04837 0.510709,-0.04257 0.713136,-0.193787 0.492464,0.374629 0.992773,0.736984 1.476912,1.122411 -0.187944,0.404227 0.103064,0.931703 0.54777,0.977201 0.476062,0.09794 0.950947,-0.40863 0.792718,-0.877464 -0.117353,-0.415205 -0.644096,-0.631264 -1.020612,-0.421164 -0.199554,0.05726 -0.306123,-0.166399 -0.462502,-0.243914 -0.375441,-0.281855 -0.75116,-0.562097 -1.120862,-0.851628 0.205864,-0.46597 -0.119206,-1.063241 -0.624769,-1.134816 -0.273738,-0.06009 -0.555119,0.04249 -0.76636,0.216527 -0.206947,-0.155302 -0.413285,-0.310671 -0.620117,-0.466122 0.857467,-0.803465 1.71527,-1.606941 2.572451,-2.410706 0.200168,-0.01942 0.319611,0.161978 0.371554,0.330214 0.310219,0.577297 0.604044,1.164415 0.907439,1.74563 -0.307697,0.303792 -0.196776,0.889101 0.210323,1.044898 0.414631,0.205547 0.975749,-0.147203 0.937926,-0.618567 -0.015,-0.357782 -0.357285,-0.652676 -0.713134,-0.624252 -0.366048,-0.641673 -0.68286,-1.309984 -1.029912,-1.962155 0.319525,-0.248026 0.29354,-0.804088 -0.06666,-1.000454 -0.378446,-0.259876 -0.977355,0.04862 -0.957564,0.515729 -0.03082,0.105413 0.09614,0.231177 0.02273,0.309544 -0.861155,0.807397 -1.722313,1.614535 -2.58382,2.421557 -0.520965,-0.391952 -1.044684,-0.779315 -1.557528,-1.181841 0.252571,-0.443982 0.0204,-1.071653 -0.466122,-1.232998 -0.530765,-0.2265 -1.211763,0.199527 -1.207162,0.785481 -0.0062,0.133975 0.03281,0.263668 0.07183,0.390155 -0.59109,0.324713 -1.182254,0.649835 -1.773018,0.975135 -0.409067,-0.515051 -1.041236,-0.833226 -1.694987,-0.877983 -0.493448,-0.0426 -1.049012,0.09117 -1.484146,0.386025 -0.127106,0.155707 -0.204798,-0.0434 -0.298175,-0.130741 -1.284057,-1.454015 -2.567929,-2.90797 -3.85196,-4.362009 0.356915,-0.382516 0.353666,-1.033502 -0.0181,-1.404048 -0.303802,-0.318344 -0.80291,-0.404717 -1.204576,-0.234095 -0.358513,-0.556012 -0.72171,-1.108671 -1.071251,-1.670183 0.140208,-0.287118 -0.0874,-0.643165 -0.399975,-0.661974 -0.418137,-1.204735 -0.834994,-2.410039 -1.253154,-3.614767 1.198358,0.662374 2.395683,1.32624 3.594094,1.988508 -0.200932,0.636447 0.191752,1.380702 0.831475,1.570964 0.234979,0.08364 0.49105,0.08338 0.733806,0.03669 0.714314,1.321808 1.429461,2.643229 2.144572,3.964614 -0.124032,0.115393 -0.313412,0.285393 -0.480073,0.140044 -0.229722,-0.158157 -0.480426,-0.288293 -0.718304,-0.435634 0.12892,-0.259987 -0.01958,-0.601125 -0.303859,-0.670758 -0.349969,-0.11166 -0.715967,0.297767 -0.545703,0.628901 0.09409,0.216704 0.360903,0.320376 0.581877,0.250113 0.320419,0.189572 0.640758,0.37941 0.961181,0.568958 -0.478882,0.65795 -0.405095,1.650285 0.180867,2.21847 0.646192,0.688226 1.844183,0.718542 2.526464,0.06563 0.588034,-0.525066 0.743728,-1.464887 0.334346,-2.143022 -0.386977,-0.667909 -1.227865,-1.029679 -1.978173,-0.841293 -0.117475,0.07138 -0.23227,0.03127 -0.268203,-0.124539 -0.682154,-1.260557 -1.364091,-2.521207 -2.046388,-3.781682 0.518221,-0.31922 0.751178,-1.028851 0.492477,-1.584917 -0.290867,-0.69432 -1.23562,-0.980417 -1.868104,-0.578776 -0.137599,0.07631 -0.247417,0.190095 -0.357601,0.300241 -1.115149,-0.61695 -2.230292,-1.234252 -3.345531,-1.851049 0.133567,-0.454848 -0.235241,-0.9275 -0.695048,-0.932244 z M 63.26088,75.103551 c 0.02318,0.01749 0.04656,0.03471 0.06976,0.0522 0.495303,0.372983 0.991005,0.745678 1.486215,1.118791 -0.351763,0.332131 -0.703974,0.664202 -1.055748,0.996325 -0.438026,-0.323535 -1.142871,-0.177575 -1.381829,0.321424 -0.04845,0.160885 -0.245473,0.02434 -0.367419,0.03824 -0.476605,-0.06665 -0.953267,-0.133461 -1.429888,-0.199988 0.03234,-0.447569 -0.0546,-0.899538 -0.257865,-1.300178 0.603927,-0.332542 1.208024,-0.663977 1.811776,-0.996839 0.330174,0.241485 0.806898,0.224544 1.124996,-0.02997 z m -6.748425,19.098577 c -0.19521,-0.0016 -0.452692,0.0019 -0.795817,0.0067 -1.183161,0.01675 -1.384731,0.0342 -1.462442,0.12609 -0.130926,0.154787 -0.361664,1.817582 -0.373102,2.689241 -0.0093,0.707673 -0.0082,0.712941 0.128672,0.761196 0.223327,0.07867 2.796297,0.03557 2.867007,-0.04806 0.09744,-0.115237 0.21205,-0.720355 0.358121,-1.890324 0.135964,-1.089207 0.136311,-1.08948 -0.0047,-1.373555 -0.105725,-0.213058 -0.132157,-0.266186 -0.717786,-0.271304 z m 20.190499,0.978752 c -0.216447,0 -0.514866,0.0024 -0.843359,0.0072 -1.194525,0.01754 -1.194406,0.01757 -1.264007,0.278019 -0.06219,0.232672 -0.872649,3.474053 -0.940509,3.761528 -0.04725,0.200179 -0.258884,0.30648 -1.185458,0.596344 -0.495509,0.155015 -0.967798,0.313549 -1.049549,0.351909 -0.160065,0.0751 -0.160359,0.0762 -0.261996,1.01958 -0.03086,0.28648 -0.07237,0.63052 -0.09199,0.76481 -0.03864,0.26435 -0.07877,0.25829 1.687753,0.2744 0.502095,0.005 0.505182,0.0154 0.332796,1.20716 -0.100304,0.69337 -0.284139,2.05322 -0.558623,4.13412 -0.0614,0.46552 -0.161742,1.2115 -0.223242,1.65726 -0.154205,1.11759 -0.124706,3.08435 0.0553,3.67316 0.122748,0.40153 0.419618,1.01999 0.525031,1.09399 0.03407,0.0239 0.173617,0.1634 0.31006,0.31006 0.242879,0.26106 0.508016,0.39249 1.052131,0.5209 0.133612,0.0316 0.878687,0.0551 1.655199,0.0543 1.41182,-0.003 1.411584,-0.002 1.501714,-0.49816 0.120209,-0.66103 0.208447,-1.50564 0.171567,-1.64279 -0.01939,-0.0721 -0.129998,-0.13377 -0.317294,-0.17777 -0.158041,-0.0371 -0.436118,-0.12632 -0.618051,-0.19792 -0.181927,-0.0716 -0.472567,-0.17948 -0.645956,-0.23978 -0.364342,-0.12675 -0.738658,-0.47358 -0.849559,-0.78703 -0.116829,-0.33023 -0.09103,-0.90173 0.115237,-2.5616 0.183401,-1.4759 0.2359,-1.88084 0.472842,-3.64578 0.208754,-1.55504 0.398264,-2.76741 0.441833,-2.82411 0.0241,-0.0314 0.744861,-0.0754 1.601452,-0.0977 1.557435,-0.0406 1.557247,-0.0408 1.627806,-0.39894 0.08839,-0.44864 0.240814,-1.77062 0.240814,-2.088761 0,-0.215278 -0.01672,-0.24289 -0.172083,-0.279566 -0.09476,-0.02236 -0.777698,-0.04082 -1.517737,-0.04082 -1.205685,0 -1.349185,-0.01117 -1.380794,-0.108524 -0.01942,-0.05976 0.0075,-0.418463 0.05994,-0.797365 0.07818,-0.564912 0.418613,-3.249401 0.419613,-3.310911 9.3e-5,-0.0048 -0.134437,-0.0072 -0.350882,-0.0072 z m -12.260233,4.018357 c -0.299974,-0.0042 -0.585745,0.0046 -0.840256,0.02791 -1.189979,0.109 -1.855483,0.277103 -2.52181,0.637172 -0.531304,0.286131 -1.01546,0.713021 -1.479497,1.242301 -0.586306,0.73926 -1.225177,2.15202 -1.570966,3.4742 -0.179237,0.68532 -0.431125,2.26925 -0.521412,3.27939 -0.217977,2.43853 -0.04709,4.27199 0.507458,5.44773 0.307316,0.6208 0.866907,1.21776 1.451078,1.44539 1.296059,0.58086 2.4067,0.33382 3.780131,-0.0527 0.448088,-0.14859 1.638025,-0.84132 1.846395,-1.07487 0.233003,-0.26114 0.2902,-0.21001 0.461989,0.41186 0.08655,0.31333 0.179893,0.64005 0.207222,0.72605 0.04968,0.15621 0.04956,0.15618 1.126545,0.11938 0.592339,-0.0203 1.087422,-0.049 1.100193,-0.0641 0.03026,-0.0358 0.323165,-2.14631 0.431499,-3.10886 0.04634,-0.4118 0.148698,-1.24693 0.227377,-1.8557 0.07869,-0.60877 0.189397,-1.48785 0.245978,-1.95337 0.190632,-1.56836 0.549667,-4.48571 0.660945,-5.37124 0.06075,-0.48344 0.110421,-1.03578 0.110585,-1.22732 2.17e-4,-0.30304 -0.02122,-0.37174 -0.164848,-0.5302 -0.365358,-0.40307 -1.361729,-0.901549 -2.460316,-1.230412 -0.673052,-0.201467 -1.698371,-0.330142 -2.59829,-0.342617 z m -19.271689,0.09664 c -1.160677,2.64e-4 -2.212917,0.04495 -2.46652,0.122473 -0.422931,0.12928 -1.13098,0.60458 -1.434018,0.96221 -0.623496,0.73579 -0.962017,1.90846 -1.183391,4.10259 -0.143645,1.4237 -0.02665,2.30878 0.409792,3.10627 0.23305,0.3524 0.261392,0.42094 0.675931,0.66095 0.79053,0.45764 0.858541,0.46733 3.420459,0.48317 2.493637,0.0154 2.448129,0.009 2.667537,0.40411 0.196824,0.35477 0.03844,1.7643 -0.282149,2.51147 -0.247872,0.57775 -0.02635,0.54488 -3.912425,0.58188 -3.418073,0.0326 -3.417967,0.0326 -3.537252,0.87902 -0.212164,1.5055 -0.207232,1.39247 -0.06304,1.45727 0.408096,0.18323 2.183514,0.40074 4.317048,0.52865 0.454819,0.0265 1.484193,0.0431 2.287717,0.0341 1.350926,-0.014 1.488168,-0.0258 1.819526,-0.16071 0.907286,-0.36937 1.458532,-0.93174 1.823146,-1.85932 0.361543,-0.91977 0.57009,-2.3747 0.57309,-4.00441 0.0021,-1.1394 0.0019,-1.1395 -0.195852,-1.62781 -0.271571,-0.67051 -0.575691,-1.11047 -1.196827,-1.38854 -0.497216,-0.2226 -0.479869,-0.27024 -2.933155,-0.30334 -2.453285,-0.0331 -2.453129,-0.0331 -2.682523,-0.20929 -0.154133,-0.11841 -0.241607,-0.23992 -0.265618,-0.36949 -0.04089,-0.21986 0.166627,-1.84271 0.264068,-2.18023 0.0847,-0.2934 0.288356,-0.54043 0.440801,-0.65577 0.211256,-0.15986 0.70476,-0.18464 3.826121,-0.19224 2.523021,-0.006 3.060377,-0.0228 3.099035,-0.0966 0.02572,-0.0492 0.0755,-0.35353 0.110588,-0.67645 0.03508,-0.32291 0.09176,-0.7114 0.126093,-0.86299 0.07716,-0.34074 -0.007,-0.629089 -0.216009,-0.741558 -0.247891,-0.13339 -2.151576,-0.386088 -3.434416,-0.455785 -0.625684,-0.034 -1.36135,-0.0498 -2.057754,-0.04961 z m 9.397357,0.234611 c -0.478343,0.0031 -0.864928,0.01738 -0.886767,0.04599 -0.02347,0.03071 -0.08472,0.392792 -0.135911,0.804602 -0.05121,0.41181 -0.240504,1.84764 -0.420645,3.1905 -0.180134,1.34287 -0.378934,2.83678 -0.441833,3.32021 -0.06291,0.48343 -0.160375,1.216 -0.216522,1.62781 -0.05616,0.41182 -0.155144,1.15902 -0.220144,1.66036 -0.065,0.50133 -0.180327,1.35112 -0.256315,1.88826 -0.07598,0.53715 -0.185714,1.33766 -0.243914,1.77922 -0.05819,0.44156 -0.120248,0.8301 -0.137459,0.863 -0.01752,0.0328 -0.01611,0.0892 0.0026,0.12505 l 5.29e-4,-5.3e-4 c 0.02127,0.0406 0.560694,0.0651 1.435571,0.0651 1.401516,0 1.401487,2.2e-4 1.429885,-0.14624 0.0538,-0.27742 0.296312,-1.90598 0.409794,-2.75074 0.06254,-0.46552 0.226648,-1.69624 0.364837,-2.73472 0.138195,-1.03847 0.310743,-2.32779 0.382921,-2.86494 0.07218,-0.53715 0.185039,-1.38641 0.251148,-1.88774 0.06612,-0.50134 0.202967,-1.51227 0.303858,-2.24637 0.258199,-1.87867 0.330131,-2.595952 0.2682,-2.669091 -0.04092,-0.0483 -1.092565,-0.07489 -1.889805,-0.06976 z m 9.842812,2.472712 c 0.457991,0.005 0.935768,0.0592 1.348235,0.16175 0.344942,0.0858 0.670658,0.17699 0.723987,0.20257 0.205872,0.0988 0.19753,0.22699 -0.209291,3.35277 -0.0769,0.59086 -0.212973,1.64523 -0.302823,2.34352 -0.265827,2.066 -0.317466,2.43598 -0.355018,2.54713 -0.441153,0.69507 -2.078186,1.2634 -2.85047,1.48725 -0.607544,0.0773 -0.800444,0.0765 -1.144117,-0.003 -0.784336,-0.18174 -1.157716,-0.76664 -1.331698,-2.08514 -0.109196,-0.82743 0.257704,-3.85696 0.618046,-5.10356 0.12846,-0.44439 0.498091,-1.36377 0.641305,-1.59526 0.334687,-0.54098 0.944144,-0.97934 1.631942,-1.17409 0.333684,-0.0945 0.771906,-0.13881 1.229902,-0.13384 z" />
    </clipPath>
    <inkscape:path-effect
       effect="powerclip"
       id="path-effect1239"
       is_visible="true"
       lpeversion="1"
       inverse="true"
       flatten="false"
       hide_clip="false"
       message="Utilice la regla de relleno parimpar en el diálogo &lt;b&gt;Relleno y borde&lt;/b&gt; si el resultado no está aplanada después de convertir el recorte en trayectos." />
    <clipPath
       clipPathUnits="userSpaceOnUse"
       id="clipPath3219">
      <path
         id="path3221"
         style="display:none;fill:#ffffff;stroke-width:0.0218262"
         d="m 409.96515,52.552865 a 5.8849064,5.8849064 0 0 0 -5.88491,5.884912 5.8849064,5.8849064 0 0 0 5.88491,5.884913 5.8849064,5.8849064 0 0 0 5.88492,-5.884913 5.8849064,5.8849064 0 0 0 -5.88492,-5.884912 z m -6.08591,13.594519 0.1235,9.766329 c 0.11438,9.06259 0.52457,10.374805 1.27847,12.03234 2.56146,4.576662 6.20361,6.889522 10.79159,7.025928 V 80.559423 66.147384 h -6.09627 z m 14.68747,0 v 14.412039 14.412558 h 6.09676 6.0968 l -0.12351,-9.766329 c -0.11438,-9.06259 -0.52459,-10.374791 -1.27847,-12.03234 -2.56146,-4.576635 -6.2036,-6.889509 -10.79158,-7.025928 z" />
    </clipPath>
    <inkscape:path-effect
       effect="powerclip"
       id="path-effect3223"
       is_visible="true"
       lpeversion="1"
       inverse="true"
       flatten="false"
       hide_clip="false"
       message="Utilice la regla de relleno parimpar en el diálogo &lt;b&gt;Relleno y borde&lt;/b&gt; si el resultado no está aplanada después de convertir el recorte en trayectos." />
    <clipPath
       clipPathUnits="userSpaceOnUse"
       id="clipPath19001">
      <path
         d="m 203.42566,50.026139 h 3.51884 v 12.320508 q 0,2.550017 -1.38926,3.811315 -1.38011,1.261298 -4.18604,1.261298 h -0.71291 v -2.659695 h 0.54839 q 1.09678,0 1.65431,-0.612368 0.56667,-0.61237 0.56667,-1.80055 z"
         style="font-weight:bold;-inkscape-font-specification:'sans-serif Bold';display:none;stroke-width:1"
         id="path19003" />
      <path
         style="font-weight:bold;-inkscape-font-specification:'sans-serif Bold';stroke-width:1"
         class="powerclip"
         id="lpe_path-effect19017"
         d="M 131.75456,21.622195 H 291.46712 V 192.54259 H 131.75456 Z m 71.6711,28.403944 v 12.320508 q 0,1.18818 -0.56667,1.80055 -0.55753,0.612368 -1.65431,0.612368 h -0.54839 v 2.659695 h 0.71291 q 2.80593,0 4.18604,-1.261298 1.38926,-1.261298 1.38926,-3.811315 V 50.026139 Z" />
    </clipPath>
  </defs>
  <g
     inkscape:label="Capa 1"
     inkscape:groupmode="layer"
     id="layer1">
    <path
       id="path66737"
       style="display:inline;fill:url(#radialGradient855);fill-opacity:1;stroke:none;stroke-width:17.6654;stroke-miterlimit:4;stroke-dasharray:none;stroke-opacity:1"
       transform="scale(0.26458333)"
       d="M 377.95312,8.8320312 C 174.09294,8.831452 8.8314685,174.09293 8.8320312,377.95312 8.8322752,475.84987 47.721848,569.73693 116.94548,638.9602 186.16912,708.18347 280.05638,747.07255 377.95312,747.07227 475.84953,747.07203 569.73629,708.18273 638.9595,638.95952 708.18272,569.7363 747.07203,475.84954 747.07227,377.95312 747.07254,280.05637 708.18346,186.16911 638.96019,116.94547 569.73692,47.721836 475.84986,8.8322672 377.95312,8.8320312 Z"
       sodipodi:nodetypes="cssssssc" />
    <path
       style="fill:#ffffff;stroke-width:0.0864704"
       d="m 89.274967,164.78707 c -0.47235,-0.31725 -0.92656,-0.96351 -1.03608,-1.47418 -0.16708,-0.77907 0.17913,-1.62329 0.91198,-2.22382 l 0.41316,-0.33855 29.513093,-0.022 c 29.08892,-0.0217 29.51783,-0.0196 29.84283,0.14623 0.6267,0.31971 1.30505,1.34505 1.30693,1.97544 0.002,0.6126 -0.57767,1.4841 -1.2852,1.9328 l -0.39075,0.24781 H 119.09441 89.637897 Z m 17.690783,-8.46817 c -0.0203,-0.0357 -0.0518,-2.43847 -0.07,-5.33956 l -0.033,-5.2747 h 12.27881 12.27882 l 0.0223,5.33956 0.0223,5.33955 h -5.04765 -5.04762 l -0.042,-1.79426 c -0.0468,-1.99936 -0.0874,-2.17711 -0.63698,-2.78539 -0.87177,-0.96494 -2.13944,-0.986 -2.96196,-0.0492 -0.62531,0.71219 -0.65957,0.8529 -0.69037,2.8346 l -0.0279,1.79427 h -5.00393 c -2.75216,0 -5.02054,-0.0292 -5.04084,-0.0648 z M 92.811287,141.33445 c -0.70385,-0.0654 -1.83455,-0.43427 -2.68059,-0.87457 -1.34699,-0.70102 -2.31084,-1.68798 -3.196,-3.27259 -0.74557,-1.33472 -3.6808,-7.24672 -3.62541,-7.30211 0.055,-0.055 71.683953,-0.0671 71.738883,-0.0121 0.0493,0.0493 -3.35209,6.8337 -3.85748,7.69406 -1.01484,1.72757 -2.57297,2.90588 -4.72443,3.57278 l -0.77824,0.24123 -26.15734,0.003 c -14.38653,0.002 -26.410263,-0.0207 -26.719393,-0.0494 z M 41.786237,125.4247 c -1.30725,-0.10763 -2.99458,-0.5031 -4.23135,-0.99173 -2.88518,-1.1399 -5.42297,-2.99042 -7.23381,-5.27478 -1.86811,-2.35662 -4.195855,-4.54489 -3.55008,-7.65265 l -0.26863,-1.25382 -0.0616,-5.75029 c -0.09181,-8.569968 -0.0295,-42.104925 0.0797,-42.867574 0.15117,-1.055728 0.58667,-2.871414 0.91374,-3.809515 1.868,-5.357886 6.05394,-9.300454 11.58417,-10.910672 1.81095,-0.527288 1.935651,-0.576317 6.98407,-0.581699 l 37.98173,-0.04049 0.044,0.202195 c 0.0738,0.338655 0.21067,1.444827 0.3086,2.493665 0.0511,0.546926 0.16953,1.714278 0.26325,2.594116 0.0937,0.879838 0.3658,3.564748 0.60462,5.966467 0.23882,2.40172 0.66761,6.682012 0.95286,9.51176 0.75816,7.521194 1.30562,12.990448 1.4195,14.181169 0.0509,0.531674 0.0605,0.508908 -0.67595,1.59241 -1.30862,1.925264 -2.14795,4.170411 -2.4404,6.527927 -0.86342,6.960203 3.03871,13.411941 9.69514,16.029801 1.08257,0.42577 3.28865,0.90382 4.88133,1.0578 0.92418,0.0893 3.698063,-0.38327 5.145003,-0.87659 5.32778,-1.81646 9.37645,-6.619356 10.20309,-12.103823 0.1669,-1.107324 0.1672,-3.371086 6.6e-4,-4.476489 -0.40886,-2.712551 -1.69302,-5.476306 -3.5344,-7.606687 l -0.66,-0.763594 0.0218,-17.135809 0.0218,-17.13581 11.06823,-0.02504 c 6.08752,-0.01377 11.24014,-6.86e-4 11.45025,0.02909 l 0.38204,0.05413 -0.42527,0.233575 c -1.59331,0.875114 -4.49586,3.223225 -6.14473,4.970977 -3.30701,3.505302 -5.72826,7.642226 -7.16697,12.245414 -0.74564,2.385655 -1.20009,5.1745 -1.33898,8.216834 -0.046,1.007469 -0.0819,12.923684 -0.0832,27.605719 l -0.002,25.833073 -21.033963,-0.0123 c -11.56867,-0.007 -54.72361,-0.0413 -55.15401,-0.0768 z m 80.569153,0.0314 c -0.0874,-0.0874 -0.0693,-11.33903 0.0182,-11.39316 0.0417,-0.0258 19.17659,-0.0488 42.52189,-0.0511 l 42.44599,-0.004 v 2.74823 c 0,3.08919 -0.048,3.41138 -0.70261,4.71902 -0.85099,1.69985 -2.00755,2.77372 -3.77963,3.50939 -1.37743,0.57183 1.91468,0.52953 -41.21063,0.52953 -21.57959,0 -39.26156,-0.0259 -39.29326,-0.0576 z m -0.0576,-33.905134 c 0,-11.739302 0.0321,-18.626262 0.0908,-19.520723 0.25193,-3.832932 0.91451,-6.687701 2.24745,-9.683225 0.64805,-1.456392 0.68394,-1.527112 1.44846,-2.853528 1.22092,-2.118293 2.44182,-3.696826 4.24708,-5.491193 4.09334,-4.068624 9.13221,-6.591565 14.96734,-7.494078 1.39613,-0.215939 6.08477,-0.218396 7.46285,-0.0039 5.93925,0.924389 10.97232,3.470168 15.18621,7.681344 3.13613,3.134102 5.5155,7.167789 6.70143,11.360776 0.41097,1.45306 0.9142,4.258663 0.9142,5.096918 0,0.117409 -1.89006,0.134172 -17.44544,0.154729 l -17.44543,0.02304 -0.60529,0.203193 c -1.17348,0.393923 -1.92715,0.854537 -2.77597,1.696554 -1.23505,1.225161 -1.79291,2.442989 -1.94151,4.238454 -0.0436,0.527272 -0.0794,8.044686 -0.0802,16.841346 l -0.001,15.888957 h -6.4854 -6.48529 z m 17.31442,1.687651 c 0.0217,-15.540082 0.0314,-16.469081 0.17621,-16.777208 0.22301,-0.474536 0.74526,-1.018443 1.15076,-1.19847 0.33809,-0.150101 1.58013,-0.15751 29.6594,-0.176923 26.55881,-0.01837 29.33549,-0.0074 29.61546,0.116464 0.43696,0.193379 0.91223,0.634096 1.18599,1.099772 l 0.23449,0.398878 v 2.032055 c 0,1.117632 -0.01,8.540046 -0.0216,16.494256 l -0.0216,14.462199 h -31.001 -31.001 z m 23.97855,2.821206 c 0.0569,0.02183 1.51055,0.976754 3.23043,2.122093 l 3.12707,2.082434 h 0.60614 c 0.7521,0 0.83213,-0.0394 2.87102,-1.413921 3.41203,-2.300206 4.20242,-2.823134 4.26704,-2.823134 4.0407,-2.693136 0,0 3.68168,-2.432378 l 0.35902,-0.260758 c 0.19745,-0.143414 1.89603,-1.285074 3.7746,-2.537021 1.87857,-1.251948 3.57618,-2.415112 3.77245,-2.584809 1.02858,-0.889294 0.96373,-2.532397 -0.12851,-3.255867 -0.78055,-0.517012 -1.44102,-0.541148 -2.34338,-0.08564 -0.28464,0.143692 -4.02113,2.595943 -8.30329,5.449452 -4.28217,2.853508 -7.84412,5.188196 -7.91545,5.188196 -0.0713,0 -3.69409,-2.37771 -8.05056,-5.283797 -4.35646,-2.906087 -8.13156,-5.376983 -8.38909,-5.490879 -0.54205,-0.239718 -0.96672,-0.260775 -1.51204,-0.07497 -0.87944,0.299656 -1.37247,0.997697 -1.37247,1.943174 0,0.657829 0.19596,1.118256 0.66867,1.57117 0.17916,0.171658 2.02814,1.445522 4.10883,2.830808 2.0807,1.385289 3.78309,2.544335 3.78309,2.575661 z m -65.245313,5.980937 c -0.0713,-0.0173 -0.42154,-0.0784 -0.77824,-0.13593 -0.91284,-0.14713 -2.32959,-0.62643 -3.16453,-1.07059 -3.10284,-1.650624 -5.25543,-4.79717 -5.66109,-8.275119 -0.12033,-1.031624 -0.0597,-2.761389 0.12717,-3.628806 1.07115,-4.971872 5.48359,-8.511044 10.60081,-8.502786 2.956053,0.0048 5.690653,1.190212 7.774943,3.37041 1.24608,1.303425 1.87666,2.353902 2.4796,4.130752 0.35945,1.059252 0.48872,1.953557 0.4832,3.342732 -0.006,1.422657 -0.12126,2.155729 -0.52337,3.318782 -0.59277,1.71447 -1.28624,2.868107 -2.46712,4.104221 -1.48037,1.549614 -3.03221,2.446404 -5.28284,3.052874 -0.79435,0.21405 -1.15791,0.26196 -2.205003,0.29059 -0.6896,0.0189 -1.31219,0.0201 -1.38353,0.003 z m 3.524703,-8.974761 c 0.61384,-0.377606 0.94178,-0.824617 1.07577,-1.466389 0.13847,-0.663179 -0.0578,-1.319648 -0.53821,-1.800041 -0.63584,-0.635844 -0.66938,-0.64352 -2.943643,-0.67381 l -2.03756,-0.02713 -0.55238,0.37302 c -0.72307,0.488276 -0.94985,0.901409 -0.94985,1.730353 0,0.69826 0.16423,1.081251 0.66281,1.545617 0.71229,0.663407 0.77942,0.677094 3.16453,0.645262 l 1.622353,-0.02163 z M 91.573857,77.673946 c -0.13996,-1.458977 -0.85949,-8.606927 -1.01188,-10.0522 -0.0953,-0.903618 -0.38825,-3.783088 -0.65107,-6.398822 -2.16269,-21.524439 -2.17102,-21.605927 -2.38641,-23.347046 -0.10002,-0.8085 -0.21799,-1.508911 -0.26216,-1.55647 16.245613,-0.05859 15.822643,-0.03681 0,0 -0.108243,-1.140504 -0.787707,-7.31402 -0.959741,-9.404683 -0.007,-2.554572 0.0115,-2.740953 0.40012,-3.977645 0.87501,-2.784845 3.44417,-4.953256 6.34706,-5.35701 0.88746,-0.123436 5.378239,-0.187866 6.160329,-0.06448 1.055035,0.166458 2.358195,0.690592 3.285885,1.321602 0.57028,0.387905 1.42414,1.229156 1.90102,1.872968 0.8808,1.189113 1.35962,2.493598 1.45883,3.974416 0.0732,1.092222 0.0727,52.806666 -6.6e-4,52.879879 -0.0309,0.03095 -0.25404,-0.04395 -0.49579,-0.166455 -0.73416,-0.372026 -2.23219,-0.818387 -3.5553,-1.059357 -2.128065,-0.38757 -3.756965,-0.313199 -6.141775,0.280413 -1.01608,0.252918 -1.64971,0.490116 -2.97006,1.111834 -0.56477,0.265929 -1.03581,0.483508 -1.04677,0.483508 -0.0109,0 -0.0433,-0.243198 -0.0718,-0.540439 z"
       id="path21"
       sodipodi:nodetypes="ssscsccscccscccccccccscsscscccssscsscccccssscsscssccccssccssssscscccsscscssccccccsccssssccccscsscsssscsscccccccssscscsccccccscssccssssssssssssscccsssccsscsssscccscscsssccccccsccccscssccssssscc"
       clip-path="url(#clipPath1235)"
       transform="matrix(0.79855466,0,0,0.79855466,4.7048335,47.114817)"
       inkscape:original-d="m 89.274967,164.78707 c -0.47235,-0.31725 -0.92656,-0.96351 -1.03608,-1.47418 -0.16708,-0.77907 0.17913,-1.62329 0.91198,-2.22382 l 0.41316,-0.33855 29.513093,-0.022 c 29.08892,-0.0217 29.51783,-0.0196 29.84283,0.14623 0.6267,0.31971 1.30505,1.34505 1.30693,1.97544 0.002,0.6126 -0.57767,1.4841 -1.2852,1.9328 l -0.39075,0.24781 H 119.09441 89.637897 Z m 17.690783,-8.46817 c -0.0203,-0.0357 -0.0518,-2.43847 -0.07,-5.33956 l -0.033,-5.2747 h 12.27881 12.27882 l 0.0223,5.33956 0.0223,5.33955 h -5.04765 -5.04762 l -0.042,-1.79426 c -0.0468,-1.99936 -0.0874,-2.17711 -0.63698,-2.78539 -0.87177,-0.96494 -2.13944,-0.986 -2.96196,-0.0492 -0.62531,0.71219 -0.65957,0.8529 -0.69037,2.8346 l -0.0279,1.79427 h -5.00393 c -2.75216,0 -5.02054,-0.0292 -5.04084,-0.0648 z M 92.811287,141.33445 c -0.70385,-0.0654 -1.83455,-0.43427 -2.68059,-0.87457 -1.34699,-0.70102 -2.31084,-1.68798 -3.196,-3.27259 -0.74557,-1.33472 -3.6808,-7.24672 -3.62541,-7.30211 0.055,-0.055 71.683953,-0.0671 71.738883,-0.0121 0.0493,0.0493 -3.35209,6.8337 -3.85748,7.69406 -1.01484,1.72757 -2.57297,2.90588 -4.72443,3.57278 l -0.77824,0.24123 -26.15734,0.003 c -14.38653,0.002 -26.410263,-0.0207 -26.719393,-0.0494 z M 41.786237,125.4247 c -1.30725,-0.10763 -2.99458,-0.5031 -4.23135,-0.99173 -2.88518,-1.1399 -5.42297,-2.99042 -7.23381,-5.27478 -1.86811,-2.35662 -4.195855,-4.54489 -3.55008,-7.65265 l -0.26863,-1.25382 -0.0616,-5.75029 c -0.09181,-8.569968 -0.0295,-42.104925 0.0797,-42.867574 0.15117,-1.055728 0.58667,-2.871414 0.91374,-3.809515 1.868,-5.357886 6.05394,-9.300454 11.58417,-10.910672 1.81095,-0.527288 1.935651,-0.576317 6.98407,-0.581699 l 37.98173,-0.04049 0.044,0.202195 c 0.0738,0.338655 0.21067,1.444827 0.3086,2.493665 0.0511,0.546926 0.16953,1.714278 0.26325,2.594116 0.0937,0.879838 0.3658,3.564748 0.60462,5.966467 0.23882,2.40172 0.66761,6.682012 0.95286,9.51176 0.75816,7.521194 1.30562,12.990448 1.4195,14.181169 0.0509,0.531674 0.0605,0.508908 -0.67595,1.59241 -1.30862,1.925264 -2.14795,4.170411 -2.4404,6.527927 -0.86342,6.960203 3.03871,13.411941 9.69514,16.029801 1.08257,0.42577 3.28865,0.90382 4.88133,1.0578 0.92418,0.0893 3.698063,-0.38327 5.145003,-0.87659 5.32778,-1.81646 9.37645,-6.619356 10.20309,-12.103823 0.1669,-1.107324 0.1672,-3.371086 6.6e-4,-4.476489 -0.40886,-2.712551 -1.69302,-5.476306 -3.5344,-7.606687 l -0.66,-0.763594 0.0218,-17.135809 0.0218,-17.13581 11.06823,-0.02504 c 6.08752,-0.01377 11.24014,-6.86e-4 11.45025,0.02909 l 0.38204,0.05413 -0.42527,0.233575 c -1.59331,0.875114 -4.49586,3.223225 -6.14473,4.970977 -3.30701,3.505302 -5.72826,7.642226 -7.16697,12.245414 -0.74564,2.385655 -1.20009,5.1745 -1.33898,8.216834 -0.046,1.007469 -0.0819,12.923684 -0.0832,27.605719 l -0.002,25.833073 -21.033963,-0.0123 c -11.56867,-0.007 -54.72361,-0.0413 -55.15401,-0.0768 z m 80.569153,0.0314 c -0.0874,-0.0874 -0.0693,-11.33903 0.0182,-11.39316 0.0417,-0.0258 19.17659,-0.0488 42.52189,-0.0511 l 42.44599,-0.004 v 2.74823 c 0,3.08919 -0.048,3.41138 -0.70261,4.71902 -0.85099,1.69985 -2.00755,2.77372 -3.77963,3.50939 -1.37743,0.57183 1.91468,0.52953 -41.21063,0.52953 -21.57959,0 -39.26156,-0.0259 -39.29326,-0.0576 z m -0.0576,-33.905134 c 0,-11.739302 0.0321,-18.626262 0.0908,-19.520723 0.25193,-3.832932 0.91451,-6.687701 2.24745,-9.683225 0.64805,-1.456392 0.68394,-1.527112 1.44846,-2.853528 1.22092,-2.118293 2.44182,-3.696826 4.24708,-5.491193 4.09334,-4.068624 9.13221,-6.591565 14.96734,-7.494078 1.39613,-0.215939 6.08477,-0.218396 7.46285,-0.0039 5.93925,0.924389 10.97232,3.470168 15.18621,7.681344 3.13613,3.134102 5.5155,7.167789 6.70143,11.360776 0.41097,1.45306 0.9142,4.258663 0.9142,5.096918 0,0.117409 -1.89006,0.134172 -17.44544,0.154729 l -17.44543,0.02304 -0.60529,0.203193 c -1.17348,0.393923 -1.92715,0.854537 -2.77597,1.696554 -1.23505,1.225161 -1.79291,2.442989 -1.94151,4.238454 -0.0436,0.527272 -0.0794,8.044686 -0.0802,16.841346 l -0.001,15.888957 h -6.4854 -6.48529 z m 17.31442,1.687651 c 0.0217,-15.540082 0.0314,-16.469081 0.17621,-16.777208 0.22301,-0.474536 0.74526,-1.018443 1.15076,-1.19847 0.33809,-0.150101 1.58013,-0.15751 29.6594,-0.176923 26.55881,-0.01837 29.33549,-0.0074 29.61546,0.116464 0.43696,0.193379 0.91223,0.634096 1.18599,1.099772 l 0.23449,0.398878 v 2.032055 c 0,1.117632 -0.01,8.540046 -0.0216,16.494256 l -0.0216,14.462199 h -31.001 -31.001 z m 23.97855,2.821206 c 0.0569,0.02183 1.51055,0.976754 3.23043,2.122093 l 3.12707,2.082434 h 0.60614 c 0.7521,0 0.83213,-0.0394 2.87102,-1.413921 3.41203,-2.300206 4.20242,-2.823134 4.26704,-2.823134 4.0407,-2.693136 0,0 3.68168,-2.432378 l 0.35902,-0.260758 c 0.19745,-0.143414 1.89603,-1.285074 3.7746,-2.537021 1.87857,-1.251948 3.57618,-2.415112 3.77245,-2.584809 1.02858,-0.889294 0.96373,-2.532397 -0.12851,-3.255867 -0.78055,-0.517012 -1.44102,-0.541148 -2.34338,-0.08564 -0.28464,0.143692 -4.02113,2.595943 -8.30329,5.449452 -4.28217,2.853508 -7.84412,5.188196 -7.91545,5.188196 -0.0713,0 -3.69409,-2.37771 -8.05056,-5.283797 -4.35646,-2.906087 -8.13156,-5.376983 -8.38909,-5.490879 -0.54205,-0.239718 -0.96672,-0.260775 -1.51204,-0.07497 -0.87944,0.299656 -1.37247,0.997697 -1.37247,1.943174 0,0.657829 0.19596,1.118256 0.66867,1.57117 0.17916,0.171658 2.02814,1.445522 4.10883,2.830808 2.0807,1.385289 3.78309,2.544335 3.78309,2.575661 z m -65.245313,5.980937 c -0.0713,-0.0173 -0.42154,-0.0784 -0.77824,-0.13593 -0.91284,-0.14713 -2.32959,-0.62643 -3.16453,-1.07059 -3.10284,-1.650624 -5.25543,-4.79717 -5.66109,-8.275119 -0.12033,-1.031624 -0.0597,-2.761389 0.12717,-3.628806 1.07115,-4.971872 5.48359,-8.511044 10.60081,-8.502786 2.956053,0.0048 5.690653,1.190212 7.774943,3.37041 1.24608,1.303425 1.87666,2.353902 2.4796,4.130752 0.35945,1.059252 0.48872,1.953557 0.4832,3.342732 -0.006,1.422657 -0.12126,2.155729 -0.52337,3.318782 -0.59277,1.71447 -1.28624,2.868107 -2.46712,4.104221 -1.48037,1.549614 -3.03221,2.446404 -5.28284,3.052874 -0.79435,0.21405 -1.15791,0.26196 -2.205003,0.29059 -0.6896,0.0189 -1.31219,0.0201 -1.38353,0.003 z m 3.524703,-8.974761 c 0.61384,-0.377606 0.94178,-0.824617 1.07577,-1.466389 0.13847,-0.663179 -0.0578,-1.319648 -0.53821,-1.800041 -0.63584,-0.635844 -0.66938,-0.64352 -2.943643,-0.67381 l -2.03756,-0.02713 -0.55238,0.37302 c -0.72307,0.488276 -0.94985,0.901409 -0.94985,1.730353 0,0.69826 0.16423,1.081251 0.66281,1.545617 0.71229,0.663407 0.77942,0.677094 3.16453,0.645262 l 1.622353,-0.02163 z M 91.573857,77.673946 c -0.13996,-1.458977 -0.85949,-8.606927 -1.01188,-10.0522 -0.0953,-0.903618 -0.38825,-3.783088 -0.65107,-6.398822 -2.16269,-21.524439 -2.17102,-21.605927 -2.38641,-23.347046 -0.10002,-0.8085 -0.21799,-1.508911 -0.26216,-1.55647 16.245613,-0.05859 15.822643,-0.03681 0,0 -0.108243,-1.140504 -0.787707,-7.31402 -0.959741,-9.404683 -0.007,-2.554572 0.0115,-2.740953 0.40012,-3.977645 0.87501,-2.784845 3.44417,-4.953256 6.34706,-5.35701 0.88746,-0.123436 5.378239,-0.187866 6.160329,-0.06448 1.055035,0.166458 2.358195,0.690592 3.285885,1.321602 0.57028,0.387905 1.42414,1.229156 1.90102,1.872968 0.8808,1.189113 1.35962,2.493598 1.45883,3.974416 0.0732,1.092222 0.0727,52.806666 -6.6e-4,52.879879 -0.0309,0.03095 -0.25404,-0.04395 -0.49579,-0.166455 -0.73416,-0.372026 -2.23219,-0.818387 -3.5553,-1.059357 -2.128065,-0.38757 -3.756965,-0.313199 -6.141775,0.280413 -1.01608,0.252918 -1.64971,0.490116 -2.97006,1.111834 -0.56477,0.265929 -1.03581,0.483508 -1.04677,0.483508 -0.0109,0 -0.0433,-0.243198 -0.0718,-0.540439 z"
       inkscape:path-effect="#path-effect1239" />
    <path
       style="fill:#ffffff;stroke-width:0.264583"
       d="m 381.02861,138.77937 c -4.89862,-1.10279 -11.1125,-6.60087 -11.1125,-9.83241 0,-0.29202 2.50185,-0.35462 14.17304,-0.35462 h 14.17304 l -0.18014,0.59532 c -1.97768,6.53579 -10.16715,11.14197 -17.05344,9.59171 z m -34.49244,-13.64581 c -1.67401,-1.31678 -0.80707,-8.95563 1.21258,-10.68438 1.78737,-1.52992 0.4954,-1.48054 36.76244,-1.40507 38.25168,0.0796 34.88361,-0.13188 36.6018,2.29818 1.12814,1.59555 1.40046,9.18358 0.35583,9.91527 -0.54894,0.3845 -4.06469,0.42437 -37.42069,0.42437 h -36.81482 z m 5.51046,-15.92195 c 0.19787,-0.47294 1.09581,-2.46724 1.99542,-4.43177 3.37928,-7.379542 3.23105,-6.496244 3.44105,-20.505207 0.20401,-13.609413 0.26988,-14.087573 2.62435,-19.050001 2.81416,-5.931302 7.76068,-10.738234 13.47996,-13.099555 l 2.07547,-0.856904 0.15251,-2.353968 c 0.74941,-11.567222 16.32572,-11.409119 16.32572,0.165709 v 2.149559 l 1.32476,0.476375 1.32475,0.476375 -1.12632,1.303904 c -17.23395,19.951249 -7.21987,49.005613 18.17953,52.745183 1.59591,0.23497 2.94467,0.47022 2.99722,0.52278 0.0526,0.0526 0.43839,0.82047 0.85741,1.70648 l 0.76185,1.61094 h -32.38672 -32.38673 z m 35.13617,-64.540764 0.2169,0.264924 c 0,0 -4.35397,-3.508598 -7.57191,0.25084 -4.21047,9.446031 11.99302,11.209544 7.35501,-0.515764 z m 26.38956,58.911524 c -0.21828,-0.0428 -1.28984,-0.2226 -2.38125,-0.39961 -25.30697,-4.104631 -31.82652,-38.351836 -9.91661,-52.092026 23.6699,-14.843923 52.4925,10.713399 40.74837,36.132035 -4.88182,10.566075 -18.38631,18.331421 -28.45051,16.359601 z"
       id="path895"
       sodipodi:nodetypes="ssscsssssssscsssssscsscccsssscccscsccscsss"
       clip-path="url(#clipPath3219)"
       transform="matrix(0.50505268,0,0,0.50505268,-77.996689,1.7520303)"
       inkscape:original-d="m 381.02861,138.77937 c -4.89862,-1.10279 -11.1125,-6.60087 -11.1125,-9.83241 0,-0.29202 2.50185,-0.35462 14.17304,-0.35462 h 14.17304 l -0.18014,0.59532 c -1.97768,6.53579 -10.16715,11.14197 -17.05344,9.59171 z m -34.49244,-13.64581 c -1.67401,-1.31678 -0.80707,-8.95563 1.21258,-10.68438 1.78737,-1.52992 0.4954,-1.48054 36.76244,-1.40507 38.25168,0.0796 34.88361,-0.13188 36.6018,2.29818 1.12814,1.59555 1.40046,9.18358 0.35583,9.91527 -0.54894,0.3845 -4.06469,0.42437 -37.42069,0.42437 h -36.81482 z m 5.51046,-15.92195 c 0.19787,-0.47294 1.09581,-2.46724 1.99542,-4.43177 3.37928,-7.379542 3.23105,-6.496244 3.44105,-20.505207 0.20401,-13.609413 0.26988,-14.087573 2.62435,-19.050001 2.81416,-5.931302 7.76068,-10.738234 13.47996,-13.099555 l 2.07547,-0.856904 0.15251,-2.353968 c 0.74941,-11.567222 16.32572,-11.409119 16.32572,0.165709 v 2.149559 l 1.32476,0.476375 1.32475,0.476375 -1.12632,1.303904 c -17.23395,19.951249 -7.21987,49.005613 18.17953,52.745183 1.59591,0.23497 2.94467,0.47022 2.99722,0.52278 0.0526,0.0526 0.43839,0.82047 0.85741,1.70648 l 0.76185,1.61094 h -32.38672 -32.38673 z m 35.13617,-64.540764 0.2169,0.264924 c 0,0 -4.35397,-3.508598 -7.57191,0.25084 -4.21047,9.446031 11.99302,11.209544 7.35501,-0.515764 z m 26.38956,58.911524 c -0.21828,-0.0428 -1.28984,-0.2226 -2.38125,-0.39961 -25.30697,-4.104631 -31.82652,-38.351836 -9.91661,-52.092026 23.6699,-14.843923 52.4925,10.713399 40.74837,36.132035 -4.88182,10.566075 -18.38631,18.331421 -28.45051,16.359601 z"
       inkscape:path-effect="#path-effect3223" />
    <g
       id="g79903"
       transform="translate(0,10.583334)">
      <g
         id="g79862" />
    </g>
    <g
       id="g110097"
       transform="matrix(0.92683551,0,0,0.92683551,6.2038427,8.4182809)">
      <path
         id="path938-3-5-6-3"
         style="fill:#ffffff;stroke-width:0.549715"
         d="m 289.21094,128.99023 -3.1543,1.47657 c -4.37231,2.04917 -6.65983,3.91766 -8.86914,7.24609 -3.66694,5.52449 -3.67359,1.81792 -3.53125,108.03711 h 19.19922 l -0.0801,-54.91602 H 414.541 536.30662 l -0.01,84.64063 h 18.42578 v -8.78125 -122.31055 l -1.73047,-3.65625 c -2.19838,-4.64004 -5.36387,-7.80748 -10.00391,-10.00586 l -3.65625,-1.73047 H 414.27148 Z m 69.70312,18.89649 c 1.73323,0 3.18753,0.25846 4.36328,0.77539 1.17576,0.50679 2.13862,1.26571 2.88868,2.2793 0.73991,0.99331 1.27684,2.22012 1.61132,3.67968 0.33449,1.44943 0.50196,3.12767 0.50196,5.03321 0,1.90554 -0.17101,3.6128 -0.51563,5.12304 -0.34462,1.50011 -0.8835,2.73241 -1.61328,3.69532 -0.75005,0.98317 -1.71291,1.72758 -2.88867,2.23437 -1.17576,0.49666 -2.62456,0.74414 -4.34766,0.74414 -1.69268,0 -3.136,-0.25297 -4.33203,-0.75976 -1.19603,-0.5068 -2.16438,-1.25669 -2.9043,-2.25 -0.75005,-0.99332 -1.29247,-2.22562 -1.62695,-3.69532 -0.33448,-1.47983 -0.50195,-3.17063 -0.50195,-5.07617 0,-1.96635 0.17296,-3.67557 0.51758,-5.125 0.34461,-1.44943 0.89057,-2.67624 1.64062,-3.67969 0.75005,-0.99331 1.72389,-1.73772 2.91992,-2.23437 1.19603,-0.49666 2.62483,-0.74414 4.28711,-0.74414 z m -65.51367,0.45508 h 16.22266 v 4.3789 h -10.41407 v 4.21094 h 9.6543 v 4.37891 h -9.6543 v 9.66992 h -5.80859 z m 35.6543,0 h 16.09961 v 4.33398 h -10.61133 v 3.69336 c 0.31421,-0.0203 0.70916,-0.0348 1.18555,-0.0449 0.48652,-0.0203 0.91245,-0.0312 1.27734,-0.0312 1.24671,0 2.35704,0.12197 3.33008,0.36523 0.98318,0.23312 1.82955,0.56257 2.53906,0.98828 0.92236,0.55748 1.64127,1.29835 2.1582,2.22071 0.51693,0.91223 0.77539,2.06256 0.77539,3.45117 0,1.17576 -0.22394,2.26962 -0.66992,3.2832 -0.43584,1.00345 -1.07279,1.8663 -1.91406,2.58594 -0.9325,0.77032 -2.00831,1.34177 -3.22461,1.7168 -1.20616,0.36489 -2.58398,0.54687 -4.13477,0.54687 -1.81431,-0.01 -3.35057,-0.15555 -4.60742,-0.43945 -1.24671,-0.27367 -2.26405,-0.58312 -3.05469,-0.92774 v -5.00195 h 0.63868 c 0.92236,0.54734 1.91425,1.0023 2.97851,1.36719 1.06427,0.36489 2.12361,0.54883 3.17774,0.54883 0.63856,0 1.32844,-0.071 2.06836,-0.21289 0.75005,-0.15203 1.34345,-0.42148 1.77929,-0.80664 0.34462,-0.31422 0.60308,-0.63269 0.77539,-0.95704 0.18244,-0.32434 0.27344,-0.82671 0.27344,-1.50586 0,-0.52706 -0.12197,-0.97848 -0.36523,-1.35351 -0.23314,-0.38516 -0.5371,-0.69461 -0.91211,-0.92773 -0.54734,-0.33453 -1.2062,-0.55099 -1.97657,-0.65235 -0.77032,-0.11149 -1.46923,-0.16797 -2.09765,-0.16797 -0.91223,0 -1.78958,0.082 -2.63086,0.24414 -0.83114,0.15203 -1.56103,0.30303 -2.18945,0.45508 h -0.66797 z m 52.80273,0 h 5.94336 v 13.28906 h 3.08789 v 4.13476 h -3.08789 v 5.2754 h -5.58008 v -5.2754 h -10.96093 v -4.2871 z m 144.20508,2.49804 c 0.27569,-0.0182 0.55237,0.002 0.82812,0.002 0.29445,0 0.58785,0.0439 0.87891,0.0898 8.948,1.41404 11.7445,13.30449 4.28906,18.23828 -5.6889,3.76473 -13.5703,0.84613 -15.38867,-5.70117 -0.70207,-2.52588 -0.70269,-2.66353 0.006,-5.2207 1.13785,-4.0972 5.25167,-7.13254 9.38672,-7.40821 z m -68.16406,0.002 c 0.27603,0.009 0.55282,-0.0137 0.82812,0 h 0.002 c 0.29355,0.0147 0.58602,0.0457 0.87695,0.0918 8.9186,1.4181 11.69243,13.03901 4.33203,18.14063 -5.63289,3.90286 -13.5939,1.01156 -15.43164,-5.60547 -0.70207,-2.52588 -0.70262,-2.66351 0.006,-5.2207 1.13826,-4.09872 5.24617,-7.54427 9.38672,-7.40625 z m 34.29687,0.0488 h 0.002 c 1.92076,0 3.85229,0.42874 5.53125,1.57618 3.04007,2.07764 4.3498,4.60645 4.3496,8.40625 0,3.81929 -1.30732,6.32748 -4.40624,8.45117 -5.31481,3.64078 -13.30832,0.53801 -15.08399,-5.85547 -0.70204,-2.52588 -0.7007,-2.66351 0.008,-5.2207 1.22245,-4.40207 5.37391,-7.35743 9.59961,-7.35743 z m -133.28125,1.17579 c -1.24671,0 -2.13858,0.58437 -2.67578,1.75 -0.5372,1.15548 -0.80664,3.11023 -0.80664,5.86718 0,2.686 0.27493,4.6227 0.82227,5.8086 0.54733,1.18589 1.43371,1.77929 2.66015,1.77929 1.22644,0 2.11282,-0.5934 2.66016,-1.77929 0.54734,-1.1859 0.82226,-3.13162 0.82226,-5.83789 0,-2.73668 -0.26943,-4.68241 -0.80664,-5.83789 -0.5372,-1.16563 -1.42907,-1.75 -2.67578,-1.75 z m 23.30664,1.38476 -6.58203,8.17969 h 6.58203 z m -69.78515,5.27539 h 11.60156 v 4.37891 h -11.60156 z m 46.2832,47.34766 c -18.4696,0 -36.94035,0.16504 -38.76563,0.49219 -3.76191,0.67416 -8.58022,3.74133 -9.80273,6.23828 -1.38064,2.8204 -1.38898,13.46464 -0.0117,16.27929 1.13539,2.31907 4.66939,4.81681 8.40039,5.9375 h 0.002 c 86.03809,0.40154 8.16677,0.11272 80.29492,0.01 3.73749,-1.09742 7.31553,-3.61386 8.45898,-5.94922 1.37938,-2.81465 1.3745,-13.45695 -0.006,-16.27734 -1.22254,-2.49696 -6.04477,-5.56412 -9.80664,-6.23828 -1.8251,-0.32708 -20.29409,-0.49219 -38.76367,-0.49219 z m 111.85156,0.0625 c -18.4696,0 -36.94056,0.16307 -38.76562,0.49023 -3.76191,0.67417 -8.5841,3.74132 -9.80664,6.23828 -1.37959,2.82039 -1.3847,13.46269 -0.008,16.27735 1.13547,2.31904 4.66945,4.8188 8.40039,5.93945 h 0.002 c 86.03793,0.4015 8.16887,0.11366 80.29687,0.0117 3.73749,-1.09742 7.31362,-3.61386 8.45703,-5.94922 1.37935,-2.81463 1.37248,-13.45694 -0.008,-16.27734 -1.22251,-2.49694 -6.04473,-5.56412 -9.80664,-6.23828 -1.8251,-0.32708 -20.2941,-0.49024 -38.76367,-0.49024 z m -111.85156,8.10156 c 17.10215,0 34.20488,0.16091 34.73828,0.48438 0.5224,0.31681 0.73242,2.60219 0.73242,7.93359 0,6.48822 -0.33219,5.13297 -0.96679,4.74805 -0.87649,-0.53195 -68.10935,0.25041 -69.21094,-0.0195 -1.07097,-0.26213 -1.10008,-12.01357 -0.0312,-12.66211 0.5334,-0.32354 17.63615,-0.48438 34.73828,-0.48438 z m 111.84961,0.0586 h 0.002 c 17.10211,0 34.20488,0.16284 34.73828,0.48632 0.5223,0.31681 0.73243,2.60415 0.73243,7.93555 0,6.48821 -0.22014,5.05004 -0.9668,4.74805 -1.03139,-0.41734 -68.10932,0.25044 -69.21094,-0.0195 -1.07097,-0.26213 -1.09826,-12.01553 -0.0312,-12.66407 0.53337,-0.32353 17.63419,-0.48633 34.73633,-0.48632 z m -89.89453,29.16015 v 0.002 c -61.41775,-0.007 -62.76501,0.12962 -65.64453,2.29102 h 43.68945 l 3.38672,1.60352 c 2.5329,1.20003 4.57963,2.72189 6.25976,4.64062 h 46.61915 91.42968 l 0.16602,7.55664 c 0.1156,5.26094 -1.29579,10.59961 -0.5332,10.59961 1.09051,0 -78.74979,0.32864 -133.07422,0.33008 v 8.33398 h 32.79687 c 1.01454,-0.67808 2.17213,-1.31737 3.57031,-1.97265 l 2.91993,-1.36719 h 104.42578 c 3.52913,-2.57774 3.74981,-5.79431 3.98437,-14.6543 0.26273,-9.91947 -0.21405,-11.40501 -4.5625,-14.22461 -5.27194,-3.41855 3.99699,-3.13281 -101.125,-3.13281 -13.14024,0 -24.49119,-0.004 -34.30859,-0.006 z m -255.81641,5.63281 -2.91797,1.36914 c -4.04946,1.89785 -6.17063,3.62831 -8.21679,6.71094 -3.66082,5.5153 -3.39841,-4.20479 -3.25196,120.49219 l 0.13086,112.24414 1.60547,3.38477 c 2.54458,5.37073 7.24608,9.26294 12.77539,10.57421 0.87985,0.20843 34.12065,0.34797 81.04688,0.37305 l -0.008,-5.32812 c -0.007,-4.70961 -0.009,-7.91231 -0.0156,-12.31446 h -74.26367 l -1.66211,-1.48437 -1.66211,-1.48633 -0.13086,-88.62891 -0.13281,-88.63086 h 112.77539 112.77539 l -0.004,34.95508 h 11.91797 5.14258 V 263.3457 l -1.60352,-3.38672 c -2.03605,-4.29743 -4.96821,-7.22959 -9.26562,-9.26562 l -3.38672,-1.60352 H 240.67969 Z m 365.18164,7.16016 2.25586,4.00195 2.25586,4 2.33594,-3.95312 2.33789,-3.95313 -4.59375,-0.0469 z m -295.02148,9.83789 c 1.73323,0 3.18752,0.25846 4.36328,0.77539 1.17576,0.50679 2.13862,1.26767 2.88867,2.28125 0.73992,0.99331 1.2788,2.21817 1.61328,3.67774 0.33449,1.44942 0.5,3.12766 0.5,5.0332 0,1.90554 -0.171,3.6128 -0.51562,5.12305 -0.34462,1.5001 -0.88155,2.7324 -1.61133,3.69531 -0.75005,0.98318 -1.71291,1.72758 -2.88867,2.23437 -1.17576,0.49666 -2.62652,0.7461 -4.34961,0.7461 -1.69269,0 -3.136,-0.25493 -4.33203,-0.76172 -1.19603,-0.50679 -2.16438,-1.25669 -2.9043,-2.25 -0.75005,-0.99331 -1.29247,-2.22366 -1.62695,-3.69336 -0.33449,-1.47983 -0.50196,-3.17259 -0.50196,-5.07813 0,-1.96635 0.17296,-3.67557 0.51758,-5.125 0.34462,-1.44942 0.89253,-2.67428 1.64258,-3.67773 0.75005,-0.99331 1.72194,-1.73967 2.91797,-2.23633 1.19603,-0.49666 2.62483,-0.74414 4.28711,-0.74414 z m 22.13672,0 c 1.73323,0 3.18752,0.25846 4.36328,0.77539 1.17576,0.50679 2.13862,1.26767 2.88867,2.28125 0.73992,0.99331 1.2788,2.21817 1.61328,3.67774 0.33448,1.44942 0.5,3.12766 0.5,5.0332 0,1.90554 -0.17101,3.6128 -0.51562,5.12305 -0.34462,1.5001 -0.88155,2.7324 -1.61133,3.69531 -0.75005,0.98318 -1.71292,1.72758 -2.88867,2.23437 -1.17576,0.49666 -2.62652,0.7461 -4.34961,0.7461 -1.69269,0 -3.136,-0.25493 -4.33203,-0.76172 -1.19604,-0.50679 -2.16439,-1.25669 -2.9043,-2.25 -0.75005,-0.99331 -1.29247,-2.22366 -1.62695,-3.69336 -0.33449,-1.47983 -0.50196,-3.17259 -0.50196,-5.07813 0,-1.96635 0.17296,-3.67557 0.51758,-5.125 0.34462,-1.44942 0.89253,-2.67428 1.64258,-3.67773 0.75005,-0.99331 1.72194,-1.73967 2.91797,-2.23633 1.19603,-0.49666 2.62483,-0.74414 4.28711,-0.74414 z m -44.53125,0.0156 c 2.83803,0 5.00221,0.59693 6.49218,1.79296 1.48997,1.1859 2.23438,2.86963 2.23438,5.04883 0,1.42916 -0.35848,2.78697 -1.07813,4.07422 -0.7095,1.28725 -1.79983,2.61408 -3.26953,3.98242 -0.92236,0.85141 -1.8507,1.63764 -2.7832,2.35743 -0.9325,0.7095 -1.59493,1.20643 -1.99023,1.49023 h 10.16992 v 4.33203 H 164.625 v -3.74023 c 1.3582,-0.98318 2.71797,-2.02605 4.07617,-3.13086 1.36834,-1.10481 2.46206,-2.05865 3.28321,-2.85938 1.22643,-1.18589 2.0983,-2.21974 2.61523,-3.10156 0.51693,-0.88182 0.77539,-1.75369 0.77539,-2.61523 0,-1.034 -0.33494,-1.82925 -1.00391,-2.38672 -0.65883,-0.56761 -1.61071,-0.85157 -2.85742,-0.85157 -0.9325,0 -1.91536,0.19296 -2.94922,0.57813 -1.02372,0.38516 -1.97755,0.87659 -2.85937,1.47461 h -0.48633 v -5.03125 c 0.71965,-0.31421 1.77899,-0.62915 3.17773,-0.94336 1.40889,-0.31421 2.81768,-0.4707 4.22657,-0.4707 z m -43.11719,0.43945 h 16.2207 v 4.37891 H 135.3125 v 4.21289 h 9.6543 v 4.37695 h -9.6543 v 9.66992 h -5.80664 z m 152.4043,2.7832 0.002,0.002 c 0.25572,-0.0105 0.51068,-0.0115 0.76562,0 0.27184,0.0142 0.54298,0.0432 0.8125,0.0859 8.26011,1.31338 10.83051,12.07392 4.01368,16.79883 -5.21699,3.61464 -12.59093,0.93507 -14.29297,-5.19336 -0.6502,-2.33937 -0.65048,-2.46365 0.006,-4.83203 1.05416,-3.79606 4.86047,-6.68351 8.69336,-6.86133 z m 63.13086,0 c 0.25571,-0.0105 0.51284,-0.01 0.76757,0.002 0.27184,0.0142 0.54301,0.0412 0.8125,0.084 8.28723,1.30963 10.87763,12.32312 3.97266,16.89258 -5.26883,3.48674 -12.56786,0.78062 -14.25195,-5.28321 -0.65027,-2.33938 -0.6486,-2.46564 0.008,-4.83398 1.05378,-3.79466 4.85745,-6.68099 8.69141,-6.86133 z m -31.36524,0.0469 c 1.77809,-0.0581 3.56998,0.39631 5.125,1.45898 2.81558,1.92423 4.02734,4.26597 4.02734,7.78516 0,3.53725 -1.21198,5.8593 -4.08203,7.82617 -4.92223,3.37191 -12.3242,0.49949 -13.96875,-5.42188 -0.65019,-2.33934 -0.65047,-2.46564 0.006,-4.83398 1.13217,-4.077 4.98102,-6.68715 8.89258,-6.81445 z m -118.6582,0.89648 c -1.24671,0 -2.13858,0.58242 -2.67578,1.74805 -0.5372,1.15548 -0.80469,3.11219 -0.80469,5.86914 0,2.686 0.27298,4.62075 0.82031,5.80664 0.54734,1.18589 1.43372,1.7793 2.66016,1.7793 1.22644,0 2.11477,-0.59341 2.66211,-1.7793 0.54733,-1.18589 0.82031,-3.13162 0.82031,-5.83789 0,-2.73668 -0.26944,-4.68241 -0.80664,-5.83789 -0.5372,-1.16563 -1.42907,-1.74805 -2.67578,-1.74805 z m 22.13672,0 c -1.24671,0 -2.13859,0.58242 -2.67578,1.74805 -0.5372,1.15548 -0.80469,3.11219 -0.80469,5.86914 0,2.686 0.27298,4.62075 0.82031,5.80664 0.54734,1.18589 1.43372,1.7793 2.66016,1.7793 1.22643,0 2.11477,-0.59341 2.66211,-1.7793 0.54733,-1.18589 0.82031,-3.13162 0.82031,-5.83789 0,-2.73668 -0.26944,-4.68241 -0.80664,-5.83789 -0.5372,-1.16563 -1.42907,-1.74805 -2.67578,-1.74805 z m -68.61328,6.6582 h 11.5996 v 4.37891 h -11.5996 z m 261.50586,1.88672 -2.91993,1.36719 c -4.04954,1.89785 -6.1687,3.63022 -8.21484,6.71289 -2.81834,4.24596 -3.30373,0.97629 -3.31445,55.44531 h 17.75976 l -0.01,-6.24804 h 112.77539 112.77343 l -0.0117,88.45898 c -0.0105,83.04588 -0.0667,88.52544 -0.89258,89.54492 -0.48345,0.59712 -1.37861,1.34155 -1.99024,1.6543 -0.78964,0.40372 -30.18476,0.55916 -105.29101,0.56641 v 17.64257 l 110.98633,-0.0742 3.38671,-1.60352 c 4.29742,-2.03601 7.22766,-4.96795 9.26368,-9.26563 l 1.60546,-3.38671 V 406.34961 293.06836 l -1.60546,-3.38477 c -2.03602,-4.29745 -4.96626,-7.22957 -9.26368,-9.26562 l -3.38671,-1.60352 h -115.8279 z m 69.18554,16.17969 c 1.73322,0 3.18751,0.25846 4.36328,0.77539 1.17575,0.50679 2.13852,1.26767 2.88868,2.28125 0.7399,0.99331 1.27879,2.22013 1.61328,3.67969 0.33449,1.44943 0.5,3.12571 0.5,5.03125 0,1.90554 -0.171,3.61476 -0.51563,5.125 -0.34462,1.5001 -0.88156,2.73045 -1.61133,3.69336 -0.75006,0.98317 -1.71292,1.72758 -2.88867,2.23437 -1.17577,0.49666 -2.62653,0.7461 -4.34961,0.7461 -1.69269,0 -3.13599,-0.25298 -4.33203,-0.75977 -1.19602,-0.50679 -2.16437,-1.25669 -2.9043,-2.25 -0.75004,-0.99331 -1.29246,-2.22561 -1.62695,-3.69531 -0.33449,-1.47983 -0.50195,-3.17259 -0.50195,-5.07813 0,-1.96635 0.17295,-3.67362 0.51758,-5.12304 0.34462,-1.44943 0.89058,-2.67624 1.64062,-3.67969 0.75006,-0.99331 1.7239,-1.73772 2.91992,-2.23438 1.19604,-0.49665 2.62482,-0.74609 4.28711,-0.74609 z m 22.13672,0 c 1.73322,0 3.18751,0.25846 4.36328,0.77539 1.17575,0.50679 2.13861,1.26767 2.88867,2.28125 0.73993,0.99331 1.27874,2.22013 1.61329,3.67969 0.33448,1.44943 0.49991,3.12571 0.5,5.03125 0,1.90554 -0.171,3.61476 -0.51563,5.125 -0.3446,1.5001 -0.88154,2.73045 -1.61133,3.69336 -0.75006,0.98317 -1.71292,1.72758 -2.88867,2.23437 -1.17577,0.49666 -2.62653,0.7461 -4.34961,0.7461 -1.6927,0 -3.13601,-0.25298 -4.33203,-0.75977 -1.19604,-0.50679 -2.16439,-1.25669 -2.9043,-2.25 -0.75006,-0.99331 -1.29246,-2.22561 -1.62695,-3.69531 -0.33447,-1.47983 -0.50195,-3.17259 -0.50195,-5.07813 0,-1.96635 0.17297,-3.67362 0.51757,-5.12304 0.34463,-1.44943 0.89057,-2.67624 1.64063,-3.67969 0.75004,-0.99331 1.72388,-1.73772 2.91992,-2.23438 1.19602,-0.49665 2.62482,-0.74609 4.28711,-0.74609 z m -87.64844,0.45703 h 16.22071 v 4.37891 h -10.41407 v 4.21094 h 9.6543 v 4.3789 h -9.6543 v 9.66992 h -5.80664 z m 44.18164,0 h 5.94532 v 13.28711 h 3.08593 v 4.13672 h -3.08593 v 5.27539 h -5.58008 v -5.2754 h -10.96289 v -4.28906 z m 107.34375,3.60156 c 0.25607,-0.004 0.51281,-0.0116 0.76758,0 0.27183,0.014 0.54302,0.0412 0.8125,0.084 8.26015,1.31338 10.83062,12.07587 4.01367,16.80078 -5.21694,3.61464 -12.59096,0.93702 -14.29296,-5.19141 -0.65049,-2.33934 -0.64837,-2.46759 0.008,-4.83593 1.05419,-3.79607 4.85506,-6.79349 8.6914,-6.85743 z m 63.13086,0 h 0.002 c 0.25607,0 0.51025,-0.014 0.76562,0 0.27183,0.014 0.545,0.0393 0.81445,0.082 8.28726,1.30959 10.87572,12.32308 3.97071,16.89257 -5.26873,3.48675 -12.56785,0.78258 -14.25196,-5.28125 -0.65026,-2.33937 -0.64844,-2.46759 0.008,-4.83593 1.05373,-3.79466 4.8532,-6.85745 8.6914,-6.85743 z m -31.36523,0.0449 c 1.77896,0 3.57005,0.39826 5.125,1.46093 2.81554,1.92423 4.02734,4.26595 4.02734,7.78516 0,3.53726 -1.21199,5.85927 -4.08203,7.82617 -4.9222,3.37192 -12.3242,0.49754 -13.96875,-5.42383 -0.65016,-2.33937 -0.64833,-2.46759 0.008,-4.83593 1.13221,-4.07704 4.97701,-6.8125 8.89063,-6.8125 z m -117.7793,0.0781 c -1.24672,0 -2.13858,0.58242 -2.67578,1.74805 -0.5372,1.15548 -0.80469,3.11219 -0.80469,5.86914 0,2.686 0.27298,4.62075 0.82032,5.80664 0.54733,1.1859 1.4337,1.7793 2.66015,1.7793 1.22643,0 2.11478,-0.5934 2.66211,-1.7793 0.54733,-1.18589 0.82031,-3.13162 0.82031,-5.83789 0,-2.73668 -0.26944,-4.68241 -0.80664,-5.83789 -0.53719,-1.16563 -1.42908,-1.74805 -2.67578,-1.74805 z m 22.13672,0 c -1.24672,0 -2.13858,0.58242 -2.67578,1.74805 -0.5372,1.15548 -0.80469,3.11219 -0.80469,5.86914 0,2.686 0.27298,4.62075 0.82031,5.80664 0.54734,1.1859 1.43371,1.7793 2.66016,1.7793 1.22642,0 2.11475,-0.5934 2.66211,-1.7793 0.54733,-1.18589 0.82031,-3.13162 0.82031,-5.83789 0,-2.73668 -0.26944,-4.68241 -0.80664,-5.83789 -0.53722,-1.16563 -1.42908,-1.74805 -2.67578,-1.74805 z m -43.10156,1.38281 -6.58399,8.17969 h 6.58399 z m -25.51172,5.27539 h 11.59961 v 4.37891 h -11.59961 z m -243.52344,14.64649 v 0.002 c -17.10575,0 -34.21204,0.15233 -35.90234,0.45508 -3.48419,0.62434 -7.94979,3.46478 -9.08203,5.77734 -1.2787,2.61214 -1.28417,12.46939 -0.01,15.07618 1.05154,2.14783 4.32582,4.46205 7.78125,5.5 70.53186,0.32928 26.95114,0.16077 61.22656,0.0508 1.75967,-1.63552 3.86978,-2.95727 6.82813,-4.34375 l 3.57812,-1.67774 h 10.75 c 1.08681,-3.14317 1.02215,-12.12752 -0.1914,-14.60547 -1.13232,-2.3126 -5.59798,-5.15492 -9.08203,-5.77929 -1.6902,-0.30301 -18.79215,-0.45508 -35.89649,-0.45508 z m 103.5918,0.0586 c -17.10543,0 -34.21211,0.15236 -35.90234,0.45508 -3.48431,0.62437 -7.94976,3.46478 -9.08204,5.77734 -1.20415,2.46172 -1.27572,11.35045 -0.21289,14.54883 h 90.39453 c 1.06424,-3.1994 0.99091,-12.08742 -0.21484,-14.54883 -1.13227,-2.31256 -5.59599,-5.15297 -9.08008,-5.77734 -1.69034,-0.30301 -18.79691,-0.45508 -35.90234,-0.45508 z m -103.59375,7.5 0.002,0.002 c 15.83934,0 31.67785,0.14969 32.17188,0.44921 0.48348,0.29356 0.68165,2.41192 0.68164,7.34961 0,6.00912 -0.30883,4.75494 -0.89649,4.39844 -0.81178,-0.4927 -63.07935,0.22968 -64.09961,-0.0215 -0.99183,-0.24276 -1.02059,-11.12788 -0.0332,-11.72852 0.49378,-0.29951 16.33463,-0.44922 32.17383,-0.44922 z m 103.5918,0.0566 h 0.004 v 0.002 c 15.8392,0 31.67786,0.14945 32.17188,0.44922 0.48348,0.29355 0.67968,2.41192 0.67968,7.3496 0,6.00912 -0.20478,4.67812 -0.89648,4.39844 -0.9552,-0.38649 -63.07936,0.22968 -64.09961,-0.0215 -0.99187,-0.24276 -1.01969,-11.12785 -0.0332,-11.72852 0.49378,-0.2995 16.33452,-0.44922 32.17383,-0.44922 z m -65.83594,15.8086 -3.57813,1.67773 c -4.96329,2.32613 -7.5624,4.44823 -10.07031,8.22656 -4.48699,6.75995 -4.16574,-5.15395 -3.98633,147.6836 l 0.16211,137.57226 1.9668,4.15039 c 3.11879,6.58277 8.88312,11.35383 15.66015,12.96094 1.3396,0.31702 62.60274,0.51402 143.0586,0.45899 l 140.71484,-0.0977 4.15039,-1.9668 c 5.26722,-2.49546 8.8618,-6.08821 11.35743,-11.35547 l 1.96679,-4.15039 V 500.22266 361.37695 l -1.96679,-4.15039 c -2.49563,-5.26729 -6.09021,-8.86192 -11.35743,-11.35742 l -4.15039,-1.96484 H 368.95117 Z m 351.02539,6.36132 c -17.10533,0 -34.21016,0.15002 -35.90039,0.45313 -3.48416,0.62437 -7.94979,3.46477 -9.08203,5.77734 -1.27772,2.61212 -1.28271,12.46934 -0.006,15.07618 1.0516,2.14779 4.32386,4.46209 7.77929,5.5 h 0.002 c 79.6845,0.37184 7.5653,0.10454 74.36719,0.0117 3.46148,-1.01639 6.77499,-3.34883 7.83398,-5.51171 1.27747,-2.6068 1.27159,-12.46207 -0.008,-15.07422 -1.13224,-2.31258 -5.59788,-5.15298 -9.08203,-5.77735 -1.6902,-0.30301 -18.79491,-0.45312 -35.9004,-0.45312 z m -370.3711,4.83985 c -61.32013,-0.004 -55.73039,0.16611 -59.95312,2.9043 -4.02712,2.61137 -4.46981,3.98683 -4.22656,13.17382 0.22244,8.40346 0.42311,11.3277 3.92383,13.7461 1.04921,0.72478 3.18229,1.67853 4.74218,2.11914 l 2.83789,0.80273 h 51.05469 c 0.0175,-2.81428 0.0427,-5.36776 0.0742,-7.71679 -27.19971,0.0105 -48.74904,-0.0599 -49.08984,-0.3086 -0.45088,-0.32963 -0.60052,-4.94199 -0.49414,-9.81445 l 0.15429,-7 h 49.91211 c 0.25187,-4.12927 0.59375,-6.48081 1.06445,-7.90625 z m 370.3711,2.71289 0.004,0.002 v 0.002 c 15.8394,0 31.67988,0.14969 32.17383,0.44921 0.48345,0.29356 0.67774,2.41189 0.67774,7.34961 0,6.00912 -0.20304,4.67621 -0.89453,4.39649 -0.9552,-0.38648 -63.08324,0.2317 -64.10352,-0.0195 -0.99187,-0.24276 -1.01703,-11.12789 -0.0312,-11.72852 0.49378,-0.29951 16.33456,-0.45117 32.17383,-0.45117 z m -239.49414,6.92578 c 2.09849,0 3.85966,0.31359 5.2832,0.93945 1.42354,0.6136 2.58782,1.53258 3.4961,2.75977 0.89584,1.20265 1.54619,2.68792 1.95117,4.45508 0.40497,1.75488 0.60742,3.78663 0.60742,6.09375 0,2.30712 -0.20776,4.37461 -0.625,6.20312 -0.41725,1.81625 -1.06759,3.30683 -1.95117,4.47266 -0.90812,1.19037 -2.07451,2.09344 -3.49805,2.70703 -1.42354,0.60132 -3.17745,0.90039 -5.26367,0.90039 -2.04941,0 -3.79801,-0.30633 -5.2461,-0.91992 -1.44808,-0.6136 -2.61977,-1.52197 -3.51562,-2.72461 -0.90812,-1.20265 -1.56573,-2.69323 -1.9707,-4.47266 -0.40498,-1.7917 -0.60743,-3.84132 -0.60743,-6.14843 0,-2.38075 0.20971,-4.44825 0.62696,-6.20313 0.41724,-1.75488 1.07821,-3.24016 1.98633,-4.45508 0.90812,-1.20264 2.08707,-2.10375 3.53515,-2.70508 1.44809,-0.60132 3.17882,-0.90234 5.19141,-0.90234 z m -49.46289,0.0371 c 0.89585,0 1.87765,0.0609 2.94531,0.18359 1.06766,0.12273 1.76101,0.21405 2.08008,0.27539 v 5.39454 h -0.69922 c -0.33134,-0.15953 -0.89568,-0.33685 -1.69336,-0.53321 -0.7854,-0.20861 -1.6812,-0.31445 -2.6875,-0.31445 -2.3562,0 -4.19081,0.57691 -5.50391,1.73047 -1.31309,1.15356 -2.10501,2.76254 -2.375,4.82422 0.94494,-0.56451 1.93931,-1.01967 2.98243,-1.36328 1.05538,-0.35589 2.19133,-0.53321 3.40625,-0.53321 1.06765,0 2.05477,0.12175 2.96289,0.36719 0.92039,0.24544 1.77319,0.63777 2.55859,1.17773 1.01857,0.71178 1.83562,1.67041 2.44922,2.87305 0.61359,1.20265 0.91992,2.7058 0.91992,4.50977 0,1.41127 -0.25802,2.7371 -0.77344,3.97656 -0.51542,1.23946 -1.23921,2.28214 -2.17187,3.12891 -0.99403,0.90812 -2.14785,1.60147 -3.46094,2.08007 -1.30082,0.47861 -2.8291,0.7168 -4.58398,0.7168 -1.64444,0 -3.14759,-0.22032 -4.50977,-0.66211 -1.34991,-0.45406 -2.50903,-1.14015 -3.47851,-2.06055 -1.11692,-1.05538 -1.96955,-2.41891 -2.5586,-4.08789 -0.58905,-1.66898 -0.88476,-3.66303 -0.88476,-5.98242 0,-2.40529 0.27588,-4.54092 0.82812,-6.40625 0.55223,-1.86533 1.4553,-3.51536 2.70703,-4.95117 1.20265,-1.37445 2.76137,-2.44227 4.67578,-3.20312 1.92669,-0.76103 4.21451,-1.14063 6.86524,-1.14063 z m 20.70898,0.44141 h 6.09375 v 22.69726 h 5.65039 v 4.78516 h -18.29687 v -4.78516 h 5.77929 v -14.48828 h -5.77929 v -4.47266 c 0.88358,0 1.73107,-0.0483 2.54101,-0.14648 0.80995,-0.11044 1.48348,-0.29502 2.02344,-0.55273 0.63814,-0.3068 1.11648,-0.70639 1.43555,-1.19727 0.31907,-0.49088 0.50364,-1.10353 0.55273,-1.83984 z m -77.36719,0.0742 h 19.64063 v 5.30078 h -12.60938 v 5.09961 h 11.68946 v 5.30078 h -11.68946 v 11.70703 h -7.03125 z m 263.8086,3.41015 c 0.31317,-0.014 0.62677,-0.0132 0.93945,0.002 0.33349,0.0175 0.66768,0.051 0.99805,0.10352 10.1574,1.60518 13.3304,15.10445 4.86719,20.70508 -6.45786,4.27363 -15.40266,0.95767 -17.4668,-6.47461 -0.79693,-2.86728 -0.79929,-3.02299 0.01,-5.92578 1.29167,-4.65101 5.95513,-8.18717 10.6543,-8.40821 z m -77.37891,0.002 c 0.31317,0.0126 0.62692,-0.0132 0.93945,0.002 0.33298,0.0175 0.66782,0.0517 0.99805,0.10351 10.1242,1.60978 13.27319,14.8006 4.91797,20.5918 -6.39424,4.43035 -15.43335,1.14813 -17.51953,-6.36328 -0.79697,-2.86728 -0.79443,-3.0249 0.0117,-5.92774 1.29211,-4.65275 5.95324,-8.59421 10.65234,-8.40625 z m 38.9336,0.0566 h 0.002 c 2.18037,0 4.37338,0.4885 6.2793,1.79102 3.45098,2.35846 4.93554,5.2276 4.93554,9.54102 0,4.33552 -1.48417,7.18107 -5.00195,9.59179 -6.03301,4.13288 -15.10739,0.61121 -17.12305,-6.64648 -0.79693,-2.86728 -0.79449,-3.02295 0.0117,-5.92578 1.38778,-4.99707 6.09958,-8.35157 10.89649,-8.35157 z m -119.24219,1.04102 c -1.50945,0 -2.58982,0.70592 -3.24024,2.11719 -0.65041,1.399 -0.97656,3.76751 -0.97656,7.10547 0,3.25205 0.33146,5.59543 0.99414,7.03125 0.66269,1.43581 1.73776,2.15429 3.22266,2.15429 1.4849,0 2.55802,-0.71848 3.2207,-2.15429 0.66268,-1.43582 0.99414,-3.79176 0.99414,-7.06836 0,-3.31342 -0.3242,-5.66936 -0.97461,-7.06836 -0.65041,-1.41127 -1.73079,-2.11719 -3.24023,-2.11719 z m -83.07422,8.0625 h 14.04492 v 5.30078 h -14.04492 z m 28.95508,1.36133 c -0.53997,0 -1.10431,0.0609 -1.69336,0.18359 -0.58905,0.12272 -1.13022,0.27686 -1.6211,0.46094 0,0.12272 -0.005,0.32517 -0.0176,0.60742 -0.0124,0.28225 -0.0195,0.63884 -0.0195,1.06836 0,1.50945 0.14883,2.75458 0.44335,3.73633 0.3068,0.96948 0.7117,1.71114 1.21485,2.22656 0.34361,0.38043 0.74851,0.66358 1.21484,0.84766 0.46633,0.17181 0.96785,0.25781 1.50781,0.25781 0.40498,0 0.85288,-0.0913 1.34375,-0.27539 0.49088,-0.18407 0.90834,-0.46191 1.25196,-0.83008 0.38043,-0.41724 0.68145,-0.90815 0.90234,-1.47265 0.23316,-0.57678 0.34961,-1.35597 0.34961,-2.3379 0,-0.89584 -0.12901,-1.62494 -0.38672,-2.18945 -0.25771,-0.57678 -0.61234,-1.03724 -1.0664,-1.38086 -0.44179,-0.34361 -0.96313,-0.5765 -1.56446,-0.69922 -0.60132,-0.13498 -1.22123,-0.20312 -1.85937,-0.20312 z m 246.31445,5.60351 v 7.90235 h 80.5 l 0.15234,6.99805 c 0.1072,4.87247 -1.20003,9.8164 -0.49414,9.8164 0.73774,0 -39.15523,0.16513 -80.1582,0.25586 v 7.76758 h 82.19922 l 2.83594,-0.79883 c 1.55988,-0.44061 3.69304,-1.39633 4.74218,-2.12109 3.5008,-2.4184 3.70136,-5.34069 3.92383,-13.74414 0.24311,-9.18701 -0.19745,-10.56441 -4.22461,-13.17578 -4.79,-3.10617 2.12757,-2.90898 -89.47656,-2.9004 z m 65.33203,11.84375 2.08985,3.70508 2.08984,3.70508 2.16406,-3.66016 2.16602,-3.66211 -4.25391,-0.0449 z m -441.62695,5.51954 c -4.54826,0 -8.23434,3.44036 -8.23438,7.68554 4e-5,4.24519 3.68612,7.68555 8.23438,7.68555 4.54829,0 8.23621,-3.44036 8.23633,-7.68555 -1.2e-4,-4.24518 -3.68804,-7.68554 -8.23633,-7.68554 z m 32.23047,0.0879 c -4.54826,0 -8.23626,3.44232 -8.23633,7.6875 7e-5,4.24518 3.68807,7.68554 8.23633,7.68554 4.54836,-4e-5 8.23433,-3.44036 8.23437,-7.68554 -4e-5,-4.24515 -3.68601,-7.68747 -8.23437,-7.6875 z m 44.38281,11.82031 h 138.22656 138.22461 l -0.01,108.42383 c -0.0105,101.78692 -0.0798,108.50431 -1.0918,109.7539 -0.59288,0.73203 -1.69176,1.64401 -2.44141,2.02735 -0.99135,0.50709 -37.78537,0.69922 -134.93359,0.69922 H 235.43164 l -2.03711,-1.82032 -2.03711,-1.82226 -0.16015,-108.62891 z m 347.02539,11.63281 c -17.1055,0 -34.21208,0.15203 -35.90234,0.45508 -3.48412,0.62437 -7.94979,3.46281 -9.08203,5.77539 -1.27772,2.61212 -1.2847,12.46934 -0.008,15.07617 1.05153,2.14783 4.32582,4.4621 7.78125,5.5 h 0.002 c 79.6845,0.37181 7.56347,0.10365 74.36523,0.01 3.46139,-1.0164 6.77484,-3.34489 7.83399,-5.50781 1.27747,-2.60699 1.27357,-12.46406 -0.006,-15.07618 -1.13224,-2.31257 -5.59799,-5.153 -9.08204,-5.77734 -1.69033,-0.30301 -18.79506,-0.45508 -35.90039,-0.45508 z m -272.16797,5.66992 0.002,0.002 c -20.96602,0 -41.93403,0.18738 -44.00585,0.55859 -4.27041,0.76527 -9.74309,4.24563 -11.13086,7.08008 -1.56722,3.20164 -1.57395,15.28147 -0.01,18.47656 1.28889,2.63251 5.29985,5.46816 9.53516,6.74023 h 0.004 c 97.66726,0.45594 9.26926,0.12887 91.14649,0.01 4.24266,-1.24577 8.30355,-4.10092 9.60156,-6.75195 1.56577,-3.19505 1.56051,-15.27685 -0.01,-18.47852 -1.38775,-2.83445 -6.86247,-6.31673 -11.13281,-7.08203 -2.07168,-0.37125 -23.0346,-0.55469 -44,-0.55469 z m 126.96485,0.0703 c -20.96413,3e-5 -41.92648,0.18741 -43.99805,0.55859 -4.2704,0.76526 -9.74496,4.24754 -11.13281,7.08203 -1.56606,3.2016 -1.57281,15.28148 -0.01,18.47656 1.28889,2.63254 5.30181,5.46816 9.53711,6.74024 h 0.002 c 97.66733,0.4557 9.27124,0.12977 91.14844,0.0117 4.24266,-1.24574 8.3036,-4.10092 9.60156,-6.75196 1.56584,-3.19505 1.55815,-15.27883 -0.0117,-18.48047 -1.38778,-2.83448 -6.86056,-6.31481 -11.13085,-7.08007 -2.07183,-0.37132 -23.03595,-0.55661 -44,-0.55664 h -0.002 z m 145.20507,1.8164 c 15.83924,0 31.67593,0.14954 32.16993,0.44922 0.48351,0.29355 0.68164,2.41189 0.68164,7.34961 0,6.00908 -0.205,4.67808 -0.89649,4.39844 -0.9553,-0.3868 -63.07929,0.23043 -64.09961,-0.0176 -0.9918,-0.24311 -1.01885,-11.12786 -0.0312,-11.72852 0.49379,-0.2995 16.33268,-0.4494 32.17188,-0.44921 z m -272.16992,7.37891 h 0.002 c 19.414,0 38.82619,0.18363 39.43165,0.55078 0.59287,0.35958 0.83398,2.95589 0.83398,9.00781 0,7.36517 -0.37715,5.82759 -1.09766,5.39063 -0.99495,-0.60375 -77.31586,0.28327 -78.5664,-0.0215 -1.21568,-0.2974 -1.24823,-13.63884 -0.0352,-14.375 0.60549,-0.36746 20.01791,-0.55273 39.43164,-0.55273 z m 126.96875,0.0684 h 0.002 c 19.41369,0 38.82813,0.18401 39.43359,0.55078 0.59285,0.35958 0.83398,2.95777 0.83398,9.00976 0,7.3652 -0.2516,5.73144 -1.09961,5.38868 -1.17084,-0.47385 -77.31587,0.28292 -78.5664,-0.0215 -1.21572,-0.2974 -1.24827,-13.64076 -0.0371,-14.37695 0.60556,-0.36747 20.01986,-0.55078 39.43359,-0.55078 z m 135.18164,31.53711 c -34.16329,0 -34.46749,0.0107 -35.89258,1.0664 -0.41944,0.31072 -0.9397,0.80613 -1.43359,1.33985 v 23.9707 0.64648 c 0.51074,0.43094 1.12801,0.79858 1.88477,1.17579 2.17715,1.08519 2.32723,1.09091 36.29687,0.95703 l 34.10938,-0.13672 1.66406,-1.1836 c 2.93646,-2.09444 3.17377,-3.10355 3.17187,-13.42773 -0.002,-10.43348 -0.33907,-11.67581 -3.66601,-13.49219 -1.56773,-0.85606 -3.92657,-0.91601 -36.13477,-0.91601 z m -237.22656,1.56445 c -78.01003,-0.0105 -70.60725,0.16484 -75.84375,3.56055 -4.93597,3.20069 -5.47978,4.88825 -5.18164,16.14843 0.27253,10.29988 0.5199,13.88349 4.81055,16.84766 1.28598,0.88836 3.90247,2.0576 5.81445,2.59766 l 3.47656,0.98242 h 105.8711 105.87109 l 3.47852,-0.98242 c 1.91193,-0.53975 4.52846,-1.7093 5.81445,-2.59766 4.29072,-2.9642 4.53393,-6.54778 4.80664,-16.84766 0.2981,-11.26018 -0.24211,-12.94774 -5.17774,-16.14843 -5.98456,-3.88066 4.53807,-3.55274 -114.79296,-3.55274 -14.91635,0 -27.80304,-0.004 -38.94727,-0.008 z m -64.84375,9.69141 h 103.79102 103.78906 l 0.18945,8.58007 c 0.13101,5.97199 -1.47088,12.02735 -0.60547,12.02735 1.86076,0 -205.55582,0.86857 -206.74414,0 -0.55299,-0.40372 -0.73645,-6.05529 -0.60547,-12.02735 z m 188.99219,4.83203 2.55859,4.54101 2.56055,4.54102 2.6543,-4.48828 2.65234,-4.48633 -5.21289,-0.0547 z m -22.05469,35.61719 c -20.96507,0 -41.93024,0.18514 -44.00195,0.55664 -4.27037,0.76523 -9.74304,4.24757 -11.13086,7.08203 -1.56609,3.20163 -1.57281,15.28336 -0.01,18.47851 1.2889,2.63251 5.30181,5.46805 9.53711,6.74024 97.6674,0.45567 9.27312,0.12837 91.15039,0.0117 4.24259,-1.24574 8.30168,-4.10096 9.59961,-6.75196 1.56577,-3.19508 1.55909,-15.27688 -0.01,-18.47851 -1.38775,-2.83446 -6.86053,-6.31478 -11.13086,-7.08008 -2.07168,-0.37107 -23.03692,-0.55859 -44.00196,-0.55859 z m -96.64453,5.2832 v 22.53906 h 21.77148 v -22.53906 z m -73.04297,2.29492 c -5.57453,0 -10.09539,4.21692 -10.0957,9.41992 -3.2e-4,5.20343 4.52071,9.42383 10.0957,9.42383 5.57496,0 10.09407,-4.2204 10.09375,-9.42383 -3.5e-4,-5.203 -4.51924,-9.41992 -10.09375,-9.41992 z m 39.50391,0.11133 c -5.57499,3e-5 -10.09602,4.21653 -10.09571,9.41992 3.2e-4,5.20301 4.52117,9.42184 10.09571,9.42187 5.5745,-3e-5 10.09343,-4.21886 10.09375,-9.42187 3.1e-4,-5.20339 -4.5188,-9.41989 -10.09375,-9.41992 z m 130.1875,1.57422 c 19.41376,0 38.82803,0.18401 39.43359,0.55078 0.59288,0.35944 0.83398,2.95585 0.83398,9.00781 0,7.36523 -0.25007,5.73332 -1.09765,5.39063 -1.17081,-0.47382 -77.31779,0.28117 -78.56836,-0.0215 -1.21568,-0.2974 -1.24687,-13.63686 -0.0371,-14.37305 0.60549,-0.36732 20.01791,-0.55273 39.43164,-0.55273 z m 6.26172,47.7832 v 0.002 c -41.87313,0 -42.24741,0.01 -43.99415,1.30274 -0.96893,0.71801 -2.39377,2.23455 -3.16601,3.36914 -1.32319,1.94416 -1.4043,2.68841 -1.4043,12.91601 0,12.80231 0.57529,14.7088 5.1211,16.97461 2.66851,1.33009 2.85455,1.33209 44.49023,1.16797 l 41.80664,-0.16406 2.03906,-1.45313 c 3.59913,-2.5671 3.889,-3.80296 3.88672,-16.45703 -0.002,-12.78801 -0.4163,-14.31074 -4.49414,-16.53711 -1.9215,-1.04918 -44.28515,-1.12021 -44.28515,-1.12109 z"
         transform="matrix(0.28546957,0,0,0.28546957,-6.6935747,-9.65376)" />
      <g
         id="g110077">
        <g
           aria-label="F-504"
           transform="translate(0,10.583334)"
           id="text15433-6-0"
           style="font-size:11.267px;line-height:1.25;letter-spacing:0px;stroke-width:0.281673" />
        <g
           aria-label="F-400"
           transform="translate(0,10.583334)"
           id="text15433-6"
           style="font-size:11.267px;line-height:1.25;letter-spacing:0px;stroke-width:0.281673" />
        <g
           aria-label="F-200"
           transform="translate(0,10.583334)"
           id="text15433-6-8"
           style="font-size:11.267px;line-height:1.25;letter-spacing:0px;stroke-width:0.281673" />
        <g
           id="g110051">
          <g
             aria-label="F-610"
             transform="translate(0,10.583334)"
             id="text15433"
             style="font-size:13.6414px;line-height:1.25;letter-spacing:0px;stroke-width:0.341034" />
          <text
             xml:space="preserve"
             style="font-size:4.93481px;line-height:1.25;font-family:sans-serif;letter-spacing:0px;stroke-width:0.123371"
             x="122.98716"
             y="147.53951"
             id="text27417"
             transform="scale(0.90302528,1.1073887)"><tspan
               sodipodi:role="line"
               id="tspan27415"
               style="font-style:normal;font-variant:normal;font-weight:normal;font-stretch:normal;font-family:Verdana;-inkscape-font-specification:Verdana;stroke-width:0.123371"
               x="122.98716"
               y="147.53951">Enviar</tspan></text>
        </g>
      </g>
    </g>
  </g>
  <g
     inkscape:groupmode="layer"
     id="layer5"
     inkscape:label="Capa 5" />
  <g
     inkscape:groupmode="layer"
     id="layer4"
     inkscape:label="Capa 4" />
  <g
     inkscape:groupmode="layer"
     id="layer2"
     inkscape:label="Capa 2" />
  <g
     inkscape:groupmode="layer"
     id="layer3"
     inkscape:label="Capa 3" />
</svg>
