<?xml version="1.0" encoding="UTF-8" standalone="no"?>
<!-- Created with Inkscape (http://www.inkscape.org/) -->

<svg
   width="200mm"
   height="200mm"
   viewBox="0 0 200 200"
   version="1.1"
   id="svg349"
   sodipodi:docname="10551.svg"
   inkscape:version="1.1.2 (0a00cf5339, 2022-02-04)"
   xmlns:inkscape="http://www.inkscape.org/namespaces/inkscape"
   xmlns:sodipodi="http://sodipodi.sourceforge.net/DTD/sodipodi-0.dtd"
   xmlns:xlink="http://www.w3.org/1999/xlink"
   xmlns="http://www.w3.org/2000/svg"
   xmlns:svg="http://www.w3.org/2000/svg">
  <sodipodi:namedview
     id="namedview351"
     pagecolor="#505050"
     bordercolor="#ffffff"
     borderopacity="1"
     inkscape:pageshadow="0"
     inkscape:pageopacity="0"
     inkscape:pagecheckerboard="1"
     inkscape:document-units="mm"
     showgrid="false"
     width="200mm"
     inkscape:zoom="0.74118968"
     inkscape:cx="690.78134"
     inkscape:cy="412.84978"
     inkscape:window-width="1920"
     inkscape:window-height="1010"
     inkscape:window-x="0"
     inkscape:window-y="0"
     inkscape:window-maximized="1"
     inkscape:current-layer="layer1" />
  <defs
     id="defs346">
    <linearGradient
       inkscape:collect="always"
       id="linearGradient853">
      <stop
         style="stop-color:#005d9c;stop-opacity:1;"
         offset="0"
         id="stop849" />
      <stop
         style="stop-color:#002255;stop-opacity:1"
         offset="1"
         id="stop851" />
    </linearGradient>
    <radialGradient
       inkscape:collect="always"
       xlink:href="#linearGradient853"
       id="radialGradient855"
       cx="99.999992"
       cy="100"
       fx="99.999992"
       fy="100"
       r="97.66301"
       gradientUnits="userSpaceOnUse"
       gradientTransform="scale(3.7795276)" />
    <clipPath
       clipPathUnits="userSpaceOnUse"
       id="clipPath1235">
      <path
         id="path1237"
         style="display:none;fill:#ffffff;fill-opacity:1;stroke:#000000;stroke-width:0.0158507;stroke-miterlimit:4;stroke-dasharray:none;stroke-opacity:1"
         d="m 55.884585,59.420792 c -0.0372,-0.0016 -0.07451,-0.0011 -0.111617,0.0026 -0.483251,0.02672 -0.859044,0.52851 -0.758092,1.000974 -0.88841,0.390496 -1.774272,0.786249 -2.665992,1.168918 -0.258281,-0.20493 -0.700204,0.01836 -0.654738,0.354502 0.02474,0.328796 0.495459,0.482196 0.703318,0.220142 0.11389,-0.08554 0.05055,-0.287155 0.212905,-0.308507 0.849921,-0.375092 1.699821,-0.750361 2.549713,-1.125511 0.149934,0.186124 0.367633,0.304062 0.60203,0.343127 0.05312,1.096754 0.105355,2.193476 0.158131,3.29024 -0.487852,0.13132 -0.785508,0.732689 -0.549836,1.189593 0.225264,0.518065 0.996315,0.665998 1.393198,0.26303 0.165452,-0.139509 0.344435,0.04908 0.512112,0.08527 1.253159,0.492024 2.505633,0.984742 3.758943,1.476396 -0.186042,0.137377 -0.394798,0.229891 -0.621665,0.273884 -0.358362,0.108317 -0.718767,0.210616 -1.077973,0.316259 -0.212244,-0.457843 -0.846228,-0.635371 -1.260388,-0.345197 -0.451813,0.274241 -0.491315,0.996283 -0.0677,1.314649 0.30629,0.25967 0.784066,0.250306 1.09709,0.0062 0.443589,0.374517 0.898562,0.73501 1.331185,1.122413 -0.288822,0.532384 -0.07019,1.267203 0.471807,1.542542 0.53472,0.318267 1.348097,0.100364 1.626772,-0.479555 0.140465,-0.255193 0.154832,-0.560083 0.09354,-0.840261 0.408633,-0.255641 0.814308,-0.515035 1.229381,-0.760161 0.16696,0.177038 0.395941,0.284398 0.639236,0.296627 0.240202,1.197229 0.479875,2.394646 0.719336,3.592028 -0.373491,0.180819 -0.473091,0.744736 -0.157612,1.024226 0.328792,0.350303 1.003017,0.167476 1.096055,-0.30851 0.08133,-0.342902 -0.168807,-0.710229 -0.512112,-0.774112 -0.174752,-0.108501 -0.109228,-0.343818 -0.177247,-0.510561 -0.207282,-1.035873 -0.415552,-2.071304 -0.622189,-3.107304 0.433766,-0.201218 0.584793,-0.831215 0.256315,-1.189077 -0.332724,-0.428506 -1.095478,-0.349943 -1.321882,0.148312 -0.08212,0.151945 -0.09179,0.329049 -0.07493,0.497641 -0.409305,0.25725 -0.817451,0.516335 -1.234035,0.761715 -0.383151,-0.561319 -1.259676,-0.67364 -1.765263,-0.216011 -0.108937,0.06195 -0.214294,-0.150064 -0.321945,-0.198951 -0.355666,-0.296185 -0.71098,-0.592603 -1.066604,-0.888836 0.102187,-0.132969 0.02835,-0.398778 0.241845,-0.427879 0.488783,-0.142671 0.977278,-0.285755 1.466064,-0.4284 0.286533,0.352179 0.923518,0.277871 1.09864,-0.147796 0.19952,-0.40032 -0.159975,-0.922126 -0.605134,-0.884698 -0.170098,-0.0016 -0.325948,0.07918 -0.456303,0.182417 -1.341641,-0.526272 -2.68338,-1.05259 -4.025077,-1.578713 0.08893,-0.449027 -0.223639,-0.923918 -0.672825,-1.014926 -0.09062,-0.08126 -0.02817,-0.280668 -0.05788,-0.40876 -0.04699,-0.976601 -0.09432,-1.953446 -0.141078,-2.930054 0.48148,-0.172363 0.701352,-0.827292 0.387574,-1.240753 -0.148807,-0.215578 -0.40464,-0.3483 -0.665077,-0.359148 z m -7.298777,2.580203 c -0.03065,-2.64e-4 -0.06168,0.0016 -0.09302,0.0057 -0.482277,0.02326 -0.828881,0.606054 -0.590142,1.034563 0.114713,0.231481 0.357081,0.38 0.610814,0.406175 0.404744,1.164405 0.807014,2.329601 1.209228,3.494879 -0.214551,0.193349 -0.192389,0.5604 0.04238,0.727604 -0.347853,1.381223 -0.696613,2.761784 -1.044898,4.142899 0.852197,0.557979 1.70425,1.116316 2.556431,1.674317 -0.07833,0.206526 -0.109143,0.425381 -0.109551,0.645438 -0.532902,0.112054 -1.063249,0.236344 -1.598869,0.334865 -0.177604,-0.439751 -0.786802,-0.617117 -1.163754,-0.32453 -0.414837,0.269533 -0.397732,0.962064 0.03411,1.20768 0.146931,0.09929 0.326001,0.125801 0.499708,0.126605 0.391078,1.041456 0.781013,2.083711 1.171504,3.125391 -0.355113,0.230264 -0.385744,0.807985 -0.03721,1.057302 0.368025,0.31547 1.032066,0.07588 1.083138,-0.416513 -0.03082,-0.172868 0.08179,-0.224097 0.235644,-0.24598 0.501245,-0.146556 1.002463,-0.293481 1.503785,-0.439767 0.219112,0.406241 0.825064,0.517356 1.163236,0.198954 0.38074,-0.305491 0.287234,-0.978734 -0.156581,-1.17719 -0.418391,-0.225549 -1.009986,0.05067 -1.074351,0.530201 -0.06748,0.198824 -0.31338,0.155305 -0.469738,0.232027 -0.445609,0.131312 -0.891673,0.259897 -1.337903,0.389125 -0.1573,-0.170434 -0.386077,-0.252492 -0.615469,-0.241848 -0.388474,-1.03615 -0.776213,-2.072544 -1.164269,-3.108854 0.202707,-0.135033 0.344773,-0.349221 0.376721,-0.592211 0.539978,-0.107329 1.08004,-0.214329 1.620057,-0.321427 0.234535,0.740262 1.116447,1.178674 1.848467,0.923975 0.686316,-0.19604 1.150625,-0.965361 0.980818,-1.663464 -0.05429,-0.259302 -0.222012,-0.551606 -0.440282,-0.740008 -0.525169,-0.500586 -1.41681,-0.506299 -1.956473,-0.02635 -0.08895,0.04216 -0.150333,0.229915 -0.243395,0.179318 -0.743051,-0.499007 -1.486165,-0.997706 -2.229321,-1.496547 0.32884,-1.305575 0.658281,-2.611217 0.988055,-3.916561 0.350869,0.543164 0.701712,1.086427 1.052131,1.629876 -0.423315,0.389178 -0.418174,1.137253 0.02946,1.504821 0.305223,0.280754 0.772631,0.335885 1.1498,0.177762 1.355055,1.534729 2.710447,3.069479 4.065902,4.603856 -0.71106,0.736651 -0.826161,1.977144 -0.231508,2.816881 0.08681,0.138425 -0.01797,0.285518 -0.144698,0.34675 -0.577492,0.51765 -1.151821,1.038498 -1.733227,1.551326 -0.2603,-0.06261 -0.529511,0.198186 -0.452168,0.460436 -0.696044,1.196166 -1.391348,2.392357 -2.086694,3.58893 -0.08933,-0.467132 -0.177954,-0.934312 -0.267168,-1.401466 0.367146,-0.202015 0.428267,-0.779097 0.08785,-1.03456 -0.343847,-0.313153 -0.981641,-0.107337 -1.059365,0.3576 -0.07171,0.344665 0.188288,0.70353 0.533818,0.757579 0.08627,0.442565 0.168698,0.885825 0.251145,1.329113 -0.369689,0.179647 -0.469847,0.738544 -0.150378,1.011825 0.323773,0.334459 0.980522,0.154104 1.064537,-0.311605 0.04524,-0.179541 -0.0062,-0.369435 -0.109556,-0.519348 0.700032,-1.204347 1.400353,-2.408211 2.100131,-3.612703 0.270959,0.55037 0.549065,1.096851 0.807701,1.65313 -0.360466,0.274838 -0.366459,0.888904 0.01188,1.149284 0.401598,0.334666 1.106048,0.08646 1.190106,-0.435634 0.093,-0.440047 -0.294666,-0.891202 -0.744656,-0.865063 -0.146516,0.0094 -0.143325,-0.212752 -0.223758,-0.305406 -0.223153,-0.460084 -0.467839,-0.918128 -0.671278,-1.389063 -0.05049,-0.26476 0.249746,-0.381571 0.393775,-0.546222 0.512183,-0.459647 1.024003,-0.919249 1.53634,-1.378725 0.611772,0.568534 1.520216,0.780727 2.321306,0.546219 0.104904,0.03456 0.112315,0.252452 0.1788,0.359154 0.333923,0.865015 0.668139,1.730144 1.002006,2.595186 -0.450551,-0.306398 -0.90125,-0.61328 -1.351338,-0.920355 0.209997,-0.404059 0.02188,-0.947645 -0.394809,-1.131197 -0.49989,-0.256344 -1.190244,0.12261 -1.208196,0.692981 -0.02913,0.345598 0.193387,0.678793 0.505397,0.818038 -0.03736,1.035913 -0.07618,2.072743 -0.112655,3.108338 0.08373,0.09402 0.190532,0.193519 0.330211,0.140042 0.110482,-0.03899 0.21001,-0.142245 0.173117,-0.264068 0.04501,-0.980127 0.06891,-1.962745 0.115239,-2.943487 0.170611,0.0013 0.328684,-0.20884 0.494025,-0.0708 0.414827,0.28803 0.842325,0.557665 1.244886,0.862996 -0.186159,0.407538 0.106386,0.937157 0.553971,0.982885 0.48065,0.100113 0.962962,-0.41248 0.801502,-0.885735 -0.08908,-0.31256 -0.407588,-0.523166 -0.72812,-0.513662 -0.387432,-1.002623 -0.774827,-2.005237 -1.161687,-3.008085 0.533823,-0.288798 0.95319,-0.779936 1.139465,-1.359088 0.598352,0.08368 1.196848,0.167765 1.79524,0.251145 0.07968,0.553993 0.724003,0.923177 1.241266,0.712618 0.488286,-0.156157 0.755537,-0.786257 0.504881,-1.238683 -0.03555,-0.220928 0.219818,-0.306806 0.331245,-0.455269 0.238842,-0.225248 0.477189,-0.450895 0.716235,-0.675928 0.234728,0.18869 0.488487,0.346908 0.710552,0.558106 -0.20972,0.473361 0.130058,1.080276 0.645954,1.139466 0.253634,0.04837 0.510709,-0.04257 0.713136,-0.193787 0.492464,0.374629 0.992773,0.736984 1.476912,1.122411 -0.187944,0.404227 0.103064,0.931703 0.54777,0.977201 0.476062,0.09794 0.950947,-0.40863 0.792718,-0.877464 -0.117353,-0.415205 -0.644096,-0.631264 -1.020612,-0.421164 -0.199554,0.05726 -0.306123,-0.166399 -0.462502,-0.243914 -0.375441,-0.281855 -0.75116,-0.562097 -1.120862,-0.851628 0.205864,-0.46597 -0.119206,-1.063241 -0.624769,-1.134816 -0.273738,-0.06009 -0.555119,0.04249 -0.76636,0.216527 -0.206947,-0.155302 -0.413285,-0.310671 -0.620117,-0.466122 0.857467,-0.803465 1.71527,-1.606941 2.572451,-2.410706 0.200168,-0.01942 0.319611,0.161978 0.371554,0.330214 0.310219,0.577297 0.604044,1.164415 0.907439,1.74563 -0.307697,0.303792 -0.196776,0.889101 0.210323,1.044898 0.414631,0.205547 0.975749,-0.147203 0.937926,-0.618567 -0.015,-0.357782 -0.357285,-0.652676 -0.713134,-0.624252 -0.366048,-0.641673 -0.68286,-1.309984 -1.029912,-1.962155 0.319525,-0.248026 0.29354,-0.804088 -0.06666,-1.000454 -0.378446,-0.259876 -0.977355,0.04862 -0.957564,0.515729 -0.03082,0.105413 0.09614,0.231177 0.02273,0.309544 -0.861155,0.807397 -1.722313,1.614535 -2.58382,2.421557 -0.520965,-0.391952 -1.044684,-0.779315 -1.557528,-1.181841 0.252571,-0.443982 0.0204,-1.071653 -0.466122,-1.232998 -0.530765,-0.2265 -1.211763,0.199527 -1.207162,0.785481 -0.0062,0.133975 0.03281,0.263668 0.07183,0.390155 -0.59109,0.324713 -1.182254,0.649835 -1.773018,0.975135 -0.409067,-0.515051 -1.041236,-0.833226 -1.694987,-0.877983 -0.493448,-0.0426 -1.049012,0.09117 -1.484146,0.386025 -0.127106,0.155707 -0.204798,-0.0434 -0.298175,-0.130741 -1.284057,-1.454015 -2.567929,-2.90797 -3.85196,-4.362009 0.356915,-0.382516 0.353666,-1.033502 -0.0181,-1.404048 -0.303802,-0.318344 -0.80291,-0.404717 -1.204576,-0.234095 -0.358513,-0.556012 -0.72171,-1.108671 -1.071251,-1.670183 0.140208,-0.287118 -0.0874,-0.643165 -0.399975,-0.661974 -0.418137,-1.204735 -0.834994,-2.410039 -1.253154,-3.614767 1.198358,0.662374 2.395683,1.32624 3.594094,1.988508 -0.200932,0.636447 0.191752,1.380702 0.831475,1.570964 0.234979,0.08364 0.49105,0.08338 0.733806,0.03669 0.714314,1.321808 1.429461,2.643229 2.144572,3.964614 -0.124032,0.115393 -0.313412,0.285393 -0.480073,0.140044 -0.229722,-0.158157 -0.480426,-0.288293 -0.718304,-0.435634 0.12892,-0.259987 -0.01958,-0.601125 -0.303859,-0.670758 -0.349969,-0.11166 -0.715967,0.297767 -0.545703,0.628901 0.09409,0.216704 0.360903,0.320376 0.581877,0.250113 0.320419,0.189572 0.640758,0.37941 0.961181,0.568958 -0.478882,0.65795 -0.405095,1.650285 0.180867,2.21847 0.646192,0.688226 1.844183,0.718542 2.526464,0.06563 0.588034,-0.525066 0.743728,-1.464887 0.334346,-2.143022 -0.386977,-0.667909 -1.227865,-1.029679 -1.978173,-0.841293 -0.117475,0.07138 -0.23227,0.03127 -0.268203,-0.124539 -0.682154,-1.260557 -1.364091,-2.521207 -2.046388,-3.781682 0.518221,-0.31922 0.751178,-1.028851 0.492477,-1.584917 -0.290867,-0.69432 -1.23562,-0.980417 -1.868104,-0.578776 -0.137599,0.07631 -0.247417,0.190095 -0.357601,0.300241 -1.115149,-0.61695 -2.230292,-1.234252 -3.345531,-1.851049 0.133567,-0.454848 -0.235241,-0.9275 -0.695048,-0.932244 z M 63.26088,75.103551 c 0.02318,0.01749 0.04656,0.03471 0.06976,0.0522 0.495303,0.372983 0.991005,0.745678 1.486215,1.118791 -0.351763,0.332131 -0.703974,0.664202 -1.055748,0.996325 -0.438026,-0.323535 -1.142871,-0.177575 -1.381829,0.321424 -0.04845,0.160885 -0.245473,0.02434 -0.367419,0.03824 -0.476605,-0.06665 -0.953267,-0.133461 -1.429888,-0.199988 0.03234,-0.447569 -0.0546,-0.899538 -0.257865,-1.300178 0.603927,-0.332542 1.208024,-0.663977 1.811776,-0.996839 0.330174,0.241485 0.806898,0.224544 1.124996,-0.02997 z m -6.748425,19.098577 c -0.19521,-0.0016 -0.452692,0.0019 -0.795817,0.0067 -1.183161,0.01675 -1.384731,0.0342 -1.462442,0.12609 -0.130926,0.154787 -0.361664,1.817582 -0.373102,2.689241 -0.0093,0.707673 -0.0082,0.712941 0.128672,0.761196 0.223327,0.07867 2.796297,0.03557 2.867007,-0.04806 0.09744,-0.115237 0.21205,-0.720355 0.358121,-1.890324 0.135964,-1.089207 0.136311,-1.08948 -0.0047,-1.373555 -0.105725,-0.213058 -0.132157,-0.266186 -0.717786,-0.271304 z m 20.190499,0.978752 c -0.216447,0 -0.514866,0.0024 -0.843359,0.0072 -1.194525,0.01754 -1.194406,0.01757 -1.264007,0.278019 -0.06219,0.232672 -0.872649,3.474053 -0.940509,3.761528 -0.04725,0.200179 -0.258884,0.30648 -1.185458,0.596344 -0.495509,0.155015 -0.967798,0.313549 -1.049549,0.351909 -0.160065,0.0751 -0.160359,0.0762 -0.261996,1.01958 -0.03086,0.28648 -0.07237,0.63052 -0.09199,0.76481 -0.03864,0.26435 -0.07877,0.25829 1.687753,0.2744 0.502095,0.005 0.505182,0.0154 0.332796,1.20716 -0.100304,0.69337 -0.284139,2.05322 -0.558623,4.13412 -0.0614,0.46552 -0.161742,1.2115 -0.223242,1.65726 -0.154205,1.11759 -0.124706,3.08435 0.0553,3.67316 0.122748,0.40153 0.419618,1.01999 0.525031,1.09399 0.03407,0.0239 0.173617,0.1634 0.31006,0.31006 0.242879,0.26106 0.508016,0.39249 1.052131,0.5209 0.133612,0.0316 0.878687,0.0551 1.655199,0.0543 1.41182,-0.003 1.411584,-0.002 1.501714,-0.49816 0.120209,-0.66103 0.208447,-1.50564 0.171567,-1.64279 -0.01939,-0.0721 -0.129998,-0.13377 -0.317294,-0.17777 -0.158041,-0.0371 -0.436118,-0.12632 -0.618051,-0.19792 -0.181927,-0.0716 -0.472567,-0.17948 -0.645956,-0.23978 -0.364342,-0.12675 -0.738658,-0.47358 -0.849559,-0.78703 -0.116829,-0.33023 -0.09103,-0.90173 0.115237,-2.5616 0.183401,-1.4759 0.2359,-1.88084 0.472842,-3.64578 0.208754,-1.55504 0.398264,-2.76741 0.441833,-2.82411 0.0241,-0.0314 0.744861,-0.0754 1.601452,-0.0977 1.557435,-0.0406 1.557247,-0.0408 1.627806,-0.39894 0.08839,-0.44864 0.240814,-1.77062 0.240814,-2.088761 0,-0.215278 -0.01672,-0.24289 -0.172083,-0.279566 -0.09476,-0.02236 -0.777698,-0.04082 -1.517737,-0.04082 -1.205685,0 -1.349185,-0.01117 -1.380794,-0.108524 -0.01942,-0.05976 0.0075,-0.418463 0.05994,-0.797365 0.07818,-0.564912 0.418613,-3.249401 0.419613,-3.310911 9.3e-5,-0.0048 -0.134437,-0.0072 -0.350882,-0.0072 z m -12.260233,4.018357 c -0.299974,-0.0042 -0.585745,0.0046 -0.840256,0.02791 -1.189979,0.109 -1.855483,0.277103 -2.52181,0.637172 -0.531304,0.286131 -1.01546,0.713021 -1.479497,1.242301 -0.586306,0.73926 -1.225177,2.15202 -1.570966,3.4742 -0.179237,0.68532 -0.431125,2.26925 -0.521412,3.27939 -0.217977,2.43853 -0.04709,4.27199 0.507458,5.44773 0.307316,0.6208 0.866907,1.21776 1.451078,1.44539 1.296059,0.58086 2.4067,0.33382 3.780131,-0.0527 0.448088,-0.14859 1.638025,-0.84132 1.846395,-1.07487 0.233003,-0.26114 0.2902,-0.21001 0.461989,0.41186 0.08655,0.31333 0.179893,0.64005 0.207222,0.72605 0.04968,0.15621 0.04956,0.15618 1.126545,0.11938 0.592339,-0.0203 1.087422,-0.049 1.100193,-0.0641 0.03026,-0.0358 0.323165,-2.14631 0.431499,-3.10886 0.04634,-0.4118 0.148698,-1.24693 0.227377,-1.8557 0.07869,-0.60877 0.189397,-1.48785 0.245978,-1.95337 0.190632,-1.56836 0.549667,-4.48571 0.660945,-5.37124 0.06075,-0.48344 0.110421,-1.03578 0.110585,-1.22732 2.17e-4,-0.30304 -0.02122,-0.37174 -0.164848,-0.5302 -0.365358,-0.40307 -1.361729,-0.901549 -2.460316,-1.230412 -0.673052,-0.201467 -1.698371,-0.330142 -2.59829,-0.342617 z m -19.271689,0.09664 c -1.160677,2.64e-4 -2.212917,0.04495 -2.46652,0.122473 -0.422931,0.12928 -1.13098,0.60458 -1.434018,0.96221 -0.623496,0.73579 -0.962017,1.90846 -1.183391,4.10259 -0.143645,1.4237 -0.02665,2.30878 0.409792,3.10627 0.23305,0.3524 0.261392,0.42094 0.675931,0.66095 0.79053,0.45764 0.858541,0.46733 3.420459,0.48317 2.493637,0.0154 2.448129,0.009 2.667537,0.40411 0.196824,0.35477 0.03844,1.7643 -0.282149,2.51147 -0.247872,0.57775 -0.02635,0.54488 -3.912425,0.58188 -3.418073,0.0326 -3.417967,0.0326 -3.537252,0.87902 -0.212164,1.5055 -0.207232,1.39247 -0.06304,1.45727 0.408096,0.18323 2.183514,0.40074 4.317048,0.52865 0.454819,0.0265 1.484193,0.0431 2.287717,0.0341 1.350926,-0.014 1.488168,-0.0258 1.819526,-0.16071 0.907286,-0.36937 1.458532,-0.93174 1.823146,-1.85932 0.361543,-0.91977 0.57009,-2.3747 0.57309,-4.00441 0.0021,-1.1394 0.0019,-1.1395 -0.195852,-1.62781 -0.271571,-0.67051 -0.575691,-1.11047 -1.196827,-1.38854 -0.497216,-0.2226 -0.479869,-0.27024 -2.933155,-0.30334 -2.453285,-0.0331 -2.453129,-0.0331 -2.682523,-0.20929 -0.154133,-0.11841 -0.241607,-0.23992 -0.265618,-0.36949 -0.04089,-0.21986 0.166627,-1.84271 0.264068,-2.18023 0.0847,-0.2934 0.288356,-0.54043 0.440801,-0.65577 0.211256,-0.15986 0.70476,-0.18464 3.826121,-0.19224 2.523021,-0.006 3.060377,-0.0228 3.099035,-0.0966 0.02572,-0.0492 0.0755,-0.35353 0.110588,-0.67645 0.03508,-0.32291 0.09176,-0.7114 0.126093,-0.86299 0.07716,-0.34074 -0.007,-0.629089 -0.216009,-0.741558 -0.247891,-0.13339 -2.151576,-0.386088 -3.434416,-0.455785 -0.625684,-0.034 -1.36135,-0.0498 -2.057754,-0.04961 z m 9.397357,0.234611 c -0.478343,0.0031 -0.864928,0.01738 -0.886767,0.04599 -0.02347,0.03071 -0.08472,0.392792 -0.135911,0.804602 -0.05121,0.41181 -0.240504,1.84764 -0.420645,3.1905 -0.180134,1.34287 -0.378934,2.83678 -0.441833,3.32021 -0.06291,0.48343 -0.160375,1.216 -0.216522,1.62781 -0.05616,0.41182 -0.155144,1.15902 -0.220144,1.66036 -0.065,0.50133 -0.180327,1.35112 -0.256315,1.88826 -0.07598,0.53715 -0.185714,1.33766 -0.243914,1.77922 -0.05819,0.44156 -0.120248,0.8301 -0.137459,0.863 -0.01752,0.0328 -0.01611,0.0892 0.0026,0.12505 l 5.29e-4,-5.3e-4 c 0.02127,0.0406 0.560694,0.0651 1.435571,0.0651 1.401516,0 1.401487,2.2e-4 1.429885,-0.14624 0.0538,-0.27742 0.296312,-1.90598 0.409794,-2.75074 0.06254,-0.46552 0.226648,-1.69624 0.364837,-2.73472 0.138195,-1.03847 0.310743,-2.32779 0.382921,-2.86494 0.07218,-0.53715 0.185039,-1.38641 0.251148,-1.88774 0.06612,-0.50134 0.202967,-1.51227 0.303858,-2.24637 0.258199,-1.87867 0.330131,-2.595952 0.2682,-2.669091 -0.04092,-0.0483 -1.092565,-0.07489 -1.889805,-0.06976 z m 9.842812,2.472712 c 0.457991,0.005 0.935768,0.0592 1.348235,0.16175 0.344942,0.0858 0.670658,0.17699 0.723987,0.20257 0.205872,0.0988 0.19753,0.22699 -0.209291,3.35277 -0.0769,0.59086 -0.212973,1.64523 -0.302823,2.34352 -0.265827,2.066 -0.317466,2.43598 -0.355018,2.54713 -0.441153,0.69507 -2.078186,1.2634 -2.85047,1.48725 -0.607544,0.0773 -0.800444,0.0765 -1.144117,-0.003 -0.784336,-0.18174 -1.157716,-0.76664 -1.331698,-2.08514 -0.109196,-0.82743 0.257704,-3.85696 0.618046,-5.10356 0.12846,-0.44439 0.498091,-1.36377 0.641305,-1.59526 0.334687,-0.54098 0.944144,-0.97934 1.631942,-1.17409 0.333684,-0.0945 0.771906,-0.13881 1.229902,-0.13384 z" />
    </clipPath>
    <inkscape:path-effect
       effect="powerclip"
       id="path-effect1239"
       is_visible="true"
       lpeversion="1"
       inverse="true"
       flatten="false"
       hide_clip="false"
       message="Utilice la regla de relleno parimpar en el diálogo &lt;b&gt;Relleno y borde&lt;/b&gt; si el resultado no está aplanada después de convertir el recorte en trayectos." />
    <clipPath
       clipPathUnits="userSpaceOnUse"
       id="clipPath3219">
      <path
         id="path3221"
         style="display:none;fill:#ffffff;stroke-width:0.0218262"
         d="m 409.96515,52.552865 a 5.8849064,5.8849064 0 0 0 -5.88491,5.884912 5.8849064,5.8849064 0 0 0 5.88491,5.884913 5.8849064,5.8849064 0 0 0 5.88492,-5.884913 5.8849064,5.8849064 0 0 0 -5.88492,-5.884912 z m -6.08591,13.594519 0.1235,9.766329 c 0.11438,9.06259 0.52457,10.374805 1.27847,12.03234 2.56146,4.576662 6.20361,6.889522 10.79159,7.025928 V 80.559423 66.147384 h -6.09627 z m 14.68747,0 v 14.412039 14.412558 h 6.09676 6.0968 l -0.12351,-9.766329 c -0.11438,-9.06259 -0.52459,-10.374791 -1.27847,-12.03234 -2.56146,-4.576635 -6.2036,-6.889509 -10.79158,-7.025928 z" />
    </clipPath>
    <inkscape:path-effect
       effect="powerclip"
       id="path-effect3223"
       is_visible="true"
       lpeversion="1"
       inverse="true"
       flatten="false"
       hide_clip="false"
       message="Utilice la regla de relleno parimpar en el diálogo &lt;b&gt;Relleno y borde&lt;/b&gt; si el resultado no está aplanada después de convertir el recorte en trayectos." />
  </defs>
  <g
     inkscape:label="Capa 1"
     inkscape:groupmode="layer"
     id="layer1">
    <path
       id="path66737"
       style="display:inline;fill:url(#radialGradient855);fill-opacity:1;stroke:none;stroke-width:17.6654;stroke-miterlimit:4;stroke-dasharray:none;stroke-opacity:1"
       transform="scale(0.26458333)"
       d="M 377.95312,8.8320312 C 174.09294,8.831452 8.8314685,174.09293 8.8320312,377.95312 8.8322752,475.84987 47.721848,569.73693 116.94548,638.9602 186.16912,708.18347 280.05638,747.07255 377.95312,747.07227 475.84953,747.07203 569.73629,708.18273 638.9595,638.95952 708.18272,569.7363 747.07203,475.84954 747.07227,377.95312 747.07254,280.05637 708.18346,186.16911 638.96019,116.94547 569.73692,47.721836 475.84986,8.8322672 377.95312,8.8320312 Z"
       sodipodi:nodetypes="cssssssc" />
    <path
       style="fill:#ffffff;stroke-width:0.0864704"
       d="m 89.274967,164.78707 c -0.47235,-0.31725 -0.92656,-0.96351 -1.03608,-1.47418 -0.16708,-0.77907 0.17913,-1.62329 0.91198,-2.22382 l 0.41316,-0.33855 29.513093,-0.022 c 29.08892,-0.0217 29.51783,-0.0196 29.84283,0.14623 0.6267,0.31971 1.30505,1.34505 1.30693,1.97544 0.002,0.6126 -0.57767,1.4841 -1.2852,1.9328 l -0.39075,0.24781 H 119.09441 89.637897 Z m 17.690783,-8.46817 c -0.0203,-0.0357 -0.0518,-2.43847 -0.07,-5.33956 l -0.033,-5.2747 h 12.27881 12.27882 l 0.0223,5.33956 0.0223,5.33955 h -5.04765 -5.04762 l -0.042,-1.79426 c -0.0468,-1.99936 -0.0874,-2.17711 -0.63698,-2.78539 -0.87177,-0.96494 -2.13944,-0.986 -2.96196,-0.0492 -0.62531,0.71219 -0.65957,0.8529 -0.69037,2.8346 l -0.0279,1.79427 h -5.00393 c -2.75216,0 -5.02054,-0.0292 -5.04084,-0.0648 z M 92.811287,141.33445 c -0.70385,-0.0654 -1.83455,-0.43427 -2.68059,-0.87457 -1.34699,-0.70102 -2.31084,-1.68798 -3.196,-3.27259 -0.74557,-1.33472 -3.6808,-7.24672 -3.62541,-7.30211 0.055,-0.055 71.683953,-0.0671 71.738883,-0.0121 0.0493,0.0493 -3.35209,6.8337 -3.85748,7.69406 -1.01484,1.72757 -2.57297,2.90588 -4.72443,3.57278 l -0.77824,0.24123 -26.15734,0.003 c -14.38653,0.002 -26.410263,-0.0207 -26.719393,-0.0494 z M 41.786237,125.4247 c -1.30725,-0.10763 -2.99458,-0.5031 -4.23135,-0.99173 -2.88518,-1.1399 -5.42297,-2.99042 -7.23381,-5.27478 -1.86811,-2.35662 -4.195855,-4.54489 -3.55008,-7.65265 l -0.26863,-1.25382 -0.0616,-5.75029 c -0.09181,-8.569968 -0.0295,-42.104925 0.0797,-42.867574 0.15117,-1.055728 0.58667,-2.871414 0.91374,-3.809515 1.868,-5.357886 6.05394,-9.300454 11.58417,-10.910672 1.81095,-0.527288 1.935651,-0.576317 6.98407,-0.581699 l 37.98173,-0.04049 0.044,0.202195 c 0.0738,0.338655 0.21067,1.444827 0.3086,2.493665 0.0511,0.546926 0.16953,1.714278 0.26325,2.594116 0.0937,0.879838 0.3658,3.564748 0.60462,5.966467 0.23882,2.40172 0.66761,6.682012 0.95286,9.51176 0.75816,7.521194 1.30562,12.990448 1.4195,14.181169 0.0509,0.531674 0.0605,0.508908 -0.67595,1.59241 -1.30862,1.925264 -2.14795,4.170411 -2.4404,6.527927 -0.86342,6.960203 3.03871,13.411941 9.69514,16.029801 1.08257,0.42577 3.28865,0.90382 4.88133,1.0578 0.92418,0.0893 3.698063,-0.38327 5.145003,-0.87659 5.32778,-1.81646 9.37645,-6.619356 10.20309,-12.103823 0.1669,-1.107324 0.1672,-3.371086 6.6e-4,-4.476489 -0.40886,-2.712551 -1.69302,-5.476306 -3.5344,-7.606687 l -0.66,-0.763594 0.0218,-17.135809 0.0218,-17.13581 11.06823,-0.02504 c 6.08752,-0.01377 11.24014,-6.86e-4 11.45025,0.02909 l 0.38204,0.05413 -0.42527,0.233575 c -1.59331,0.875114 -4.49586,3.223225 -6.14473,4.970977 -3.30701,3.505302 -5.72826,7.642226 -7.16697,12.245414 -0.74564,2.385655 -1.20009,5.1745 -1.33898,8.216834 -0.046,1.007469 -0.0819,12.923684 -0.0832,27.605719 l -0.002,25.833073 -21.033963,-0.0123 c -11.56867,-0.007 -54.72361,-0.0413 -55.15401,-0.0768 z m 80.569153,0.0314 c -0.0874,-0.0874 -0.0693,-11.33903 0.0182,-11.39316 0.0417,-0.0258 19.17659,-0.0488 42.52189,-0.0511 l 42.44599,-0.004 v 2.74823 c 0,3.08919 -0.048,3.41138 -0.70261,4.71902 -0.85099,1.69985 -2.00755,2.77372 -3.77963,3.50939 -1.37743,0.57183 1.91468,0.52953 -41.21063,0.52953 -21.57959,0 -39.26156,-0.0259 -39.29326,-0.0576 z m -0.0576,-33.905134 c 0,-11.739302 0.0321,-18.626262 0.0908,-19.520723 0.25193,-3.832932 0.91451,-6.687701 2.24745,-9.683225 0.64805,-1.456392 0.68394,-1.527112 1.44846,-2.853528 1.22092,-2.118293 2.44182,-3.696826 4.24708,-5.491193 4.09334,-4.068624 9.13221,-6.591565 14.96734,-7.494078 1.39613,-0.215939 6.08477,-0.218396 7.46285,-0.0039 5.93925,0.924389 10.97232,3.470168 15.18621,7.681344 3.13613,3.134102 5.5155,7.167789 6.70143,11.360776 0.41097,1.45306 0.9142,4.258663 0.9142,5.096918 0,0.117409 -1.89006,0.134172 -17.44544,0.154729 l -17.44543,0.02304 -0.60529,0.203193 c -1.17348,0.393923 -1.92715,0.854537 -2.77597,1.696554 -1.23505,1.225161 -1.79291,2.442989 -1.94151,4.238454 -0.0436,0.527272 -0.0794,8.044686 -0.0802,16.841346 l -0.001,15.888957 h -6.4854 -6.48529 z m 17.31442,1.687651 c 0.0217,-15.540082 0.0314,-16.469081 0.17621,-16.777208 0.22301,-0.474536 0.74526,-1.018443 1.15076,-1.19847 0.33809,-0.150101 1.58013,-0.15751 29.6594,-0.176923 26.55881,-0.01837 29.33549,-0.0074 29.61546,0.116464 0.43696,0.193379 0.91223,0.634096 1.18599,1.099772 l 0.23449,0.398878 v 2.032055 c 0,1.117632 -0.01,8.540046 -0.0216,16.494256 l -0.0216,14.462199 h -31.001 -31.001 z m 23.97855,2.821206 c 0.0569,0.02183 1.51055,0.976754 3.23043,2.122093 l 3.12707,2.082434 h 0.60614 c 0.7521,0 0.83213,-0.0394 2.87102,-1.413921 3.41203,-2.300206 4.20242,-2.823134 4.26704,-2.823134 4.0407,-2.693136 0,0 3.68168,-2.432378 l 0.35902,-0.260758 c 0.19745,-0.143414 1.89603,-1.285074 3.7746,-2.537021 1.87857,-1.251948 3.57618,-2.415112 3.77245,-2.584809 1.02858,-0.889294 0.96373,-2.532397 -0.12851,-3.255867 -0.78055,-0.517012 -1.44102,-0.541148 -2.34338,-0.08564 -0.28464,0.143692 -4.02113,2.595943 -8.30329,5.449452 -4.28217,2.853508 -7.84412,5.188196 -7.91545,5.188196 -0.0713,0 -3.69409,-2.37771 -8.05056,-5.283797 -4.35646,-2.906087 -8.13156,-5.376983 -8.38909,-5.490879 -0.54205,-0.239718 -0.96672,-0.260775 -1.51204,-0.07497 -0.87944,0.299656 -1.37247,0.997697 -1.37247,1.943174 0,0.657829 0.19596,1.118256 0.66867,1.57117 0.17916,0.171658 2.02814,1.445522 4.10883,2.830808 2.0807,1.385289 3.78309,2.544335 3.78309,2.575661 z m -65.245313,5.980937 c -0.0713,-0.0173 -0.42154,-0.0784 -0.77824,-0.13593 -0.91284,-0.14713 -2.32959,-0.62643 -3.16453,-1.07059 -3.10284,-1.650624 -5.25543,-4.79717 -5.66109,-8.275119 -0.12033,-1.031624 -0.0597,-2.761389 0.12717,-3.628806 1.07115,-4.971872 5.48359,-8.511044 10.60081,-8.502786 2.956053,0.0048 5.690653,1.190212 7.774943,3.37041 1.24608,1.303425 1.87666,2.353902 2.4796,4.130752 0.35945,1.059252 0.48872,1.953557 0.4832,3.342732 -0.006,1.422657 -0.12126,2.155729 -0.52337,3.318782 -0.59277,1.71447 -1.28624,2.868107 -2.46712,4.104221 -1.48037,1.549614 -3.03221,2.446404 -5.28284,3.052874 -0.79435,0.21405 -1.15791,0.26196 -2.205003,0.29059 -0.6896,0.0189 -1.31219,0.0201 -1.38353,0.003 z m 3.524703,-8.974761 c 0.61384,-0.377606 0.94178,-0.824617 1.07577,-1.466389 0.13847,-0.663179 -0.0578,-1.319648 -0.53821,-1.800041 -0.63584,-0.635844 -0.66938,-0.64352 -2.943643,-0.67381 l -2.03756,-0.02713 -0.55238,0.37302 c -0.72307,0.488276 -0.94985,0.901409 -0.94985,1.730353 0,0.69826 0.16423,1.081251 0.66281,1.545617 0.71229,0.663407 0.77942,0.677094 3.16453,0.645262 l 1.622353,-0.02163 z M 91.573857,77.673946 c -0.13996,-1.458977 -0.85949,-8.606927 -1.01188,-10.0522 -0.0953,-0.903618 -0.38825,-3.783088 -0.65107,-6.398822 -2.16269,-21.524439 -2.17102,-21.605927 -2.38641,-23.347046 -0.10002,-0.8085 -0.21799,-1.508911 -0.26216,-1.55647 16.245613,-0.05859 15.822643,-0.03681 0,0 -0.108243,-1.140504 -0.787707,-7.31402 -0.959741,-9.404683 -0.007,-2.554572 0.0115,-2.740953 0.40012,-3.977645 0.87501,-2.784845 3.44417,-4.953256 6.34706,-5.35701 0.88746,-0.123436 5.378239,-0.187866 6.160329,-0.06448 1.055035,0.166458 2.358195,0.690592 3.285885,1.321602 0.57028,0.387905 1.42414,1.229156 1.90102,1.872968 0.8808,1.189113 1.35962,2.493598 1.45883,3.974416 0.0732,1.092222 0.0727,52.806666 -6.6e-4,52.879879 -0.0309,0.03095 -0.25404,-0.04395 -0.49579,-0.166455 -0.73416,-0.372026 -2.23219,-0.818387 -3.5553,-1.059357 -2.128065,-0.38757 -3.756965,-0.313199 -6.141775,0.280413 -1.01608,0.252918 -1.64971,0.490116 -2.97006,1.111834 -0.56477,0.265929 -1.03581,0.483508 -1.04677,0.483508 -0.0109,0 -0.0433,-0.243198 -0.0718,-0.540439 z"
       id="path21"
       sodipodi:nodetypes="ssscsccscccscccccccccscsscscccssscsscccccssscsscssccccssccssssscscccsscscssccccccsccssssccccscsscsssscsscccccccssscscsccccccscssccssssssssssssscccsssccsscsssscccscscsssccccccsccccscssccssssscc"
       clip-path="url(#clipPath1235)"
       transform="matrix(0.79855466,0,0,0.79855466,4.7048335,47.114817)"
       inkscape:original-d="m 89.274967,164.78707 c -0.47235,-0.31725 -0.92656,-0.96351 -1.03608,-1.47418 -0.16708,-0.77907 0.17913,-1.62329 0.91198,-2.22382 l 0.41316,-0.33855 29.513093,-0.022 c 29.08892,-0.0217 29.51783,-0.0196 29.84283,0.14623 0.6267,0.31971 1.30505,1.34505 1.30693,1.97544 0.002,0.6126 -0.57767,1.4841 -1.2852,1.9328 l -0.39075,0.24781 H 119.09441 89.637897 Z m 17.690783,-8.46817 c -0.0203,-0.0357 -0.0518,-2.43847 -0.07,-5.33956 l -0.033,-5.2747 h 12.27881 12.27882 l 0.0223,5.33956 0.0223,5.33955 h -5.04765 -5.04762 l -0.042,-1.79426 c -0.0468,-1.99936 -0.0874,-2.17711 -0.63698,-2.78539 -0.87177,-0.96494 -2.13944,-0.986 -2.96196,-0.0492 -0.62531,0.71219 -0.65957,0.8529 -0.69037,2.8346 l -0.0279,1.79427 h -5.00393 c -2.75216,0 -5.02054,-0.0292 -5.04084,-0.0648 z M 92.811287,141.33445 c -0.70385,-0.0654 -1.83455,-0.43427 -2.68059,-0.87457 -1.34699,-0.70102 -2.31084,-1.68798 -3.196,-3.27259 -0.74557,-1.33472 -3.6808,-7.24672 -3.62541,-7.30211 0.055,-0.055 71.683953,-0.0671 71.738883,-0.0121 0.0493,0.0493 -3.35209,6.8337 -3.85748,7.69406 -1.01484,1.72757 -2.57297,2.90588 -4.72443,3.57278 l -0.77824,0.24123 -26.15734,0.003 c -14.38653,0.002 -26.410263,-0.0207 -26.719393,-0.0494 z M 41.786237,125.4247 c -1.30725,-0.10763 -2.99458,-0.5031 -4.23135,-0.99173 -2.88518,-1.1399 -5.42297,-2.99042 -7.23381,-5.27478 -1.86811,-2.35662 -4.195855,-4.54489 -3.55008,-7.65265 l -0.26863,-1.25382 -0.0616,-5.75029 c -0.09181,-8.569968 -0.0295,-42.104925 0.0797,-42.867574 0.15117,-1.055728 0.58667,-2.871414 0.91374,-3.809515 1.868,-5.357886 6.05394,-9.300454 11.58417,-10.910672 1.81095,-0.527288 1.935651,-0.576317 6.98407,-0.581699 l 37.98173,-0.04049 0.044,0.202195 c 0.0738,0.338655 0.21067,1.444827 0.3086,2.493665 0.0511,0.546926 0.16953,1.714278 0.26325,2.594116 0.0937,0.879838 0.3658,3.564748 0.60462,5.966467 0.23882,2.40172 0.66761,6.682012 0.95286,9.51176 0.75816,7.521194 1.30562,12.990448 1.4195,14.181169 0.0509,0.531674 0.0605,0.508908 -0.67595,1.59241 -1.30862,1.925264 -2.14795,4.170411 -2.4404,6.527927 -0.86342,6.960203 3.03871,13.411941 9.69514,16.029801 1.08257,0.42577 3.28865,0.90382 4.88133,1.0578 0.92418,0.0893 3.698063,-0.38327 5.145003,-0.87659 5.32778,-1.81646 9.37645,-6.619356 10.20309,-12.103823 0.1669,-1.107324 0.1672,-3.371086 6.6e-4,-4.476489 -0.40886,-2.712551 -1.69302,-5.476306 -3.5344,-7.606687 l -0.66,-0.763594 0.0218,-17.135809 0.0218,-17.13581 11.06823,-0.02504 c 6.08752,-0.01377 11.24014,-6.86e-4 11.45025,0.02909 l 0.38204,0.05413 -0.42527,0.233575 c -1.59331,0.875114 -4.49586,3.223225 -6.14473,4.970977 -3.30701,3.505302 -5.72826,7.642226 -7.16697,12.245414 -0.74564,2.385655 -1.20009,5.1745 -1.33898,8.216834 -0.046,1.007469 -0.0819,12.923684 -0.0832,27.605719 l -0.002,25.833073 -21.033963,-0.0123 c -11.56867,-0.007 -54.72361,-0.0413 -55.15401,-0.0768 z m 80.569153,0.0314 c -0.0874,-0.0874 -0.0693,-11.33903 0.0182,-11.39316 0.0417,-0.0258 19.17659,-0.0488 42.52189,-0.0511 l 42.44599,-0.004 v 2.74823 c 0,3.08919 -0.048,3.41138 -0.70261,4.71902 -0.85099,1.69985 -2.00755,2.77372 -3.77963,3.50939 -1.37743,0.57183 1.91468,0.52953 -41.21063,0.52953 -21.57959,0 -39.26156,-0.0259 -39.29326,-0.0576 z m -0.0576,-33.905134 c 0,-11.739302 0.0321,-18.626262 0.0908,-19.520723 0.25193,-3.832932 0.91451,-6.687701 2.24745,-9.683225 0.64805,-1.456392 0.68394,-1.527112 1.44846,-2.853528 1.22092,-2.118293 2.44182,-3.696826 4.24708,-5.491193 4.09334,-4.068624 9.13221,-6.591565 14.96734,-7.494078 1.39613,-0.215939 6.08477,-0.218396 7.46285,-0.0039 5.93925,0.924389 10.97232,3.470168 15.18621,7.681344 3.13613,3.134102 5.5155,7.167789 6.70143,11.360776 0.41097,1.45306 0.9142,4.258663 0.9142,5.096918 0,0.117409 -1.89006,0.134172 -17.44544,0.154729 l -17.44543,0.02304 -0.60529,0.203193 c -1.17348,0.393923 -1.92715,0.854537 -2.77597,1.696554 -1.23505,1.225161 -1.79291,2.442989 -1.94151,4.238454 -0.0436,0.527272 -0.0794,8.044686 -0.0802,16.841346 l -0.001,15.888957 h -6.4854 -6.48529 z m 17.31442,1.687651 c 0.0217,-15.540082 0.0314,-16.469081 0.17621,-16.777208 0.22301,-0.474536 0.74526,-1.018443 1.15076,-1.19847 0.33809,-0.150101 1.58013,-0.15751 29.6594,-0.176923 26.55881,-0.01837 29.33549,-0.0074 29.61546,0.116464 0.43696,0.193379 0.91223,0.634096 1.18599,1.099772 l 0.23449,0.398878 v 2.032055 c 0,1.117632 -0.01,8.540046 -0.0216,16.494256 l -0.0216,14.462199 h -31.001 -31.001 z m 23.97855,2.821206 c 0.0569,0.02183 1.51055,0.976754 3.23043,2.122093 l 3.12707,2.082434 h 0.60614 c 0.7521,0 0.83213,-0.0394 2.87102,-1.413921 3.41203,-2.300206 4.20242,-2.823134 4.26704,-2.823134 4.0407,-2.693136 0,0 3.68168,-2.432378 l 0.35902,-0.260758 c 0.19745,-0.143414 1.89603,-1.285074 3.7746,-2.537021 1.87857,-1.251948 3.57618,-2.415112 3.77245,-2.584809 1.02858,-0.889294 0.96373,-2.532397 -0.12851,-3.255867 -0.78055,-0.517012 -1.44102,-0.541148 -2.34338,-0.08564 -0.28464,0.143692 -4.02113,2.595943 -8.30329,5.449452 -4.28217,2.853508 -7.84412,5.188196 -7.91545,5.188196 -0.0713,0 -3.69409,-2.37771 -8.05056,-5.283797 -4.35646,-2.906087 -8.13156,-5.376983 -8.38909,-5.490879 -0.54205,-0.239718 -0.96672,-0.260775 -1.51204,-0.07497 -0.87944,0.299656 -1.37247,0.997697 -1.37247,1.943174 0,0.657829 0.19596,1.118256 0.66867,1.57117 0.17916,0.171658 2.02814,1.445522 4.10883,2.830808 2.0807,1.385289 3.78309,2.544335 3.78309,2.575661 z m -65.245313,5.980937 c -0.0713,-0.0173 -0.42154,-0.0784 -0.77824,-0.13593 -0.91284,-0.14713 -2.32959,-0.62643 -3.16453,-1.07059 -3.10284,-1.650624 -5.25543,-4.79717 -5.66109,-8.275119 -0.12033,-1.031624 -0.0597,-2.761389 0.12717,-3.628806 1.07115,-4.971872 5.48359,-8.511044 10.60081,-8.502786 2.956053,0.0048 5.690653,1.190212 7.774943,3.37041 1.24608,1.303425 1.87666,2.353902 2.4796,4.130752 0.35945,1.059252 0.48872,1.953557 0.4832,3.342732 -0.006,1.422657 -0.12126,2.155729 -0.52337,3.318782 -0.59277,1.71447 -1.28624,2.868107 -2.46712,4.104221 -1.48037,1.549614 -3.03221,2.446404 -5.28284,3.052874 -0.79435,0.21405 -1.15791,0.26196 -2.205003,0.29059 -0.6896,0.0189 -1.31219,0.0201 -1.38353,0.003 z m 3.524703,-8.974761 c 0.61384,-0.377606 0.94178,-0.824617 1.07577,-1.466389 0.13847,-0.663179 -0.0578,-1.319648 -0.53821,-1.800041 -0.63584,-0.635844 -0.66938,-0.64352 -2.943643,-0.67381 l -2.03756,-0.02713 -0.55238,0.37302 c -0.72307,0.488276 -0.94985,0.901409 -0.94985,1.730353 0,0.69826 0.16423,1.081251 0.66281,1.545617 0.71229,0.663407 0.77942,0.677094 3.16453,0.645262 l 1.622353,-0.02163 z M 91.573857,77.673946 c -0.13996,-1.458977 -0.85949,-8.606927 -1.01188,-10.0522 -0.0953,-0.903618 -0.38825,-3.783088 -0.65107,-6.398822 -2.16269,-21.524439 -2.17102,-21.605927 -2.38641,-23.347046 -0.10002,-0.8085 -0.21799,-1.508911 -0.26216,-1.55647 16.245613,-0.05859 15.822643,-0.03681 0,0 -0.108243,-1.140504 -0.787707,-7.31402 -0.959741,-9.404683 -0.007,-2.554572 0.0115,-2.740953 0.40012,-3.977645 0.87501,-2.784845 3.44417,-4.953256 6.34706,-5.35701 0.88746,-0.123436 5.378239,-0.187866 6.160329,-0.06448 1.055035,0.166458 2.358195,0.690592 3.285885,1.321602 0.57028,0.387905 1.42414,1.229156 1.90102,1.872968 0.8808,1.189113 1.35962,2.493598 1.45883,3.974416 0.0732,1.092222 0.0727,52.806666 -6.6e-4,52.879879 -0.0309,0.03095 -0.25404,-0.04395 -0.49579,-0.166455 -0.73416,-0.372026 -2.23219,-0.818387 -3.5553,-1.059357 -2.128065,-0.38757 -3.756965,-0.313199 -6.141775,0.280413 -1.01608,0.252918 -1.64971,0.490116 -2.97006,1.111834 -0.56477,0.265929 -1.03581,0.483508 -1.04677,0.483508 -0.0109,0 -0.0433,-0.243198 -0.0718,-0.540439 z"
       inkscape:path-effect="#path-effect1239" />
    <path
       style="fill:#ffffff;stroke-width:0.264583"
       d="m 381.02861,138.77937 c -4.89862,-1.10279 -11.1125,-6.60087 -11.1125,-9.83241 0,-0.29202 2.50185,-0.35462 14.17304,-0.35462 h 14.17304 l -0.18014,0.59532 c -1.97768,6.53579 -10.16715,11.14197 -17.05344,9.59171 z m -34.49244,-13.64581 c -1.67401,-1.31678 -0.80707,-8.95563 1.21258,-10.68438 1.78737,-1.52992 0.4954,-1.48054 36.76244,-1.40507 38.25168,0.0796 34.88361,-0.13188 36.6018,2.29818 1.12814,1.59555 1.40046,9.18358 0.35583,9.91527 -0.54894,0.3845 -4.06469,0.42437 -37.42069,0.42437 h -36.81482 z m 5.51046,-15.92195 c 0.19787,-0.47294 1.09581,-2.46724 1.99542,-4.43177 3.37928,-7.379542 3.23105,-6.496244 3.44105,-20.505207 0.20401,-13.609413 0.26988,-14.087573 2.62435,-19.050001 2.81416,-5.931302 7.76068,-10.738234 13.47996,-13.099555 l 2.07547,-0.856904 0.15251,-2.353968 c 0.74941,-11.567222 16.32572,-11.409119 16.32572,0.165709 v 2.149559 l 1.32476,0.476375 1.32475,0.476375 -1.12632,1.303904 c -17.23395,19.951249 -7.21987,49.005613 18.17953,52.745183 1.59591,0.23497 2.94467,0.47022 2.99722,0.52278 0.0526,0.0526 0.43839,0.82047 0.85741,1.70648 l 0.76185,1.61094 h -32.38672 -32.38673 z m 35.13617,-64.540764 0.2169,0.264924 c 0,0 -4.35397,-3.508598 -7.57191,0.25084 -4.21047,9.446031 11.99302,11.209544 7.35501,-0.515764 z m 26.38956,58.911524 c -0.21828,-0.0428 -1.28984,-0.2226 -2.38125,-0.39961 -25.30697,-4.104631 -31.82652,-38.351836 -9.91661,-52.092026 23.6699,-14.843923 52.4925,10.713399 40.74837,36.132035 -4.88182,10.566075 -18.38631,18.331421 -28.45051,16.359601 z"
       id="path895"
       sodipodi:nodetypes="ssscsssssssscsssssscsscccsssscccscsccscsss"
       clip-path="url(#clipPath3219)"
       transform="matrix(0.50505268,0,0,0.50505268,-77.996689,1.7520303)"
       inkscape:original-d="m 381.02861,138.77937 c -4.89862,-1.10279 -11.1125,-6.60087 -11.1125,-9.83241 0,-0.29202 2.50185,-0.35462 14.17304,-0.35462 h 14.17304 l -0.18014,0.59532 c -1.97768,6.53579 -10.16715,11.14197 -17.05344,9.59171 z m -34.49244,-13.64581 c -1.67401,-1.31678 -0.80707,-8.95563 1.21258,-10.68438 1.78737,-1.52992 0.4954,-1.48054 36.76244,-1.40507 38.25168,0.0796 34.88361,-0.13188 36.6018,2.29818 1.12814,1.59555 1.40046,9.18358 0.35583,9.91527 -0.54894,0.3845 -4.06469,0.42437 -37.42069,0.42437 h -36.81482 z m 5.51046,-15.92195 c 0.19787,-0.47294 1.09581,-2.46724 1.99542,-4.43177 3.37928,-7.379542 3.23105,-6.496244 3.44105,-20.505207 0.20401,-13.609413 0.26988,-14.087573 2.62435,-19.050001 2.81416,-5.931302 7.76068,-10.738234 13.47996,-13.099555 l 2.07547,-0.856904 0.15251,-2.353968 c 0.74941,-11.567222 16.32572,-11.409119 16.32572,0.165709 v 2.149559 l 1.32476,0.476375 1.32475,0.476375 -1.12632,1.303904 c -17.23395,19.951249 -7.21987,49.005613 18.17953,52.745183 1.59591,0.23497 2.94467,0.47022 2.99722,0.52278 0.0526,0.0526 0.43839,0.82047 0.85741,1.70648 l 0.76185,1.61094 h -32.38672 -32.38673 z m 35.13617,-64.540764 0.2169,0.264924 c 0,0 -4.35397,-3.508598 -7.57191,0.25084 -4.21047,9.446031 11.99302,11.209544 7.35501,-0.515764 z m 26.38956,58.911524 c -0.21828,-0.0428 -1.28984,-0.2226 -2.38125,-0.39961 -25.30697,-4.104631 -31.82652,-38.351836 -9.91661,-52.092026 23.6699,-14.843923 52.4925,10.713399 40.74837,36.132035 -4.88182,10.566075 -18.38631,18.331421 -28.45051,16.359601 z"
       inkscape:path-effect="#path-effect3223" />
    <g
       id="g91778"
       transform="matrix(0.16261895,0,0,0.16261895,-67.747887,257.72163)">
      <path
         id="path71780"
         style="fill:#ffffff;stroke-width:7.56582"
         d="m 3792.3516,-5546.2832 c -256.4299,-2.0469 -494.97,37.7741 -667.8985,119.8437 -166.8465,79.1827 -201.2199,128.2225 -132.75,189.4043 33.7659,30.1724 53.9676,26.77 171.3242,-28.8593 184.3106,-87.3706 243.8383,-99.6476 528.2618,-108.9649 370.4675,-12.1353 544.6736,13.1391 854.1504,123.9239 128.2042,45.8932 168.2712,41.4198 185.4257,-20.7032 18.5522,-67.1894 -5.256,-88.0831 -163.2773,-143.2812 -244.4867,-85.4011 -518.8065,-129.3165 -775.2363,-131.3633 z m -29.4317,335.0644 c -121.2846,-1.0327 -241.1193,8.5513 -354.7461,30.125 -448.5433,85.1585 -961.6777,449.4333 -825.2617,585.8497 38.8585,38.858 78.0056,32.3899 125.1934,-20.6875 344.5893,-387.5902 914.8851,-531.4215 1510.3672,-380.92 279.4102,70.6152 589.1799,241.5617 682.9628,376.8926 73.1675,105.5811 203.8342,15.5728 132.8887,-91.5371 -193.0291,-291.4187 -745.8378,-495.2474 -1271.4043,-499.7227 z m 115.2754,318.1817 c -730.9061,-6.0091 -1347.5165,534.3303 -1397.1133,1299.6875 -5.2887,81.5903 -0.2241,105.6453 27.7149,131.6758 66.0389,61.5222 133.7392,-4.4923 135.0254,-131.6758 3.5292,-346.9818 191.0925,-668.9974 471.3027,-881.4649 v -147.5976 c 0,-36.1202 29.0783,-65.1992 65.1992,-65.1992 h 361.7149 c 103.4155,-28.8295 211.4688,-44.4004 321.7246,-44.4004 132.8773,0 249.6116,13.6261 355.8593,44.4004 h 371.2911 c -105.7737,-73.2839 -220.1485,-124.8069 -346.7129,-157.1797 -123.7403,-31.6503 -246.4031,-47.2628 -366.0059,-48.2461 z m 809.0684,280.2578 v 236.2852 c 76.5485,85.9531 152.1906,189.8072 230.7695,314.0605 139.2525,220.1972 212.2711,303.8086 306.3945,350.8438 148.5495,74.2295 229.4382,-62.4551 82.6153,-139.6094 -83.325,-43.7858 -114.2919,-82.8768 -321.2188,-405.5215 -93.8496,-146.3338 -191.9981,-263.8683 -298.5605,-356.0586 z m 438.2441,40.8281 c -63.8092,4.5239 -81.5741,79.4367 -30.9062,165.0879 35.6005,60.1792 88.9686,167.3659 118.3476,237.6973 15.4069,36.8776 28.5221,56.2575 44.7813,66.1738 55.4955,33.8427 120.2903,0.1719 119.8613,-62.2851 -0.6032,-88.5529 -167.3584,-392.1327 -221.9824,-404.1289 -10.9297,-2.4007 -20.986,-3.1912 -30.1016,-2.545 z m -2010.3828,301.7754 c -84.0029,83.2915 -156.7225,184.1712 -213.3125,302.9649 -108.2185,227.1698 -127.2027,455.8699 -60.8633,733.2402 74.5436,311.6777 15.6411,492.9336 -193.2051,594.5312 -106.5603,51.8388 -131.7228,100.9834 -78.8007,153.9083 32.8584,32.8588 66.9174,31.3763 147.5703,-6.418 273.1423,-128.0008 374.8681,-397.5608 286.5625,-759.3613 -65.6863,-269.13 -51.2716,-448.2362 53.1836,-660.8282 17.8736,-36.3764 37.6222,-70.5868 58.8652,-102.8789 z m 1572.1387,122.4903 v 338.6152 c 23.5213,63.9266 65.8696,103.5104 418.5918,392.2773 185.3219,151.718 210.0046,161.2211 256.2773,98.6719 41.6364,-56.2838 30.1909,-72.4466 -164.6328,-232.4805 -343.9495,-282.532 -345.2088,-283.7173 -371.4297,-348.7187 -37.2285,-92.284 -84.2045,-175.0566 -138.8066,-248.3652 z m 0,619.1816 v 227.1992 c 92.9788,86.0498 211.7913,187.0586 365.4883,311.8789 132.5578,107.6564 146.9512,115.8704 189.1523,107.9512 96.5681,-18.1148 76.9779,-101.968 -47.002,-201.1797 -248.0983,-198.5319 -406.1437,-335.7825 -507.6386,-445.8496 z m -2125.9043,250.75 c -36.5837,-0.7657 -71.9444,22.2151 -79.7754,57.8633 -14.0901,64.1627 70.5197,305.3752 115.7285,329.9258 35.5929,19.329 67.9084,14.6027 96.6445,-14.1329 32.95,-32.9522 32.5518,-46.3876 -4.084,-138.039 -16.3903,-41.0085 -35.4062,-98.396 -42.2558,-127.5235 -16.0811,-68.4114 -24.976,-85.9384 -50.2402,-99.0019 -11.4921,-5.9427 -23.8231,-8.8366 -36.0176,-9.0918 z m 2125.9043,207.9766 v 220.3418 c 93.0107,81.4774 194.8494,165.2659 305.8925,250.9355 67.4393,52.0422 124.643,51.7746 151.7754,-0.6973 27.2746,-52.7451 12.8841,-74.4785 -120.8378,-182.4863 -128.9077,-104.1182 -240.488,-199.6296 -336.8301,-288.0937 z m 0,404.7089 v 176.0137 c 0,9.2127 -1.9125,17.9578 -5.3301,25.8887 58.2661,45.2378 112.8568,87.9785 132.5898,104.1972 26.5542,21.8219 55.4933,40.9936 64.3106,42.629 50.4314,9.3001 95.4726,-28.1611 95.4726,-79.4024 0,-41.5925 -26.6458,-67.2121 -249.6738,-240.039 -12.9229,-10.0144 -24.8573,-19.4959 -37.3691,-29.2872 z m -1565.6699,204.2774 c -26.2521,30.5954 -57.8788,56.3349 -95.2168,78.2168 -27.9992,16.4064 -189.0746,86.7695 -198.6368,86.7695 -6.689,0 -24.8359,48.7325 -24.8359,66.6992 0,24.8805 24.3342,59.9422 48.3301,69.6387 28.7569,11.6158 52.7608,7.4217 127.8457,-22.3516 144.4743,-57.2866 247.7125,-134.1396 313.459,-242.0351 h -112.2149 c -25.9678,0 -48.2297,-15.0673 -58.7304,-36.9375 z m 328.4433,36.9375 c -42.234,206.0043 -163.6624,430.6836 -258.8672,430.6836 -76.9576,0 -83.8064,147.027 -7.5,160.9941 172.115,31.5007 376.2277,-288.6492 430.7891,-591.6777 z m 749.6016,0 c 97.4813,87.6635 203.989,177.9421 320.0234,270.8047 v -0.012 c 139.5825,111.7096 157.8987,118.8846 204.1348,79.9804 55.1372,-46.3968 39.7599,-89.3292 -61.1055,-170.6113 -77.8566,-62.7389 -150.3098,-122.614 -218.0156,-180.1621 z m -267.086,113.6328 c -162.3957,-4.4413 -275.588,162.9657 -316.2187,472.6699 -13.3024,101.3835 -7.4602,132.8779 28.7363,154.9492 61.3614,37.4133 126.2637,-7.1765 126.2637,-86.7461 0,-77.9178 50.4894,-264.3324 87.4551,-322.8867 68.5515,-108.5944 179.8493,-65.243 327.0683,127.3926 90.7998,118.8111 122.042,145.111 158.5254,133.4414 78.573,-25.1379 88.197,-81.73 27.1524,-159.6855 -18.8176,-24.0333 -45.2822,-60.7176 -58.8125,-81.5235 -74.9628,-115.2857 -194.7191,-199.4543 -328.2188,-230.6836 -17.8268,-4.1702 -35.1516,-6.4683 -51.9512,-6.9277 z"
         transform="scale(0.26458333)"
         sodipodi:nodetypes="ssscsssssscsccscssccccsscsccssccccsscsscccsscccscccsccccsscccccccccscscccsscccssccscccsscccsscccsccsccccccccccsccscscccss" />
      <g
         id="g91765">
        <path
           id="path28264-3-2-3-6"
           style="fill:#ffffff;fill-opacity:1;stroke-width:0.512532"
           d="m 850.03365,-1225.9674 c -9.06372,0 -16.3605,7.2969 -16.3605,16.3604 v 535.31739 c 0,9.06371 7.29678,16.36052 16.3605,16.36052 h 361.77085 c 9.0636,0 16.3604,-7.29681 16.3604,-16.36052 V -1209.607 c 0,-9.0635 -7.2968,-16.3604 -16.3604,-16.3604 z m 182.24515,32.2991 c 2.4473,0 4.9362,0.1065 7.4534,0.3235 8.7106,0.7504 15.2879,2.4408 21.6546,5.5649 4.1216,2.0225 5.5796,3.1038 9.4985,7.0459 4.8519,4.8806 7.1301,8.4947 9.7795,15.5141 4.4796,11.8686 6.1093,36.5946 3.3242,50.4424 -4.8421,24.0764 -20.1657,42.3008 -40.2847,47.9102 -4.1546,1.1585 -15.8235,1.4421 -20.0027,0.4861 -22.461,-5.1379 -39.1182,-25.5705 -43.04869,-52.8057 -1.88918,-13.088 0.0863,-35.5308 4.05197,-46.033 2.65131,-7.0215 4.92895,-10.6337 9.78079,-15.5141 3.91873,-3.9421 5.37592,-5.0234 9.49783,-7.0459 7.873,-3.8634 17.69,-5.8884 28.2953,-5.8884 z m -28.6744,133.1679 2.0305,1.8339 c 6.6074,5.9697 15.7413,9.0129 27.0506,9.0129 11.3088,0 20.4424,-3.0432 27.05,-9.0129 l 2.0303,-1.8339 6.1505,1.2526 c 42.0017,8.5544 56.9485,21.2547 61.8597,52.5622 1.2891,8.21876 1.8113,14.92659 2.3619,30.35388 0.6098,17.07529 0.8662,15.87681 -4.4906,20.96566 -9.1326,8.67592 -24.3348,15.35409 -44.1037,19.37487 -19.41,3.94785 -43.8065,5.38571 -69.0533,4.06923 -34.88099,-1.81871 -63.06292,-10.42528 -76.76718,-23.4441 -5.17363,-4.91472 -5.10951,-4.70039 -4.74154,-15.82191 1.33656,-40.38133 4.90874,-55.10323 16.274,-67.06763 9.37573,-9.8702 23.2415,-15.9092 48.19854,-20.9922 z m 32.8296,158.84085 c 129.803,0 137.1417,0.0335 139.6669,0.62077 11.2257,2.61495 19.8331,10.92536 22.836,22.04592 l 0.7969,2.95218 v 26.05903 l -0.8029,2.98305 c -1.6571,6.15506 -5.6638,12.31953 -10.4836,16.12959 -2.7817,2.19894 -7.7494,4.67548 -11.458,5.71195 l -2.843,0.79478 -136.646,0.0575 c -115.37403,0.049 -137.06995,-0.0188 -139.36997,-0.43034 -11.69359,-2.09641 -21.0807,-10.74401 -24.19899,-22.29418 l -0.79693,-2.95219 v -26.05903 l 0.79693,-2.95218 c 3.00258,-11.12067 11.61098,-19.43097 22.83644,-22.04591 2.52527,-0.58825 9.8634,-0.62079 139.66622,-0.62079 z m 33.0595,114.38498 11.5591,0.113 2.479,1.20358 c 5.4686,2.65449 8.6982,7.94112 8.6982,14.23816 0,6.24306 -3.2368,11.58828 -8.5905,14.18522 -2.0822,1.01023 -2.8831,1.18664 -6.5744,1.44695 -2.3119,0.16302 -36.4287,0.46551 -75.8141,0.67206 -39.38578,0.20686 -81.92483,0.45525 -94.53247,0.55152 -19.6419,0.15035 -23.18915,0.10044 -24.78784,-0.34875 -3.98445,-1.11977 -6.7231,-3.129 -9.00909,-6.60946 -2.95849,-4.50314 -3.22754,-11.44985 -0.63807,-16.46265 1.04645,-2.02483 3.89113,-4.89948 5.93793,-5.99958 3.82892,-2.05779 -1.7418,-1.90577 92.72123,-2.52947 47.84571,-0.31598 92.19401,-0.52336 98.55101,-0.46058 z m 118.8683,0.46383 2.0548,0.81916 c 6.9635,2.77567 10.9595,10.04808 9.5118,17.31319 -1.0894,5.46888 -5.0497,9.92503 -10.2624,11.54778 -2.3249,0.72374 -3.0291,0.7411 -36.8432,0.89753 -34.0931,0.15789 -34.4936,0.15171 -36.4263,-0.56071 -3.9504,-1.45544 -6.7795,-3.93553 -8.6173,-7.5563 -4.6014,-9.06508 0.7736,-20.00306 10.7492,-21.8745 1.2456,-0.23396 14.2565,-0.40735 35.8943,-0.47629 z m -9.5195,65.10996 c 6.8887,0 10.5855,0.023 10.8784,0.0754 5.531,0.99273 10.3356,5.46385 11.7752,10.9567 0.7016,2.67805 0.7016,7.17626 0,9.85421 -1.4601,5.5709 -6.1544,9.90631 -11.8905,10.98046 -1.2277,0.23019 -15.6901,0.44616 -38.9146,0.58133 -20.3282,0.11814 -85.8172,0.52201 -145.5308,0.89702 -124.23328,0.78044 -119.75169,0.77395 -121.93563,0.17891 -5.51685,-1.5023 -9.91005,-6.20957 -10.97566,-11.76018 -1.74522,-9.0859 2.47529,-16.89936 10.48089,-19.40624 2.0615,-0.64536 7.18752,-0.70019 153.6434,-1.63988 72.4076,-0.46447 121.8028,-0.70711 142.4693,-0.71758 z"
           sodipodi:nodetypes="sssssssssscsssssscsscsccsscsscsssscsscscsccssscccsccssssccsssscccccssccscsscscccscsccssccssss" />
        <g
           aria-label="PERSONA"
           id="text75411"
           style="font-size:50.8px;line-height:1.25;letter-spacing:0px;stroke-width:0.264583">
          <path
             d="m 937.06772,-869.02158 q 0,2.48047 -0.86816,4.86172 -0.86816,2.35644 -2.48047,3.96875 -2.20762,2.18281 -4.93613,3.29902 -2.70371,1.11621 -6.74688,1.11621 h -5.92832 v 12.03027 h -9.525 v -36.93417 h 15.67657 q 3.52226,0 5.92832,0.62011 2.43086,0.59532 4.29121,1.81074 2.23242,1.46348 3.39824,3.74551 1.19062,2.28203 1.19062,5.48184 z m -9.84746,0.22324 q 0,-1.56269 -0.84336,-2.67891 -0.84336,-1.14101 -1.95957,-1.5875 -1.48828,-0.59531 -2.90214,-0.64492 -1.41387,-0.0744 -3.77032,-0.0744 h -1.63711 v 11.06289 h 2.72852 q 2.43086,0 3.99355,-0.29766 1.5875,-0.29765 2.65411,-1.19062 0.91777,-0.79375 1.31464,-1.88516 0.42168,-1.11621 0.42168,-2.70371 z"
             style="font-family:Verdana;-inkscape-font-specification:Verdana;fill:#ffffff"
             id="path91723" />
          <path
             d="M 970.52925,-843.74561 H 943.8146 v -36.93417 h 26.71465 v 7.14375 h -17.23926 v 6.3748 h 15.99902 v 7.14375 h -15.99902 v 9.12812 h 17.23926 z"
             style="font-family:Verdana;-inkscape-font-specification:Verdana;fill:#ffffff"
             id="path91725" />
          <path
             d="m 999.22827,-869.36885 q 0,-1.38906 -0.57051,-2.38125 -0.5705,-0.99218 -1.95957,-1.56269 -0.96738,-0.39688 -2.25722,-0.47129 -1.28985,-0.0992 -3.00137,-0.0992 h -3.44785 v 9.94668 h 2.92695 q 2.28203,0 3.81992,-0.22324 1.53789,-0.22325 2.57969,-1.017 0.99219,-0.76894 1.43867,-1.68671 0.47129,-0.94258 0.47129,-2.50528 z m 14.85803,25.62324 h -11.6334 l -10.07072,-13.54335 h -4.39043 v 13.54335 h -9.47539 v -36.93417 h 15.97422 q 3.27421,0 5.63062,0.37207 2.3565,0.37207 4.4153,1.6123 2.0836,1.24023 3.299,3.22461 1.2402,1.95957 1.2402,4.93613 0,4.09278 -1.9099,6.67246 -1.8852,2.57969 -5.4075,4.29121 z"
             style="font-family:Verdana;-inkscape-font-specification:Verdana;fill:#ffffff"
             id="path91727" />
          <path
             d="m 1047.8207,-855.3542 q 0,5.45703 -4.6385,8.88008 -4.6137,3.39824 -12.5512,3.39824 -4.5889,0 -8.0119,-0.79375 -3.3983,-0.81855 -6.3748,-2.05879 v -8.85527 h 1.0418 q 2.9517,2.35644 6.598,3.62148 3.6711,1.26504 7.0446,1.26504 0.8681,0 2.282,-0.14883 1.4139,-0.14882 2.3068,-0.49609 1.0914,-0.44648 1.786,-1.11621 0.7193,-0.66973 0.7193,-1.98438 0,-1.21543 -1.0418,-2.08359 -1.017,-0.89297 -3.0014,-1.36426 -2.0836,-0.49609 -4.4152,-0.91777 -2.3068,-0.44648 -4.3408,-1.11621 -4.6633,-1.51309 -6.7221,-4.09277 -2.034,-2.6045 -2.034,-6.44922 0,-5.15938 4.6137,-8.40879 4.6385,-3.27422 11.9062,-3.27422 3.6463,0 7.1934,0.71933 3.5719,0.69454 6.1764,1.76114 v 8.50801 h -1.017 q -2.2324,-1.78594 -5.4819,-2.97657 -3.2246,-1.21543 -6.598,-1.21543 -1.1906,0 -2.3813,0.17364 -1.1658,0.14882 -2.2572,0.59531 -0.9674,0.37207 -1.6619,1.14101 -0.6945,0.74414 -0.6945,1.71153 0,1.46347 1.1162,2.25722 1.1162,0.76895 4.2168,1.41387 2.034,0.42168 3.8943,0.81856 1.8852,0.39687 4.0432,1.0914 4.2416,1.38906 6.2508,3.79512 2.034,2.38125 2.034,6.20117 z"
             style="font-family:Verdana;-inkscape-font-specification:Verdana;fill:#ffffff"
             id="path91729" />
          <path
             d="m 1090.2615,-862.20029 q 0,8.83047 -5.0602,14.03945 -5.0601,5.18418 -13.9898,5.18418 -8.9049,0 -13.9651,-5.18418 -5.0601,-5.20898 -5.0601,-14.03945 0,-8.90489 5.0601,-14.06426 5.0602,-5.18418 13.9651,-5.18418 8.88,0 13.965,5.18418 5.085,5.15937 5.085,14.06426 z m -12.6256,9.35136 q 1.389,-1.68671 2.0588,-3.96875 0.6697,-2.30683 0.6697,-5.40742 0,-3.32383 -0.7689,-5.65547 -0.769,-2.33164 -2.0092,-3.77031 -1.2651,-1.48828 -2.927,-2.15801 -1.6371,-0.66972 -3.423,-0.66972 -1.8108,0 -3.4231,0.64492 -1.5875,0.64492 -2.9269,2.1332 -1.2403,1.38906 -2.034,3.84473 -0.769,2.43086 -0.769,5.65547 0,3.29902 0.7442,5.63066 0.7689,2.30684 2.0092,3.77031 1.2402,1.46348 2.9021,2.15801 1.6619,0.69453 3.4975,0.69453 1.8355,0 3.4974,-0.69453 1.662,-0.71933 2.9022,-2.20762 z"
             style="font-family:Verdana;-inkscape-font-specification:Verdana;fill:#ffffff"
             id="path91731" />
          <path
             d="m 1131.1148,-843.74561 h -9.1778 l -15.6765,-25.35039 v 25.35039 h -8.7313 v -36.93417 h 11.3854 l 13.4689,21.15839 v -21.15839 h 8.7313 z"
             style="font-family:Verdana;-inkscape-font-specification:Verdana;fill:#ffffff"
             id="path91733" />
          <path
             d="m 1174.6718,-843.74561 h -9.8474 l -2.5549,-7.46621 h -13.6922 l -2.5549,7.46621 h -9.5994 l 13.6426,-36.93417 h 10.9636 z m -14.7092,-14.23789 -4.5392,-13.2457 -4.5393,13.2457 z"
             style="font-family:Verdana;-inkscape-font-specification:Verdana;fill:#ffffff"
             id="path91735" />
        </g>
      </g>
    </g>
  </g>
  <g
     inkscape:groupmode="layer"
     id="layer5"
     inkscape:label="Capa 5" />
  <g
     inkscape:groupmode="layer"
     id="layer4"
     inkscape:label="Capa 4" />
  <g
     inkscape:groupmode="layer"
     id="layer2"
     inkscape:label="Capa 2" />
  <g
     inkscape:groupmode="layer"
     id="layer3"
     inkscape:label="Capa 3" />
</svg>
