<?xml version="1.0" encoding="UTF-8" standalone="no"?>
<!-- Created with Inkscape (http://www.inkscape.org/) -->

<svg
   width="200mm"
   height="200mm"
   viewBox="0 0 200 200"
   version="1.1"
   id="svg349"
   sodipodi:docname="10567.svg"
   inkscape:version="1.1.2 (0a00cf5339, 2022-02-04)"
   xmlns:inkscape="http://www.inkscape.org/namespaces/inkscape"
   xmlns:sodipodi="http://sodipodi.sourceforge.net/DTD/sodipodi-0.dtd"
   xmlns:xlink="http://www.w3.org/1999/xlink"
   xmlns="http://www.w3.org/2000/svg"
   xmlns:svg="http://www.w3.org/2000/svg">
  <sodipodi:namedview
     id="namedview351"
     pagecolor="#505050"
     bordercolor="#ffffff"
     borderopacity="1"
     inkscape:pageshadow="0"
     inkscape:pageopacity="0"
     inkscape:pagecheckerboard="1"
     inkscape:document-units="mm"
     showgrid="false"
     width="200mm"
     inkscape:zoom="0.046324355"
     inkscape:cx="1295.215"
     inkscape:cy="-4792.2955"
     inkscape:window-width="960"
     inkscape:window-height="1010"
     inkscape:window-x="960"
     inkscape:window-y="0"
     inkscape:window-maximized="0"
     inkscape:current-layer="layer1"
     showguides="false" />
  <defs
     id="defs346">
    <linearGradient
       inkscape:collect="always"
       id="linearGradient853">
      <stop
         style="stop-color:#005d9c;stop-opacity:1;"
         offset="0"
         id="stop849" />
      <stop
         style="stop-color:#002255;stop-opacity:1"
         offset="1"
         id="stop851" />
    </linearGradient>
    <radialGradient
       inkscape:collect="always"
       xlink:href="#linearGradient853"
       id="radialGradient855"
       cx="99.999992"
       cy="100"
       fx="99.999992"
       fy="100"
       r="97.66301"
       gradientUnits="userSpaceOnUse"
       gradientTransform="scale(3.7795276)" />
    <clipPath
       clipPathUnits="userSpaceOnUse"
       id="clipPath1235">
      <path
         id="path1237"
         style="display:none;fill:#ffffff;fill-opacity:1;stroke:#000000;stroke-width:0.0158507;stroke-miterlimit:4;stroke-dasharray:none;stroke-opacity:1"
         d="m 55.884585,59.420792 c -0.0372,-0.0016 -0.07451,-0.0011 -0.111617,0.0026 -0.483251,0.02672 -0.859044,0.52851 -0.758092,1.000974 -0.88841,0.390496 -1.774272,0.786249 -2.665992,1.168918 -0.258281,-0.20493 -0.700204,0.01836 -0.654738,0.354502 0.02474,0.328796 0.495459,0.482196 0.703318,0.220142 0.11389,-0.08554 0.05055,-0.287155 0.212905,-0.308507 0.849921,-0.375092 1.699821,-0.750361 2.549713,-1.125511 0.149934,0.186124 0.367633,0.304062 0.60203,0.343127 0.05312,1.096754 0.105355,2.193476 0.158131,3.29024 -0.487852,0.13132 -0.785508,0.732689 -0.549836,1.189593 0.225264,0.518065 0.996315,0.665998 1.393198,0.26303 0.165452,-0.139509 0.344435,0.04908 0.512112,0.08527 1.253159,0.492024 2.505633,0.984742 3.758943,1.476396 -0.186042,0.137377 -0.394798,0.229891 -0.621665,0.273884 -0.358362,0.108317 -0.718767,0.210616 -1.077973,0.316259 -0.212244,-0.457843 -0.846228,-0.635371 -1.260388,-0.345197 -0.451813,0.274241 -0.491315,0.996283 -0.0677,1.314649 0.30629,0.25967 0.784066,0.250306 1.09709,0.0062 0.443589,0.374517 0.898562,0.73501 1.331185,1.122413 -0.288822,0.532384 -0.07019,1.267203 0.471807,1.542542 0.53472,0.318267 1.348097,0.100364 1.626772,-0.479555 0.140465,-0.255193 0.154832,-0.560083 0.09354,-0.840261 0.408633,-0.255641 0.814308,-0.515035 1.229381,-0.760161 0.16696,0.177038 0.395941,0.284398 0.639236,0.296627 0.240202,1.197229 0.479875,2.394646 0.719336,3.592028 -0.373491,0.180819 -0.473091,0.744736 -0.157612,1.024226 0.328792,0.350303 1.003017,0.167476 1.096055,-0.30851 0.08133,-0.342902 -0.168807,-0.710229 -0.512112,-0.774112 -0.174752,-0.108501 -0.109228,-0.343818 -0.177247,-0.510561 -0.207282,-1.035873 -0.415552,-2.071304 -0.622189,-3.107304 0.433766,-0.201218 0.584793,-0.831215 0.256315,-1.189077 -0.332724,-0.428506 -1.095478,-0.349943 -1.321882,0.148312 -0.08212,0.151945 -0.09179,0.329049 -0.07493,0.497641 -0.409305,0.25725 -0.817451,0.516335 -1.234035,0.761715 -0.383151,-0.561319 -1.259676,-0.67364 -1.765263,-0.216011 -0.108937,0.06195 -0.214294,-0.150064 -0.321945,-0.198951 -0.355666,-0.296185 -0.71098,-0.592603 -1.066604,-0.888836 0.102187,-0.132969 0.02835,-0.398778 0.241845,-0.427879 0.488783,-0.142671 0.977278,-0.285755 1.466064,-0.4284 0.286533,0.352179 0.923518,0.277871 1.09864,-0.147796 0.19952,-0.40032 -0.159975,-0.922126 -0.605134,-0.884698 -0.170098,-0.0016 -0.325948,0.07918 -0.456303,0.182417 -1.341641,-0.526272 -2.68338,-1.05259 -4.025077,-1.578713 0.08893,-0.449027 -0.223639,-0.923918 -0.672825,-1.014926 -0.09062,-0.08126 -0.02817,-0.280668 -0.05788,-0.40876 -0.04699,-0.976601 -0.09432,-1.953446 -0.141078,-2.930054 0.48148,-0.172363 0.701352,-0.827292 0.387574,-1.240753 -0.148807,-0.215578 -0.40464,-0.3483 -0.665077,-0.359148 z m -7.298777,2.580203 c -0.03065,-2.64e-4 -0.06168,0.0016 -0.09302,0.0057 -0.482277,0.02326 -0.828881,0.606054 -0.590142,1.034563 0.114713,0.231481 0.357081,0.38 0.610814,0.406175 0.404744,1.164405 0.807014,2.329601 1.209228,3.494879 -0.214551,0.193349 -0.192389,0.5604 0.04238,0.727604 -0.347853,1.381223 -0.696613,2.761784 -1.044898,4.142899 0.852197,0.557979 1.70425,1.116316 2.556431,1.674317 -0.07833,0.206526 -0.109143,0.425381 -0.109551,0.645438 -0.532902,0.112054 -1.063249,0.236344 -1.598869,0.334865 -0.177604,-0.439751 -0.786802,-0.617117 -1.163754,-0.32453 -0.414837,0.269533 -0.397732,0.962064 0.03411,1.20768 0.146931,0.09929 0.326001,0.125801 0.499708,0.126605 0.391078,1.041456 0.781013,2.083711 1.171504,3.125391 -0.355113,0.230264 -0.385744,0.807985 -0.03721,1.057302 0.368025,0.31547 1.032066,0.07588 1.083138,-0.416513 -0.03082,-0.172868 0.08179,-0.224097 0.235644,-0.24598 0.501245,-0.146556 1.002463,-0.293481 1.503785,-0.439767 0.219112,0.406241 0.825064,0.517356 1.163236,0.198954 0.38074,-0.305491 0.287234,-0.978734 -0.156581,-1.17719 -0.418391,-0.225549 -1.009986,0.05067 -1.074351,0.530201 -0.06748,0.198824 -0.31338,0.155305 -0.469738,0.232027 -0.445609,0.131312 -0.891673,0.259897 -1.337903,0.389125 -0.1573,-0.170434 -0.386077,-0.252492 -0.615469,-0.241848 -0.388474,-1.03615 -0.776213,-2.072544 -1.164269,-3.108854 0.202707,-0.135033 0.344773,-0.349221 0.376721,-0.592211 0.539978,-0.107329 1.08004,-0.214329 1.620057,-0.321427 0.234535,0.740262 1.116447,1.178674 1.848467,0.923975 0.686316,-0.19604 1.150625,-0.965361 0.980818,-1.663464 -0.05429,-0.259302 -0.222012,-0.551606 -0.440282,-0.740008 -0.525169,-0.500586 -1.41681,-0.506299 -1.956473,-0.02635 -0.08895,0.04216 -0.150333,0.229915 -0.243395,0.179318 -0.743051,-0.499007 -1.486165,-0.997706 -2.229321,-1.496547 0.32884,-1.305575 0.658281,-2.611217 0.988055,-3.916561 0.350869,0.543164 0.701712,1.086427 1.052131,1.629876 -0.423315,0.389178 -0.418174,1.137253 0.02946,1.504821 0.305223,0.280754 0.772631,0.335885 1.1498,0.177762 1.355055,1.534729 2.710447,3.069479 4.065902,4.603856 -0.71106,0.736651 -0.826161,1.977144 -0.231508,2.816881 0.08681,0.138425 -0.01797,0.285518 -0.144698,0.34675 -0.577492,0.51765 -1.151821,1.038498 -1.733227,1.551326 -0.2603,-0.06261 -0.529511,0.198186 -0.452168,0.460436 -0.696044,1.196166 -1.391348,2.392357 -2.086694,3.58893 -0.08933,-0.467132 -0.177954,-0.934312 -0.267168,-1.401466 0.367146,-0.202015 0.428267,-0.779097 0.08785,-1.03456 -0.343847,-0.313153 -0.981641,-0.107337 -1.059365,0.3576 -0.07171,0.344665 0.188288,0.70353 0.533818,0.757579 0.08627,0.442565 0.168698,0.885825 0.251145,1.329113 -0.369689,0.179647 -0.469847,0.738544 -0.150378,1.011825 0.323773,0.334459 0.980522,0.154104 1.064537,-0.311605 0.04524,-0.179541 -0.0062,-0.369435 -0.109556,-0.519348 0.700032,-1.204347 1.400353,-2.408211 2.100131,-3.612703 0.270959,0.55037 0.549065,1.096851 0.807701,1.65313 -0.360466,0.274838 -0.366459,0.888904 0.01188,1.149284 0.401598,0.334666 1.106048,0.08646 1.190106,-0.435634 0.093,-0.440047 -0.294666,-0.891202 -0.744656,-0.865063 -0.146516,0.0094 -0.143325,-0.212752 -0.223758,-0.305406 -0.223153,-0.460084 -0.467839,-0.918128 -0.671278,-1.389063 -0.05049,-0.26476 0.249746,-0.381571 0.393775,-0.546222 0.512183,-0.459647 1.024003,-0.919249 1.53634,-1.378725 0.611772,0.568534 1.520216,0.780727 2.321306,0.546219 0.104904,0.03456 0.112315,0.252452 0.1788,0.359154 0.333923,0.865015 0.668139,1.730144 1.002006,2.595186 -0.450551,-0.306398 -0.90125,-0.61328 -1.351338,-0.920355 0.209997,-0.404059 0.02188,-0.947645 -0.394809,-1.131197 -0.49989,-0.256344 -1.190244,0.12261 -1.208196,0.692981 -0.02913,0.345598 0.193387,0.678793 0.505397,0.818038 -0.03736,1.035913 -0.07618,2.072743 -0.112655,3.108338 0.08373,0.09402 0.190532,0.193519 0.330211,0.140042 0.110482,-0.03899 0.21001,-0.142245 0.173117,-0.264068 0.04501,-0.980127 0.06891,-1.962745 0.115239,-2.943487 0.170611,0.0013 0.328684,-0.20884 0.494025,-0.0708 0.414827,0.28803 0.842325,0.557665 1.244886,0.862996 -0.186159,0.407538 0.106386,0.937157 0.553971,0.982885 0.48065,0.100113 0.962962,-0.41248 0.801502,-0.885735 -0.08908,-0.31256 -0.407588,-0.523166 -0.72812,-0.513662 -0.387432,-1.002623 -0.774827,-2.005237 -1.161687,-3.008085 0.533823,-0.288798 0.95319,-0.779936 1.139465,-1.359088 0.598352,0.08368 1.196848,0.167765 1.79524,0.251145 0.07968,0.553993 0.724003,0.923177 1.241266,0.712618 0.488286,-0.156157 0.755537,-0.786257 0.504881,-1.238683 -0.03555,-0.220928 0.219818,-0.306806 0.331245,-0.455269 0.238842,-0.225248 0.477189,-0.450895 0.716235,-0.675928 0.234728,0.18869 0.488487,0.346908 0.710552,0.558106 -0.20972,0.473361 0.130058,1.080276 0.645954,1.139466 0.253634,0.04837 0.510709,-0.04257 0.713136,-0.193787 0.492464,0.374629 0.992773,0.736984 1.476912,1.122411 -0.187944,0.404227 0.103064,0.931703 0.54777,0.977201 0.476062,0.09794 0.950947,-0.40863 0.792718,-0.877464 -0.117353,-0.415205 -0.644096,-0.631264 -1.020612,-0.421164 -0.199554,0.05726 -0.306123,-0.166399 -0.462502,-0.243914 -0.375441,-0.281855 -0.75116,-0.562097 -1.120862,-0.851628 0.205864,-0.46597 -0.119206,-1.063241 -0.624769,-1.134816 -0.273738,-0.06009 -0.555119,0.04249 -0.76636,0.216527 -0.206947,-0.155302 -0.413285,-0.310671 -0.620117,-0.466122 0.857467,-0.803465 1.71527,-1.606941 2.572451,-2.410706 0.200168,-0.01942 0.319611,0.161978 0.371554,0.330214 0.310219,0.577297 0.604044,1.164415 0.907439,1.74563 -0.307697,0.303792 -0.196776,0.889101 0.210323,1.044898 0.414631,0.205547 0.975749,-0.147203 0.937926,-0.618567 -0.015,-0.357782 -0.357285,-0.652676 -0.713134,-0.624252 -0.366048,-0.641673 -0.68286,-1.309984 -1.029912,-1.962155 0.319525,-0.248026 0.29354,-0.804088 -0.06666,-1.000454 -0.378446,-0.259876 -0.977355,0.04862 -0.957564,0.515729 -0.03082,0.105413 0.09614,0.231177 0.02273,0.309544 -0.861155,0.807397 -1.722313,1.614535 -2.58382,2.421557 -0.520965,-0.391952 -1.044684,-0.779315 -1.557528,-1.181841 0.252571,-0.443982 0.0204,-1.071653 -0.466122,-1.232998 -0.530765,-0.2265 -1.211763,0.199527 -1.207162,0.785481 -0.0062,0.133975 0.03281,0.263668 0.07183,0.390155 -0.59109,0.324713 -1.182254,0.649835 -1.773018,0.975135 -0.409067,-0.515051 -1.041236,-0.833226 -1.694987,-0.877983 -0.493448,-0.0426 -1.049012,0.09117 -1.484146,0.386025 -0.127106,0.155707 -0.204798,-0.0434 -0.298175,-0.130741 -1.284057,-1.454015 -2.567929,-2.90797 -3.85196,-4.362009 0.356915,-0.382516 0.353666,-1.033502 -0.0181,-1.404048 -0.303802,-0.318344 -0.80291,-0.404717 -1.204576,-0.234095 -0.358513,-0.556012 -0.72171,-1.108671 -1.071251,-1.670183 0.140208,-0.287118 -0.0874,-0.643165 -0.399975,-0.661974 -0.418137,-1.204735 -0.834994,-2.410039 -1.253154,-3.614767 1.198358,0.662374 2.395683,1.32624 3.594094,1.988508 -0.200932,0.636447 0.191752,1.380702 0.831475,1.570964 0.234979,0.08364 0.49105,0.08338 0.733806,0.03669 0.714314,1.321808 1.429461,2.643229 2.144572,3.964614 -0.124032,0.115393 -0.313412,0.285393 -0.480073,0.140044 -0.229722,-0.158157 -0.480426,-0.288293 -0.718304,-0.435634 0.12892,-0.259987 -0.01958,-0.601125 -0.303859,-0.670758 -0.349969,-0.11166 -0.715967,0.297767 -0.545703,0.628901 0.09409,0.216704 0.360903,0.320376 0.581877,0.250113 0.320419,0.189572 0.640758,0.37941 0.961181,0.568958 -0.478882,0.65795 -0.405095,1.650285 0.180867,2.21847 0.646192,0.688226 1.844183,0.718542 2.526464,0.06563 0.588034,-0.525066 0.743728,-1.464887 0.334346,-2.143022 -0.386977,-0.667909 -1.227865,-1.029679 -1.978173,-0.841293 -0.117475,0.07138 -0.23227,0.03127 -0.268203,-0.124539 -0.682154,-1.260557 -1.364091,-2.521207 -2.046388,-3.781682 0.518221,-0.31922 0.751178,-1.028851 0.492477,-1.584917 -0.290867,-0.69432 -1.23562,-0.980417 -1.868104,-0.578776 -0.137599,0.07631 -0.247417,0.190095 -0.357601,0.300241 -1.115149,-0.61695 -2.230292,-1.234252 -3.345531,-1.851049 0.133567,-0.454848 -0.235241,-0.9275 -0.695048,-0.932244 z M 63.26088,75.103551 c 0.02318,0.01749 0.04656,0.03471 0.06976,0.0522 0.495303,0.372983 0.991005,0.745678 1.486215,1.118791 -0.351763,0.332131 -0.703974,0.664202 -1.055748,0.996325 -0.438026,-0.323535 -1.142871,-0.177575 -1.381829,0.321424 -0.04845,0.160885 -0.245473,0.02434 -0.367419,0.03824 -0.476605,-0.06665 -0.953267,-0.133461 -1.429888,-0.199988 0.03234,-0.447569 -0.0546,-0.899538 -0.257865,-1.300178 0.603927,-0.332542 1.208024,-0.663977 1.811776,-0.996839 0.330174,0.241485 0.806898,0.224544 1.124996,-0.02997 z m -6.748425,19.098577 c -0.19521,-0.0016 -0.452692,0.0019 -0.795817,0.0067 -1.183161,0.01675 -1.384731,0.0342 -1.462442,0.12609 -0.130926,0.154787 -0.361664,1.817582 -0.373102,2.689241 -0.0093,0.707673 -0.0082,0.712941 0.128672,0.761196 0.223327,0.07867 2.796297,0.03557 2.867007,-0.04806 0.09744,-0.115237 0.21205,-0.720355 0.358121,-1.890324 0.135964,-1.089207 0.136311,-1.08948 -0.0047,-1.373555 -0.105725,-0.213058 -0.132157,-0.266186 -0.717786,-0.271304 z m 20.190499,0.978752 c -0.216447,0 -0.514866,0.0024 -0.843359,0.0072 -1.194525,0.01754 -1.194406,0.01757 -1.264007,0.278019 -0.06219,0.232672 -0.872649,3.474053 -0.940509,3.761528 -0.04725,0.200179 -0.258884,0.30648 -1.185458,0.596344 -0.495509,0.155015 -0.967798,0.313549 -1.049549,0.351909 -0.160065,0.0751 -0.160359,0.0762 -0.261996,1.01958 -0.03086,0.28648 -0.07237,0.63052 -0.09199,0.76481 -0.03864,0.26435 -0.07877,0.25829 1.687753,0.2744 0.502095,0.005 0.505182,0.0154 0.332796,1.20716 -0.100304,0.69337 -0.284139,2.05322 -0.558623,4.13412 -0.0614,0.46552 -0.161742,1.2115 -0.223242,1.65726 -0.154205,1.11759 -0.124706,3.08435 0.0553,3.67316 0.122748,0.40153 0.419618,1.01999 0.525031,1.09399 0.03407,0.0239 0.173617,0.1634 0.31006,0.31006 0.242879,0.26106 0.508016,0.39249 1.052131,0.5209 0.133612,0.0316 0.878687,0.0551 1.655199,0.0543 1.41182,-0.003 1.411584,-0.002 1.501714,-0.49816 0.120209,-0.66103 0.208447,-1.50564 0.171567,-1.64279 -0.01939,-0.0721 -0.129998,-0.13377 -0.317294,-0.17777 -0.158041,-0.0371 -0.436118,-0.12632 -0.618051,-0.19792 -0.181927,-0.0716 -0.472567,-0.17948 -0.645956,-0.23978 -0.364342,-0.12675 -0.738658,-0.47358 -0.849559,-0.78703 -0.116829,-0.33023 -0.09103,-0.90173 0.115237,-2.5616 0.183401,-1.4759 0.2359,-1.88084 0.472842,-3.64578 0.208754,-1.55504 0.398264,-2.76741 0.441833,-2.82411 0.0241,-0.0314 0.744861,-0.0754 1.601452,-0.0977 1.557435,-0.0406 1.557247,-0.0408 1.627806,-0.39894 0.08839,-0.44864 0.240814,-1.77062 0.240814,-2.088761 0,-0.215278 -0.01672,-0.24289 -0.172083,-0.279566 -0.09476,-0.02236 -0.777698,-0.04082 -1.517737,-0.04082 -1.205685,0 -1.349185,-0.01117 -1.380794,-0.108524 -0.01942,-0.05976 0.0075,-0.418463 0.05994,-0.797365 0.07818,-0.564912 0.418613,-3.249401 0.419613,-3.310911 9.3e-5,-0.0048 -0.134437,-0.0072 -0.350882,-0.0072 z m -12.260233,4.018357 c -0.299974,-0.0042 -0.585745,0.0046 -0.840256,0.02791 -1.189979,0.109 -1.855483,0.277103 -2.52181,0.637172 -0.531304,0.286131 -1.01546,0.713021 -1.479497,1.242301 -0.586306,0.73926 -1.225177,2.15202 -1.570966,3.4742 -0.179237,0.68532 -0.431125,2.26925 -0.521412,3.27939 -0.217977,2.43853 -0.04709,4.27199 0.507458,5.44773 0.307316,0.6208 0.866907,1.21776 1.451078,1.44539 1.296059,0.58086 2.4067,0.33382 3.780131,-0.0527 0.448088,-0.14859 1.638025,-0.84132 1.846395,-1.07487 0.233003,-0.26114 0.2902,-0.21001 0.461989,0.41186 0.08655,0.31333 0.179893,0.64005 0.207222,0.72605 0.04968,0.15621 0.04956,0.15618 1.126545,0.11938 0.592339,-0.0203 1.087422,-0.049 1.100193,-0.0641 0.03026,-0.0358 0.323165,-2.14631 0.431499,-3.10886 0.04634,-0.4118 0.148698,-1.24693 0.227377,-1.8557 0.07869,-0.60877 0.189397,-1.48785 0.245978,-1.95337 0.190632,-1.56836 0.549667,-4.48571 0.660945,-5.37124 0.06075,-0.48344 0.110421,-1.03578 0.110585,-1.22732 2.17e-4,-0.30304 -0.02122,-0.37174 -0.164848,-0.5302 -0.365358,-0.40307 -1.361729,-0.901549 -2.460316,-1.230412 -0.673052,-0.201467 -1.698371,-0.330142 -2.59829,-0.342617 z m -19.271689,0.09664 c -1.160677,2.64e-4 -2.212917,0.04495 -2.46652,0.122473 -0.422931,0.12928 -1.13098,0.60458 -1.434018,0.96221 -0.623496,0.73579 -0.962017,1.90846 -1.183391,4.10259 -0.143645,1.4237 -0.02665,2.30878 0.409792,3.10627 0.23305,0.3524 0.261392,0.42094 0.675931,0.66095 0.79053,0.45764 0.858541,0.46733 3.420459,0.48317 2.493637,0.0154 2.448129,0.009 2.667537,0.40411 0.196824,0.35477 0.03844,1.7643 -0.282149,2.51147 -0.247872,0.57775 -0.02635,0.54488 -3.912425,0.58188 -3.418073,0.0326 -3.417967,0.0326 -3.537252,0.87902 -0.212164,1.5055 -0.207232,1.39247 -0.06304,1.45727 0.408096,0.18323 2.183514,0.40074 4.317048,0.52865 0.454819,0.0265 1.484193,0.0431 2.287717,0.0341 1.350926,-0.014 1.488168,-0.0258 1.819526,-0.16071 0.907286,-0.36937 1.458532,-0.93174 1.823146,-1.85932 0.361543,-0.91977 0.57009,-2.3747 0.57309,-4.00441 0.0021,-1.1394 0.0019,-1.1395 -0.195852,-1.62781 -0.271571,-0.67051 -0.575691,-1.11047 -1.196827,-1.38854 -0.497216,-0.2226 -0.479869,-0.27024 -2.933155,-0.30334 -2.453285,-0.0331 -2.453129,-0.0331 -2.682523,-0.20929 -0.154133,-0.11841 -0.241607,-0.23992 -0.265618,-0.36949 -0.04089,-0.21986 0.166627,-1.84271 0.264068,-2.18023 0.0847,-0.2934 0.288356,-0.54043 0.440801,-0.65577 0.211256,-0.15986 0.70476,-0.18464 3.826121,-0.19224 2.523021,-0.006 3.060377,-0.0228 3.099035,-0.0966 0.02572,-0.0492 0.0755,-0.35353 0.110588,-0.67645 0.03508,-0.32291 0.09176,-0.7114 0.126093,-0.86299 0.07716,-0.34074 -0.007,-0.629089 -0.216009,-0.741558 -0.247891,-0.13339 -2.151576,-0.386088 -3.434416,-0.455785 -0.625684,-0.034 -1.36135,-0.0498 -2.057754,-0.04961 z m 9.397357,0.234611 c -0.478343,0.0031 -0.864928,0.01738 -0.886767,0.04599 -0.02347,0.03071 -0.08472,0.392792 -0.135911,0.804602 -0.05121,0.41181 -0.240504,1.84764 -0.420645,3.1905 -0.180134,1.34287 -0.378934,2.83678 -0.441833,3.32021 -0.06291,0.48343 -0.160375,1.216 -0.216522,1.62781 -0.05616,0.41182 -0.155144,1.15902 -0.220144,1.66036 -0.065,0.50133 -0.180327,1.35112 -0.256315,1.88826 -0.07598,0.53715 -0.185714,1.33766 -0.243914,1.77922 -0.05819,0.44156 -0.120248,0.8301 -0.137459,0.863 -0.01752,0.0328 -0.01611,0.0892 0.0026,0.12505 l 5.29e-4,-5.3e-4 c 0.02127,0.0406 0.560694,0.0651 1.435571,0.0651 1.401516,0 1.401487,2.2e-4 1.429885,-0.14624 0.0538,-0.27742 0.296312,-1.90598 0.409794,-2.75074 0.06254,-0.46552 0.226648,-1.69624 0.364837,-2.73472 0.138195,-1.03847 0.310743,-2.32779 0.382921,-2.86494 0.07218,-0.53715 0.185039,-1.38641 0.251148,-1.88774 0.06612,-0.50134 0.202967,-1.51227 0.303858,-2.24637 0.258199,-1.87867 0.330131,-2.595952 0.2682,-2.669091 -0.04092,-0.0483 -1.092565,-0.07489 -1.889805,-0.06976 z m 9.842812,2.472712 c 0.457991,0.005 0.935768,0.0592 1.348235,0.16175 0.344942,0.0858 0.670658,0.17699 0.723987,0.20257 0.205872,0.0988 0.19753,0.22699 -0.209291,3.35277 -0.0769,0.59086 -0.212973,1.64523 -0.302823,2.34352 -0.265827,2.066 -0.317466,2.43598 -0.355018,2.54713 -0.441153,0.69507 -2.078186,1.2634 -2.85047,1.48725 -0.607544,0.0773 -0.800444,0.0765 -1.144117,-0.003 -0.784336,-0.18174 -1.157716,-0.76664 -1.331698,-2.08514 -0.109196,-0.82743 0.257704,-3.85696 0.618046,-5.10356 0.12846,-0.44439 0.498091,-1.36377 0.641305,-1.59526 0.334687,-0.54098 0.944144,-0.97934 1.631942,-1.17409 0.333684,-0.0945 0.771906,-0.13881 1.229902,-0.13384 z" />
    </clipPath>
    <inkscape:path-effect
       effect="powerclip"
       id="path-effect1239"
       is_visible="true"
       lpeversion="1"
       inverse="true"
       flatten="false"
       hide_clip="false"
       message="Utilice la regla de relleno parimpar en el diálogo &lt;b&gt;Relleno y borde&lt;/b&gt; si el resultado no está aplanada después de convertir el recorte en trayectos." />
    <clipPath
       clipPathUnits="userSpaceOnUse"
       id="clipPath3219">
      <path
         id="path3221"
         style="display:none;fill:#ffffff;stroke-width:0.0218262"
         d="m 409.96515,52.552865 a 5.8849064,5.8849064 0 0 0 -5.88491,5.884912 5.8849064,5.8849064 0 0 0 5.88491,5.884913 5.8849064,5.8849064 0 0 0 5.88492,-5.884913 5.8849064,5.8849064 0 0 0 -5.88492,-5.884912 z m -6.08591,13.594519 0.1235,9.766329 c 0.11438,9.06259 0.52457,10.374805 1.27847,12.03234 2.56146,4.576662 6.20361,6.889522 10.79159,7.025928 V 80.559423 66.147384 h -6.09627 z m 14.68747,0 v 14.412039 14.412558 h 6.09676 6.0968 l -0.12351,-9.766329 c -0.11438,-9.06259 -0.52459,-10.374791 -1.27847,-12.03234 -2.56146,-4.576635 -6.2036,-6.889509 -10.79158,-7.025928 z" />
    </clipPath>
    <inkscape:path-effect
       effect="powerclip"
       id="path-effect3223"
       is_visible="true"
       lpeversion="1"
       inverse="true"
       flatten="false"
       hide_clip="false"
       message="Utilice la regla de relleno parimpar en el diálogo &lt;b&gt;Relleno y borde&lt;/b&gt; si el resultado no está aplanada después de convertir el recorte en trayectos." />
  </defs>
  <g
     inkscape:label="Capa 1"
     inkscape:groupmode="layer"
     id="layer1">
    <path
       id="path66737"
       style="display:inline;fill:url(#radialGradient855);fill-opacity:1;stroke:none;stroke-width:17.6654;stroke-miterlimit:4;stroke-dasharray:none;stroke-opacity:1"
       transform="scale(0.26458333)"
       d="M 377.95312,8.8320312 C 174.09294,8.831452 8.8314685,174.09293 8.8320312,377.95312 8.8322752,475.84987 47.721848,569.73693 116.94548,638.9602 186.16912,708.18347 280.05638,747.07255 377.95312,747.07227 475.84953,747.07203 569.73629,708.18273 638.9595,638.95952 708.18272,569.7363 747.07203,475.84954 747.07227,377.95312 747.07254,280.05637 708.18346,186.16911 638.96019,116.94547 569.73692,47.721836 475.84986,8.8322672 377.95312,8.8320312 Z"
       sodipodi:nodetypes="cssssssc" />
    <path
       style="fill:#ffffff;stroke-width:0.0864704"
       d="m 89.274967,164.78707 c -0.47235,-0.31725 -0.92656,-0.96351 -1.03608,-1.47418 -0.16708,-0.77907 0.17913,-1.62329 0.91198,-2.22382 l 0.41316,-0.33855 29.513093,-0.022 c 29.08892,-0.0217 29.51783,-0.0196 29.84283,0.14623 0.6267,0.31971 1.30505,1.34505 1.30693,1.97544 0.002,0.6126 -0.57767,1.4841 -1.2852,1.9328 l -0.39075,0.24781 H 119.09441 89.637897 Z m 17.690783,-8.46817 c -0.0203,-0.0357 -0.0518,-2.43847 -0.07,-5.33956 l -0.033,-5.2747 h 12.27881 12.27882 l 0.0223,5.33956 0.0223,5.33955 h -5.04765 -5.04762 l -0.042,-1.79426 c -0.0468,-1.99936 -0.0874,-2.17711 -0.63698,-2.78539 -0.87177,-0.96494 -2.13944,-0.986 -2.96196,-0.0492 -0.62531,0.71219 -0.65957,0.8529 -0.69037,2.8346 l -0.0279,1.79427 h -5.00393 c -2.75216,0 -5.02054,-0.0292 -5.04084,-0.0648 z M 92.811287,141.33445 c -0.70385,-0.0654 -1.83455,-0.43427 -2.68059,-0.87457 -1.34699,-0.70102 -2.31084,-1.68798 -3.196,-3.27259 -0.74557,-1.33472 -3.6808,-7.24672 -3.62541,-7.30211 0.055,-0.055 71.683953,-0.0671 71.738883,-0.0121 0.0493,0.0493 -3.35209,6.8337 -3.85748,7.69406 -1.01484,1.72757 -2.57297,2.90588 -4.72443,3.57278 l -0.77824,0.24123 -26.15734,0.003 c -14.38653,0.002 -26.410263,-0.0207 -26.719393,-0.0494 z M 41.786237,125.4247 c -1.30725,-0.10763 -2.99458,-0.5031 -4.23135,-0.99173 -2.88518,-1.1399 -5.42297,-2.99042 -7.23381,-5.27478 -1.86811,-2.35662 -4.195855,-4.54489 -3.55008,-7.65265 l -0.26863,-1.25382 -0.0616,-5.75029 c -0.09181,-8.569968 -0.0295,-42.104925 0.0797,-42.867574 0.15117,-1.055728 0.58667,-2.871414 0.91374,-3.809515 1.868,-5.357886 6.05394,-9.300454 11.58417,-10.910672 1.81095,-0.527288 1.935651,-0.576317 6.98407,-0.581699 l 37.98173,-0.04049 0.044,0.202195 c 0.0738,0.338655 0.21067,1.444827 0.3086,2.493665 0.0511,0.546926 0.16953,1.714278 0.26325,2.594116 0.0937,0.879838 0.3658,3.564748 0.60462,5.966467 0.23882,2.40172 0.66761,6.682012 0.95286,9.51176 0.75816,7.521194 1.30562,12.990448 1.4195,14.181169 0.0509,0.531674 0.0605,0.508908 -0.67595,1.59241 -1.30862,1.925264 -2.14795,4.170411 -2.4404,6.527927 -0.86342,6.960203 3.03871,13.411941 9.69514,16.029801 1.08257,0.42577 3.28865,0.90382 4.88133,1.0578 0.92418,0.0893 3.698063,-0.38327 5.145003,-0.87659 5.32778,-1.81646 9.37645,-6.619356 10.20309,-12.103823 0.1669,-1.107324 0.1672,-3.371086 6.6e-4,-4.476489 -0.40886,-2.712551 -1.69302,-5.476306 -3.5344,-7.606687 l -0.66,-0.763594 0.0218,-17.135809 0.0218,-17.13581 11.06823,-0.02504 c 6.08752,-0.01377 11.24014,-6.86e-4 11.45025,0.02909 l 0.38204,0.05413 -0.42527,0.233575 c -1.59331,0.875114 -4.49586,3.223225 -6.14473,4.970977 -3.30701,3.505302 -5.72826,7.642226 -7.16697,12.245414 -0.74564,2.385655 -1.20009,5.1745 -1.33898,8.216834 -0.046,1.007469 -0.0819,12.923684 -0.0832,27.605719 l -0.002,25.833073 -21.033963,-0.0123 c -11.56867,-0.007 -54.72361,-0.0413 -55.15401,-0.0768 z m 80.569153,0.0314 c -0.0874,-0.0874 -0.0693,-11.33903 0.0182,-11.39316 0.0417,-0.0258 19.17659,-0.0488 42.52189,-0.0511 l 42.44599,-0.004 v 2.74823 c 0,3.08919 -0.048,3.41138 -0.70261,4.71902 -0.85099,1.69985 -2.00755,2.77372 -3.77963,3.50939 -1.37743,0.57183 1.91468,0.52953 -41.21063,0.52953 -21.57959,0 -39.26156,-0.0259 -39.29326,-0.0576 z m -0.0576,-33.905134 c 0,-11.739302 0.0321,-18.626262 0.0908,-19.520723 0.25193,-3.832932 0.91451,-6.687701 2.24745,-9.683225 0.64805,-1.456392 0.68394,-1.527112 1.44846,-2.853528 1.22092,-2.118293 2.44182,-3.696826 4.24708,-5.491193 4.09334,-4.068624 9.13221,-6.591565 14.96734,-7.494078 1.39613,-0.215939 6.08477,-0.218396 7.46285,-0.0039 5.93925,0.924389 10.97232,3.470168 15.18621,7.681344 3.13613,3.134102 5.5155,7.167789 6.70143,11.360776 0.41097,1.45306 0.9142,4.258663 0.9142,5.096918 0,0.117409 -1.89006,0.134172 -17.44544,0.154729 l -17.44543,0.02304 -0.60529,0.203193 c -1.17348,0.393923 -1.92715,0.854537 -2.77597,1.696554 -1.23505,1.225161 -1.79291,2.442989 -1.94151,4.238454 -0.0436,0.527272 -0.0794,8.044686 -0.0802,16.841346 l -0.001,15.888957 h -6.4854 -6.48529 z m 17.31442,1.687651 c 0.0217,-15.540082 0.0314,-16.469081 0.17621,-16.777208 0.22301,-0.474536 0.74526,-1.018443 1.15076,-1.19847 0.33809,-0.150101 1.58013,-0.15751 29.6594,-0.176923 26.55881,-0.01837 29.33549,-0.0074 29.61546,0.116464 0.43696,0.193379 0.91223,0.634096 1.18599,1.099772 l 0.23449,0.398878 v 2.032055 c 0,1.117632 -0.01,8.540046 -0.0216,16.494256 l -0.0216,14.462199 h -31.001 -31.001 z m 23.97855,2.821206 c 0.0569,0.02183 1.51055,0.976754 3.23043,2.122093 l 3.12707,2.082434 h 0.60614 c 0.7521,0 0.83213,-0.0394 2.87102,-1.413921 3.41203,-2.300206 4.20242,-2.823134 4.26704,-2.823134 4.0407,-2.693136 0,0 3.68168,-2.432378 l 0.35902,-0.260758 c 0.19745,-0.143414 1.89603,-1.285074 3.7746,-2.537021 1.87857,-1.251948 3.57618,-2.415112 3.77245,-2.584809 1.02858,-0.889294 0.96373,-2.532397 -0.12851,-3.255867 -0.78055,-0.517012 -1.44102,-0.541148 -2.34338,-0.08564 -0.28464,0.143692 -4.02113,2.595943 -8.30329,5.449452 -4.28217,2.853508 -7.84412,5.188196 -7.91545,5.188196 -0.0713,0 -3.69409,-2.37771 -8.05056,-5.283797 -4.35646,-2.906087 -8.13156,-5.376983 -8.38909,-5.490879 -0.54205,-0.239718 -0.96672,-0.260775 -1.51204,-0.07497 -0.87944,0.299656 -1.37247,0.997697 -1.37247,1.943174 0,0.657829 0.19596,1.118256 0.66867,1.57117 0.17916,0.171658 2.02814,1.445522 4.10883,2.830808 2.0807,1.385289 3.78309,2.544335 3.78309,2.575661 z m -65.245313,5.980937 c -0.0713,-0.0173 -0.42154,-0.0784 -0.77824,-0.13593 -0.91284,-0.14713 -2.32959,-0.62643 -3.16453,-1.07059 -3.10284,-1.650624 -5.25543,-4.79717 -5.66109,-8.275119 -0.12033,-1.031624 -0.0597,-2.761389 0.12717,-3.628806 1.07115,-4.971872 5.48359,-8.511044 10.60081,-8.502786 2.956053,0.0048 5.690653,1.190212 7.774943,3.37041 1.24608,1.303425 1.87666,2.353902 2.4796,4.130752 0.35945,1.059252 0.48872,1.953557 0.4832,3.342732 -0.006,1.422657 -0.12126,2.155729 -0.52337,3.318782 -0.59277,1.71447 -1.28624,2.868107 -2.46712,4.104221 -1.48037,1.549614 -3.03221,2.446404 -5.28284,3.052874 -0.79435,0.21405 -1.15791,0.26196 -2.205003,0.29059 -0.6896,0.0189 -1.31219,0.0201 -1.38353,0.003 z m 3.524703,-8.974761 c 0.61384,-0.377606 0.94178,-0.824617 1.07577,-1.466389 0.13847,-0.663179 -0.0578,-1.319648 -0.53821,-1.800041 -0.63584,-0.635844 -0.66938,-0.64352 -2.943643,-0.67381 l -2.03756,-0.02713 -0.55238,0.37302 c -0.72307,0.488276 -0.94985,0.901409 -0.94985,1.730353 0,0.69826 0.16423,1.081251 0.66281,1.545617 0.71229,0.663407 0.77942,0.677094 3.16453,0.645262 l 1.622353,-0.02163 z M 91.573857,77.673946 c -0.13996,-1.458977 -0.85949,-8.606927 -1.01188,-10.0522 -0.0953,-0.903618 -0.38825,-3.783088 -0.65107,-6.398822 -2.16269,-21.524439 -2.17102,-21.605927 -2.38641,-23.347046 -0.10002,-0.8085 -0.21799,-1.508911 -0.26216,-1.55647 16.245613,-0.05859 15.822643,-0.03681 0,0 -0.108243,-1.140504 -0.787707,-7.31402 -0.959741,-9.404683 -0.007,-2.554572 0.0115,-2.740953 0.40012,-3.977645 0.87501,-2.784845 3.44417,-4.953256 6.34706,-5.35701 0.88746,-0.123436 5.378239,-0.187866 6.160329,-0.06448 1.055035,0.166458 2.358195,0.690592 3.285885,1.321602 0.57028,0.387905 1.42414,1.229156 1.90102,1.872968 0.8808,1.189113 1.35962,2.493598 1.45883,3.974416 0.0732,1.092222 0.0727,52.806666 -6.6e-4,52.879879 -0.0309,0.03095 -0.25404,-0.04395 -0.49579,-0.166455 -0.73416,-0.372026 -2.23219,-0.818387 -3.5553,-1.059357 -2.128065,-0.38757 -3.756965,-0.313199 -6.141775,0.280413 -1.01608,0.252918 -1.64971,0.490116 -2.97006,1.111834 -0.56477,0.265929 -1.03581,0.483508 -1.04677,0.483508 -0.0109,0 -0.0433,-0.243198 -0.0718,-0.540439 z"
       id="path21"
       sodipodi:nodetypes="ssscsccscccscccccccccscsscscccssscsscccccssscsscssccccssccssssscscccsscscssccccccsccssssccccscsscsssscsscccccccssscscsccccccscssccssssssssssssscccsssccsscsssscccscscsssccccccsccccscssccssssscc"
       clip-path="url(#clipPath1235)"
       transform="matrix(0.79855466,0,0,0.79855466,4.7048335,47.114817)"
       inkscape:original-d="m 89.274967,164.78707 c -0.47235,-0.31725 -0.92656,-0.96351 -1.03608,-1.47418 -0.16708,-0.77907 0.17913,-1.62329 0.91198,-2.22382 l 0.41316,-0.33855 29.513093,-0.022 c 29.08892,-0.0217 29.51783,-0.0196 29.84283,0.14623 0.6267,0.31971 1.30505,1.34505 1.30693,1.97544 0.002,0.6126 -0.57767,1.4841 -1.2852,1.9328 l -0.39075,0.24781 H 119.09441 89.637897 Z m 17.690783,-8.46817 c -0.0203,-0.0357 -0.0518,-2.43847 -0.07,-5.33956 l -0.033,-5.2747 h 12.27881 12.27882 l 0.0223,5.33956 0.0223,5.33955 h -5.04765 -5.04762 l -0.042,-1.79426 c -0.0468,-1.99936 -0.0874,-2.17711 -0.63698,-2.78539 -0.87177,-0.96494 -2.13944,-0.986 -2.96196,-0.0492 -0.62531,0.71219 -0.65957,0.8529 -0.69037,2.8346 l -0.0279,1.79427 h -5.00393 c -2.75216,0 -5.02054,-0.0292 -5.04084,-0.0648 z M 92.811287,141.33445 c -0.70385,-0.0654 -1.83455,-0.43427 -2.68059,-0.87457 -1.34699,-0.70102 -2.31084,-1.68798 -3.196,-3.27259 -0.74557,-1.33472 -3.6808,-7.24672 -3.62541,-7.30211 0.055,-0.055 71.683953,-0.0671 71.738883,-0.0121 0.0493,0.0493 -3.35209,6.8337 -3.85748,7.69406 -1.01484,1.72757 -2.57297,2.90588 -4.72443,3.57278 l -0.77824,0.24123 -26.15734,0.003 c -14.38653,0.002 -26.410263,-0.0207 -26.719393,-0.0494 z M 41.786237,125.4247 c -1.30725,-0.10763 -2.99458,-0.5031 -4.23135,-0.99173 -2.88518,-1.1399 -5.42297,-2.99042 -7.23381,-5.27478 -1.86811,-2.35662 -4.195855,-4.54489 -3.55008,-7.65265 l -0.26863,-1.25382 -0.0616,-5.75029 c -0.09181,-8.569968 -0.0295,-42.104925 0.0797,-42.867574 0.15117,-1.055728 0.58667,-2.871414 0.91374,-3.809515 1.868,-5.357886 6.05394,-9.300454 11.58417,-10.910672 1.81095,-0.527288 1.935651,-0.576317 6.98407,-0.581699 l 37.98173,-0.04049 0.044,0.202195 c 0.0738,0.338655 0.21067,1.444827 0.3086,2.493665 0.0511,0.546926 0.16953,1.714278 0.26325,2.594116 0.0937,0.879838 0.3658,3.564748 0.60462,5.966467 0.23882,2.40172 0.66761,6.682012 0.95286,9.51176 0.75816,7.521194 1.30562,12.990448 1.4195,14.181169 0.0509,0.531674 0.0605,0.508908 -0.67595,1.59241 -1.30862,1.925264 -2.14795,4.170411 -2.4404,6.527927 -0.86342,6.960203 3.03871,13.411941 9.69514,16.029801 1.08257,0.42577 3.28865,0.90382 4.88133,1.0578 0.92418,0.0893 3.698063,-0.38327 5.145003,-0.87659 5.32778,-1.81646 9.37645,-6.619356 10.20309,-12.103823 0.1669,-1.107324 0.1672,-3.371086 6.6e-4,-4.476489 -0.40886,-2.712551 -1.69302,-5.476306 -3.5344,-7.606687 l -0.66,-0.763594 0.0218,-17.135809 0.0218,-17.13581 11.06823,-0.02504 c 6.08752,-0.01377 11.24014,-6.86e-4 11.45025,0.02909 l 0.38204,0.05413 -0.42527,0.233575 c -1.59331,0.875114 -4.49586,3.223225 -6.14473,4.970977 -3.30701,3.505302 -5.72826,7.642226 -7.16697,12.245414 -0.74564,2.385655 -1.20009,5.1745 -1.33898,8.216834 -0.046,1.007469 -0.0819,12.923684 -0.0832,27.605719 l -0.002,25.833073 -21.033963,-0.0123 c -11.56867,-0.007 -54.72361,-0.0413 -55.15401,-0.0768 z m 80.569153,0.0314 c -0.0874,-0.0874 -0.0693,-11.33903 0.0182,-11.39316 0.0417,-0.0258 19.17659,-0.0488 42.52189,-0.0511 l 42.44599,-0.004 v 2.74823 c 0,3.08919 -0.048,3.41138 -0.70261,4.71902 -0.85099,1.69985 -2.00755,2.77372 -3.77963,3.50939 -1.37743,0.57183 1.91468,0.52953 -41.21063,0.52953 -21.57959,0 -39.26156,-0.0259 -39.29326,-0.0576 z m -0.0576,-33.905134 c 0,-11.739302 0.0321,-18.626262 0.0908,-19.520723 0.25193,-3.832932 0.91451,-6.687701 2.24745,-9.683225 0.64805,-1.456392 0.68394,-1.527112 1.44846,-2.853528 1.22092,-2.118293 2.44182,-3.696826 4.24708,-5.491193 4.09334,-4.068624 9.13221,-6.591565 14.96734,-7.494078 1.39613,-0.215939 6.08477,-0.218396 7.46285,-0.0039 5.93925,0.924389 10.97232,3.470168 15.18621,7.681344 3.13613,3.134102 5.5155,7.167789 6.70143,11.360776 0.41097,1.45306 0.9142,4.258663 0.9142,5.096918 0,0.117409 -1.89006,0.134172 -17.44544,0.154729 l -17.44543,0.02304 -0.60529,0.203193 c -1.17348,0.393923 -1.92715,0.854537 -2.77597,1.696554 -1.23505,1.225161 -1.79291,2.442989 -1.94151,4.238454 -0.0436,0.527272 -0.0794,8.044686 -0.0802,16.841346 l -0.001,15.888957 h -6.4854 -6.48529 z m 17.31442,1.687651 c 0.0217,-15.540082 0.0314,-16.469081 0.17621,-16.777208 0.22301,-0.474536 0.74526,-1.018443 1.15076,-1.19847 0.33809,-0.150101 1.58013,-0.15751 29.6594,-0.176923 26.55881,-0.01837 29.33549,-0.0074 29.61546,0.116464 0.43696,0.193379 0.91223,0.634096 1.18599,1.099772 l 0.23449,0.398878 v 2.032055 c 0,1.117632 -0.01,8.540046 -0.0216,16.494256 l -0.0216,14.462199 h -31.001 -31.001 z m 23.97855,2.821206 c 0.0569,0.02183 1.51055,0.976754 3.23043,2.122093 l 3.12707,2.082434 h 0.60614 c 0.7521,0 0.83213,-0.0394 2.87102,-1.413921 3.41203,-2.300206 4.20242,-2.823134 4.26704,-2.823134 4.0407,-2.693136 0,0 3.68168,-2.432378 l 0.35902,-0.260758 c 0.19745,-0.143414 1.89603,-1.285074 3.7746,-2.537021 1.87857,-1.251948 3.57618,-2.415112 3.77245,-2.584809 1.02858,-0.889294 0.96373,-2.532397 -0.12851,-3.255867 -0.78055,-0.517012 -1.44102,-0.541148 -2.34338,-0.08564 -0.28464,0.143692 -4.02113,2.595943 -8.30329,5.449452 -4.28217,2.853508 -7.84412,5.188196 -7.91545,5.188196 -0.0713,0 -3.69409,-2.37771 -8.05056,-5.283797 -4.35646,-2.906087 -8.13156,-5.376983 -8.38909,-5.490879 -0.54205,-0.239718 -0.96672,-0.260775 -1.51204,-0.07497 -0.87944,0.299656 -1.37247,0.997697 -1.37247,1.943174 0,0.657829 0.19596,1.118256 0.66867,1.57117 0.17916,0.171658 2.02814,1.445522 4.10883,2.830808 2.0807,1.385289 3.78309,2.544335 3.78309,2.575661 z m -65.245313,5.980937 c -0.0713,-0.0173 -0.42154,-0.0784 -0.77824,-0.13593 -0.91284,-0.14713 -2.32959,-0.62643 -3.16453,-1.07059 -3.10284,-1.650624 -5.25543,-4.79717 -5.66109,-8.275119 -0.12033,-1.031624 -0.0597,-2.761389 0.12717,-3.628806 1.07115,-4.971872 5.48359,-8.511044 10.60081,-8.502786 2.956053,0.0048 5.690653,1.190212 7.774943,3.37041 1.24608,1.303425 1.87666,2.353902 2.4796,4.130752 0.35945,1.059252 0.48872,1.953557 0.4832,3.342732 -0.006,1.422657 -0.12126,2.155729 -0.52337,3.318782 -0.59277,1.71447 -1.28624,2.868107 -2.46712,4.104221 -1.48037,1.549614 -3.03221,2.446404 -5.28284,3.052874 -0.79435,0.21405 -1.15791,0.26196 -2.205003,0.29059 -0.6896,0.0189 -1.31219,0.0201 -1.38353,0.003 z m 3.524703,-8.974761 c 0.61384,-0.377606 0.94178,-0.824617 1.07577,-1.466389 0.13847,-0.663179 -0.0578,-1.319648 -0.53821,-1.800041 -0.63584,-0.635844 -0.66938,-0.64352 -2.943643,-0.67381 l -2.03756,-0.02713 -0.55238,0.37302 c -0.72307,0.488276 -0.94985,0.901409 -0.94985,1.730353 0,0.69826 0.16423,1.081251 0.66281,1.545617 0.71229,0.663407 0.77942,0.677094 3.16453,0.645262 l 1.622353,-0.02163 z M 91.573857,77.673946 c -0.13996,-1.458977 -0.85949,-8.606927 -1.01188,-10.0522 -0.0953,-0.903618 -0.38825,-3.783088 -0.65107,-6.398822 -2.16269,-21.524439 -2.17102,-21.605927 -2.38641,-23.347046 -0.10002,-0.8085 -0.21799,-1.508911 -0.26216,-1.55647 16.245613,-0.05859 15.822643,-0.03681 0,0 -0.108243,-1.140504 -0.787707,-7.31402 -0.959741,-9.404683 -0.007,-2.554572 0.0115,-2.740953 0.40012,-3.977645 0.87501,-2.784845 3.44417,-4.953256 6.34706,-5.35701 0.88746,-0.123436 5.378239,-0.187866 6.160329,-0.06448 1.055035,0.166458 2.358195,0.690592 3.285885,1.321602 0.57028,0.387905 1.42414,1.229156 1.90102,1.872968 0.8808,1.189113 1.35962,2.493598 1.45883,3.974416 0.0732,1.092222 0.0727,52.806666 -6.6e-4,52.879879 -0.0309,0.03095 -0.25404,-0.04395 -0.49579,-0.166455 -0.73416,-0.372026 -2.23219,-0.818387 -3.5553,-1.059357 -2.128065,-0.38757 -3.756965,-0.313199 -6.141775,0.280413 -1.01608,0.252918 -1.64971,0.490116 -2.97006,1.111834 -0.56477,0.265929 -1.03581,0.483508 -1.04677,0.483508 -0.0109,0 -0.0433,-0.243198 -0.0718,-0.540439 z"
       inkscape:path-effect="#path-effect1239" />
    <path
       style="fill:#ffffff;stroke-width:0.264583"
       d="m 381.02861,138.77937 c -4.89862,-1.10279 -11.1125,-6.60087 -11.1125,-9.83241 0,-0.29202 2.50185,-0.35462 14.17304,-0.35462 h 14.17304 l -0.18014,0.59532 c -1.97768,6.53579 -10.16715,11.14197 -17.05344,9.59171 z m -34.49244,-13.64581 c -1.67401,-1.31678 -0.80707,-8.95563 1.21258,-10.68438 1.78737,-1.52992 0.4954,-1.48054 36.76244,-1.40507 38.25168,0.0796 34.88361,-0.13188 36.6018,2.29818 1.12814,1.59555 1.40046,9.18358 0.35583,9.91527 -0.54894,0.3845 -4.06469,0.42437 -37.42069,0.42437 h -36.81482 z m 5.51046,-15.92195 c 0.19787,-0.47294 1.09581,-2.46724 1.99542,-4.43177 3.37928,-7.379542 3.23105,-6.496244 3.44105,-20.505207 0.20401,-13.609413 0.26988,-14.087573 2.62435,-19.050001 2.81416,-5.931302 7.76068,-10.738234 13.47996,-13.099555 l 2.07547,-0.856904 0.15251,-2.353968 c 0.74941,-11.567222 16.32572,-11.409119 16.32572,0.165709 v 2.149559 l 1.32476,0.476375 1.32475,0.476375 -1.12632,1.303904 c -17.23395,19.951249 -7.21987,49.005613 18.17953,52.745183 1.59591,0.23497 2.94467,0.47022 2.99722,0.52278 0.0526,0.0526 0.43839,0.82047 0.85741,1.70648 l 0.76185,1.61094 h -32.38672 -32.38673 z m 35.13617,-64.540764 0.2169,0.264924 c 0,0 -4.35397,-3.508598 -7.57191,0.25084 -4.21047,9.446031 11.99302,11.209544 7.35501,-0.515764 z m 26.38956,58.911524 c -0.21828,-0.0428 -1.28984,-0.2226 -2.38125,-0.39961 -25.30697,-4.104631 -31.82652,-38.351836 -9.91661,-52.092026 23.6699,-14.843923 52.4925,10.713399 40.74837,36.132035 -4.88182,10.566075 -18.38631,18.331421 -28.45051,16.359601 z"
       id="path895"
       sodipodi:nodetypes="ssscsssssssscsssssscsscccsssscccscsccscsss"
       clip-path="url(#clipPath3219)"
       transform="matrix(0.50505268,0,0,0.50505268,-77.996689,1.7520303)"
       inkscape:original-d="m 381.02861,138.77937 c -4.89862,-1.10279 -11.1125,-6.60087 -11.1125,-9.83241 0,-0.29202 2.50185,-0.35462 14.17304,-0.35462 h 14.17304 l -0.18014,0.59532 c -1.97768,6.53579 -10.16715,11.14197 -17.05344,9.59171 z m -34.49244,-13.64581 c -1.67401,-1.31678 -0.80707,-8.95563 1.21258,-10.68438 1.78737,-1.52992 0.4954,-1.48054 36.76244,-1.40507 38.25168,0.0796 34.88361,-0.13188 36.6018,2.29818 1.12814,1.59555 1.40046,9.18358 0.35583,9.91527 -0.54894,0.3845 -4.06469,0.42437 -37.42069,0.42437 h -36.81482 z m 5.51046,-15.92195 c 0.19787,-0.47294 1.09581,-2.46724 1.99542,-4.43177 3.37928,-7.379542 3.23105,-6.496244 3.44105,-20.505207 0.20401,-13.609413 0.26988,-14.087573 2.62435,-19.050001 2.81416,-5.931302 7.76068,-10.738234 13.47996,-13.099555 l 2.07547,-0.856904 0.15251,-2.353968 c 0.74941,-11.567222 16.32572,-11.409119 16.32572,0.165709 v 2.149559 l 1.32476,0.476375 1.32475,0.476375 -1.12632,1.303904 c -17.23395,19.951249 -7.21987,49.005613 18.17953,52.745183 1.59591,0.23497 2.94467,0.47022 2.99722,0.52278 0.0526,0.0526 0.43839,0.82047 0.85741,1.70648 l 0.76185,1.61094 h -32.38672 -32.38673 z m 35.13617,-64.540764 0.2169,0.264924 c 0,0 -4.35397,-3.508598 -7.57191,0.25084 -4.21047,9.446031 11.99302,11.209544 7.35501,-0.515764 z m 26.38956,58.911524 c -0.21828,-0.0428 -1.28984,-0.2226 -2.38125,-0.39961 -25.30697,-4.104631 -31.82652,-38.351836 -9.91661,-52.092026 23.6699,-14.843923 52.4925,10.713399 40.74837,36.132035 -4.88182,10.566075 -18.38631,18.331421 -28.45051,16.359601 z"
       inkscape:path-effect="#path-effect3223" />
    <path
       style="fill:#000000;stroke-width:0.264583"
       id="path365"
       d="" />
    <path
       style="fill:#000000;stroke-width:0.264583"
       id="path345"
       d="" />
    <g
       aria-label="RC - IVA"
       id="text5224"
       style="font-size:25.6093px;line-height:1.25;letter-spacing:0px;fill:#ffffff;stroke-width:0.266763"
       transform="translate(0.19576466,-3.004158)" />
    <g
       id="g15892"
       transform="matrix(0.4802976,0,0,0.4802976,-49.957013,85.569174)">
      <path
         id="path577"
         style="fill:#ffffff;fill-opacity:1;stroke-width:0.498216"
         d="m 457.08789,113.59375 -133.875,0.0664 c -148.30459,0.0751 -136.44892,-0.20475 -142.88086,3.37109 -6.84046,3.80297 -12.08147,11.03958 -13.71484,18.9375 -1.28005,6.18933 -0.85712,492.51833 0.43164,496.35937 3.329,9.92178 12.82907,18.75415 21.40234,19.89844 7.83462,1.04572 326.04535,0.23691 328.88867,-0.83594 10.84523,-4.09216 17.99616,-12.92989 19.24414,-23.78124 0.18918,-1.64449 0.31039,-53.6014 0.38477,-122.125 -22.42807,-0.12302 -39.20966,-0.32654 -40.82617,-0.52735 -16.66355,-2.06924 -30.75376,-13.70864 -33.61133,-27.76758 -0.47246,-2.32335 -0.49838,-37.76965 -0.0801,-120.48437 l 0.58985,-117.19141 1.46093,-3.57812 c 4.54743,-11.142 13.43536,-18.57438 26.75977,-22.375 l 5.00586,-1.42774 40.78515,0.14649 V 192.2539 l -33.7539,0.25781 c -43.05777,0.3294 -41.15991,0.44311 -43.71875,-2.64063 l -1.99219,-2.40234 -0.25,-36.9375 z m 13.8418,9.06055 c -0.75171,-0.0158 -0.0297,56.25726 0.72461,56.48047 0.48332,0.14301 3.12113,0.16557 5.86132,0.0488 2.7402,-0.11675 15.14784,-0.21719 27.57227,-0.22265 l 22.58984,-0.01 -28.32031,-28.14648 C 483.78178,135.32387 470.98992,122.6555 470.92969,122.6543 Z m -261.125,5.72851 h 108.04883 108.04882 l 2.0625,1.99219 c 4.48076,2.16344 3.5225,5.63282 -0.24023,9.2168 l -1.83008,1.74414 -108.04297,0.12695 -108.04297,0.12891 -1.48242,-1.24805 c -2.54628,-3.85455 -3.48287,-7.39646 0.125,-10.7168 z m 50.73242,30.4375 c 1.9927,0 3.78508,0.11844 5.375,0.35157 1.6111,0.21195 3.09447,0.49701 4.45117,0.85742 1.42035,0.40276 2.70291,0.85841 3.84766,1.36718 1.16591,0.4876 2.18359,0.94322 3.05273,1.36719 v 11.47852 h -1.40039 c -0.59357,-0.50878 -1.34626,-1.11099 -2.25781,-1.81055 -0.89034,-0.69956 -1.90799,-1.39001 -3.05274,-2.06836 -1.16594,-0.67836 -2.4265,-1.24847 -3.7832,-1.71484 -1.35673,-0.46636 -2.80796,-0.70117 -4.35547,-0.70117 -1.7171,0 -3.35092,0.27501 -4.89844,0.82617 -1.5475,0.52997 -2.9767,1.42114 -4.29101,2.67187 -1.25074,1.20834 -2.26836,2.81009 -3.05273,4.80274 -0.76314,1.99268 -1.14454,4.40741 -1.14454,7.24804 0,2.96784 0.41156,5.44873 1.23828,7.44141 0.84796,1.9927 1.90971,3.56036 3.18165,4.70508 1.29311,1.16594 2.73432,2.00493 4.32421,2.51367 1.58993,0.48759 3.15757,0.73047 4.70508,0.73047 1.48391,0 2.94715,-0.22284 4.38867,-0.66797 1.46271,-0.44518 2.80955,-1.04935 4.03907,-1.8125 1.03876,-0.61476 2.00418,-1.27114 2.89453,-1.9707 0.89034,-0.69956 1.62095,-1.30373 2.19336,-1.8125 h 1.27148 v 11.32031 c -1.18711,0.52997 -2.32121,1.02777 -3.40234,1.49414 -1.08114,0.46636 -2.21523,0.8698 -3.40235,1.20898 -1.54752,0.44518 -2.99874,0.78439 -4.35546,1.01758 -1.35672,0.2332 -3.22341,0.34961 -5.59766,0.34961 -3.51902,0 -6.77268,-0.51985 -9.76172,-1.55859 -2.96782,-1.03874 -5.52299,-2.58631 -7.66406,-4.64258 -2.14109,-2.0563 -3.80505,-4.62149 -4.99219,-7.69531 -1.16594,-3.07383 -1.74805,-6.62458 -1.74805,-10.65235 0,-3.75219 0.56006,-7.1544 1.6836,-10.20703 1.12355,-3.05264 2.75736,-5.67199 4.89844,-7.85547 2.05627,-2.09868 4.59943,-3.71854 7.63085,-4.86328 3.05265,-1.14473 6.3806,-1.71874 9.98438,-1.71875 z m -72.37305,0.92383 h 20.47852 c 2.79824,0 5.20486,0.15858 7.21875,0.47656 2.01389,0.31797 3.90066,1.00647 5.66015,2.06641 1.78071,1.05995 3.18978,2.43886 4.22852,4.13477 1.05994,1.67469 1.58984,3.78231 1.58984,6.32617 0,3.49779 -0.8169,6.35001 -2.44922,8.55468 -1.61111,2.20467 -3.92146,4.03729 -6.93164,5.5 l 15.80469,20.28907 h -14.91406 l -12.9082,-17.36133 h -5.62891 v 17.36133 h -12.14844 z m 133.71094,0 h 27.72852 v 8.39453 h -7.75977 v 30.55664 h 7.75977 v 8.39649 H 321.875 v -8.39649 h 7.75781 V 168.13867 H 321.875 Z m 32.40234,0 h 12.81446 l 11.44726,33.25977 11.44922,-33.25977 h 12.49414 L 385.2168,207.0918 h -13.67188 z m 67.22266,0 h 14.05469 l 17.48828,47.34766 h -12.625 l -3.27344,-9.57227 H 419.5918 l -3.27735,9.57227 h -12.30468 z m -221.1875,8.71094 v 12.75195 h 3.75195 c 1.95028,0 3.58216,-0.0944 4.89649,-0.28515 1.31428,-0.1908 2.4163,-0.62633 3.30664,-1.30469 0.84796,-0.65716 1.46222,-1.37775 1.84375,-2.16211 0.40281,-0.80556 0.60547,-1.87738 0.60547,-3.21289 0,-1.18714 -0.24289,-2.20284 -0.73047,-3.05078 -0.48754,-0.84795 -1.32653,-1.51635 -2.51367,-2.00391 -0.82673,-0.33917 -1.79024,-0.53993 -2.89258,-0.60352 -1.10235,-0.0848 -2.38495,-0.1289 -3.84766,-0.1289 z m 228.05469,3.4043 -5.81836,16.97851 h 11.63672 z m -140.42188,9.60156 h 24.26172 v 9.1582 h -24.26172 z m -66.14843,50.57031 13.9375,0.11133 13.9375,0.11133 2.23242,1.04687 c 5.57232,2.61197 6.54375,4.50638 11.15234,21.74024 l 3.47266,12.98437 2.90039,0.24609 c 1.59533,0.1356 22.50148,0.26902 46.45703,0.29688 75.46252,0.0861 93.79213,0.35757 95.7832,1.42187 3.85545,2.06027 6.23168,5.48277 6.63867,9.5586 0.30945,3.1009 -14.21866,66.04851 -16.02734,69.44336 -1.51034,2.83485 -3.59079,4.73122 -6.91992,6.30859 l -2.59571,1.23047 -59.7871,0.19727 c -57.38565,0.18822 -59.82897,0.22433 -60.85743,0.92187 -3.65728,2.48093 -3.77046,8.36427 -0.20898,10.9043 l 1.28125,0.91406 61.1582,0.19531 c 58.43657,0.18721 61.20986,0.22869 62.33399,0.91602 3.79407,2.32008 3.89725,7.88026 0.18359,9.98633 -0.78026,0.44298 -1.08207,0.85904 -0.91602,1.25195 8.91609,21.01924 -16.57628,38.79775 -33.0371,23.04102 -5.98214,-5.72608 -7.52305,-13.37374 -4.58008,-22.74805 0.20217,-0.64674 -0.84505,-0.6856 -18.25782,-0.68555 -10.15903,0 -18.46875,0.0524 -18.46874,0.11328 0,0.0614 0.34847,1.10696 0.77734,2.32617 5.49015,15.62184 -10.11652,31.30746 -25.82813,25.95704 -10.88683,-3.70862 -16.81658,-15.55494 -13.0664,-26.10352 l 0.78711,-2.21484 -6.52344,-0.13672 -6.52344,-0.13672 -3.06054,-1.46094 c -13.22572,-6.31526 -14.4509,-24.21668 -2.19336,-32.08203 2.10813,-1.35299 6.04672,-2.7207 7.83789,-2.7207 0.62764,0 1.14062,-0.14618 1.14062,-0.32618 0,-1.22076 -26.843,-99.58412 -27.32031,-100.11328 -0.53759,-0.59589 -1.9368,-0.67969 -13.26953,-0.78515 -12.08811,-0.11242 -12.72211,-0.15474 -13.75391,-0.92578 -3.68878,-2.75626 -3.77041,-7.47523 -0.16797,-9.88086 z m 49.3125,47.92187 c -0.68732,0.0105 -1.0796,0.025 -1.10547,0.0508 -0.10206,0.10364 1.40801,6.1108 3.36132,13.34765 1.95274,7.23682 3.55079,13.25316 3.55079,13.3711 0,0.11808 5.11637,0.21484 11.36914,0.21484 h 11.36914 v -0.88086 h 0.008 c 0,-0.48527 -0.73411,-6.45908 -1.63867,-13.27539 l -1.64258,-12.39258 -13.09375,-0.28711 c -5.40181,-0.11808 -10.11516,-0.17265 -12.17773,-0.14844 z m 50.10742,0.32618 c -7.11588,0 -12.9375,0.14212 -12.9375,0.3164 0,0.47651 3.08087,23.59929 3.33984,25.06836 l 0.22461,1.27344 H 323 334.1543 V 293.60742 280.2793 Z m 24.70312,0 v 13.33593 13.33399 l 11.25977,-0.10352 11.25976,-0.10351 1.64844,-12.34961 c 0.9091,-6.79213 1.66364,-12.7453 1.67773,-13.23047 l 0.0254,-0.88281 h -12.9375 z m 37.7793,0.39258 -1.65234,12.64257 c -0.908,6.95375 -1.64571,12.86331 -1.64063,13.13282 0,0.37904 2.29786,0.49023 10.12305,0.49023 h 10.11328 l 2.84961,-12.44531 c 1.56714,-6.84607 2.93681,-12.75738 3.04492,-13.13477 0.1826,-0.6423 -0.53761,-0.68555 -11.32031,-0.68554 z m 14.23242,38.01367 -9.63867,0.10547 -9.64063,0.10351 -1.64648,12.34961 c -0.90576,6.79207 -1.65731,12.65782 -1.66797,13.03516 -0.0264,0.83791 13.64364,1.05452 15.42188,0.24414 1.33243,-0.60719 1.43897,-0.94724 4.48437,-14.16797 z m -106.90234,0.0156 c -7.84826,0 -10.58399,0.11708 -10.58399,0.45899 0,0.98488 6.37759,24.07254 6.78907,24.57617 0.83814,1.0266 2.08735,1.18243 9.77343,1.20703 l 7.74414,0.0254 v -0.90625 c 0,-0.49765 -0.70654,-6.17738 -1.56836,-12.62109 -0.86291,-6.44356 -1.57031,-11.94643 -1.57031,-12.22852 0,-0.40946 -2.1273,-0.51172 -10.58398,-0.51172 z m 32.73632,0 c -5.71354,0 -10.39007,0.13103 -10.39062,0.29297 0,0.578 3.15155,24.22527 3.3457,25.08984 0.19814,0.88195 0.19871,0.88477 8.81641,0.88477 h 8.61719 v -13.13477 -13.13281 z m 22.14844,0 v 13.13281 13.13477 h 8.63867 c 6.55738,0 8.67856,-0.11842 8.8086,-0.49023 0.20835,-0.59791 3.33318,-24.12873 3.33203,-25.0918 0,-0.63612 -0.756,-0.68555 -10.38867,-0.68555 z m 31.42188,62.89649 c -7.42826,-0.13306 -12.06512,9.51214 -6.07227,15.19531 2.33046,2.21053 6.42683,2.93358 9.45703,1.66797 7.49692,-3.13186 6.8271,-14.21759 -0.99804,-16.49219 -0.81962,-0.23827 -1.61832,-0.35573 -2.38672,-0.36914 z m -74.3086,0.0684 c -6.20055,-0.0309 -10.22722,5.50037 -8.41406,11.55273 1.5103,5.04064 7.73109,7.42167 12.54297,4.80273 7.87182,-4.28452 4.83501,-16.31251 -4.12891,-16.35546 z m 22.06055,87.07031 c 1.86497,0.009 2.71773,1.43766 1.85547,3.10547 -0.46633,0.90269 -15.99292,25.02284 -16.35547,25.4082 -1.14326,1.21548 -2.80913,1.21548 -3.95508,0 -0.20566,-0.21812 -1.04291,-1.5266 -1.86133,-2.9082 -0.81837,-1.38166 -1.51372,-2.5364 -1.54296,-2.56641 -0.0314,-0.0311 -0.666,0.28777 -1.41602,0.70703 -27.19098,15.19564 -38.21586,21.30287 -38.83594,21.51367 -0.58671,0.19943 -1.04878,0.24777 -1.95898,0.20508 l -1.18946,-0.0547 -6.3496,-2.95898 c -3.4922,-1.62739 -6.42236,-2.95898 -6.50977,-2.95898 -0.0876,0 -7.24406,3.71073 -15.9043,8.24609 -8.6605,4.53539 -19.47841,10.2004 -24.04101,12.58984 -4.56257,2.38938 -8.61351,4.45361 -9.00196,4.58789 -0.84285,0.29135 -2.535,0.31697 -3.38671,0.0508 -2.6796,-0.83741 -4.46558,-3.7868 -3.98633,-6.58593 0.38161,-2.22694 1.47733,-3.51416 4.22461,-4.96094 0.95953,-0.50537 5.82728,-3.05327 10.8164,-5.66211 4.98911,-2.60889 13.81216,-7.22261 19.60743,-10.25391 5.79491,-3.03132 12.51393,-6.54601 14.93164,-7.81054 5.07788,-2.65579 5.14792,-2.68348 6.6289,-2.66992 1.26869,0.0124 2.3138,0.35923 4.11719,1.375 4.41908,2.48954 8.73303,4.13596 10.28711,3.92382 1.53505,-0.2094 8.11178,-3.53652 19.01953,-9.62109 3.95544,-2.20651 16.8887,-9.55763 17.00977,-9.66797 0.0314,-0.028 -0.67344,-1.29032 -1.5625,-2.80859 -1.88541,-3.22007 -2.05079,-3.57806 -2.05079,-4.45703 0,-1.29561 0.89273,-2.36665 2.24415,-2.69336 0.73023,-0.17637 28.26399,-3.07868 29.16601,-3.07422 z m 75.37695,13.90625 c 8.57097,0 10.04492,0.16232 14.90821,1.64648 18.98479,5.7931 32.49832,19.30916 38.26562,38.27149 1.4658,4.81317 1.65235,6.39594 1.65235,14.60351 0,7.60751 -0.22294,10.05584 -1.3379,14.11328 -5.37157,19.53692 -20.39268,34.53463 -39.68164,39.625 -5.49433,1.44988 -17.63202,2.08911 -22.60546,1.18946 -21.40767,-3.87265 -37.96468,-18.68864 -44.38086,-39.71289 -1.48489,-4.86351 -1.64649,-6.34039 -1.64649,-14.91016 0,-8.56971 0.1617,-10.04469 1.64649,-14.9082 5.79321,-18.98189 19.29033,-32.47902 38.27148,-38.27149 4.86404,-1.48424 6.33968,-1.64648 14.9082,-1.64648 z m 0.14844,8.90039 c -9.23439,-0.0297 -18.57095,2.75139 -26.7539,8.46094 -3.65502,2.54962 -9.74193,8.99224 -12.24024,12.95312 -4.92562,7.81097 -6.85352,14.709 -6.85352,24.51172 0,13.4352 4.44425,23.88574 14.03711,32.99805 7.40649,7.03538 14.7839,10.69657 25.52539,12.66211 0.84334,0.15421 4.46933,0.18068 8.05469,0.0605 11.75418,-0.39417 22.38472,-5.11201 30.69727,-13.62109 9.12708,-9.34334 13.08789,-19.05466 13.08789,-32.09961 0,-13.0449 -3.96081,-22.75411 -13.08789,-32.09766 -8.88928,-9.09957 -20.59485,-13.78912 -32.4668,-13.82812 z m -98.95312,12.19336 c 0.21179,0.006 0.40356,0.0318 0.57031,0.0801 2.01733,0.58641 4.51312,3.03149 5.91211,5.79101 l 0.53711,1.0625 v 36.28516 36.2832 l -0.44141,0.9336 c -0.77956,1.64617 -2.14529,2.8307 -3.74023,3.24609 -1.37209,0.35742 -10.57312,0.30256 -11.75,-0.0703 -2.13675,-0.67727 -3.64576,-2.56678 -3.95899,-4.95704 -0.098,-0.744 -0.13101,-12.41457 -0.10351,-35.7871 l 0.0391,-34.6836 0.45312,-0.92187 c 1.42266,-2.8895 9.30052,-7.35397 12.48243,-7.26172 z m 68.9707,13.46484 h 14.53906 c 3.01875,0 5.22467,0.0993 6.61719,0.30078 1.40871,0.2012 2.79915,0.64712 4.17383,1.33399 1.42574,0.72116 2.48448,1.69372 3.17187,2.91797 0.70433,1.20741 1.05469,2.59066 1.05469,4.15039 0,1.81124 -0.47811,3.4127 -1.43359,4.80468 -0.95638,1.3752 -2.30552,2.44738 -4.04883,3.21875 v 0.20313 c 2.44809,0.48635 4.38485,1.49144 5.81054,3.01758 1.44194,1.52624 2.16407,3.53819 2.16407,6.03711 0,1.81116 -0.37001,3.43189 -1.10742,4.85742 -0.72137,1.42547 -1.71911,2.60576 -2.99415,3.54492 -1.47556,1.10688 -3.10396,1.89563 -4.88085,2.36523 -1.7611,0.46959 -3.99907,0.70313 -6.71485,0.70313 h -16.35156 z m -93.56836,0.0332 h 0.002 c 1.0612,-0.0184 1.65411,0.56847 2.13867,1.75195 l 0.3086,0.7539 0.0371,31.50586 0.0371,31.50196 -0.28906,0.86328 c -0.62791,1.86379 -2.06174,3.26364 -3.89063,3.80078 -1.19423,0.35083 -10.63104,0.31479 -11.75586,-0.0449 -1.50307,-0.48072 -2.88832,-1.71397 -3.57812,-3.18555 l -0.375,-0.80273 -0.0391,-26.6543 c -0.0411,-29.86765 -0.12906,-27.28206 0.98633,-29.00977 1.72314,-2.66822 5.4815,-5.48928 11.46485,-8.60937 2.36025,-1.23062 3.89127,-1.85315 4.95312,-1.87109 z m -33.41992,4.69726 c 2.35683,0.12372 5.21174,2.14728 6.36719,4.51172 l 0.47656,0.97266 0.0351,27.48437 c 0.0312,24.42274 0.013,27.57931 -0.17968,28.32813 -0.43847,1.71148 -1.50887,3.02312 -3.11328,3.8164 l -1.05274,0.52149 -5.38281,0.0254 c -2.95921,0.0131 -5.61422,-0.0337 -5.90235,-0.10352 -2.10032,-0.51013 -3.85701,-2.42527 -4.2832,-4.66797 -0.11712,-0.61345 -0.14889,-7.83337 -0.11914,-27.00586 l 0.041,-26.16992 0.44531,-0.90625 c 1.54084,-3.1294 8.76661,-7.01138 12.66797,-6.80664 z m 136.59765,2.13672 v 7.92187 h 1.50782 c 1.52618,0 2.82703,-0.0215 3.90039,-0.0742 1.07336,-0.0499 1.92093,-0.21668 2.54101,-0.50196 0.87248,-0.38577 1.442,-0.88058 1.71094,-1.48437 0.26759,-0.6205 0.40234,-1.33364 0.40234,-2.13867 0,-0.62042 -0.15816,-1.24084 -0.47851,-1.86133 -0.30167,-0.62052 -0.84654,-1.08097 -1.63477,-1.38281 -0.70393,-0.26827 -1.58586,-0.41294 -2.64257,-0.42969 -1.04018,-0.0333 -2.50763,-0.0488 -4.40235,-0.0488 z m 41.78321,1.55859 c 2.11388,0 4.13415,0.21821 6.0625,0.6543 1.94578,0.41923 3.46479,0.87105 4.55468,1.35742 v 7.14453 h -0.78124 c -1.3415,-0.92243 -2.87561,-1.66813 -4.60352,-2.23828 -1.71043,-0.58705 -3.44638,-0.8789 -5.20703,-0.8789 -1.45978,0 -2.69272,0.19919 -3.69922,0.60156 -0.98951,0.4025 -1.48242,0.97302 -1.48242,1.71094 0,0.67079 0.2275,1.18297 0.67969,1.53515 0.45203,0.35215 1.51611,0.70435 3.19335,1.05664 0.92265,0.18435 1.91323,0.36822 2.96875,0.55274 1.07416,0.16778 2.145,0.38604 3.21875,0.65429 2.38078,0.62052 4.14299,1.60171 5.28321,2.94336 1.14012,1.3249 1.71094,2.98666 1.71094,4.98242 0,2.91807 -1.3073,5.2739 -3.92383,7.06836 -2.61569,1.7776 -6.19686,2.66602 -10.74219,2.66602 -2.51485,0 -4.79597,-0.23541 -6.8418,-0.70508 -2.04543,-0.4696 -3.68908,-0.98843 -4.92968,-1.55859 v -7.44727 h 0.82812 c 0.45243,0.31874 0.9736,0.67096 1.56055,1.05664 0.60349,0.36881 1.45106,0.771 2.54101,1.20703 0.93889,0.38578 2.00493,0.72074 3.19532,1.00586 1.19118,0.26826 2.46573,0.4043 3.82421,0.4043 1.77724,0 3.09228,-0.19445 3.94727,-0.58008 0.85549,-0.40248 1.2832,-0.98836 1.2832,-1.75976 0,-0.68766 -0.24976,-1.18121 -0.7539,-1.48243 -0.50345,-0.31873 -1.45809,-0.62303 -2.86719,-0.9082 -0.67035,-0.15064 -1.58263,-0.30897 -2.74024,-0.47656 -1.14096,-0.18431 -2.18265,-0.40475 -3.12109,-0.65625 -2.56671,-0.67079 -4.47028,-1.70842 -5.71094,-3.11719 -1.24061,-1.42547 -1.86133,-3.19548 -1.86132,-5.30859 0,-2.71673 1.28454,-4.97116 3.8496,-6.76563 2.58336,-1.81122 6.1095,-2.71875 10.56446,-2.71875 z m -203.4336,9.02344 c 0.83196,0.0486 1.24372,0.50436 1.67774,1.39258 0.95851,1.96256 0.91211,0.72814 0.91211,24.66406 v 21.57031 l -0.52539,1.0625 c -0.86226,1.74468 -2.37136,2.87684 -4.24414,3.1836 -0.97315,0.15949 -9.45896,0.15098 -10.42188,-0.0117 -1.68813,-0.28325 -3.3815,-1.62309 -4.17773,-3.30469 l -0.44922,-0.94531 v -18.57227 -18.57226 l 0.58398,-1.17383 c 1.68096,-3.38428 5.20541,-5.72027 12.43946,-8.24414 2.11904,-0.73937 3.3731,-1.09736 4.20507,-1.04883 z m 163.76172,3.80469 -2.11133,0.002 v 9.33399 h 0.70313 c 2.71737,0 4.66822,-0.0127 5.83594,-0.0273 1.17375,-0.0192 2.25503,-0.23566 3.24414,-0.65429 1.00649,-0.41922 1.69587,-0.97459 2.06445,-1.66211 0.38482,-0.70354 0.58008,-1.50589 0.58008,-2.41016 v -0.004 c 0,-1.18913 -0.2374,-2.10358 -0.70508,-2.74023 -0.45278,-0.65402 -1.23375,-1.14235 -2.33984,-1.46094 -0.7554,-0.21818 -1.79513,-0.33486 -3.11914,-0.35156 -1.32571,-0.0192 -2.70956,-0.0254 -4.15235,-0.0254 z M 241.39453,626.7832 h 108.04883 108.04883 l 2.0625,1.99219 c 4.48076,2.16344 3.52234,5.63269 -0.24024,9.2168 l -1.83007,1.74414 -108.04297,0.12695 -108.04297,0.12891 -1.48242,-1.24805 c -2.54628,-3.85457 -3.48284,-7.39644 0.125,-10.7168 z"
         transform="matrix(0.53106085,0,0,0.53106085,117.70215,-171.66903)"
         sodipodi:nodetypes="ccssssssccccccccccccccccsssccccccccccccccsccccccccsscccscccsccscccscsscscssccscssccscccccccccccccccccccccccccccccccccccccccccssccssccsccccccccccccccccccccsccccccccccccssccccccccsssscccsccssccccccssssccccccscccccccccccccscccsccccccsccsscccscsssscsscccscccsccsccccsccccccsccssccsccsssssscsscscccsccscsssccscsccscsssccsssccscsssccccccscccccsscscccsccccscccscccssccccsscccccscsccscccccccccssccscccscccscscccccscssccccscssccccccscscccccscsscsccsccccccssscccscccssccccccccccccccc" />
      <path
         id="path114136-3-6"
         style="fill:#ffffff;stroke-width:0.316567"
         d="m 384.02475,-55.238292 -2.53565,0.723099 c -6.74867,1.92496 -11.25004,5.688681 -13.55326,11.331937 l -0.73977,1.812935 -0.2987,59.355668 c -0.21185,41.893777 -0.19914,59.846429 0.0403,61.02317 1.44735,7.120643 8.58391,13.01641 17.02379,14.064448 1.13233,0.140668 16.73206,0.284151 34.66596,0.318426 l 32.60637,0.06227 2.37714,-0.713639 c 6.70294,-2.012962 11.1202,-5.746769 13.39482,-11.320632 l 0.7402,-1.812936 0.2182,-60.305947 0.21778,-60.305465 -0.72686,-1.818364 c -2.26191,-5.659788 -6.73637,-9.456257 -13.47106,-11.429987 l -2.52949,-0.741593 -33.71474,-0.122035 z m 40.80196,15.186326 c 9.948,0.02229 18.42772,0.138138 20.46169,0.365869 6.2061,0.695248 9.40885,2.455222 11.31082,6.215171 l 1.10014,2.175174 0.0741,8.026747 0.0742,8.026766 -40.2463,-0.145335 -40.24648,-0.14553 0.12921,-8.626092 c 0.11865,-7.975411 0.18007,-8.733425 0.79721,-10.048355 1.28019,-2.723645 3.56625,-4.300568 7.6234,-5.259495 1.68587,-0.398381 22.34289,-0.621819 38.92263,-0.584889 z m 2.93792,4.354408 c -0.0297,0.433563 -0.13769,0.794892 -0.32517,1.083958 -0.18855,0.289055 -0.46904,0.523902 -0.84488,0.704572 -0.31819,0.151674 -0.71603,0.260172 -1.19313,0.325208 -0.47664,0.05777 -0.97513,0.0866 -1.49524,0.0866 v 2.634021 h 3.40315 v 8.530794 h -3.40315 v 2.81831 h 10.77405 v -2.81831 h -3.3271 v -13.365286 z m -20.8339,0.04345 v 3.08929 h 8.29243 l -7.58739,13.050954 h 4.63951 l 7.30563,-12.931721 v -3.208523 z m 38.34008,0 -7.55497,9.365447 v 3.056788 h 7.81492 v 3.761349 h 3.97829 v -3.761349 h 2.2009 v -2.948382 h -2.2009 v -9.473853 z m 0.25995,3.642106 v 5.831747 h -4.69355 z M 385.07214,5.4119071 c 0.48236,0.00204 1.00437,0.012678 1.57127,0.030263 6.09871,0.1978668 7.2639,1.2928869 7.05882,6.6320489 -0.13347,3.498437 -0.43641,4.075628 -2.65892,5.086524 -1.02789,0.467548 -2.01785,0.569175 -5.22504,0.53701 -6.83747,-0.0686 -7.9113,-0.912336 -7.89202,-6.204804 l 0.0213,-3.3449438 1.05163,-1.0437565 c 1.27726,-1.2678583 2.70595,-1.7022592 6.08197,-1.6923214 z m 21.08408,0.084553 c 0.4671,6.85e-4 0.97194,0.010633 1.51939,0.027912 6.06353,0.1957503 7.30392,1.2422776 7.28653,6.1451769 -0.0212,3.432237 -0.57515,4.615266 -2.63605,5.541752 -1.66851,0.750316 -8.92772,0.845563 -10.53547,0.138128 -2.14325,-0.942763 -2.6676,-2.087258 -2.65469,-5.793326 l 0.0212,-3.3314066 1.05185,-1.0442268 c 1.26132,-1.2522768 2.6858,-1.6891213 5.95614,-1.6841933 z m 21.23448,0.069115 c 0.46672,0.00204 0.97069,0.01278 1.51687,0.030672 5.89468,0.202304 7.28401,1.3779001 7.26642,6.1451979 -0.0212,3.238143 -0.59148,4.482966 -2.53966,5.456412 v 0 c -1.25692,0.627933 -1.8774,0.703673 -5.54284,0.679718 -6.78254,-0.04488 -7.76489,-0.819379 -7.74583,-6.108126 l 0.0213,-3.4677962 1.05204,-1.0442473 c 1.26792,-1.2588406 2.71294,-1.7013084 5.98029,-1.6918613 z m 21.94382,0.058686 c 6.20884,0.022391 7.81508,1.1834891 7.97463,5.7635519 0.12709,3.639348 -0.3502,4.782697 -2.44749,5.869691 v -3.47e-4 c -2.07891,1.077741 -9.06399,1.058612 -11.10537,-0.03037 -2.1022,-1.121541 -2.59304,-2.307914 -2.43968,-5.896754 0.19491,-4.5791327 1.80942,-5.7281973 8.0179,-5.705735 z m -2.93689,2.5116593 2.47143,3.3155996 -2.70129,3.638938 h 1.34714 l 2.02445,-2.732061 2.0242,2.732061 h 1.34779 l -2.64512,-3.570324 2.51461,-3.3842136 h -1.34714 l -1.84477,2.4773156 -1.84416,-2.4773156 z M 385.80109,22.485816 c 6.68154,0.02392 7.90962,0.957628 7.8912,5.988431 -0.0212,3.582571 -0.48071,4.655374 -2.43522,5.601848 -0.96157,0.465616 -2.04794,0.606647 -5.02549,0.651745 -4.44015,0.06738 -5.80212,-0.2418 -7.28976,-1.65484 l -1.08995,-1.035649 0.0212,-3.341323 c 0.0213,-5.346165 1.15566,-6.234699 7.93695,-6.210212 z m 21.16418,0.07627 c 6.59592,0.02392 7.95493,1.075492 7.93672,6.152866 0,3.310007 -0.47751,4.356176 -2.39283,5.361562 -1.05778,0.555229 -1.90028,0.67571 -5.06764,0.725808 -7.11645,0.112495 -8.38648,-0.797183 -8.36721,-5.995701 0.0213,-5.424747 1.08616,-6.269093 7.89096,-6.244535 z m 21.16608,0.08343 c 6.78511,0.03619 8.09626,1.106011 7.91596,6.457267 l -0.10593,3.110975 -1.16113,1.055514 c -0.63852,0.580697 -1.70941,1.206268 -2.37931,1.389719 v -3.37e-4 c -1.34989,0.369652 -7.01345,0.381205 -8.49832,0.01697 -2.99363,-0.733895 -3.63341,-1.804357 -3.61882,-6.047149 0.0213,-5.202546 1.08975,-6.019502 7.84669,-5.983043 z m 21.14109,0.06952 c 6.71901,0.02433 8.18395,1.20132 7.98563,6.416626 -0.11649,3.074199 -0.58109,4.025233 -2.52016,5.157878 -0.89612,0.523432 -1.74286,0.640457 -5.03501,0.695964 -6.78785,0.114182 -8.54282,-1.194593 -8.52354,-6.35382 0.0213,-4.786703 1.59585,-5.940082 8.09308,-5.916648 z m -3.04959,5.679081 v 1.777692 h 5.84302 v -1.777688 z m -39.65968,10.971502 c 0.47477,0.0041 0.97749,0.01902 1.50945,0.04427 5.6104,0.269895 6.92684,1.575818 6.72134,6.66774 -0.1356,3.392607 -0.61416,4.299504 -2.73244,5.19311 -1.77594,0.749098 -9.1072,0.560617 -10.78461,-0.277308 -1.91956,-0.958886 -2.27547,-1.854864 -2.26236,-5.68313 0.0212,-3.20979 0.0212,-3.213788 1.05481,-4.248711 1.20478,-1.19629 3.17032,-1.720744 6.49381,-1.695961 z m -20.82351,0.05654 c 6.74276,0.02433 7.91047,0.95996 7.89138,6.319968 -0.0212,3.371361 -0.61816,4.567242 -2.76464,5.45504 -0.69803,0.288698 -2.40426,0.422766 -5.23985,0.412348 -6.68554,-0.02464 -7.84119,-0.926108 -7.82212,-6.091858 0.0212,-5.211963 1.20289,-6.119913 7.93523,-6.095498 z m 40.781,0.01902 c 0.72113,-0.01268 1.52001,0.0041 2.40447,0.04212 5.735,0.249447 6.93151,1.251019 7.07368,5.921586 0.1059,3.499797 -0.40696,4.690852 -2.49454,5.790616 -1.61728,0.851993 -9.06377,0.811762 -10.96341,-0.05909 -2.06978,-0.948888 -2.33161,-1.566228 -2.31743,-5.463609 0.0212,-4.684175 1.25012,-6.145494 6.29723,-6.231458 z m 22.69076,0.209512 c 4.87717,0.01697 5.85337,0.312611 7.24014,2.186001 0.64085,0.866246 0.6648,1.268472 0.70313,12.192346 0.0445,12.779419 0.0298,12.865092 -2.37694,14.117264 -1.50942,0.784772 -8.72414,1.032172 -10.49926,0.359995 -3.21436,-1.217367 -3.28471,-1.55637 -3.11864,-15.328189 0.12076,-10.11063 0.15254,-10.536034 0.79571,-11.393824 1.40033,-1.86333 2.37864,-2.151158 7.25586,-2.133593 z m -0.61245,9.982409 v 4.61002 h -4.61006 v 1.406906 h 4.61006 v 4.60998 h 1.39036 v -4.60998 h 4.60984 V 54.24312 h -4.60984 V 49.6331 Z m -62.92074,6.738197 c 6.53787,0.02377 7.90792,1.098503 7.88947,6.188099 -0.0213,3.262276 -0.52876,4.484105 -2.29793,5.429734 -1.62868,0.87053 -9.10592,0.94654 -10.88186,0.110584 -2.28053,-1.073321 -2.6589,-1.874365 -2.64556,-5.59777 0.0213,-5.179295 1.28086,-6.154777 7.93588,-6.130729 z m 21.21014,0.07693 c 6.51308,0.02352 7.90918,1.105335 7.89076,6.12441 0,3.261349 -0.41184,4.257416 -2.14712,5.327689 -1.69667,1.046432 -9.00908,1.229572 -11.03437,0.2764 -2.28056,-1.073329 -2.65893,-1.874348 -2.64578,-5.597754 0.0213,-5.179295 1.28125,-6.154768 7.93651,-6.130745 z m 21.39743,0.06542 c 6.16608,0.01905 7.72148,1.26056 7.70388,6.151058 0,2.987491 -0.56203,4.334106 -2.18904,5.337635 -1.65602,1.021514 -8.99979,1.189268 -10.99285,0.251101 -2.28542,-1.075597 -2.65915,-1.871342 -2.64578,-5.62985 0.0212,-5.239672 1.20543,-6.131615 8.12379,-6.109944 z" />
    </g>
  </g>
  <g
     inkscape:groupmode="layer"
     id="layer5"
     inkscape:label="Capa 5" />
  <g
     inkscape:groupmode="layer"
     id="layer4"
     inkscape:label="Capa 4" />
  <g
     inkscape:groupmode="layer"
     id="layer2"
     inkscape:label="Capa 2" />
  <g
     inkscape:groupmode="layer"
     id="layer3"
     inkscape:label="Capa 3" />
</svg>
